<svg width="30" height="30" viewBox="0 0 30 30" fill="none" xmlns="http://www.w3.org/2000/svg">
<g clip-path="url(#clip0_12105_34255)">
<path d="M15 30C23.2843 30 30 23.2843 30 15C30 6.71573 23.2843 0 15 0C6.71573 0 0 6.71573 0 15C0 23.2843 6.71573 30 15 30Z" fill="#F0F0F0"/>
<path d="M3.10357 5.87109C1.92531 7.40408 1.03686 9.17098 0.519531 11.0904H8.32293L3.10357 5.87109Z" fill="#0052B4"/>
<path d="M29.483 11.0904C28.9656 9.17098 28.0771 7.40408 26.8989 5.87109L21.6797 11.0904H29.483Z" fill="#0052B4"/>
<path d="M0.519531 18.9141C1.03691 20.8335 1.92537 22.6004 3.10357 24.1333L8.32275 18.9141H0.519531Z" fill="#0052B4"/>
<path d="M24.1334 3.09973C22.6004 1.92147 20.8335 1.03301 18.9141 0.515625V8.31897L24.1334 3.09973Z" fill="#0052B4"/>
<path d="M5.86719 26.8989C7.40018 28.0771 9.16707 28.9656 11.0865 29.483V21.6797L5.86719 26.8989Z" fill="#0052B4"/>
<path d="M11.0942 0.515625C9.17482 1.03301 7.40793 1.92146 5.875 3.09967L11.0942 8.31891V0.515625Z" fill="#0052B4"/>
<path d="M18.918 29.483C20.8374 28.9656 22.6043 28.0771 24.1372 26.8989L18.918 21.6797V29.483Z" fill="#0052B4"/>
<path d="M21.6797 18.9141L26.8989 24.1334C28.0771 22.6004 28.9656 20.8335 29.483 18.9141H21.6797Z" fill="#0052B4"/>
<path d="M29.873 13.0435H16.9566H16.9566V0.126973C16.3161 0.0435938 15.6631 0 15 0C14.3368 0 13.6839 0.0435938 13.0435 0.126973V13.0434V13.0434H0.126973C0.0435938 13.6839 0 14.3369 0 15C0 15.6632 0.0435938 16.3161 0.126973 16.9565H13.0434H13.0434V29.873C13.6839 29.9564 14.3368 30 15 30C15.6631 30 16.3161 29.9565 16.9565 29.873V16.9566V16.9566H29.873C29.9564 16.3161 30 15.6632 30 15C30 14.3369 29.9564 13.6839 29.873 13.0435Z" fill="#D80027"/>
<path d="M18.9141 18.9141L25.6076 25.6076C25.9154 25.2999 26.2091 24.9782 26.4893 24.6446L20.7587 18.9141H18.9141V18.9141Z" fill="#D80027"/>
<path d="M11.0881 18.9141H11.088L4.39453 25.6075C4.70227 25.9154 5.024 26.209 5.35752 26.4892L11.0881 20.7585V18.9141Z" fill="#D80027"/>
<path d="M11.087 11.0882V11.0881L4.39344 4.39453C4.08559 4.70227 3.79191 5.024 3.51172 5.35752L9.24236 11.0882L11.087 11.0882Z" fill="#D80027"/>
<path d="M18.9141 11.087L25.6076 4.39338C25.2999 4.08553 24.9782 3.79186 24.6446 3.51172L18.9141 9.24236V11.087Z" fill="#D80027"/>
</g>
<defs>
<clipPath id="clip0_12105_34255">
<rect width="30" height="30" fill="white"/>
</clipPath>
</defs>
</svg>
