<svg width="69" height="68" viewBox="0 0 69 68" fill="none" xmlns="http://www.w3.org/2000/svg">
<path d="M36.4615 55.4654H1C1 55.4654 1 47.7564 11.3521 45.774C21.7042 43.7917 20.8232 41.8094 20.8232 40.0473V37.8448C18.6409 35.7547 17.1108 33.077 16.4181 30.1357C13.6648 30.1357 12.0129 26.8319 12.0129 23.528C12.0129 22.647 12.0129 19.1228 14.2155 19.1228C12.4534 12.0746 13.775 4.80608 18.6206 4.80608C30.074 -2.90294 46.1529 3.15415 40.6464 19.1228C42.849 19.1228 42.849 22.647 42.849 23.528C42.849 26.8319 41.1971 30.1357 38.4438 30.1357C37.7571 33.0794 36.2261 35.7586 34.0387 37.8448V40.0473C34.0545 40.8928 34.326 41.7136 34.8175 42.4016C35.3089 43.0897 35.9973 43.6127 36.7919 43.9019L38.0033 44.5626" stroke="#0A1856" stroke-width="2" stroke-miterlimit="10" stroke-linecap="round" stroke-linejoin="round"/>
<path d="M51.6591 55.4653C54.092 55.4653 56.0642 53.4931 56.0642 51.0602C56.0642 48.6273 54.092 46.655 51.6591 46.655C49.2262 46.655 47.2539 48.6273 47.2539 51.0602C47.2539 53.4931 49.2262 55.4653 51.6591 55.4653Z" stroke="#0A1856" stroke-width="2" stroke-miterlimit="10" stroke-linecap="round" stroke-linejoin="round"/>
<path d="M67.0783 55.2452L63.6643 53.2628C63.7972 52.5729 63.8709 51.8729 63.8845 51.1704C63.8834 50.3943 63.8097 49.62 63.6643 48.8577L66.7479 46.9855L62.6731 39.8271L59.4794 41.6993C58.4963 40.7491 57.3364 40.0008 56.0654 39.4967V35.6422H47.2551V39.4967C45.9488 39.9957 44.7519 40.7437 43.731 41.6993L40.6473 39.8271L36.5726 46.9855L39.6562 48.7476C39.3732 50.2394 39.3732 51.771 39.6562 53.2628L36.2422 55.2452L40.317 62.4035L43.6208 60.4212C44.6645 61.4285 45.9006 62.2151 47.2551 62.7339V66.4783H56.0654V62.7339C57.3834 62.2074 58.582 61.4209 59.5895 60.4212L63.0035 62.4035L67.0783 55.2452Z" stroke="#0A1856" stroke-width="2" stroke-miterlimit="10" stroke-linecap="round" stroke-linejoin="round"/>
</svg>
