<svg width="38" height="39" viewBox="0 0 38 39" fill="none" xmlns="http://www.w3.org/2000/svg">
<path d="M19 38.3955C29.4939 38.3955 38 29.8894 38 19.3955C38 8.90157 29.4939 0.395508 19 0.395508C8.50606 0.395508 0 8.90157 0 19.3955C0 29.8894 8.50606 38.3955 19 38.3955Z" fill="black"/>
<path d="M12.1719 27.6083L14.9067 22.8749L17.6391 18.1581L20.3561 13.4248L20.8074 12.6743L21.0057 13.4248L21.8393 16.5408L20.9059 18.1581L18.1735 22.8749L15.4565 27.6083H18.7221L21.4558 22.8749L22.8724 20.4251L23.5398 22.8749L24.8057 27.6083H27.7388L26.4729 22.8749L25.2059 18.1581L24.8734 16.9409L26.9064 13.4248H23.94L23.8391 13.0744L22.8059 9.20795L22.6729 8.70801H19.8229L19.7564 8.80776L17.0893 13.4248L14.3557 18.1581L11.6399 22.8749L8.90625 27.6083H12.1719Z" fill="white"/>
</svg>
