<svg width="39" height="35" viewBox="0 0 39 35" fill="none" xmlns="http://www.w3.org/2000/svg">
<path d="M35.945 15.335C36.3656 18.6925 35.7266 22.0975 34.1174 25.0742C32.5083 28.0508 30.0093 30.4504 26.9698 31.9375C23.9304 33.4246 20.5022 33.9249 17.1645 33.3685C13.8268 32.8121 10.7463 31.2269 8.35352 28.8343" stroke="#0A1856" stroke-width="1.27059" stroke-miterlimit="10" stroke-linecap="round" stroke-linejoin="round"/>
<path d="M38.0009 18.0589L36.0794 15.2354L33.7656 17.4862" stroke="#0A1856" stroke-width="1.27059" stroke-miterlimit="10" stroke-linecap="round" stroke-linejoin="round"/>
<path d="M3.45851 19.2029C3.19877 16.9297 3.42225 14.6274 4.1143 12.4466C4.80636 10.2658 5.95137 8.25588 7.47432 6.54845C8.99728 4.84103 10.8638 3.47465 12.9516 2.53884C15.0394 1.60303 17.3014 1.1189 19.5893 1.11818C21.7214 1.11535 23.833 1.53369 25.8029 2.34917C27.7728 3.16466 29.5622 4.36123 31.0684 5.87018" stroke="#0A1856" stroke-width="1.27059" stroke-miterlimit="10" stroke-linecap="round" stroke-linejoin="round"/>
<path d="M1.29492 17.3535L3.47676 19.4712L6.2361 17.7938" stroke="#0A1856" stroke-width="1.27059" stroke-miterlimit="10" stroke-linecap="round" stroke-linejoin="round"/>
<g clip-path="url(#clip0_6040_44744)">
<path d="M20.3539 20.4411C22.0594 20.4411 23.4421 19.0585 23.4421 17.3529C23.4421 15.6473 22.0594 14.2646 20.3539 14.2646C18.6483 14.2646 17.2656 15.6473 17.2656 17.3529C17.2656 19.0585 18.6483 20.4411 20.3539 20.4411Z" stroke="#0181A8" stroke-width="1.27059" stroke-miterlimit="10" stroke-linecap="round" stroke-linejoin="round"/>
<path d="M29.3085 15.8095H27.2854C27.1069 15.0053 26.7891 14.2385 26.3462 13.5439L27.7773 12.1128C27.8352 12.0549 27.8678 11.9764 27.8678 11.8945C27.8678 11.8126 27.8352 11.7341 27.7773 11.6762L26.0303 9.92884C25.9724 9.87094 25.8939 9.83842 25.812 9.83842C25.7301 9.83842 25.6516 9.87094 25.5936 9.92884L24.1626 11.3599C23.4678 10.9172 22.701 10.5994 21.8967 10.4211V8.39769C21.8967 8.31579 21.8642 8.23724 21.8063 8.17932C21.7483 8.1214 21.6698 8.08887 21.5879 8.08887H19.1173C19.0354 8.08887 18.9568 8.1214 18.8989 8.17932C18.841 8.23724 18.8085 8.31579 18.8085 8.39769V10.4211C18.0043 10.5996 17.2375 10.9174 16.5429 11.3602L15.1116 9.92884C15.0536 9.87094 14.9751 9.83842 14.8932 9.83842C14.8113 9.83842 14.7328 9.87094 14.6749 9.92884L12.9279 11.6759C12.87 11.7338 12.8374 11.8123 12.8374 11.8942C12.8374 11.9761 12.87 12.0546 12.9279 12.1125L14.3589 13.5436C13.9162 14.2383 13.5984 15.0052 13.4201 15.8095H11.3967C11.3148 15.8095 11.2363 15.842 11.1783 15.8999C11.1204 15.9578 11.0879 16.0364 11.0879 16.1183V18.5889C11.0879 18.6708 11.1204 18.7493 11.1783 18.8072C11.2363 18.8652 11.3148 18.8977 11.3967 18.8977H13.4201C13.5986 19.7019 13.9164 20.4686 14.3593 21.1632L12.9279 22.5946C12.87 22.6525 12.8374 22.7311 12.8374 22.813C12.8374 22.8948 12.87 22.9734 12.9279 23.0313L14.6749 24.7783C14.7328 24.8362 14.8113 24.8687 14.8932 24.8687C14.9751 24.8687 15.0536 24.8362 15.1116 24.7783L16.5426 23.3472C17.2373 23.7901 18.0042 24.1079 18.8085 24.2864V26.3095C18.8085 26.3914 18.841 26.4699 18.8989 26.5278C18.9568 26.5857 19.0354 26.6183 19.1173 26.6183H21.5879C21.6698 26.6183 21.7483 26.5857 21.8063 26.5278C21.8642 26.4699 21.8967 26.3914 21.8967 26.3095V24.2864C22.7009 24.1079 23.4676 23.79 24.1622 23.3472L25.5933 24.7783C25.6512 24.8362 25.7298 24.8687 25.8117 24.8687C25.8936 24.8687 25.9721 24.8362 26.03 24.7783L27.777 23.0313C27.8349 22.9734 27.8674 22.8948 27.8674 22.813C27.8674 22.7311 27.8349 22.6525 27.777 22.5946L26.3459 21.1635C26.7889 20.4689 27.1069 19.702 27.2854 18.8977H29.3085C29.3904 18.8977 29.4689 18.8652 29.5269 18.8072C29.5848 18.7493 29.6173 18.6708 29.6173 18.5889V16.1183C29.6173 16.0364 29.5848 15.9578 29.5269 15.8999C29.4689 15.842 29.3904 15.8095 29.3085 15.8095Z" stroke="#0181A8" stroke-width="1.27059" stroke-miterlimit="10" stroke-linecap="round" stroke-linejoin="round"/>
</g>
<defs>
<clipPath id="clip0_6040_44744">
<rect width="19.7647" height="19.7647" fill="white" transform="translate(10.4707 7.4707)"/>
</clipPath>
</defs>
</svg>
