<svg width="28" height="29" viewBox="0 0 28 29" fill="none" xmlns="http://www.w3.org/2000/svg">
<path d="M14.1298 0.00119018C14.046 0.00673865 13.9902 0.0265855 13.9588 0.0489936L1.18645 8.61536C1.07508 8.68642 1.02438 8.83261 1.063 8.95959C1.10139 9.08656 1.2257 9.18302 1.35764 9.17939H3.48631V22.6408H1.35764C1.19833 22.6408 1.05345 22.7866 1.05345 22.9469V25.0884H0.749259C0.589952 25.0884 0.445068 25.2341 0.445068 25.3944V27.842C0.445068 28.0023 0.589952 28.148 0.749259 28.148H27.5103C27.6697 28.148 27.8145 28.0023 27.8145 27.842V25.3944C27.8145 25.2341 27.6697 25.0886 27.5103 25.0884H27.2062V22.9469C27.2062 22.7866 27.0613 22.641 26.902 22.6408H24.7733V9.17939H26.902C27.0337 9.18281 27.158 9.08635 27.1966 8.95959C27.235 8.83261 27.1843 8.68664 27.0731 8.61536L14.3008 0.0489936C14.2325 0.00119018 14.1848 0.00268383 14.1296 0.000976562L14.1298 0.00119018ZM14.1298 0.670437L25.904 8.56755H2.35499L14.1298 0.670437ZM14.1298 3.36666C13.1256 3.36666 12.305 4.1921 12.305 5.20242C12.305 6.21268 13.1255 7.03817 14.1298 7.03817C15.134 7.03817 15.9545 6.21273 15.9545 5.20242C15.9545 4.19215 15.134 3.36666 14.1298 3.36666ZM14.1298 3.97849C14.8052 3.97849 15.3461 4.52267 15.3461 5.20214C15.3461 5.88161 14.8051 6.4258 14.1298 6.4258C13.4544 6.4258 12.9135 5.88161 12.9135 5.20214C12.9135 4.52267 13.4544 3.97849 14.1298 3.97849ZM4.09435 9.17944H5.91908V22.6409H4.09435V9.17944ZM6.52723 9.17944H9.56826V22.6409H6.52723V9.17944ZM10.1764 9.17944H12.0011V22.6409H10.1764V9.17944ZM12.6093 9.17944H15.6503V22.6409H12.6093V9.17944ZM16.2585 9.17944H18.0832V22.6409H16.2585V9.17944ZM18.6914 9.17944H21.7324V22.6409H18.6914V9.17944ZM22.3405 9.17944H24.1653V22.6409H22.3405V9.17944ZM1.66152 23.2528H26.598V25.0885H1.66152V23.2528ZM1.05337 25.7003H27.2063V27.5361H1.05337V25.7003Z" fill="#0A1856"/>
</svg>
