<svg width="38" height="39" viewBox="0 0 38 39" fill="none" xmlns="http://www.w3.org/2000/svg">
<path d="M19 38.8037C29.4939 38.8037 38 30.2976 38 19.8037C38 9.30977 29.4939 0.803711 19 0.803711C8.50606 0.803711 0 9.30977 0 19.8037C0 30.2976 8.50606 38.8037 19 38.8037Z" fill="#8DC351"/>
<path d="M25.1833 13.3134C24.2618 10.9717 21.9509 10.7603 19.26 11.2828L18.3017 7.94238L16.2687 8.52544L17.2021 11.7792C16.6677 11.9312 16.1238 12.0998 15.5835 12.2661L14.6454 8.99095L12.6136 9.57282L13.5695 12.9133C13.1325 13.0486 12.7027 13.1816 12.2811 13.3028L12.2775 13.2909L9.47266 14.0948L10.0961 16.2679C10.0961 16.2679 11.59 15.8072 11.5722 15.8428C12.3963 15.6065 12.8012 16.0079 12.9972 16.3986L14.0897 20.2033C14.1455 20.1879 14.2203 20.1689 14.3082 20.1558L14.0932 20.2176L15.6215 25.5494C15.6595 25.819 15.6263 26.2762 15.0515 26.4424C15.0836 26.4579 13.5719 26.8652 13.5719 26.8652L13.8652 29.41L16.511 28.65C17.0038 28.5111 17.4907 28.3804 17.9668 28.2463L18.937 31.6247L20.9677 31.0428L20.0093 27.7C20.554 27.5555 21.0972 27.405 21.6386 27.2488L22.591 30.5773L24.6252 29.9943L23.6585 26.6218C27.0203 25.4449 29.1662 23.8976 28.5427 20.6011C28.0416 17.9483 26.4955 17.1431 24.4209 17.2334C25.4279 16.2953 25.8613 15.027 25.1833 13.3146V13.3134ZM24.4114 21.3528C25.1358 23.8786 20.7302 24.831 19.3527 25.2276L18.069 20.7508C19.4465 20.3553 23.655 18.7201 24.4102 21.354L24.4114 21.3528ZM21.654 15.3084C22.3119 17.6063 18.6295 18.3722 17.4812 18.7011L16.3174 14.6411C17.4645 14.3121 20.9665 12.9133 21.654 15.3096V15.3084Z" fill="white"/>
</svg>
