<svg width="38" height="39" viewBox="0 0 38 39" fill="none" xmlns="http://www.w3.org/2000/svg">
<path d="M19 38.2686C29.4939 38.2686 38 29.7625 38 19.2686C38 8.77462 29.4939 0.268555 19 0.268555C8.50606 0.268555 0 8.77462 0 19.2686C0 29.7625 8.50606 38.2686 19 38.2686Z" fill="#2A5ADA"/>
<path d="M19 7.39355L16.8637 8.64637L11.0438 12.0782L8.90625 13.3311V25.2061L11.0426 26.4589L16.9171 29.8907L19.0534 31.1436L21.1897 29.8907L26.9574 26.4589L29.0938 25.2061V13.3311L26.9574 12.0782L21.1363 8.64637L19 7.39355ZM13.1789 22.7004V15.8367L19 12.4048L24.8211 15.8367V22.7004L19 26.1323L13.1789 22.7004Z" fill="white"/>
</svg>
