<svg width="44" height="51" viewBox="0 0 44 51" fill="none" xmlns="http://www.w3.org/2000/svg">
<g clip-path="url(#clip0_7244_45813)">
<path d="M37.4386 15.0219L38.7131 13.5009V13.5013C38.9999 13.7391 39.3602 13.8711 39.7327 13.8749H39.8772C40.2975 13.8404 40.6863 13.6382 40.9564 13.3143L41.9843 12.0906C42.2555 11.7662 42.3868 11.3475 42.3496 10.9265C42.3151 10.5062 42.1133 10.1174 41.789 9.84774L38.1271 6.79731C37.8043 6.52306 37.3844 6.39106 36.963 6.43203C36.5435 6.47034 36.1562 6.67176 35.8839 6.99265L34.8559 8.21636C34.5934 8.53195 34.4626 8.93668 34.4903 9.34636C34.5252 9.76664 34.727 10.1554 35.0513 10.4255L33.853 11.8953C31.3571 10.1369 28.5111 8.93707 25.5096 8.37755V6.37254H26.2997C26.7234 6.37254 27.1297 6.20413 27.4293 5.90485C27.7286 5.6052 27.897 5.19895 27.897 4.77524V1.59731C27.897 1.17361 27.7286 0.767366 27.4293 0.467693C27.1297 0.168418 26.7234 0 26.2997 0H16.7493C16.3256 0 15.9194 0.168418 15.6197 0.467693C15.3204 0.767347 15.152 1.17359 15.152 1.59731V4.77524C15.152 5.19893 15.3204 5.60518 15.6197 5.90485C15.9194 6.20413 16.3256 6.37254 16.7493 6.37254H17.5394V8.34386C12.8599 9.22348 8.60429 11.6306 5.43927 15.1885C2.27426 18.7461 0.37966 23.2535 0.051156 28.0034C-0.276949 32.7539 0.980093 37.4786 3.62508 41.4378C6.27039 45.397 10.1546 48.367 14.6687 49.882C19.1825 51.3971 24.0719 51.3716 28.5702 49.8096C33.0684 48.248 36.9211 45.2377 39.5255 41.2511C42.1294 37.2645 43.3372 32.5269 42.9594 27.7798C42.582 23.0331 40.6402 18.5458 37.4385 15.0213L37.4386 15.0219ZM37.0988 7.98681L40.7611 11.0456L39.7415 12.2606L39.1296 11.7508L36.6911 9.70323L36.0792 9.19343L37.0988 7.98681ZM37.4982 12.4729L36.4703 13.6966L35.2465 12.6687L36.2745 11.4537L37.3536 12.3542L37.4982 12.4729ZM16.749 1.59726H26.2994V4.77519H16.749V1.59726ZM19.1364 7.96972L19.1367 6.37245H23.9119V7.96972H19.1364ZM21.5242 49.3827C17.5846 49.3827 13.7338 48.2145 10.4582 46.0255C7.18284 43.8368 4.62997 40.7257 3.12301 37.0861C1.61595 33.4467 1.2219 29.4414 1.99116 25.5783C2.76041 21.7146 4.65813 18.1658 7.44415 15.3804C10.2302 12.5951 13.7798 10.6993 17.644 9.932C21.508 9.16428 25.5128 9.5599 29.1518 11.0688C32.7906 12.5773 35.9005 15.1316 38.088 18.4077C40.2751 21.6838 41.4419 25.5354 41.4403 29.4747C41.4335 34.7536 39.3329 39.8144 35.5989 43.5471C31.8654 47.2792 26.8034 49.3779 21.5237 49.3824L21.5242 49.3827Z" fill="#0A1856"/>
<path d="M37.2687 38.5154C38.855 35.7665 39.6899 32.6486 39.6899 29.4752C39.6899 26.3014 38.855 23.1835 37.2687 20.4346C37.274 20.4209 37.274 20.4058 37.2687 20.3921C35.6824 17.663 33.413 15.3935 30.6839 13.8073C27.9335 12.2263 24.8163 11.394 21.6437 11.394C18.4707 11.394 15.3535 12.2263 12.6031 13.8073H12.5606C9.77525 15.3723 7.45164 17.6437 5.82281 20.3921C5.8175 20.4058 5.8175 20.4209 5.82281 20.4346C4.23652 23.1835 3.40162 26.3014 3.40162 29.4752C3.40162 32.6486 4.23649 35.7665 5.82281 38.5154C5.8194 38.5294 5.8194 38.5438 5.82281 38.5579V38.6091C7.41134 41.3292 9.67698 43.5917 12.399 45.1769H12.4586C15.2033 46.7575 18.3148 47.5894 21.4821 47.5894C24.6493 47.5894 27.7608 46.7576 30.5056 45.1769H30.5651C30.5822 45.1769 30.5651 45.1769 30.5651 45.1769C33.2871 43.5918 35.5527 41.3292 37.1413 38.6091L37.1838 38.5583V38.5579C37.2179 38.5602 37.2502 38.5442 37.2688 38.5154L37.2687 38.5154ZM30.4714 43.3927L29.885 42.3814H29.8854C29.7902 42.1789 29.6142 42.0256 29.4006 41.9589C29.1871 41.8921 28.9549 41.9179 28.7615 42.0302C28.568 42.1428 28.4303 42.331 28.3822 42.5498C28.3344 42.7683 28.3803 42.997 28.5088 43.1802L29.1036 44.1827C26.9954 45.2722 24.6766 45.8923 22.3063 46.0012V44.8371C22.3063 44.396 21.9486 44.0383 21.5075 44.0383C21.0663 44.0383 20.709 44.396 20.709 44.8371V46.0096C18.3383 45.9007 16.0196 45.2805 13.9117 44.1911L14.4981 43.1799L14.4978 43.1802C14.6264 42.997 14.6723 42.7683 14.6245 42.5498C14.5763 42.331 14.4386 42.1428 14.2452 42.0302C14.0517 41.9179 13.8196 41.8921 13.606 41.9588C13.3925 42.0256 13.2165 42.1788 13.1212 42.3814L12.5348 43.3926H12.5352C10.5446 42.1102 8.8502 40.4188 7.56463 38.4304L8.58423 37.844V37.8444C8.92333 37.6062 9.02385 37.1483 8.81599 36.7899C8.60812 36.4315 8.16053 36.2915 7.78542 36.4679L6.76582 37.0543V37.0539C5.68331 34.9439 5.06611 32.6258 4.95609 30.2566H6.12853C6.53553 30.2145 6.84505 29.8716 6.84505 29.4624C6.84505 29.0531 6.53553 28.7102 6.12853 28.6681H4.99018C5.09866 26.2985 5.71618 23.9806 6.79991 21.8708L7.8195 22.4572V22.4568C7.94202 22.5232 8.07933 22.5581 8.21892 22.5589C8.57775 22.5562 8.89107 22.3142 8.98437 21.9675C9.07731 21.6204 8.92748 21.254 8.61796 21.0719L7.59837 20.4855C8.88422 18.4975 10.5786 16.8058 12.5689 15.5237L13.1554 16.5349V16.5346C13.2802 16.8206 13.5658 17.0022 13.8776 16.9935C14.0172 16.9928 14.1541 16.9579 14.277 16.8915C14.4606 16.7868 14.5945 16.6127 14.6487 16.4082C14.703 16.2038 14.6734 15.9861 14.5656 15.804L13.9792 14.7844H13.9796C16.0882 13.6977 18.407 13.0805 20.7769 12.9747V14.1047C20.7769 14.5458 21.1346 14.9035 21.5754 14.9035C22.0165 14.9035 22.3742 14.5458 22.3742 14.1047V12.9406C24.7441 13.0464 27.0629 13.6639 29.1715 14.7503L28.5851 15.7699C28.4777 15.9524 28.4478 16.1697 28.5024 16.3742C28.5566 16.5786 28.6905 16.7527 28.8741 16.8578C28.9636 16.9219 29.0645 16.9678 29.1715 16.9936C29.4575 16.9996 29.723 16.8456 29.8596 16.5942L30.446 15.5829V15.5833C32.4362 16.8654 34.131 18.5571 35.4165 20.5451L34.397 21.1315C34.0874 21.3136 33.9376 21.68 34.0309 22.0267C34.1239 22.3738 34.4372 22.6158 34.7964 22.6185C34.9356 22.6177 35.0729 22.5828 35.1958 22.5164L36.2154 21.93C37.2991 24.0398 37.9163 26.3582 38.0251 28.7273H36.8864C36.4794 28.7698 36.1699 29.1127 36.1699 29.522C36.1699 29.9312 36.4794 30.2741 36.8864 30.3162H38.0588C37.9488 32.6854 37.3317 35.0035 36.2491 37.1135L35.2295 36.5271V36.5275C35.0463 36.3985 34.8176 36.3526 34.5991 36.4008C34.3806 36.449 34.1921 36.5867 34.0798 36.7801C33.9675 36.9736 33.9413 37.2057 34.0081 37.4193C34.0749 37.6328 34.2285 37.8084 34.431 37.9036L35.4506 38.4901C34.1583 40.4568 32.4643 42.1277 30.4801 43.3927L30.4714 43.3927Z" fill="#0A1856"/>
</g>
<defs>
<clipPath id="clip0_7244_45813">
<rect width="43.0272" height="51" fill="white"/>
</clipPath>
</defs>
</svg>
