<svg width="20" height="20" viewBox="0 0 20 20" fill="none" xmlns="http://www.w3.org/2000/svg">
<path d="M19.7584 3.86306L16.4251 0.264545C16.2136 0.0364251 15.9055 -0.0527356 15.6168 0.0308013C15.3279 0.114338 15.1025 0.357721 15.0251 0.669588C14.9477 0.981245 15.0303 1.31377 15.2416 1.54212L17.1499 3.60222H0.833318C0.535514 3.60222 0.260415 3.77371 0.111607 4.05203C-0.0372022 4.33036 -0.0372022 4.67334 0.111607 4.95166C0.260415 5.22998 0.535524 5.40148 0.833318 5.40148H17.1499L15.2416 7.46157C15.0856 7.63146 14.998 7.86098 14.998 8.10036C14.998 8.33974 15.0856 8.56925 15.2416 8.73915C15.3996 8.90642 15.612 9 15.8333 9C16.0547 9 16.2671 8.90642 16.4251 8.73915L19.7584 5.14064C19.9133 4.97015 20 4.74083 20 4.50185C20 4.26287 19.9133 4.03356 19.7584 3.86306L19.7584 3.86306Z" fill="#0A1856"/>
<path d="M0.241623 16.5662L3.57494 19.7648C3.78644 19.9676 4.09446 20.0469 4.38317 19.9726C4.67205 19.8984 4.89751 19.682 4.97489 19.4048C5.05227 19.1278 4.96968 18.8322 4.75837 18.6292L2.85009 16.798H19.1667C19.4645 16.798 19.7396 16.6456 19.8884 16.3982C20.0372 16.1508 20.0372 15.8459 19.8884 15.5985C19.7396 15.3511 19.4645 15.1987 19.1667 15.1987H2.85009L4.75837 13.3675C4.91443 13.2165 5.00204 13.0125 5.00204 12.7997C5.00204 12.5869 4.91443 12.3829 4.75837 12.2319C4.60045 12.0832 4.38802 12 4.16666 12C3.94529 12 3.73288 12.0832 3.57495 12.2319L0.241628 15.4305C0.0866807 15.5821 0 15.7859 0 15.9984C0 16.2108 0.0866807 16.4146 0.241628 16.5662L0.241623 16.5662Z" fill="#0A1856"/>
</svg>
