<svg width="23" height="26" viewBox="0 0 23 26" fill="none" xmlns="http://www.w3.org/2000/svg">
<path d="M22.4097 8.63623L14.9097 1.13623C14.7925 1.01897 14.6336 0.953125 14.4678 0.953125H8.84277C6.77261 0.955414 5.09506 2.63297 5.09277 4.70312V5.95312H3.84277C1.77261 5.95541 0.0950623 7.63297 0.0927734 9.70312V22.2031C0.0950623 24.2733 1.77261 25.9508 3.84277 25.9531H13.8428C15.9129 25.9508 17.5905 24.2733 17.5928 22.2031V20.9531H18.8428C20.9129 20.9508 22.5905 19.2733 22.5928 17.2031V9.07812C22.5928 8.91234 22.5269 8.75342 22.4097 8.63623ZM15.0928 3.08684L20.4591 8.45312H16.759C15.8391 8.45236 15.0935 7.70682 15.0928 6.78687V3.08684ZM16.3428 22.2031C16.341 23.5831 15.2228 24.7014 13.8428 24.7031H3.84277C2.46277 24.7014 1.34453 23.5831 1.34277 22.2031V9.70312C1.34453 8.32312 2.46277 7.20488 3.84277 7.20312H5.09277V17.2031C5.09506 19.2733 6.77261 20.9508 8.84277 20.9531H16.3428V22.2031ZM21.3428 17.2031C21.341 18.5831 20.2228 19.7014 18.8428 19.7031H8.84277C7.46277 19.7014 6.34453 18.5831 6.34277 17.2031V4.70312C6.34453 3.32312 7.46277 2.20488 8.84277 2.20312H13.8428V6.78687C13.8448 8.39659 15.1493 9.70107 16.759 9.70312H21.3428V17.2031Z" fill="#0181A8"/>
</svg>
