<svg width="46" height="41" viewBox="0 0 46 41" fill="none" xmlns="http://www.w3.org/2000/svg">
<path d="M15.4443 9.73889V6.77778C15.4443 5.24542 16.0531 3.77582 17.1366 2.69227C18.2202 1.60873 19.6898 1 21.2221 1H24.111C25.6434 1 27.113 1.60873 28.1965 2.69227C29.2801 3.77582 29.8888 5.24542 29.8888 6.77778V9.59444" stroke="#0A1856" stroke-width="1.7" stroke-miterlimit="10" stroke-linecap="round" stroke-linejoin="round"/>
<path d="M25.5556 28.4445H44.3333V12.5556C44.3333 11.7895 44.029 11.0547 43.4872 10.5129C42.9454 9.97111 42.2106 9.66675 41.4444 9.66675H3.88889C3.12271 9.66675 2.38791 9.97111 1.84614 10.5129C1.30436 11.0547 1 11.7895 1 12.5556V28.4445H19.7778M42.8889 28.4445V40.0001H2.44444V28.4445" stroke="#0A1856" stroke-width="1.7" stroke-miterlimit="10" stroke-linecap="round" stroke-linejoin="round"/>
<path d="M19.7778 25.5557H25.5556V31.3334H19.7778V25.5557Z" stroke="#0A1856" stroke-width="1.7" stroke-miterlimit="10" stroke-linecap="round" stroke-linejoin="round"/>
</svg>
