<svg width="65" height="59" viewBox="0 0 65 59" fill="none" xmlns="http://www.w3.org/2000/svg">
<path d="M29.2372 31.8757C34.2118 31.8757 38.2584 27.8283 38.2584 22.8545C38.2584 17.8806 34.211 13.8332 29.2372 13.8332C24.2633 13.8332 20.2159 17.8799 20.2159 22.8545C20.2159 27.8291 24.2626 31.8757 29.2372 31.8757ZM29.2372 15.9296C33.0554 15.9296 36.162 19.0363 36.162 22.8537C36.162 26.6719 33.0554 29.7786 29.2372 29.7786C25.419 29.7786 22.313 26.6719 22.313 22.8537C22.313 19.0363 25.419 15.9296 29.2372 15.9296ZM58.1905 34.876C58.4983 33.1609 58.663 31.4136 58.663 29.6655C58.663 13.4917 45.5053 0.333984 29.3315 0.333984C13.1577 0.333984 0 13.4917 0 29.6655C0 37.7535 3.29093 45.0873 8.60331 50.399L8.59731 50.4214L9.04294 50.8484C12.3608 54.0269 16.3109 56.3352 20.5942 57.6684C20.6069 57.6721 20.6189 57.6766 20.6316 57.6804C21.0503 57.8099 21.4719 57.9298 21.8973 58.0406C21.9513 58.0548 22.0044 58.0698 22.0584 58.0841C22.4433 58.1822 22.8306 58.2705 23.22 58.3529C23.3129 58.3724 23.4058 58.3949 23.4986 58.4136C23.8551 58.4855 24.2131 58.5477 24.5726 58.6061C24.6977 58.6263 24.8213 58.6503 24.9471 58.669C25.2856 58.7199 25.6257 58.7604 25.9672 58.7993C26.1125 58.8158 26.2563 58.8368 26.4023 58.8517C26.7454 58.8854 27.0906 58.9087 27.4359 58.9304C27.579 58.9394 27.7205 58.9536 27.8636 58.9611C28.3511 58.9851 28.8402 58.9985 29.3308 58.9985C34.4671 58.9985 39.4912 57.6572 43.9168 55.1159C46.1577 57.2265 49.173 58.5237 52.4871 58.5237C59.3873 58.5237 65 52.9102 65 46.0101C65.0007 41.162 62.2296 36.9536 58.1905 34.876ZM2.09634 29.6655C2.09634 14.6481 14.3141 2.43032 29.3308 2.43032C44.3474 2.43032 56.566 14.6481 56.566 29.6655C56.566 31.138 56.4431 32.6112 56.208 34.0604C55.0321 33.6934 53.7828 33.4957 52.4879 33.4957C48.3469 33.4957 44.671 35.5194 42.3919 38.6276C38.6583 35.6647 34.0335 34.0417 29.2372 34.0417C20.2302 34.0417 12.2725 39.7323 9.29235 48.0854C4.82855 43.2329 2.09634 36.7634 2.09634 29.6655ZM29.3315 56.9007C28.8807 56.9007 28.432 56.8887 27.9864 56.8662C27.8508 56.8595 27.716 56.8468 27.5805 56.8378C27.2681 56.8176 26.9551 56.7966 26.6458 56.7666C26.502 56.7524 26.3589 56.7329 26.2159 56.7164C25.9118 56.682 25.6084 56.6453 25.3081 56.6011C25.1778 56.5816 25.0482 56.5584 24.9179 56.5375C24.6003 56.4858 24.2843 56.4304 23.9705 56.3682C23.8649 56.3472 23.7593 56.324 23.6544 56.3015C23.3114 56.2281 22.9699 56.151 22.6313 56.0649C22.5594 56.0469 22.4875 56.0274 22.4156 56.0087C22.0374 55.9091 21.6614 55.8035 21.2892 55.6881C21.2592 55.6784 21.2285 55.6694 21.1986 55.6597C17.3474 54.4516 13.8625 52.4092 10.9543 49.7459C13.3547 41.7028 20.7836 36.1388 29.2372 36.1388C33.6455 36.1388 37.8936 37.6577 41.2917 40.4303C40.4506 42.111 39.9743 44.0051 39.9743 46.0093C39.9743 48.8232 40.9082 51.4228 42.4825 53.5154C38.4703 55.7316 33.9504 56.9007 29.3315 56.9007ZM52.4879 56.4259C46.7441 56.4259 42.0713 51.7531 42.0713 46.0093C42.0713 40.2655 46.7441 35.5928 52.4879 35.5928C58.2316 35.5928 62.9044 40.2655 62.9044 46.0093C62.9044 51.7531 58.2309 56.4259 52.4879 56.4259ZM57.9665 46.0086C57.9665 46.5875 57.4969 47.0571 56.918 47.0571H53.5357V50.4394C53.5357 51.0184 53.0661 51.488 52.4871 51.488C51.9082 51.488 51.4386 51.0184 51.4386 50.4394V47.0571H48.0563C47.4773 47.0571 47.0077 46.5875 47.0077 46.0086C47.0077 45.4296 47.4773 44.96 48.0563 44.96H51.4386V41.5777C51.4386 40.9988 51.9082 40.5292 52.4871 40.5292C53.0661 40.5292 53.5357 40.9988 53.5357 41.5777V44.96H56.918C57.4977 44.9608 57.9665 45.4296 57.9665 46.0086Z" fill="#0A1856"/>
</svg>
