<svg width="54" height="36" viewBox="0 0 54 36" fill="none" xmlns="http://www.w3.org/2000/svg">
<path d="M1.15137 10.1777V4.16211C1.15137 3.47835 1.42299 2.82259 1.90648 2.3391C2.38997 1.85561 3.04573 1.58398 3.72949 1.58398H50.1357C50.8195 1.58398 51.4753 1.85561 51.9588 2.3391C52.4422 2.82259 52.7139 3.47835 52.7139 4.16211V10.1777M1.15137 10.1777H52.7139M1.15137 10.1777V31.6621C1.15137 32.3459 1.42299 33.0016 1.90648 33.4851C2.38997 33.9686 3.04573 34.2402 3.72949 34.2402H50.1357C50.8195 34.2402 51.4753 33.9686 51.9588 33.4851C52.4422 33.0016 52.7139 32.3459 52.7139 31.6621V10.1777" stroke="#0A1856" stroke-width="1.6" stroke-miterlimit="10" stroke-linecap="round" stroke-linejoin="round"/>
<path d="M8.02637 17.0527H25.2139M40.6826 17.0527H45.8389M8.02637 23.9277H14.9014" stroke="#0181A8" stroke-width="1.6" stroke-miterlimit="10" stroke-linecap="round" stroke-linejoin="round"/>
</svg>
