<?xml version="1.0" encoding="utf-8"?>
<!-- Generator: Adobe Illustrator 19.0.0, SVG Export Plug-In . SVG Version: 6.00 Build 0)  -->
<svg version="1.1" id="Layer_1" xmlns="http://www.w3.org/2000/svg" xmlns:xlink="http://www.w3.org/1999/xlink" x="0px" y="0px"
	 viewBox="-461 269 35.4 23" style="enable-background:new -461 269 35.4 23;" xml:space="preserve">
<style type="text/css">
	.st0{fill:#F9F9F9;}
	.st1{fill:#383838;}
	.st2{fill:none;stroke:#303030;stroke-width:0.8;stroke-linecap:round;stroke-linejoin:round;stroke-miterlimit:10;}
</style>
<path class="st0" d="M-428.7,291.4H-458c-1.2,0-2.2-1-2.2-2.2v-17.4c0-1.2,1-2.2,2.2-2.2h29.3c1.2,0,2.2,1,2.2,2.2v17.4
	C-426.5,290.4-427.5,291.4-428.7,291.4z"/>
<rect x="-460.1" y="275.3" class="st1" width="33.7" height="3.4"/>
<path class="st2" d="M-428.7,291.4H-458c-1.2,0-2.2-1-2.2-2.2v-17.4c0-1.2,1-2.2,2.2-2.2h29.3c1.2,0,2.2,1,2.2,2.2v17.4
	C-426.5,290.4-427.5,291.4-428.7,291.4z"/>
<line class="st2" x1="-460.1" y1="275.3" x2="-426.7" y2="275.3"/>
<line class="st2" x1="-426.7" y1="278.7" x2="-460" y2="278.7"/>
<line class="st2" x1="-457" y1="284.7" x2="-448.7" y2="284.7"/>
<line class="st2" x1="-444.2" y1="287.6" x2="-440.7" y2="287.6"/>
<line class="st2" x1="-438" y1="287.6" x2="-434.5" y2="287.6"/>
<line class="st2" x1="-457" y1="287.6" x2="-453.5" y2="287.6"/>
<line class="st2" x1="-450.8" y1="287.6" x2="-447.3" y2="287.6"/>
</svg>
