<svg width="38" height="39" viewBox="0 0 38 39" fill="none" xmlns="http://www.w3.org/2000/svg">
<path d="M19 38.3955C29.4939 38.3955 38 29.8894 38 19.3955C38 8.90157 29.4939 0.395508 19 0.395508C8.50606 0.395508 0 8.90157 0 19.3955C0 29.8894 8.50606 38.3955 19 38.3955Z" fill="#F4B731"/>
<path fill-rule="evenodd" clip-rule="evenodd" d="M11.0164 9.89551H18.7969C23.5291 9.89551 27.1166 12.4083 28.4513 16.0634H30.875V18.2733H28.9619C28.9988 18.6224 29.0178 18.9787 29.0178 19.3397V19.3943C29.0178 19.8004 28.994 20.2018 28.9465 20.5937H30.875V22.8024H28.405C27.0358 26.4077 23.4769 28.8955 18.7981 28.8955H11.0164V22.8024H8.3125V20.5937H11.0164V18.2733H8.3125V16.0646H11.0164V9.89551ZM13.1907 22.8024V26.9136H18.7957C22.2561 26.9136 24.8259 25.2665 26.0217 22.8024H13.1907ZM26.6879 20.5937H13.1907V18.2733H26.6926C26.7413 18.6379 26.7674 19.0119 26.7674 19.3943V19.4478C26.7674 19.8384 26.7401 20.2196 26.6879 20.5925V20.5937ZM18.7981 11.8727C22.2727 11.8727 24.8508 13.5637 26.0395 16.0622H13.1907V11.8739H18.7957L18.7981 11.8727Z" fill="white"/>
</svg>
