<svg width="24" height="24" viewBox="0 0 24 24" fill="none" xmlns="http://www.w3.org/2000/svg">
<path d="M9.49502 3.90002H4.98002C4.34627 3.90002 3.83252 4.41378 3.83252 5.04752V9.56252C3.83252 10.1963 4.34627 10.71 4.98002 10.71H9.49502C10.1288 10.71 10.6425 10.1963 10.6425 9.56252V5.04752C10.6425 4.41378 10.1288 3.90002 9.49502 3.90002Z" stroke="white" stroke-width="1.5" stroke-linecap="round" stroke-linejoin="round"/>
<path d="M19.0199 3.90002H14.5049C13.8712 3.90002 13.3574 4.41378 13.3574 5.04752V9.56252C13.3574 10.1963 13.8712 10.71 14.5049 10.71H19.0199C19.6537 10.71 20.1674 10.1963 20.1674 9.56252V5.04752C20.1674 4.41378 19.6537 3.90002 19.0199 3.90002Z" stroke="white" stroke-width="1.5" stroke-linecap="round" stroke-linejoin="round"/>
<path d="M9.49502 13.29H4.98002C4.34627 13.29 3.83252 13.8038 3.83252 14.4375V18.9525C3.83252 19.5863 4.34627 20.1 4.98002 20.1H9.49502C10.1288 20.1 10.6425 19.5863 10.6425 18.9525V14.4375C10.6425 13.8038 10.1288 13.29 9.49502 13.29Z" stroke="white" stroke-width="1.5" stroke-linecap="round" stroke-linejoin="round"/>
<path d="M19.0199 13.29H14.5049C13.8712 13.29 13.3574 13.8038 13.3574 14.4375V18.9525C13.3574 19.5863 13.8712 20.1 14.5049 20.1H19.0199C19.6537 20.1 20.1674 19.5863 20.1674 18.9525V14.4375C20.1674 13.8038 19.6537 13.29 19.0199 13.29Z" stroke="white" stroke-width="1.5" stroke-linecap="round" stroke-linejoin="round"/>
</svg>
