<svg width="27" height="29" viewBox="0 0 27 29" fill="none" xmlns="http://www.w3.org/2000/svg">
<path d="M13.3742 7.42773V9.11428M13.3742 22.6067V24.2932M4.94141 15.8605H6.62796M20.1204 15.8605H21.8069" stroke="#0181A8" stroke-width="1.41176" stroke-miterlimit="10" stroke-linecap="round" stroke-linejoin="round"/>
<path d="M13.3741 17.2688C13.8925 17.2688 14.3128 16.8486 14.3128 16.3302C14.3128 15.8118 13.8925 15.3916 13.3741 15.3916C12.8558 15.3916 12.4355 15.8118 12.4355 16.3302C12.4355 16.8486 12.8558 17.2688 13.3741 17.2688Z" stroke="#0181A8" stroke-width="1.05882" stroke-miterlimit="10" stroke-linecap="round" stroke-linejoin="round"/>
<path d="M12.2575 15.537L9.19336 13.0301M19.2393 10.6689L14.457 15.4513" stroke="#0181A8" stroke-width="1.05882" stroke-miterlimit="10" stroke-linecap="round" stroke-linejoin="round"/>
<path d="M14.8533 3.22777C17.7251 3.49902 20.4081 4.7783 22.4267 6.83884C24.4454 8.89938 25.6693 11.6081 25.8815 14.4849C26.0936 17.3616 25.2804 20.2206 23.586 22.555C21.8915 24.8895 19.4253 26.5486 16.6244 27.2382C13.8234 27.9279 10.8688 27.6036 8.28416 26.3229C5.69952 25.0421 3.65182 22.8876 2.50403 20.2412C1.35625 17.5948 1.18251 14.6275 2.01361 11.8652C2.84472 9.10299 4.62699 6.72421 7.0445 5.15056" stroke="#0A1856" stroke-width="1.27059" stroke-miterlimit="10" stroke-linecap="round" stroke-linejoin="round"/>
<path d="M15.4954 1.84491L13.7885 3.34238L15.4618 4.68615" stroke="#0A1856" stroke-width="1.27059" stroke-miterlimit="10" stroke-linecap="round" stroke-linejoin="round"/>
</svg>
