<svg width="55" height="68" viewBox="0 0 55 68" fill="none" xmlns="http://www.w3.org/2000/svg">
<path d="M33.625 18.3646C33.625 18.3646 53.125 33.5313 53.125 55.1979C53.125 58.0711 51.9836 60.8266 49.952 62.8582C47.9203 64.8899 45.1648 66.0313 42.2917 66.0313H11.9583C9.08515 66.0313 6.32965 64.8899 4.29801 62.8582C2.26637 60.8266 1.125 58.0711 1.125 55.1979C1.125 33.5313 20.625 18.3646 20.625 18.3646C20.625 18.3646 7.625 7.09792 7.625 3.19792C7.625 -0.702083 16.2917 5.36458 20.625 5.36458C26.8 5.36458 27.45 1.03125 31.4583 1.03125C35.4667 1.03125 35.9 5.47292 42.2917 5.47292C44.7833 5.47292 40.125 11.9729 33.625 18.3646Z" stroke="#0A1856" stroke-width="2" stroke-miterlimit="10" stroke-linecap="round" stroke-linejoin="round"/>
<path d="M20.625 18.3646H34.7083C39.7743 18.687 44.7833 17.1458 48.7917 14.0312M46.625 22.6979C47.9016 22.5974 49.1813 22.847 50.3267 23.4196C51.472 23.9923 52.4394 24.8664 53.125 25.9479" stroke="#0A1856" stroke-width="2" stroke-miterlimit="10" stroke-linecap="round" stroke-linejoin="round"/>
<path d="M33.5167 35.6979C33.2612 34.1863 32.4796 32.8136 31.31 31.8224C30.1404 30.8312 28.6581 30.2854 27.125 30.2813M27.125 30.2813C23.55 30.2813 20.625 32.6646 20.625 36.2396C20.625 39.8146 23.875 41.4396 27.125 42.1979C30.375 42.9563 33.625 44.5813 33.625 48.1563C33.625 51.7313 30.7 54.1146 27.125 54.1146M27.125 30.2813V27.0312M20.625 47.6146C20.625 49.3385 21.3098 50.9918 22.5288 52.2108C23.7478 53.4298 25.4011 54.1146 27.125 54.1146M27.125 54.1146V57.3646" stroke="#0A1856" stroke-width="2" stroke-miterlimit="10" stroke-linecap="round" stroke-linejoin="round"/>
</svg>
