<svg width="20" height="27" viewBox="0 0 20 27" fill="none" xmlns="http://www.w3.org/2000/svg">
<path d="M18.2352 0H1.76479C0.791325 0 0 0.791063 0 1.76479V21.7646C0 22.7381 0.791063 23.5294 1.76479 23.5294H12.3529V24.4118C12.3529 25.5471 13.2765 26.4705 14.4117 26.4705C15.547 26.4705 16.4704 25.5469 16.4704 24.4118V23.5294H18.2352C19.2087 23.5294 20 22.7383 20 21.7646L19.9998 1.76479C19.9998 0.791116 19.2087 0 18.2352 0ZM1.17656 21.7645V1.76469C1.17656 1.44115 1.44122 1.17651 1.76474 1.17651H2.94109V22.3528H1.76474C1.4412 22.3528 1.17656 22.0879 1.17656 21.7644V21.7645ZM15.2941 24.4116C15.2941 24.8968 14.8971 25.294 14.4117 25.294C13.9265 25.294 13.5293 24.897 13.5293 24.4116V23.5292H15.2941V24.4116ZM18.8234 21.7645C18.8234 22.088 18.5587 22.3527 18.2352 22.3527H15.8822L12.9411 22.3529H4.11766V1.17661H18.2352C18.5587 1.17661 18.8233 1.44127 18.8233 1.76479L18.8234 21.7645ZM17.0586 5.88229C17.0586 6.20583 16.7939 6.47047 16.4704 6.47047H6.47052C6.14698 6.47047 5.88234 6.20581 5.88234 5.88229C5.88234 5.55877 6.147 5.29411 6.47052 5.29411H16.4704C16.794 5.29411 17.0586 5.55877 17.0586 5.88229ZM17.0586 8.82344C17.0586 9.14697 16.7939 9.41161 16.4704 9.41161H6.47052C6.14698 9.41161 5.88234 9.14696 5.88234 8.82344C5.88234 8.49992 6.147 8.23526 6.47052 8.23526H16.4704C16.794 8.23526 17.0586 8.49992 17.0586 8.82344Z" fill="#0A1856"/>
</svg>
