<svg width="65" height="64" viewBox="0 0 65 64" fill="none" xmlns="http://www.w3.org/2000/svg">
<path d="M59.5833 32.8345H44.4167C41.4299 32.8345 39 35.2645 39 38.2512V39.3345H27.0833C26.6728 39.3345 26.2979 39.5664 26.1138 39.9336L23.1638 45.8345H2.16667V32.8345H9.94933C10.3978 34.0923 11.5895 35.0012 13 35.0012C14.7918 35.0012 16.25 33.543 16.25 31.7512C16.25 29.9594 14.7918 28.5012 13 28.5012C11.5895 28.5012 10.3978 29.4101 9.94933 30.6679H2.16667V24.1679H12.5515L15.4841 27.1005C15.6867 27.3041 15.9629 27.4179 16.25 27.4179H22.9493C23.3978 28.6756 24.5895 29.5845 26 29.5845C27.7918 29.5845 29.25 28.1264 29.25 26.3345C29.25 24.5427 27.7918 23.0845 26 23.0845C24.5895 23.0845 23.3978 23.9935 22.9493 25.2512H16.6985L13.7659 22.3186C13.5633 22.115 13.2871 22.0012 13 22.0012H2.16667V18.749C3.07233 19.4294 4.19792 19.8345 5.41667 19.8345H28.1667C28.7647 19.8345 29.25 19.3492 29.25 18.7512C29.25 18.1532 28.7647 17.6679 28.1667 17.6679H21.6873L31.4535 12.0291C32.4599 13.3129 33.8466 14.2326 35.451 14.6627C37.0543 15.0928 38.7173 14.9888 40.2285 14.381L42.1276 17.6679H32.5C31.902 17.6679 31.4167 18.1532 31.4167 18.7512C31.4167 19.3492 31.902 19.8345 32.5 19.8345H55.25C56.6605 19.8345 57.8522 20.7435 58.3007 22.0012H53.0833C52.7432 22.0012 52.4214 22.1615 52.2167 22.4345L49.2917 26.3345H43.134C42.6855 25.0768 41.4938 24.1679 40.0833 24.1679C38.2915 24.1679 36.8333 25.626 36.8333 27.4179C36.8333 29.2097 38.2915 30.6679 40.0833 30.6679C41.4938 30.6679 42.6855 29.759 43.134 28.5012H49.8333C50.1735 28.5012 50.4953 28.3409 50.7 28.0679L53.625 24.1679H58.5V29.5845C58.5 30.1825 58.9843 30.6679 59.5833 30.6679C60.1824 30.6679 60.6667 30.1825 60.6667 29.5845V23.0845C60.6667 20.4694 58.8023 18.281 56.3333 17.7773V14.4179C56.3333 11.4311 53.9034 9.00121 50.9167 9.00121H44.6312L39.9393 0.876213C39.7952 0.627047 39.5579 0.44613 39.2817 0.37138C39.0033 0.29663 38.7064 0.334546 38.4583 0.479713L32.8889 3.69721C32.3711 3.99621 32.1934 4.65921 32.4935 5.17705C32.7914 5.69488 33.4555 5.87255 33.9733 5.57246L38.6035 2.89663L47.1337 17.6679H44.6301L41.6033 12.4245C41.3032 11.9056 40.6391 11.728 40.1234 12.028C38.87 12.7517 37.4097 12.9445 36.0133 12.5697C34.6158 12.196 33.4468 11.299 32.7243 10.0455C32.5802 9.79746 32.344 9.61546 32.0667 9.54071C31.7893 9.46596 31.4936 9.50496 31.2444 9.64905L17.3539 17.6679H13.0217L30.225 7.72938C30.7439 7.43038 30.9205 6.76738 30.6215 6.24955C30.3225 5.73063 29.6584 5.55296 29.1417 5.85305L23.6925 9.00121H5.41667C2.42992 9.00121 0 11.4311 0 14.4179V57.7512C0 60.738 2.42992 63.1679 5.41667 63.1679H13C13.598 63.1679 14.0833 62.6825 14.0833 62.0845C14.0833 61.4865 13.598 61.0012 13 61.0012H5.41667C3.62483 61.0012 2.16667 59.543 2.16667 57.7512V52.3345H15.8015L19.8174 56.3505C20.02 56.5541 20.2963 56.6679 20.5833 56.6679H28.366C28.8145 57.9256 30.0062 58.8345 31.4167 58.8345C33.2085 58.8345 34.6667 57.3764 34.6667 55.5845C34.6667 53.7927 33.2085 52.3345 31.4167 52.3345C30.0062 52.3345 28.8145 53.2435 28.366 54.5012H21.0318L17.0159 50.4853C16.8133 50.2816 16.5371 50.1679 16.25 50.1679H2.16667V48.0012H23.8333C24.2439 48.0012 24.6188 47.7694 24.8029 47.4021L27.7528 41.5012H39V42.5845C39 45.5713 41.4299 48.0012 44.4167 48.0012H47.6667C48.2658 48.0012 48.75 47.5159 48.75 46.9179C48.75 46.3199 48.2658 45.8345 47.6667 45.8345H44.4167C42.6248 45.8345 41.1667 44.3764 41.1667 42.5845V41.5012H43.5327C43.9812 42.759 45.1728 43.6679 46.5833 43.6679C48.3752 43.6679 49.8333 42.2097 49.8333 40.4179C49.8333 38.626 48.3752 37.1679 46.5833 37.1679C45.1728 37.1679 43.9812 38.0768 43.5327 39.3345H41.1667V38.2512C41.1667 36.4594 42.6248 35.0012 44.4167 35.0012H59.5833C61.3752 35.0012 62.8333 36.4594 62.8333 38.2512V42.5845C62.8333 44.3764 61.3752 45.8345 59.5833 45.8345H52C51.4009 45.8345 50.9167 46.3199 50.9167 46.9179C50.9167 47.5159 51.4009 48.0012 52 48.0012H58.5V50.1679H55.25C54.9618 50.1679 54.6867 50.2816 54.4841 50.4853L50.4682 54.5012H45.3007C44.8522 53.2435 43.6605 52.3345 42.25 52.3345C40.4582 52.3345 39 53.7927 39 55.5845C39 57.3764 40.4582 58.8345 42.25 58.8345C43.6605 58.8345 44.8522 57.9256 45.3007 56.6679H50.9167C51.2048 56.6679 51.48 56.5541 51.6826 56.3505L55.6985 52.3345H58.5V57.7512C58.5 59.543 57.0418 61.0012 55.25 61.0012H17.3333C16.7353 61.0012 16.25 61.4865 16.25 62.0845C16.25 62.6825 16.7353 63.1679 17.3333 63.1679H55.25C58.2368 63.1679 60.6667 60.738 60.6667 57.7512V47.8918C63.1356 47.388 65 45.2008 65 42.5845V38.2512C65 35.2645 62.5701 32.8345 59.5833 32.8345ZM13 30.6679C13.5969 30.6679 14.0833 31.1543 14.0833 31.7512C14.0833 32.3481 13.5969 32.8345 13 32.8345C12.4031 32.8345 11.9167 32.3481 11.9167 31.7512C11.9167 31.1543 12.4031 30.6679 13 30.6679ZM26 25.2512C26.5969 25.2512 27.0833 25.7376 27.0833 26.3345C27.0833 26.9315 26.5969 27.4179 26 27.4179C25.4031 27.4179 24.9167 26.9315 24.9167 26.3345C24.9167 25.7376 25.4031 25.2512 26 25.2512ZM40.0833 28.5012C39.4853 28.5012 39 28.0148 39 27.4179C39 26.821 39.4853 26.3345 40.0833 26.3345C40.6813 26.3345 41.1667 26.821 41.1667 27.4179C41.1667 28.0148 40.6813 28.5012 40.0833 28.5012ZM45.8824 11.1679H50.9167C52.7085 11.1679 54.1667 12.626 54.1667 14.4179V17.6679H49.6362L45.8824 11.1679ZM31.4167 54.5012C32.0136 54.5012 32.5 54.9876 32.5 55.5845C32.5 56.1815 32.0136 56.6679 31.4167 56.6679C30.8198 56.6679 30.3333 56.1815 30.3333 55.5845C30.3333 54.9876 30.8198 54.5012 31.4167 54.5012ZM5.41667 11.1679H19.942L8.77175 17.6213C8.75008 17.6332 8.73925 17.6549 8.71867 17.6679H5.41667C3.62483 17.6679 2.16667 16.2097 2.16667 14.4179C2.16667 12.626 3.62483 11.1679 5.41667 11.1679ZM46.5833 39.3345C47.1813 39.3345 47.6667 39.821 47.6667 40.4179C47.6667 41.0148 47.1813 41.5012 46.5833 41.5012C45.9853 41.5012 45.5 41.0148 45.5 40.4179C45.5 39.821 45.9853 39.3345 46.5833 39.3345ZM42.25 56.6679C41.652 56.6679 41.1667 56.1815 41.1667 55.5845C41.1667 54.9876 41.652 54.5012 42.25 54.5012C42.848 54.5012 43.3333 54.9876 43.3333 55.5845C43.3333 56.1815 42.848 56.6679 42.25 56.6679Z" fill="#0A1856"/>
<path d="M30.5323 32.8346H20.583C20.1497 32.8346 19.7575 33.0925 19.5874 33.4911L16.6191 40.418H5.41634C4.81834 40.418 4.33301 40.9033 4.33301 41.5013C4.33301 42.0993 4.81834 42.5846 5.41634 42.5846H17.333C17.7663 42.5846 18.1585 42.3268 18.3286 41.9281L21.2969 35.0013H30.5323C30.9808 36.2591 32.1725 37.168 33.583 37.168C35.3748 37.168 36.833 35.7098 36.833 33.918C36.833 32.1261 35.3748 30.668 33.583 30.668C32.1725 30.668 30.9808 31.5769 30.5323 32.8346ZM34.6663 33.918C34.6663 34.5149 34.181 35.0013 33.583 35.0013C32.9861 35.0013 32.4997 34.5149 32.4997 33.918C32.4997 33.3211 32.9861 32.8346 33.583 32.8346C34.181 32.8346 34.6663 33.3211 34.6663 33.918Z" fill="#0A1856"/>
</svg>
