<svg width="20" height="20" viewBox="0 0 20 20" fill="none" xmlns="http://www.w3.org/2000/svg">
<path d="M5.21998 8.03109C4.85376 8.39731 4.85376 8.99056 5.21998 9.35556L9.33873 13.4743C9.51451 13.6501 9.75132 13.7502 10.0016 13.7502C10.2518 13.7502 10.4886 13.6501 10.6644 13.4755L14.7832 9.35678C15.1494 8.99056 15.1494 8.39731 14.7832 8.03231C14.4169 7.66609 13.8237 7.66609 13.4587 8.03231L10.9392 10.5506V0.9375C10.9392 0.418687 10.5205 0 10.0017 0C9.48285 0 9.06416 0.418687 9.06416 0.9375V10.5506L6.54585 8.03231C6.17963 7.66609 5.5862 7.6661 5.21998 8.03109Z" fill="#7F88A0"/>
<path d="M0.9375 11.875C0.418687 11.875 0 12.2937 0 12.8125V15.9972C0 17.8588 1.51613 19.375 3.37781 19.375H16.6187C18.484 19.375 20 17.8589 20 15.9972V12.8125C20 12.2937 19.5813 11.875 19.0625 11.875C18.5437 11.875 18.125 12.2937 18.125 12.8125V15.9972C18.125 16.8248 17.4499 17.4999 16.6223 17.4999H3.37762C2.55 17.4999 1.87494 16.8248 1.87494 15.9972V12.8125C1.87494 12.2937 1.45631 11.875 0.9375 11.875Z" fill="#7F88A0"/>
</svg>
