<svg width="50" height="50" viewBox="0 0 50 50" fill="none" xmlns="http://www.w3.org/2000/svg">
<path fill-rule="evenodd" clip-rule="evenodd" d="M25 47.7273C18.3955 47.7273 12.4591 44.8795 8.30455 40.3659C11.7545 34.3818 18.0205 30.6818 25 30.6818C31.9795 30.6818 38.2455 34.3818 41.6955 40.3659C37.5409 44.8795 31.6045 47.7273 25 47.7273ZM18.1818 20.4545C18.1818 16.6955 21.2409 13.6364 25 13.6364C28.7591 13.6364 31.8182 16.6955 31.8182 20.4545C31.8182 24.2136 28.7591 27.2727 25 27.2727C21.2409 27.2727 18.1818 24.2136 18.1818 20.4545ZM25 2.27273C37.5318 2.27273 47.7273 12.4682 47.7273 25C47.7273 30.0614 46.0432 34.7273 43.2341 38.5091C39.9545 33.2886 34.6977 29.7818 28.6795 28.7545C31.8636 27.3409 34.0909 24.1614 34.0909 20.4545C34.0909 15.4341 30.0205 11.3636 25 11.3636C19.9795 11.3636 15.9091 15.4341 15.9091 20.4545C15.9091 24.1614 18.1364 27.3386 21.3205 28.7545C15.3023 29.7818 10.0455 33.2886 6.76591 38.5091C3.95682 34.7273 2.27273 30.0614 2.27273 25C2.27273 12.4682 12.4682 2.27273 25 2.27273ZM25 0C11.1932 0 0 11.1932 0 25C0 38.8068 11.1932 50 25 50C38.8068 50 50 38.8068 50 25C50 11.1932 38.8068 0 25 0Z" fill="#7F88A0"/>
</svg>
