<svg width="75" height="34" viewBox="0 0 75 34" fill="none" xmlns="http://www.w3.org/2000/svg">
<path d="M71.2814 13.7524V7.74647C71.2814 3.47929 67.8041 0.00195319 63.5369 0.00195319C59.2692 0.00140198 55.7131 3.47872 55.7131 7.74591V13.7523C53.4216 15.8861 51.9199 18.8887 51.9199 22.2872C51.9199 28.6883 57.1359 33.8254 63.4582 33.8254C69.7805 33.8254 74.9964 28.6095 74.9964 22.2872C75.0747 18.8887 73.5731 15.8856 71.2816 13.7523L71.2814 13.7524ZM58.0839 7.74605C58.0839 4.74288 60.5336 2.29304 63.5369 2.29304C66.5402 2.29304 68.9899 4.74274 68.9899 7.74605V12.0927C67.3301 11.2234 65.5126 10.6705 63.5369 10.6705C61.5612 10.6705 59.7438 11.2239 58.0839 12.0927V7.74605ZM63.5364 31.5332C58.3999 31.5332 54.2902 27.3448 54.2902 22.2871C54.2902 17.1506 58.4786 13.0409 63.5364 13.0409C68.6728 13.0409 72.7825 17.2293 72.7825 22.2871C72.7831 27.3448 68.5941 31.5332 63.5364 31.5332Z" fill="#0A1856"/>
<path d="M66.1454 19.2833L62.6681 22.7606L60.9295 21.022C60.4554 20.548 59.7443 20.548 59.2696 21.022C58.7955 21.4961 58.7955 22.2072 59.2696 22.6819L61.8775 25.2898C62.1146 25.5268 62.431 25.6056 62.668 25.6056C62.9051 25.6056 63.2215 25.5268 63.4585 25.2898L67.8051 20.9431C68.2792 20.4691 68.2792 19.758 67.8051 19.2833C67.3311 18.8092 66.6195 18.8092 66.1454 19.2833Z" fill="#0181A8"/>
<path d="M17.0689 14.0677C16.753 13.5142 16.0414 13.3566 15.4885 13.6724L13.2757 14.937V12.4078C13.2757 11.7755 12.7223 11.2227 12.0906 11.2227C11.4583 11.2227 10.9054 11.7761 10.9054 12.4078V14.937L8.69261 13.6724C8.13915 13.3566 7.42805 13.5142 7.11221 14.0677C6.79637 14.6211 6.954 15.3322 7.50746 15.6481L9.72022 16.9126L7.50746 18.1772C6.954 18.4931 6.79634 19.2047 7.11221 19.7576C7.34925 20.1528 7.7445 20.3111 8.13973 20.3111C8.29794 20.3111 8.53498 20.2322 8.69319 20.1529L10.9059 18.8883V21.4174C10.9059 22.0497 11.4594 22.6026 12.0911 22.6026C12.7234 22.6026 13.2763 22.0492 13.2763 21.4174V18.8883L15.4891 20.1529C15.6473 20.2317 15.8843 20.3111 16.0425 20.3111C16.4378 20.3111 16.833 20.074 17.0701 19.7576C17.3859 19.2041 17.2283 18.493 16.6748 18.1772L14.4609 16.9126L16.6737 15.6481C17.2266 15.3322 17.3848 14.6211 17.0689 14.0677Z" fill="#0181A8"/>
<path d="M31.9263 14.0677C31.6104 13.5142 30.8988 13.3566 30.3459 13.6724L28.1332 14.937V12.4078C28.1332 11.7755 27.5797 11.2227 26.948 11.2227C26.3157 11.2227 25.7628 11.7761 25.7628 12.4078V14.937L23.55 13.6724C22.9966 13.3566 22.2855 13.5142 21.9696 14.0677C21.6538 14.6211 21.8114 15.3322 22.3649 15.6481L24.5776 16.9126L22.3649 18.1772C21.8114 18.4931 21.6538 19.2047 21.9696 19.7576C22.2067 20.1528 22.6019 20.3111 22.9972 20.3111C23.1554 20.3111 23.3924 20.2322 23.5506 20.1529L25.7634 18.8883V21.4174C25.7634 22.0497 26.3168 22.6026 26.9486 22.6026C27.5808 22.6026 28.1337 22.0492 28.1337 21.4174V18.8883L30.3465 20.1529C30.5047 20.2317 30.7417 20.3111 30.9 20.3111C31.2952 20.3111 31.6904 20.074 31.9275 19.7576C32.2433 19.2041 32.0857 18.493 31.5322 18.1772L29.3189 16.9126L31.5317 15.6481C32.0846 15.3322 32.3216 14.6211 31.9263 14.0677Z" fill="#0181A8"/>
<path d="M46.8628 14.0677C46.547 13.5142 45.8353 13.3566 45.2824 13.6724L43.0697 14.937V12.4078C43.0697 11.7755 42.5162 11.2227 41.8845 11.2227C41.2522 11.2227 40.6993 11.7761 40.6993 12.4078V14.937L38.4866 13.6724C37.9331 13.3566 37.222 13.5142 36.9062 14.0677C36.5903 14.6211 36.7479 15.3322 37.3014 15.6481L39.5142 16.9126L37.3014 18.1772C36.7479 18.4931 36.5903 19.2047 36.9062 19.7576C37.1432 20.1528 37.5384 20.3111 37.9337 20.3111C38.0919 20.3111 38.3289 20.2322 38.4871 20.1529L40.6999 18.8883V21.4174C40.6999 22.0497 41.2534 22.6026 41.8851 22.6026C42.5174 22.6026 43.0703 22.0492 43.0703 21.4174V18.8883L45.283 20.1529C45.4412 20.2317 45.6783 20.3111 45.8365 20.3111C46.2317 20.3111 46.627 20.074 46.864 19.7576C47.1799 19.2041 47.0222 18.493 46.4688 18.1772L44.1761 16.9126L46.3889 15.6481C46.9423 15.3322 47.1793 14.6211 46.8628 14.0677Z" fill="#0181A8"/>
<path d="M52.3946 6.48206C52.3946 5.84977 51.8412 5.29688 51.2095 5.29688H6.63814C2.92386 5.29688 0 8.30005 0 11.935V21.8134C0 25.5277 3.00317 28.4516 6.63814 28.4516H48.0484C48.6807 28.4516 49.2336 27.8981 49.2336 27.2664C49.2336 26.6341 48.6801 26.0812 48.0484 26.0812H6.63814C4.26718 26.0812 2.29151 24.1055 2.29151 21.7346V11.935C2.29151 9.56409 4.26718 7.58841 6.63814 7.58841H51.2095C51.8417 7.58896 52.3952 7.11433 52.3952 6.48206H52.3946Z" fill="#0A1856"/>
</svg>
