<svg width="38" height="39" viewBox="0 0 38 39" fill="none" xmlns="http://www.w3.org/2000/svg">
<g clip-path="url(#clip0_6552_46706)">
<path d="M19 38.9834C29.4935 38.9834 38 30.4769 38 19.9834C38 9.48998 29.4935 0.983398 19 0.983398C8.50659 0.983398 0 9.48998 0 19.9834C0 30.4769 8.50659 38.9834 19 38.9834Z" fill="#624DBF"/>
<path d="M26.4967 11.6709C27.0833 11.7386 27.6771 11.7754 28.2566 11.8799C29.4049 12.0972 29.7801 12.6435 29.5854 13.7514C29.507 14.2003 29.2172 14.477 28.7565 14.5518C28.4818 14.5905 28.2049 14.6103 27.9276 14.6111C24.1597 14.6195 20.3834 14.6266 16.6155 14.642C16.0455 14.642 15.4814 14.6943 14.9269 14.7845C13.0577 15.0766 12.3548 15.8176 12.198 17.6203C12.1268 18.467 12.1267 18.467 13.0114 18.467H28.4822C28.7256 18.4741 28.9596 18.5192 29.1626 18.6451C29.8514 19.0655 29.6792 19.7233 29.64 20.3301C29.6091 20.817 29.3039 21.0854 28.7803 21.1828C28.5602 21.2165 28.3378 21.2316 28.1153 21.2279H12.6896C12.1196 21.2279 12.1279 21.2279 12.1742 21.767C12.2134 22.261 12.2455 22.7479 12.3702 23.2265C12.6041 24.1171 13.1753 24.6705 14.098 24.9175C15.1216 25.1941 16.1773 25.2547 17.233 25.2618C20.9143 25.2844 24.5896 25.2773 28.272 25.2773C28.7411 25.2773 29.1781 25.3366 29.4524 25.7487C29.9844 26.542 29.5699 27.6487 28.6389 27.9337C27.8421 28.1807 27.0049 28.2401 26.1761 28.2484C22.7204 28.3078 19.2648 28.3161 15.8092 28.2484C14.7435 28.221 13.682 28.1034 12.6362 27.8969C10.1733 27.41 8.94544 26.213 8.531 23.8475C8.43719 23.3013 8.38256 22.7479 8.3125 22.2005V17.8827C8.36 17.4552 8.398 17.0301 8.45381 16.6109C8.78156 13.9307 10.0332 12.6138 12.7846 12.0307C13.7619 11.8205 14.7618 11.7754 15.7474 11.678C19.3206 11.6709 22.9069 11.6709 26.4967 11.6709Z" fill="white"/>
</g>
<defs>
<clipPath id="clip0_6552_46706">
<rect width="38" height="38" fill="white" transform="translate(0 0.983398)"/>
</clipPath>
</defs>
</svg>
