<svg width="65" height="63" viewBox="0 0 65 63" fill="none" xmlns="http://www.w3.org/2000/svg">
<path d="M63.3701 2.27858C61.1718 -0.0613145 57.1263 -0.297543 51.9675 1.61324C47.0848 3.4236 41.6855 6.96342 36.7644 11.5782C34.8249 13.3909 33.0124 15.3349 31.3398 17.3965L21.8004 14.9403C21.634 14.8975 21.4594 14.899 21.2938 14.9445C21.1282 14.99 20.9773 15.0779 20.8562 15.1996L13.0288 23.0732C12.9071 23.1955 12.8196 23.3478 12.7752 23.5146C12.7308 23.6814 12.731 23.857 12.7759 24.0237C12.8208 24.1904 12.9087 24.3423 13.0308 24.4643C13.1529 24.5864 13.3049 24.6741 13.4717 24.7188L24.495 27.6829L22.387 29.6609C21.8052 30.2077 21.423 30.9334 21.3012 31.7225C21.1795 32.5116 21.3252 33.3188 21.7151 34.0156C17.9281 37.6042 15.2908 42.2357 14.137 47.3238C14.0972 47.4837 14.098 47.6511 14.1395 47.8106C14.181 47.9701 14.2618 48.1166 14.3746 48.2368C14.4873 48.357 14.6284 48.4471 14.7849 48.4987C14.9414 48.5504 15.1083 48.5619 15.2705 48.5324C20.4221 47.7066 25.2128 45.3707 29.036 41.8205C29.7066 42.2541 30.5029 42.451 31.2982 42.3799C32.0936 42.3088 32.8423 41.9738 33.4254 41.4282L35.5334 39.451L37.7895 50.6419C37.8235 50.8111 37.9014 50.9684 38.0154 51.098C38.1293 51.2276 38.2754 51.325 38.4388 51.3804C38.6023 51.4358 38.7774 51.4472 38.9467 51.4136C39.116 51.3799 39.2735 51.3024 39.4034 51.1887L47.758 43.883C47.8874 43.77 47.9849 43.6251 48.041 43.4628C48.097 43.3004 48.1095 43.1263 48.0774 42.9576L46.2366 33.2773C48.4006 31.7398 50.4564 30.0555 52.3894 28.2363C57.3105 23.6193 61.1877 18.4577 63.3051 13.7006C65.5424 8.67553 65.5655 4.61919 63.3701 2.27858ZM21.8524 16.989L30.0272 19.0927C28.4136 21.24 27.0319 23.5521 25.9051 25.9903L25.8921 26.0185L15.623 23.2552L21.8524 16.989ZM22.9866 35.5247L27.61 40.4551C24.4822 43.351 20.6369 45.3578 16.4726 46.2677C17.6473 42.17 19.8963 38.4609 22.9866 35.5247ZM32.0774 39.9913C31.7669 40.2821 31.3538 40.4377 30.9286 40.4242C30.5035 40.4106 30.1011 40.229 29.8097 39.9191L23.662 33.3647C23.3713 33.0543 23.2157 32.6413 23.2292 32.2163C23.2428 31.7912 23.4244 31.389 23.7343 31.0977L26.4144 28.5837L34.7575 37.4774L32.0774 39.9913ZM46.0365 42.7712L39.3846 48.5873L37.2838 38.1629L37.3091 38.1535C39.8164 37.1852 42.2138 35.9533 44.461 34.4786L46.0365 42.7712ZM61.5055 12.8995C59.4922 17.4218 55.7761 22.358 51.0414 26.7987C47.4138 30.2691 43.2781 33.1661 38.777 35.3896C38.7048 35.4235 38.6325 35.4575 38.5603 35.49C38.4779 35.5283 38.3956 35.5622 38.314 35.602L38.0423 35.7233L37.8314 35.8151C37.7235 35.8632 37.6163 35.9085 37.5099 35.9509L37.3452 36.0231C37.0346 36.1503 36.7268 36.2707 36.422 36.3843L27.6122 26.993C27.6743 26.8528 27.7371 26.712 27.8029 26.5704L27.8224 26.5292C27.8888 26.3847 27.9572 26.2402 28.0275 26.0958C28.0557 26.0372 28.0853 25.9795 28.1142 25.9209C28.1626 25.822 28.2125 25.723 28.2587 25.624L28.3692 25.4073C28.4126 25.3235 28.4574 25.2397 28.5014 25.1552C28.5455 25.0707 28.5896 24.9897 28.6344 24.9074L28.7413 24.7123C31.2489 20.3605 34.4056 16.4166 38.1023 13.0165C42.837 8.57584 47.9993 5.18267 52.643 3.46261C56.9464 1.86752 60.3287 1.92821 61.9238 3.62804C63.5189 5.32788 63.3722 8.70659 61.5055 12.8995ZM46.0062 12.3454C44.3053 12.291 42.6525 12.9145 41.4113 14.0787C40.1701 15.2429 39.4422 16.8525 39.3878 18.5534C39.3334 20.2543 39.9569 21.9072 41.1211 23.1483C42.2854 24.3895 43.895 25.1174 45.5959 25.1718C45.6681 25.1718 45.736 25.1754 45.8061 25.1754C47.4918 25.1774 49.1107 24.516 50.3127 23.334C51.5146 22.1521 52.2032 20.5446 52.2295 18.859C52.2558 17.1735 51.6177 15.5453 50.4532 14.3264C49.2886 13.1075 47.6912 12.3959 46.0062 12.3454ZM50.2453 18.9013C50.2174 19.774 49.9331 20.6192 49.4279 21.3315C48.9227 22.0437 48.2189 22.5914 47.4045 22.9063C46.59 23.2211 45.7009 23.2892 44.848 23.102C43.9951 22.9148 43.2162 22.4807 42.6084 21.8537C42.0007 21.2267 41.591 20.4346 41.4305 19.5763C41.27 18.718 41.3657 17.8314 41.7058 17.0271C42.0459 16.2229 42.6153 15.5366 43.3429 15.0538C44.0706 14.5711 44.9242 14.3132 45.7974 14.3125H45.9419C47.1205 14.3504 48.2359 14.8549 49.0426 15.715C49.8494 16.5751 50.2814 17.7204 50.2439 18.8991L50.2453 18.9013ZM2.03952 47.6655C2.12805 47.7598 2.19715 47.8706 2.24285 47.9916C2.28855 48.1126 2.30997 48.2414 2.30588 48.3707C2.30178 48.5 2.27226 48.6272 2.219 48.745C2.16574 48.8629 2.08977 48.9691 1.99545 49.0576L1.64291 49.3885C1.45119 49.5603 1.19985 49.6502 0.942664 49.639C0.68548 49.6279 0.442873 49.5165 0.266743 49.3288C0.0906124 49.141 -0.00505498 48.8918 0.000206041 48.6344C0.00546706 48.3771 0.111239 48.132 0.294894 47.9516L0.647431 47.6207C0.838034 47.4422 1.09172 47.3466 1.35274 47.355C1.61377 47.3634 1.86079 47.4751 2.03952 47.6655ZM4.54628 46.665C4.45194 46.7534 4.34109 46.8225 4.22007 46.8681C4.09905 46.9137 3.97023 46.9351 3.84097 46.9309C3.7117 46.9267 3.58452 46.8972 3.46668 46.8438C3.34884 46.7905 3.24266 46.7145 3.1542 46.6202C3.06573 46.5258 2.99672 46.415 2.95109 46.294C2.90547 46.173 2.88412 46.0441 2.88828 45.9149C2.89244 45.7856 2.92202 45.6584 2.97533 45.5406C3.02864 45.4228 3.10464 45.3166 3.19899 45.2281L9.37488 39.4351C9.46856 39.3431 9.57967 39.2707 9.70171 39.2223C9.82374 39.1738 9.95422 39.1502 10.0855 39.1529C10.2168 39.1556 10.3462 39.1845 10.4661 39.2379C10.5861 39.2913 10.6941 39.3681 10.784 39.4639C10.8738 39.5596 10.9436 39.6724 10.9893 39.7955C11.0349 39.9186 11.0555 40.0496 11.0498 40.1808C11.0441 40.312 11.0123 40.4407 10.9561 40.5594C10.9 40.6781 10.8207 40.7843 10.7229 40.872L4.54628 46.665ZM12.3368 51.4994L5.85457 57.5792C5.76023 57.6676 5.64938 57.7367 5.52836 57.7823C5.40734 57.8279 5.27852 57.8492 5.14925 57.8451C5.01999 57.8409 4.8928 57.8113 4.77497 57.758C4.65713 57.7047 4.55095 57.6287 4.46248 57.5344C4.37402 57.44 4.30501 57.3292 4.25938 57.2082C4.21375 57.0872 4.19241 56.9583 4.19657 56.8291C4.20073 56.6998 4.23031 56.5726 4.28362 56.4548C4.33693 56.3369 4.41293 56.2308 4.50727 56.1423L10.9887 50.0625C11.1805 49.8907 11.4318 49.8008 11.689 49.8119C11.9462 49.8231 12.1888 49.9344 12.3649 50.1222C12.541 50.3099 12.6367 50.5591 12.6315 50.8165C12.6262 51.0739 12.5204 51.319 12.3368 51.4994ZM14.1565 60.583C14.245 60.6774 14.3141 60.7883 14.3597 60.9093C14.4054 61.0304 14.4268 61.1593 14.4226 61.2886C14.4184 61.418 14.3888 61.5452 14.3355 61.6631C14.2822 61.781 14.2061 61.8873 14.1117 61.9758L13.7599 62.3059C13.6656 62.3946 13.5547 62.4639 13.4336 62.5097C13.3125 62.5555 13.1835 62.5771 13.0541 62.5731C12.9246 62.5691 12.7973 62.5397 12.6792 62.4864C12.5611 62.4332 12.4547 62.3573 12.366 62.2629C12.2773 62.1686 12.2081 62.0577 12.1622 61.9366C12.1164 61.8155 12.0948 61.6865 12.0988 61.5571C12.1028 61.4276 12.1323 61.3003 12.1855 61.1822C12.2387 61.0642 12.3147 60.9577 12.409 60.869L12.7615 60.5382C12.856 60.4493 12.967 60.38 13.0883 60.3342C13.2096 60.2883 13.3387 60.2669 13.4683 60.271C13.5979 60.2752 13.7254 60.3049 13.8435 60.3584C13.9616 60.4119 14.068 60.4882 14.1565 60.583ZM22.884 52.3973C22.9725 52.4916 23.0416 52.6024 23.0873 52.7234C23.133 52.8444 23.1544 52.9732 23.1503 53.1025C23.1462 53.2318 23.1167 53.359 23.0635 53.4768C23.0102 53.5947 22.9342 53.7009 22.8399 53.7894L16.664 59.5824C16.5697 59.6709 16.4588 59.7399 16.3378 59.7855C16.2168 59.8312 16.088 59.8525 15.9587 59.8483C15.8294 59.8442 15.7022 59.8146 15.5844 59.7613C15.4666 59.708 15.3604 59.632 15.2719 59.5376C15.1835 59.4433 15.1144 59.3324 15.0688 59.2114C15.0232 59.0904 15.0019 58.9616 15.006 58.8323C15.0102 58.703 15.0397 58.5759 15.0931 58.458C15.1464 58.3402 15.2224 58.234 15.3167 58.1455L21.4919 52.3525C21.6825 52.174 21.9362 52.0784 22.1972 52.0868C22.4582 52.0952 22.7052 52.2069 22.884 52.3973Z" fill="#0A1856"/>
</svg>
