<svg width="17" height="17" viewBox="0 0 17 17" fill="none" xmlns="http://www.w3.org/2000/svg">
<path d="M16.1285 7.86274C15.8701 7.61314 15.4606 7.61314 15.2023 7.86274L9.00687 14.058V1.00065C9.00687 0.632488 8.70837 0.333984 8.34021 0.333984C7.97204 0.333984 7.67354 0.632488 7.67354 1.00065V14.058L1.47823 7.86265C1.22245 7.59784 0.800415 7.59044 0.535604 7.8463C0.270711 8.10208 0.263387 8.52411 0.519165 8.78893C0.524536 8.79446 0.529988 8.79991 0.535604 8.80528L7.86893 16.1386C8.12911 16.399 8.55106 16.3991 8.8114 16.1389L16.1449 8.80537C16.4007 8.54055 16.3933 8.11851 16.1285 7.86274Z" fill="#178556"/>
<path d="M8.8114 16.1389C8.55106 16.3991 8.12911 16.399 7.86893 16.1386L0.535604 8.80528C0.529988 8.79991 0.524536 8.79446 0.519165 8.78893C0.263387 8.52411 0.270711 8.10208 0.535604 7.8463C0.800415 7.59044 1.22245 7.59784 1.47823 7.86265L7.67354 14.058V1.00065C7.67354 0.632488 7.97204 0.333984 8.34021 0.333984C8.70837 0.333984 9.00687 0.632488 9.00687 1.00065V14.058L15.2023 7.86274C15.4606 7.61314 15.8701 7.61314 16.1285 7.86274C16.3933 8.11851 16.4007 8.54055 16.1449 8.80537L8.8114 16.1389ZM8.8114 16.1389V16.1389Z" stroke="#178556" stroke-width="0.470588"/>
</svg>
