<svg width="97" height="97" viewBox="0 0 97 97" fill="none" xmlns="http://www.w3.org/2000/svg">
<path d="M48.457 0C21.723 0 0 21.723 0 48.457C0 75.191 21.723 96.914 48.457 96.914C75.191 96.914 96.914 75.191 96.914 48.457C96.9179 21.723 75.195 0 48.457 0ZM76.492 34.234L41.14 71.218C40.3236 72.0344 39.2103 72.5188 38.0931 72.5188C37.015 72.5188 35.9759 72.1086 35.1986 71.4055L17.3396 55.1395C15.6326 53.5418 15.5193 50.87 17.0427 49.1239C18.6404 47.3778 21.3513 47.2684 23.0935 48.827L37.8705 62.268L70.2885 28.327C71.9213 26.62 74.6323 26.5809 76.3393 28.2137C78.0541 29.8153 78.1288 32.527 76.492 34.234Z" fill="#36B37E"/>
</svg>
