<svg width="23" height="23" viewBox="0 0 23 23" fill="none" xmlns="http://www.w3.org/2000/svg">
<path d="M5.90039 17.1V3.1C5.90039 2.54305 6.12164 2.0089 6.51547 1.61508C6.90929 1.22125 7.44344 1 8.00039 1H19.9004" stroke="white" stroke-width="1.3" stroke-miterlimit="10" stroke-linecap="round" stroke-linejoin="round"/>
<path d="M17.8 4.5H22V3.1C22 2.54305 21.7788 2.0089 21.3849 1.61508C20.9911 1.22125 20.457 1 19.9 1C19.343 1 18.8089 1.22125 18.4151 1.61508C18.0212 2.0089 17.8 2.54305 17.8 3.1V18.5C17.8 19.4283 17.4313 20.3185 16.7749 20.9749C16.1185 21.6313 15.2283 22 14.3 22M14.3 22C13.3717 22 12.4815 21.6313 11.8251 20.9749C11.1687 20.3185 10.8 19.4283 10.8 18.5V17.1H1V18.5C1 19.4283 1.36875 20.3185 2.02513 20.9749C2.35013 21.2999 2.73597 21.5577 3.16061 21.7336C3.58525 21.9095 4.04037 22 4.5 22H14.3Z" stroke="white" stroke-width="1.3" stroke-miterlimit="10" stroke-linecap="round" stroke-linejoin="round"/>
<path d="M9.70117 4.5H14.3012M9.70117 10.1H14.3012M9.70117 7.3H13.9012M9.70117 12.9H13.9012" stroke="white" stroke-width="1.3" stroke-miterlimit="10" stroke-linecap="round" stroke-linejoin="round"/>
</svg>
