<svg width="33" height="33" viewBox="0 0 33 33" fill="none" xmlns="http://www.w3.org/2000/svg">
<g clip-path="url(#clip0_8284_50903)">
<path d="M31.7337 17.2491C32.3579 17.7079 32.9999 18.0367 32.9999 18.7732C32.9999 18.978 32.7321 19.1926 32.1295 19.1926C31.6688 19.1926 31.1646 19.0627 30.9382 18.724C30.7452 18.4818 31.0229 18.145 30.8535 17.8969C30.7295 17.6882 30.4301 17.7907 30.249 17.6883C30.0225 17.5662 29.9969 17.4578 29.8492 17.1507C29.6838 16.7765 29.1207 16.1465 28.4551 15.4769C27.8644 14.9118 27.2854 14.6242 27.0058 14.6498C26.8246 14.6695 26.7577 14.6695 26.5726 14.6695C26.1 14.6695 25.6767 15.1283 24.9914 15.4178C24.509 15.6285 24.2313 15.7526 23.9202 15.792L23.8217 15.918L24.444 15.8983L26.3855 15.8195C26.9763 15.8195 27.2874 16.3511 27.5158 16.9222C27.9726 18.0643 28.6638 19.7184 29.4692 21.0968C29.8748 21.7407 30.2017 22.1601 30.2017 22.9616C30.2017 23.2018 30.1821 23.5326 29.8473 23.5326C29.3944 23.5326 28.2227 23.0601 28.2227 22.5383C28.2227 22.1385 28.5338 21.9711 28.5338 21.5733C28.5338 21.3252 28.14 21.3666 28.077 21.1343C27.7816 19.9035 27.4272 18.6925 26.7419 17.964C26.3835 17.582 26.3402 17.4165 25.9897 17.4165C25.8025 17.4203 25.6174 17.4562 25.4423 17.5228C24.4853 17.8811 23.2132 18.9484 21.6261 19.425C21.0196 19.6081 20.9172 19.2557 20.2871 19.3817H20.3304C19.8283 19.4841 19.4246 19.7795 18.7413 19.9665C17.7568 20.2422 16.1302 20.3603 14.8109 20.189L12.1447 19.9035C11.7469 21.0496 10.8904 22.5501 9.63803 23.1388C8.96852 23.4303 8.76171 23.8477 8.96847 24.6038C9.22446 25.5411 10.0554 26.2323 10.4965 27.022C10.8904 27.7112 11.5402 28.7981 12.2294 29.1546C12.9186 29.511 13.3321 30.0347 13.3321 30.4738C13.3321 30.6826 13.2494 30.8047 13.0367 30.8047H11.6643C11.4536 30.8047 11.3492 30.6826 11.3059 30.596C11.1149 30.2415 11.2468 29.9068 10.9948 29.5956C10.8057 29.3593 10.66 29.4263 10.4335 29.2412C10.0141 28.8434 10.3252 28.615 10.0141 28.1129C9.13783 26.7345 8.76373 26.3958 8.0253 25.4152C7.63148 24.8914 7.11158 24.6432 7.11158 23.9579C7.11158 23.1269 7.94649 22.9695 7.92483 22.1385C7.30283 22.6031 6.56649 22.8903 5.79422 22.9695C5.66819 22.9971 5.34132 23.2451 5.19166 23.4144C4.85691 23.7492 4.73289 24.0781 4.6876 24.5901C4.58914 25.7125 4.35678 26.8624 4.50053 27.9887C4.6876 28.7173 4.81558 28.9655 5.41617 29.3573C5.79031 29.6133 6.2373 29.9481 6.27274 30.4916C6.27274 30.6295 6.23337 30.8066 6.02858 30.8066H4.54385C4.39617 30.8066 4.26817 30.6983 4.22879 30.6176C4.06535 30.3301 4.16969 30.1213 4.10668 29.7826C3.96293 29.0974 3.18118 29.1328 3.18118 28.4239C3.18118 28.2191 3.30916 27.9455 3.33279 27.5044C3.37611 26.5474 3.66361 24.9996 3.37612 23.125C3.24813 22.0361 4.37647 21.9927 4.95934 21.0298C5.31379 20.4883 5.20938 20.7207 5.4122 20.3209C5.62487 19.9015 5.5816 19.6081 5.56388 19.362C5.56388 19.0469 5.2488 18.3813 5.4595 17.0246C5.54417 16.4181 5.83364 15.8155 6.23338 15.2917C6.23338 15.272 6.23337 15.1855 6.10538 15.1855C5.52252 15.2249 5.52252 15.081 5.12081 15.081C4.96832 15.0889 4.82059 15.137 4.69265 15.2203C4.5647 15.3037 4.46109 15.4194 4.39224 15.5557C4.2032 15.4769 4.12242 15.2681 4.12242 15.1618C4.12242 14.9551 4.16775 14.7621 4.37451 14.5554C4.45328 14.4687 4.37451 14.4313 4.26424 14.4313C3.81134 14.4313 3.3781 14.9945 3.26783 15.3903C2.99609 15.347 2.97643 14.9925 2.84844 14.9925C2.72045 14.9925 2.64364 15.1776 2.64364 15.3666C2.64364 16.7056 4.80965 17.001 4.80965 18.7417C4.80965 20.7699 2.3719 20.3564 2.3719 21.1047C2.3719 21.2504 2.47822 21.3744 2.66726 21.4591C2.58062 21.6462 2.37189 21.7348 2.1415 21.7348C1.59999 21.7348 1.20218 21.335 1.20218 20.7935C1.20218 19.6908 2.68499 19.6712 2.68499 18.8323C2.68499 18.4385 2.43684 18.3105 2.20448 18.1235C0.786699 17.1251 -0.00683594 16.1188 -0.00683594 14.4687C-0.00683594 12.6965 1.22585 11.3377 2.82873 11.3377C5.17201 11.3377 5.23106 14.0296 7.35773 14.258C8.14932 13.7204 9.0906 13.4034 10.0102 13.4034C11.3886 13.4034 11.995 13.7578 13.4502 13.7578C14.041 13.7578 15.0197 13.5944 16.1874 12.7732C16.6285 12.4897 16.8116 12.4227 17.2074 12.0644C18.127 11.2767 18.9796 9.72702 18.9796 8.62233V8.68134C18.9796 8.3269 18.8949 8.11827 18.7335 8.11827C18.2274 8.11827 17.7942 8.57903 17.2881 9.05753C16.973 9.39228 17.4595 9.53797 16.7427 9.93573C16.4926 10.0618 16.207 9.83141 15.9294 9.83141C15.3662 9.83141 15.1142 9.16181 15.1142 8.57895C15.1142 8.28358 15.3446 8.2049 15.4726 7.92922C15.762 7.36604 15.7443 7.15339 16.0121 6.59022C16.1815 6.21608 16.4729 5.95998 16.4493 5.69218C16.4493 5.58979 16.3666 5.52685 16.3666 5.42248C16.3666 4.85931 17.1148 4.4832 17.1148 3.92003C17.1148 3.60497 16.7604 3.45925 16.6738 3.2072C16.5871 2.95515 16.658 2.9 16.658 2.9C16.6738 2.85275 16.7171 2.83498 16.7564 2.83498C17.0518 2.83498 17.1759 3.14415 17.4496 3.31152C17.4693 2.93739 17.3452 2.85469 17.3452 2.58295C17.3452 2.43723 17.3196 2.21278 17.4713 2.21278C17.6603 2.21278 17.6327 2.46087 17.806 2.58295C18.0108 2.7523 18.1998 2.73068 18.4302 2.87837C18.7256 3.06544 18.887 3.38243 18.9934 3.39818C19.2848 3.44544 19.3675 3.0871 19.2218 2.87837C19.5565 2.85868 19.8972 3.12644 20.3383 3.12644C21.0275 3.12644 21.254 3.31357 21.382 3.41597C21.8211 3.7901 21.9038 4.08541 22.3665 4.08541C22.6146 4.08541 22.7406 3.88057 22.8036 3.78999C23.1345 4.04597 23.1542 4.67029 22.8036 5.19605C22.9494 5.62926 23.5677 5.67253 23.8631 5.8852C24.1585 6.09787 24.1191 6.20023 24.3298 6.32232C24.4912 6.42669 24.637 6.40503 24.763 6.32232C24.9067 6.91306 24.4085 7.431 23.7981 7.50977C23.8237 8.26198 24.6172 8.72278 24.9697 8.88819C24.761 9.35093 24.3888 9.49857 24.0482 9.57734C24.1585 10.0421 24.6547 10.7096 24.4026 11.3102C24.1781 11.2058 23.8394 11.3102 23.8394 11.6449C23.8394 12.019 24.3258 12.2042 23.8198 12.4779C23.5933 12.6059 23.548 12.9367 23.9655 13.2518C24.507 13.1022 25.0288 13.1257 25.6333 13.1257C26.0075 13.1257 26.5076 13.0233 26.8424 13.0233C27.4725 13.0233 27.8427 13.2715 28.3074 13.7716C29.4495 15.022 30.4931 16.3315 31.6904 17.2373" fill="#231F20"/>
<path d="M0.751504 13.9073C1.00158 13.9073 1.46038 12.529 2.39572 12.529C2.6714 12.529 2.73044 12.6353 2.73044 12.7376C2.73044 12.9267 2.42132 13.0921 2.42132 13.3382C2.42132 13.3815 2.44098 13.4446 2.52762 13.4446C2.7521 13.4446 2.92145 12.9445 3.86073 12.9445C4.09262 12.941 4.32387 12.9694 4.54796 13.0291C4.64642 13.0547 4.86305 13.1512 4.78034 12.8637C4.54798 12.21 3.84302 11.6093 2.83482 11.6093C1.82662 11.6093 0.792811 12.5092 0.668755 13.5883C0.649064 13.7754 0.649076 13.9035 0.75541 13.9035M18.0799 5.31011C17.8082 5.20771 17.7649 5.06195 17.8436 4.7272C17.9066 4.37276 17.9283 4.22314 17.7589 4.18179C17.6152 4.14635 17.4242 4.2212 17.2391 4.4319C17.0697 4.66426 16.8019 4.934 16.7153 5.16636C16.6365 5.45583 16.9909 5.41643 16.735 5.89493L15.9867 7.42491C15.7977 8.01171 15.652 8.09047 15.5496 8.27163C15.4216 8.44491 15.715 8.45878 16.0458 8.36032C16.4003 8.2343 16.4396 8.65175 16.3017 8.94515C16.1954 9.15388 16.2781 9.23652 16.5676 9.00417C16.8433 8.79544 16.4219 8.6104 16.5282 7.96058C16.6093 7.40722 16.8146 6.87942 17.1288 6.41678C17.4498 5.89103 17.7156 5.51877 18.2571 5.7078C18.4698 5.8102 18.3595 5.43613 18.072 5.31011M29.6841 23.0284C29.7904 23.0284 29.8061 22.8828 29.8061 22.7587C29.8061 22.4633 29.6447 22.0301 29.4123 21.8371C29.3532 22.2743 29.1366 22.5657 29.1366 22.7587C29.1366 22.9044 29.5304 23.0284 29.6801 23.0284M32.24 18.8341C32.4034 18.8341 32.6338 18.7751 32.6338 18.649C32.6338 18.397 32.24 17.9598 31.9249 17.8554C32.1573 18.2926 31.9249 18.8341 32.2203 18.8341M20.8111 13.1355C23.1701 14.2185 23.0244 16.2034 23.2332 15.6993C23.3669 15.3395 23.3969 14.9493 23.3196 14.5733C23.2423 14.1972 23.0608 13.8505 22.796 13.5726C22.1501 12.8243 21.8941 13.0095 22.1501 12.3853C23.1701 9.89824 23.8239 6.14303 20.7717 4.82371C20.4173 4.67996 20.1298 4.68001 20.1298 4.74499C20.1298 4.80997 20.4606 4.91236 20.8584 5.18607C22.9004 6.5369 22.2761 10.2369 20.3956 12.0308C19.7655 12.6373 20.0648 12.7791 20.8328 13.1335M12.7731 30.4561C12.9385 30.4561 12.8518 30.2119 12.7928 30.1075C12.6451 29.8515 12.3989 29.688 12.1429 29.5817C12.2118 29.8298 12.2296 30.4561 12.4777 30.4561H12.7731ZM5.63493 30.4561C5.80034 30.4561 5.67435 30.2119 5.61528 30.1075C5.4676 29.8515 5.17414 29.7097 4.94572 29.6054C5.00479 29.8535 5.04816 30.4561 5.30021 30.4561H5.63493ZM14.2519 16.3097C15.5515 16.164 15.7602 15.8706 15.9887 14.8821C16.0911 14.4292 16.4219 13.9507 16.7173 13.6317C16.9063 13.4269 17.0953 13.2614 17.2824 12.9483C17.3415 12.8262 17.3848 12.7258 17.2824 12.7574L16.5065 13.3029C15.6439 13.8602 14.6542 14.1901 13.6296 14.2619C12.4422 14.2619 11.4203 13.9073 10.3313 13.9073C7.07439 13.9073 5.86142 16.4575 6.03864 17.9382C6.05833 18.1667 6.09373 18.1844 6.17643 18.1844C6.40682 18.1844 6.59393 17.3119 7.41309 16.5381C8.60048 15.4157 9.89421 14.7659 11.7334 14.7659C13.0685 14.7659 13.608 15.1991 13.608 15.3684C13.608 15.6992 13.0429 15.719 13.0901 16.0577C13.0901 16.162 13.3993 16.4122 14.2716 16.3078" fill="#656263"/>
</g>
<defs>
<clipPath id="clip0_8284_50903">
<rect width="33" height="33" fill="white"/>
</clipPath>
</defs>
</svg>
