<svg width="240" height="55" viewBox="0 0 240 55" fill="none" xmlns="http://www.w3.org/2000/svg">
<path d="M46.5371 19.2473L46.4517 22.323H47.9041L47.8186 19.3328" fill="#1F3162"/>
<path d="M36.2848 17.4531L36.1994 20.1016L42.1799 21.2977L42.0944 18.7347" fill="#1F3162"/>
<path d="M46.7934 0.0243018L5.10092 8.65328C3.13591 8.90959 3.47765 10.1911 3.47765 10.1911L3.39221 15.4881L5.27179 14.1211L5.35723 11.6435C5.35723 11.1309 5.69897 10.6183 6.12615 10.4474C7.74942 9.76394 11.2523 9.16589 12.1066 8.99502C12.1921 8.99502 12.2775 9.08045 12.2775 9.16589V11.0455C11.2523 11.3018 10.9105 11.9853 10.7397 12.4979C10.4834 13.0959 10.4834 13.694 10.7397 14.3775C11.0814 15.1464 11.7649 15.8299 12.6192 16.0007C14.2425 16.3425 15.6949 15.1464 15.6949 13.5231C15.6949 12.925 15.4386 12.327 15.0969 11.8144C14.7551 11.3872 14.3279 11.2163 14.2425 11.1309C14.2425 11.1309 14.2425 11.1309 14.2425 11.0455L14.3279 8.82415C14.3279 8.65328 14.4134 8.56784 14.5843 8.56784L41.4964 3.35628C41.5818 3.35628 41.6673 3.44172 41.6673 3.44172L41.5818 8.05523C41.5818 8.14067 41.4964 8.2261 41.411 8.2261L33.2092 9.76394C32.782 9.25133 32.0985 8.90958 31.3296 8.90958C30.4752 8.90958 29.7918 9.25133 29.2791 9.84937L27.2287 8.65328C27.0578 8.56784 26.8015 8.48241 26.6306 8.56784L19.7958 10.5329C19.6249 10.6183 19.5395 10.7037 19.5395 10.8746L19.4541 14.6338L21.2482 14.8901L21.3337 12.4124C21.3337 12.2416 21.4191 12.0707 21.59 12.0707L26.6306 10.7892C26.887 10.7037 27.1433 10.7892 27.3141 10.8746L28.6811 11.729C28.852 13.0105 29.8772 13.9503 31.1587 14.0357C32.5257 14.0357 33.6364 13.0105 33.7218 11.729L41.3255 10.2766C43.376 10.0202 43.2906 8.82415 43.2906 8.82415L43.376 3.95433C43.376 3.35628 43.7177 2.84367 44.2303 2.58736C44.2303 2.58736 44.2303 2.58736 44.3158 2.58736C45.341 2.16019 46.3662 2.33106 46.3662 3.44172L46.2808 9.84937C46.2808 10.1057 46.1099 10.2766 45.939 10.362L40.5566 12.4124C40.3858 12.4979 40.3003 12.6687 40.3003 12.8396L40.2149 16.7696C40.2149 16.8551 40.1294 16.9405 40.044 16.9405H38.3353C38.1644 16.9405 38.079 16.8551 38.079 16.6842V14.9755C38.079 14.8901 37.9936 14.7192 37.8227 14.7192H36.4557C36.2849 14.7192 36.1994 14.8046 36.1994 14.9755L36.114 17.624L41.7527 18.7347L41.8382 14.292C41.8382 14.1211 41.9236 13.9503 42.0945 13.9503L45.7682 12.5833C45.9391 12.4979 46.1099 12.6687 46.1099 12.8396L46.0245 19.3327H47.7332L48.0749 1.56214C48.1604 -0.317441 46.7934 0.0243018 46.7934 0.0243018Z" fill="#1682A9"/>
<path d="M12.961 14.5483C13.5272 14.5483 13.9862 14.0892 13.9862 13.523C13.9862 12.9568 13.5272 12.4978 12.961 12.4978C12.3947 12.4978 11.9357 12.9568 11.9357 13.523C11.9357 14.0892 12.3947 14.5483 12.961 14.5483Z" fill="white"/>
<path d="M31.2441 12.5833C31.8575 12.5833 32.3548 12.086 32.3548 11.4726C32.3548 10.8592 31.8575 10.3619 31.2441 10.3619C30.6307 10.3619 30.1335 10.8592 30.1335 11.4726C30.1335 12.086 30.6307 12.5833 31.2441 12.5833Z" fill="white"/>
<path d="M1.17087 17.0261C1.17087 15.5737 1.85435 14.1213 3.13589 13.3523C3.99024 12.8397 5.27177 12.5834 6.89504 13.0106L44.9992 18.3076C44.9992 18.3076 45.1701 18.3076 45.5118 18.393C49.5273 18.9911 52.4321 22.4939 52.4321 26.5094V32.917L43.6323 32.1481C43.0342 32.0627 42.4362 32.1481 41.9236 32.4044C41.1546 32.7462 40.2149 33.7714 40.2149 35.3092C40.2149 35.3092 39.8731 38.7267 43.2051 38.7267L52.3467 39.581V48.3809C52.3467 49.3206 52.0904 50.2604 51.4923 51.0294C50.638 52.14 48.8438 53.2507 45.341 52.3963C38.8479 50.9439 6.63874 47.5265 6.63874 47.5265C6.63874 47.5265 1 46.5867 1 40.1791V17.0261H1.17087Z" fill="#202153"/>
<path d="M20.0521 38.4702C20.6655 38.4702 21.1628 37.973 21.1628 37.3596C21.1628 36.7462 20.6655 36.2489 20.0521 36.2489C19.4387 36.2489 18.9415 36.7462 18.9415 37.3596C18.9415 37.973 19.4387 38.4702 20.0521 38.4702Z" fill="white"/>
<path d="M10.4833 35.48C11.0967 35.48 11.594 34.9827 11.594 34.3693C11.594 33.7559 11.0967 33.2587 10.4833 33.2587C9.86994 33.2587 9.37268 33.7559 9.37268 34.3693C9.37268 34.9827 9.86994 35.48 10.4833 35.48Z" fill="white"/>
<path d="M52.1758 35.6509C52.4321 36.847 51.4069 37.9576 50.1253 37.7013C49.5273 37.5305 49.1001 37.1033 48.9292 36.5052C48.6729 35.3091 49.6982 34.1985 50.9797 34.4548C51.5777 34.6256 52.0049 35.0528 52.1758 35.6509Z" fill="#1682A9"/>
<path d="M12.961 34.3695C12.961 32.9171 11.7649 31.8064 10.3979 31.8064C8.9455 31.8064 7.83484 33.0025 7.83484 34.3695C7.83484 35.4801 8.60376 36.4199 9.62898 36.8471V47.7828C10.1416 47.7828 10.6542 47.8683 11.1668 47.9537V36.8471C12.192 36.5053 12.961 35.4801 12.961 34.3695ZM10.3979 35.3947C9.79985 35.3947 9.28724 34.8821 9.28724 34.284C9.28724 33.686 9.79985 33.1734 10.3979 33.1734C10.9959 33.1734 11.5086 33.686 11.5086 34.284C11.5086 34.9675 10.9959 35.3947 10.3979 35.3947Z" fill="#1682A9"/>
<path d="M9.62897 47.6974L11.1668 47.8682L9.62897 47.6119" fill="#1682A9"/>
<path d="M20.0521 34.7966C18.5997 34.7966 17.4891 35.9073 17.4891 37.3597C17.4891 37.7869 17.5745 38.1286 17.7454 38.4704L14.4134 41.4606V48.0391V48.21L15.7804 48.3809V42.3149L18.7706 39.581C19.1123 39.7519 19.5395 39.9228 19.9667 39.9228C21.4191 39.9228 22.5298 38.8121 22.5298 37.3597C22.6152 35.9927 21.4191 34.7966 20.0521 34.7966ZM20.0521 38.4704C19.4541 38.4704 18.9415 37.9577 18.9415 37.3597C18.9415 36.7616 19.4541 36.249 20.0521 36.249C20.6502 36.249 21.1628 36.7616 21.1628 37.3597C21.1628 37.9577 20.6502 38.4704 20.0521 38.4704Z" fill="#1682A9"/>
<path d="M78.8316 32.4044C78.4045 33.0878 77.8919 33.6859 77.2938 34.2839C76.6958 34.882 76.0977 35.3092 75.3288 35.7363C74.6453 36.1635 73.8764 36.4198 73.1075 36.6761C72.3386 36.9324 71.4842 37.0179 70.6299 37.0179C69.2629 37.0179 68.0668 36.7616 66.8707 36.2489C65.6746 35.6509 64.6494 34.9674 63.795 34.1131C62.9407 33.2587 62.2572 32.2335 61.7446 31.0374C61.232 29.8413 60.9756 28.6452 60.9756 27.2782C60.9756 25.9113 61.232 24.7152 61.7446 23.5191C62.2572 22.323 62.9407 21.2977 63.795 20.4434C64.6494 19.589 65.6746 18.9056 66.8707 18.3929C68.0668 17.8803 69.2629 17.624 70.6299 17.624C71.4842 17.624 72.3386 17.7095 73.1075 17.9658C73.8764 18.2221 74.6453 18.4784 75.3288 18.9056C76.0123 19.3327 76.6958 19.7599 77.2938 20.358C77.8919 20.956 78.4045 21.5541 78.8316 22.2375L75.6705 24.288C75.1579 23.3482 74.4744 22.5793 73.6201 21.9812C72.7657 21.3832 71.7405 21.1269 70.6299 21.1269C69.8609 21.1269 69.092 21.2977 68.4085 21.6395C67.725 21.9812 67.127 22.4084 66.6144 23.0065C66.1018 23.6045 65.6746 24.2025 65.4183 24.9715C65.0766 25.7404 64.9911 26.5093 64.9911 27.4491C64.9911 28.3889 65.162 29.1578 65.4183 29.9267C65.76 30.6956 66.1018 31.3791 66.6144 31.8917C67.127 32.4898 67.725 32.917 68.4085 33.2587C69.092 33.6004 69.8609 33.7713 70.6299 33.7713C71.7405 33.7713 72.7657 33.515 73.6201 32.917C74.4744 32.3189 75.1579 31.55 75.6705 30.6102L78.8316 32.4044Z" fill="#202153"/>
<path d="M93.2703 23.2628V36.7616H89.7674V30.0122C89.7674 29.4996 89.682 28.987 89.5111 28.5598C89.3403 28.1326 88.9985 27.7054 88.6568 27.3637C88.315 27.0219 87.8878 26.7656 87.4607 26.5948C87.0335 26.4239 86.5209 26.3385 86.0083 26.3385C85.4957 26.3385 84.983 26.4239 84.5559 26.5948C84.1287 26.7656 83.7015 27.0219 83.3598 27.3637C83.018 27.7054 82.7617 28.1326 82.5054 28.5598C82.3346 28.987 82.2491 29.4996 82.2491 30.0122C82.2491 30.5248 82.3346 30.952 82.5054 31.4646C82.6763 31.8918 83.018 32.3189 83.3598 32.6607C83.7015 33.0024 84.1287 33.2587 84.5559 33.4296C84.983 33.6005 85.4957 33.6859 86.0083 33.6859C86.6063 33.6859 87.0335 33.6005 87.4607 33.4296V33.515L88.8276 35.9072C87.9733 36.5907 86.8626 36.9325 85.5811 36.9325C84.6413 36.9325 83.7015 36.7616 82.8472 36.4198C81.9928 36.0781 81.3093 35.5655 80.6258 34.9674C80.0278 34.3694 79.5152 33.6005 79.1734 32.7461C78.8317 31.8918 78.6608 31.0374 78.6608 30.0122C78.6608 29.0724 78.8317 28.1326 79.1734 27.2783C79.5152 26.4239 80.0278 25.7404 80.6258 25.0569C81.2239 24.4589 81.9928 23.9463 82.8472 23.6045C83.7015 23.2628 84.5559 23.0919 85.5811 23.0919C86.5209 23.0919 87.2898 23.2628 88.0587 23.6045C88.7422 23.9463 89.3403 24.4589 89.8529 25.1424V23.3482H93.2703V23.2628Z" fill="#202153"/>
<path d="M103.01 23.0919C103.95 23.0919 104.889 23.2628 105.744 23.6045C106.598 23.9463 107.367 24.4589 107.965 25.1424C108.563 25.7404 109.076 26.5093 109.503 27.3637C109.845 28.218 110.016 29.0724 110.016 30.0976C110.016 31.1228 109.845 31.9772 109.503 32.8316C109.161 33.6859 108.649 34.4548 107.965 35.0529C107.367 35.6509 106.598 36.1635 105.744 36.5907C104.889 36.9325 103.95 37.1033 103.01 37.1033C101.643 37.1033 100.618 36.7616 99.6779 35.9927L101.045 33.515C101.558 33.7713 101.985 33.8568 102.497 33.8568C103.01 33.8568 103.523 33.7713 103.95 33.6005C104.377 33.4296 104.804 33.0879 105.146 32.7461C105.488 32.4044 105.744 31.9772 106 31.55C106.171 31.0374 106.256 30.6102 106.256 30.0122C106.256 29.4996 106.171 28.987 106 28.5598C105.829 28.1326 105.488 27.7054 105.146 27.3637C104.804 27.0219 104.377 26.7656 103.95 26.5093C103.523 26.3385 103.01 26.253 102.497 26.253C101.985 26.253 101.472 26.3385 101.045 26.5093C100.618 26.6802 100.191 26.9365 99.8488 27.2783C99.507 27.62 99.2507 28.0472 99.0799 28.4744C98.909 28.9015 98.8236 29.4141 98.8236 29.9268V41.9731H95.1498V23.2628H98.8236V25.0569C99.7634 23.69 101.216 23.0919 103.01 23.0919Z" fill="#202153"/>
<path d="M115.056 17.8803H111.468V21.0414H115.056V17.8803Z" fill="#202153"/>
<path d="M115.056 23.2627H111.468V36.7615H115.056V23.2627Z" fill="#202153"/>
<path d="M121.891 32.148C121.891 32.5752 122.062 32.9169 122.318 33.1732C122.575 33.4296 123.002 33.6004 123.344 33.6004H125.992V36.7615H123.344C122.66 36.7615 121.977 36.5907 121.379 36.3344C120.78 36.0781 120.182 35.7363 119.755 35.2237C119.328 34.7965 118.901 34.1985 118.645 33.6004C118.388 33.0024 118.217 32.3189 118.217 31.6354V27.6199H116.252V24.6297H118.217V19.7599H121.806V32.148H121.891Z" fill="#202153"/>
<path d="M125.992 24.6296V27.6199H124.027L122.318 24.6296H125.992Z" fill="#202153"/>
<path d="M141.798 23.2628V36.7616H138.295V30.0122C138.295 29.4996 138.209 28.987 138.038 28.5598C137.868 28.1326 137.526 27.7054 137.184 27.3637C136.842 27.0219 136.415 26.7656 135.988 26.5948C135.561 26.4239 135.048 26.3385 134.536 26.3385C134.023 26.3385 133.51 26.4239 133.083 26.5948C132.656 26.7656 132.229 27.0219 131.887 27.3637C131.545 27.7054 131.289 28.1326 131.033 28.5598C130.862 28.987 130.776 29.4996 130.776 30.0122C130.776 30.5248 130.862 30.952 131.033 31.4646C131.204 31.8918 131.545 32.3189 131.887 32.6607C132.229 33.0024 132.656 33.2587 133.083 33.4296C133.51 33.6005 134.023 33.6859 134.536 33.6859C135.134 33.6859 135.561 33.6005 135.988 33.4296V33.515L137.355 35.9072C136.501 36.5907 135.39 36.9325 134.108 36.9325C133.169 36.9325 132.229 36.7616 131.374 36.4198C130.52 36.0781 129.837 35.5655 129.153 34.9674C128.555 34.3694 128.042 33.6005 127.701 32.7461C127.359 31.8918 127.188 31.0374 127.188 30.0122C127.188 29.0724 127.359 28.1326 127.701 27.2783C128.042 26.4239 128.555 25.7404 129.153 25.0569C129.751 24.4589 130.52 23.9463 131.374 23.6045C132.229 23.2628 133.083 23.0919 134.108 23.0919C135.048 23.0919 135.817 23.2628 136.586 23.6045C137.269 23.9463 137.868 24.4589 138.38 25.1424V23.3482H141.798V23.2628Z" fill="#202153"/>
<path d="M147.265 17.8803V36.7615H143.677L143.763 17.8803H147.265Z" fill="#202153"/>
<path d="M157.603 17.8803L160.593 30.2684L157.603 33.9422L153.759 17.8803H157.603Z" fill="#202153"/>
<path d="M174.263 17.8803H178.193L173.58 36.7615H168.624L165.89 25.2278L163.327 36.7615H159.397L164.011 17.8803H167.855L171.102 33.4296L174.263 17.8803Z" fill="#202153"/>
<path d="M191.948 23.2628V36.7616H188.445V30.0122C188.445 29.4996 188.36 28.987 188.189 28.5598C188.018 28.1326 187.676 27.7054 187.335 27.3637C186.993 27.0219 186.566 26.7656 186.139 26.5948C185.711 26.4239 185.199 26.3385 184.686 26.3385C184.174 26.3385 183.661 26.4239 183.234 26.5948C182.807 26.7656 182.379 27.0219 182.038 27.3637C181.696 27.7054 181.44 28.1326 181.183 28.5598C181.012 28.987 180.927 29.4996 180.927 30.0122C180.927 30.5248 181.012 30.952 181.183 31.4646C181.354 31.8918 181.696 32.3189 182.038 32.6607C182.379 33.0024 182.807 33.2587 183.234 33.4296C183.661 33.6005 184.174 33.6859 184.686 33.6859C185.284 33.6859 185.711 33.6005 186.139 33.4296V33.515L187.506 35.9072C186.651 36.5907 185.541 36.9325 184.259 36.9325C183.319 36.9325 182.379 36.7616 181.525 36.4198C180.671 36.0781 179.987 35.5655 179.304 34.9674C178.706 34.3694 178.193 33.6005 177.851 32.7461C177.51 31.8918 177.339 31.0374 177.339 30.0122C177.339 29.0724 177.51 28.1326 177.851 27.2783C178.193 26.4239 178.706 25.7404 179.304 25.0569C179.902 24.4589 180.671 23.9463 181.525 23.6045C182.379 23.2628 183.234 23.0919 184.259 23.0919C185.199 23.0919 185.968 23.2628 186.737 23.6045C187.42 23.9463 188.018 24.4589 188.531 25.1424V23.3482H191.948V23.2628Z" fill="#202153"/>
<path d="M197.416 17.8803V36.7615H193.828V17.8803H197.416Z" fill="#202153"/>
<path d="M202.628 17.8803V36.7615H199.039V17.8803H202.628Z" fill="#202153"/>
<path d="M210.915 23.0919C211.855 23.0919 212.794 23.2628 213.649 23.6045C214.503 23.9463 215.187 24.4589 215.87 25.0569C216.468 25.655 216.981 26.4239 217.322 27.2783C217.664 28.1326 217.835 28.987 217.835 30.0122C217.835 30.5248 217.75 31.0374 217.664 31.55V31.6355H210.829L209.121 28.9015H214.247C213.991 28.1326 213.563 27.5346 212.965 27.022C212.367 26.5093 211.684 26.253 210.915 26.253C210.402 26.253 209.975 26.3385 209.548 26.5093C209.121 26.6802 208.779 26.9365 208.437 27.2783C208.095 27.62 207.839 27.9617 207.668 28.4744C207.497 28.9015 207.412 29.4141 207.412 29.9268C207.412 30.3539 207.497 30.7811 207.668 31.2083C207.839 31.6355 208.095 32.0626 208.352 32.4044C208.694 32.7461 209.035 33.0879 209.462 33.3442C209.89 33.6005 210.402 33.6859 210.915 33.6859C211.427 33.6859 211.855 33.6005 212.282 33.515C212.709 33.3442 213.051 33.0879 213.392 32.5753H213.478L216.639 33.9422L216.554 34.0277C215.87 34.9674 215.101 35.6509 214.076 36.1635C213.051 36.6762 212.026 36.9325 210.915 36.9325C209.975 36.9325 209.035 36.7616 208.181 36.4198C207.327 36.0781 206.558 35.5655 205.96 34.9674C205.362 34.3694 204.849 33.6005 204.507 32.7461C204.165 31.8918 203.995 31.0374 203.995 30.0122C203.995 29.0724 204.165 28.1326 204.507 27.2783C204.849 26.4239 205.362 25.7404 205.96 25.0569C206.558 24.4589 207.327 23.9463 208.181 23.6045C209.035 23.2628 209.975 23.0919 210.915 23.0919Z" fill="#202153"/>
<path d="M224.499 32.148C224.499 32.5752 224.67 32.9169 224.926 33.1732C225.183 33.4296 225.61 33.6004 225.951 33.6004H228.6V36.7615H225.951C225.268 36.7615 224.584 36.5907 223.986 36.3344C223.388 36.0781 222.79 35.7363 222.363 35.2237C221.936 34.7965 221.509 34.1985 221.253 33.6004C220.996 33.0024 220.825 32.3189 220.825 31.6354V27.6199H218.86V24.6297H220.825V19.7599H224.414V32.148H224.499Z" fill="#202153"/>
<path d="M228.6 24.6296V27.6199H226.635L224.926 24.6296H228.6Z" fill="#202153"/>
</svg>
