<svg width="42" height="42" viewBox="0 0 42 42" fill="none" xmlns="http://www.w3.org/2000/svg">
<path d="M33.9375 32.9375H11.6364L6.18782 2.97049C6.12236 2.61047 5.93262 2.28485 5.65169 2.05039C5.37075 1.81593 5.01644 1.6875 4.65052 1.6875H1.125" stroke="#0A1856" stroke-width="1.7" stroke-linecap="round" stroke-linejoin="round"/>
<path d="M13.625 40.75C15.7824 40.75 17.5312 39.0011 17.5312 36.8438C17.5312 34.6864 15.7824 32.9375 13.625 32.9375C11.4676 32.9375 9.71875 34.6864 9.71875 36.8438C9.71875 39.0011 11.4676 40.75 13.625 40.75Z" stroke="#0A1856" stroke-width="1.7" stroke-linecap="round" stroke-linejoin="round"/>
<path d="M33.9375 40.75C36.0949 40.75 37.8438 39.0011 37.8438 36.8438C37.8438 34.6864 36.0949 32.9375 33.9375 32.9375C31.7801 32.9375 30.0312 34.6864 30.0312 36.8438C30.0312 39.0011 31.7801 40.75 33.9375 40.75Z" stroke="#0A1856" stroke-width="1.7" stroke-linecap="round" stroke-linejoin="round"/>
<path d="M10.2159 25.125H34.7385C35.4704 25.125 36.179 24.8681 36.7409 24.3992C37.3027 23.9303 37.6822 23.2791 37.8131 22.559L40.1875 9.5H7.375" stroke="#0A1856" stroke-width="1.7" stroke-linecap="round" stroke-linejoin="round"/>
</svg>
