<svg width="65" height="65" viewBox="0 0 65 65" fill="none" xmlns="http://www.w3.org/2000/svg">
<path d="M33.0198 0C35.6098 0.46 38.2298 0.74 40.7598 1.42C48.0851 3.50501 54.4418 8.10398 58.7137 14.4094C62.9856 20.7149 64.8997 28.3237 64.1198 35.9C62.4298 50.9 51.2498 62.9 36.5198 64.71C22.8698 66.41 11.2398 60.46 4.25977 48.54C2.06407 44.776 0.700134 40.5853 0.259766 36.25C0.202041 35.9889 0.118289 35.7343 0.00976562 35.49V29.93C0.119888 29.5382 0.210024 29.141 0.279785 28.74C1.04237 22.3678 3.68011 16.3657 7.85855 11.4947C12.037 6.62372 17.5679 3.10334 23.7498 1.38C26.2198 0.72 28.7498 0.45 31.3298 0H33.0198ZM54.0698 52.87C63.5398 43.39 65.9998 24.8 53.8498 11.87C48.5384 6.13001 41.1647 2.73474 33.3503 2.43094C25.5358 2.12714 17.9207 4.93969 12.1798 10.25C11.5798 10.8 11.0098 11.38 10.4598 11.97C-1.71022 25.21 1.12978 43.7 10.3398 52.8C14.7298 42.96 22.1598 37.24 33.0498 37.59C43.1398 37.94 50.0198 43.57 54.0698 52.87ZM32.1998 39.87C27.8802 39.9212 23.6791 41.2888 20.1573 43.7904C16.6355 46.2919 13.9606 49.8083 12.4898 53.87C12.3298 54.1954 12.2975 54.5689 12.3993 54.9169C12.5011 55.2649 12.7296 55.5621 13.0398 55.75C18.3791 60.3373 25.1855 62.8595 32.2248 62.8595C39.2641 62.8595 46.0704 60.3373 51.4098 55.75C51.713 55.5559 51.9332 55.2559 52.0275 54.9084C52.1217 54.5609 52.0834 54.1908 51.9198 53.87C50.4659 49.7897 47.796 46.2532 44.2699 43.7374C40.7438 41.2215 36.5311 39.8473 32.1998 39.8V39.87Z" fill="#0A1856"/>
<path d="M22.5195 25.07C22.5668 23.1612 23.1763 21.3088 24.2718 19.7449C25.3673 18.181 26.9 16.9752 28.6778 16.2786C30.4556 15.582 32.3995 15.4256 34.2658 15.829C36.1321 16.2324 37.8378 17.1776 39.1693 18.5462C40.5007 19.9148 41.3986 21.6459 41.7505 23.5226C42.1023 25.3994 41.8924 27.3382 41.1472 29.0961C40.4019 30.8541 39.1543 32.353 37.5609 33.405C35.9674 34.457 34.0989 35.0153 32.1895 35.01C29.6053 34.9247 27.1546 33.8418 25.3516 31.9885C23.5487 30.1352 22.5336 27.6556 22.5195 25.07ZM32.2295 17.39C30.7134 17.3471 29.2186 17.7547 27.9341 18.5613C26.6496 19.3678 25.6331 20.5371 25.013 21.9212C24.393 23.3054 24.1972 24.8424 24.4505 26.3378C24.7037 27.8332 25.3947 29.2199 26.436 30.3227C27.4773 31.4255 28.8222 32.1948 30.3006 32.5334C31.779 32.872 33.3247 32.7646 34.7421 32.2249C36.1595 31.6852 37.3851 30.7373 38.264 29.5012C39.1428 28.265 39.6354 26.7961 39.6795 25.28C39.6848 25.2235 39.6848 25.1666 39.6795 25.11C39.6758 23.11 38.898 21.189 37.5091 19.7498C36.1202 18.3106 34.2282 17.4649 32.2295 17.39Z" fill="#0A1856"/>
</svg>
