<?xml version="1.0" encoding="utf-8"?>
<!-- Generator: Adobe Illustrator 19.0.0, SVG Export Plug-In . SVG Version: 6.00 Build 0)  -->
<svg version="1.1" id="Layer_1" xmlns="http://www.w3.org/2000/svg" xmlns:xlink="http://www.w3.org/1999/xlink" x="0px" y="0px"
	 viewBox="-461 269 35.4 23" style="enable-background:new -461 269 35.4 23;" xml:space="preserve">
<style type="text/css">
	.st0{fill:#83BA3B;}
	.st1{fill:#FFFFFF;}
</style>
<path class="st0" d="M-428.4,291.6h-30c-1.2,0-2.2-1-2.2-2.2v-17.8c0-1.2,1-2.2,2.2-2.2h30c1.2,0,2.2,1,2.2,2.2v17.8
	C-426.1,290.6-427.1,291.6-428.4,291.6z"/>
<path class="st1" d="M-428.4,278.9c-0.4-0.2-1-0.4-1.8-0.4h-2.1l-0.8,3.6h-2.7l0.2-0.8h1.6l0.2-0.9l-1.6,0l0.2-0.8h1.7l0.2-1.1h-3.4
	l-0.7,3.4h-1.3l0.7-3.4h-1.8l-0.7,3.4h-1.2l0.7-3.4h-1.8l-0.8,3.6h-2.7l0.2-0.8h1.6l0.2-0.9l-1.6,0l0.2-0.8h1.7l0.2-1.1h-10.6
	l-0.6,2.9l-1.2-2.9h-1.9l-1,4.7h1.8l0.6-3l1.2,3h6.3l0.8-3.6h1l-0.8,3.6h16.7l0.5-2.3l0.8,2.3h1.8l-0.8-1.9l0.2,0
	c0.4-0.1,0.7-0.2,0.9-0.5c0.2-0.2,0.3-0.6,0.3-0.9C-427.8,279.4-428,279.1-428.4,278.9L-428.4,278.9z M-450.7,282.2h-2.7l0.2-0.8
	h1.7l0.2-0.9h-1.7l0.2-0.8h2.7L-450.7,282.2L-450.7,282.2z M-429.8,280.6c-0.2,0.1-0.4,0.2-0.8,0.2h-0.3l0.3-1.3h0.3
	c0.3,0,0.5,0,0.7,0.1c0.1,0.1,0.3,0.2,0.3,0.4C-429.5,280.3-429.7,280.5-429.8,280.6L-429.8,280.6z"/>
</svg>
