<svg width="260" height="248" viewBox="0 0 260 248" fill="none" xmlns="http://www.w3.org/2000/svg">
<path d="M53.643 80.6895C50.0542 80.0482 46.8664 78.0093 44.7792 75.0202C42.692 72.0312 41.876 68.3362 42.5102 64.7461C42.7525 63.4177 42.7301 62.0545 42.4442 60.7348C42.1583 59.4152 41.6146 58.1649 40.8442 57.0559C40.0738 55.9469 39.092 55.001 37.9551 54.2725C36.8182 53.5439 35.5486 53.0471 34.2192 52.8105C26.766 51.2871 21.7856 44.1211 23.0864 36.8262L26.5492 37.4121C25.5883 42.8438 29.3266 48.1934 34.8871 49.3301C38.469 49.9781 41.6481 52.0192 43.7281 55.0064C45.8082 57.9936 46.6196 61.6833 45.9848 65.2676C45.7441 66.5955 45.7678 67.9578 46.0544 69.2765C46.341 70.5952 46.885 71.8445 47.6552 72.9526C48.4253 74.0608 49.4065 75.0061 50.5426 75.7345C51.6787 76.4629 52.9473 76.9599 54.2758 77.1973L53.643 80.6895Z" fill="#0181A8"/>
<path d="M86.6078 78.9727C84.7052 77.2013 83.1704 75.0724 82.0911 72.7075C81.0118 70.3426 80.4093 67.7883 80.3178 65.1904C80.2264 62.5925 80.6479 60.002 81.5583 57.5671C82.4687 55.1323 83.85 52.9007 85.6234 51C91.4828 44.9766 91.6937 34.3945 84.8207 27.9844C77.016 20.3672 76.6175 7.79297 83.8421 0L86.4144 2.39062C80.4496 8.80664 80.8246 19.1484 87.2523 25.4414C95.5257 33.1582 95.35 46.0547 88.1605 53.4316C85.2313 56.5917 83.6751 60.7845 83.8333 65.0905C83.9915 69.3964 85.8511 73.4638 89.0043 76.4004L86.6078 78.9727Z" fill="#0181A8"/>
<path d="M122.156 96.3223C118.632 91.3257 117.236 85.1339 118.275 79.1083C119.315 73.0826 122.704 67.7164 127.699 64.1895C131.931 61.1932 134.802 56.6403 135.681 51.53C136.559 46.4197 135.375 41.1695 132.387 36.9316L135.264 34.9102C138.784 39.9108 140.176 46.1036 139.136 52.1298C138.096 58.156 134.708 63.5235 129.715 67.0547C127.616 68.5353 125.829 70.4153 124.457 72.5871C123.085 74.7589 122.155 77.1799 121.719 79.7116C121.284 82.2434 121.352 84.8361 121.92 87.3414C122.487 89.8468 123.543 92.2157 125.027 94.3125L122.156 96.3223Z" fill="#0181A8"/>
<path d="M210.205 123.422L197.203 210.416C196.545 214.834 194.321 218.869 190.938 221.785C187.555 224.702 183.237 226.306 178.77 226.307H177.838C179.472 226.305 181.084 225.941 182.56 225.239C184.035 224.537 185.335 223.516 186.367 222.25C187.398 220.983 188.135 219.503 188.524 217.916C188.912 216.329 188.943 214.676 188.614 213.076L172.576 135.439C171.955 132.459 170.325 129.783 167.963 127.863C165.6 125.942 162.649 124.893 159.604 124.893H66.012L58.1897 112.002C57.0089 110.059 55.3478 108.452 53.3662 107.336C51.3846 106.221 49.1492 105.634 46.8752 105.633H42.4573C41.9964 103.688 41.982 101.663 42.4149 99.7119C42.8479 97.7603 43.7171 95.9321 44.9573 94.3643C46.1976 92.7966 47.7766 91.53 49.5761 90.6594C51.3756 89.7889 53.3489 89.3371 55.3479 89.3379H77.7483C79.985 89.3389 82.1851 89.9056 84.1439 90.9854C86.1027 92.0652 87.7565 93.6229 88.9514 95.5137L96.967 108.223H197.104C199.008 108.223 200.89 108.634 202.622 109.427C204.353 110.221 205.893 111.378 207.136 112.821C208.38 114.264 209.298 115.957 209.827 117.787C210.357 119.616 210.486 121.538 210.205 123.422Z" fill="#F8F8F8"/>
<g style="mix-blend-mode:multiply">
<path d="M210.205 123.422L206.438 148.617C196.603 146.545 187.604 141.6 180.582 134.408C173.56 127.217 168.83 118.104 166.992 108.223H197.086C198.992 108.22 200.876 108.629 202.609 109.422C204.343 110.214 205.885 111.371 207.13 112.814C208.376 114.257 209.295 115.952 209.826 117.782C210.356 119.613 210.486 121.537 210.205 123.422Z" fill="#E8E8E8"/>
</g>
<path d="M177.838 226.307H38.291C35.2467 226.307 32.2951 225.259 29.9334 223.338C27.5716 221.417 25.9439 218.74 25.3242 215.76L5.85938 121.559C5.46185 119.632 5.49817 117.642 5.96571 115.732C6.43325 113.821 7.32027 112.039 8.5624 110.514C9.80453 108.989 11.3706 107.76 13.1469 106.916C14.9232 106.071 16.8653 105.633 18.832 105.633H46.875C49.1494 105.633 51.3856 106.218 53.3683 107.332C55.351 108.447 57.0133 110.053 58.1953 111.996L66.0176 124.887H159.604C162.648 124.887 165.6 125.936 167.963 127.857C170.325 129.777 171.954 132.453 172.576 135.434L188.613 213.076C188.943 214.676 188.912 216.329 188.523 217.916C188.135 219.503 187.398 220.983 186.367 222.25C185.335 223.516 184.034 224.537 182.559 225.239C181.084 225.941 179.471 226.305 177.838 226.307Z" fill="#F8F8F8"/>
<path d="M177.838 228.064H38.2906C34.8415 228.053 31.5007 226.858 28.827 224.679C26.1532 222.5 24.3084 219.47 23.6012 216.094L4.14805 121.916C3.69739 119.734 3.73829 117.479 4.26777 115.315C4.79726 113.151 5.80204 111.131 7.20917 109.404C8.6163 107.676 10.3905 106.284 12.4028 105.328C14.4152 104.371 16.6153 103.875 18.8434 103.875H46.8746C49.4463 103.881 51.9737 104.545 54.2166 105.804C56.4594 107.062 58.3433 108.873 59.6891 111.064L67.0016 123.088H159.58C163.037 123.097 166.386 124.294 169.066 126.479C171.746 128.664 173.593 131.703 174.298 135.088L190.336 212.725C190.718 214.58 190.683 216.498 190.233 218.338C189.782 220.178 188.927 221.895 187.731 223.364C186.534 224.832 185.025 226.016 183.314 226.829C181.603 227.642 179.732 228.064 177.838 228.064ZM18.8434 107.391C17.1395 107.394 15.4577 107.776 13.9198 108.509C12.3819 109.242 11.0264 110.309 9.95167 111.631C8.87693 112.953 8.10983 114.498 7.70599 116.153C7.30215 117.808 7.27168 119.533 7.6168 121.201L27.0406 215.361C27.5838 217.946 28.9971 220.265 31.0446 221.933C33.0921 223.601 35.6498 224.516 38.2906 224.525H177.838C179.212 224.526 180.569 224.219 181.81 223.629C183.051 223.039 184.145 222.179 185.012 221.113C185.88 220.046 186.498 218.8 186.823 217.465C187.148 216.129 187.171 214.738 186.89 213.393L170.853 135.756C170.311 133.169 168.897 130.848 166.848 129.178C164.8 127.509 162.24 126.594 159.597 126.586H65.0387L56.7066 112.869C55.6703 111.194 54.2231 109.811 52.5024 108.853C50.7816 107.894 48.8444 107.391 46.8746 107.391H18.8434Z" fill="#0181A8"/>
<path d="M178.769 228.064H177.838V224.549C179.212 224.549 180.569 224.243 181.81 223.652C183.052 223.062 184.146 222.202 185.013 221.136C185.88 220.07 186.498 218.823 186.823 217.488C187.148 216.153 187.171 214.761 186.891 213.416L170.853 135.779C170.311 133.193 168.898 130.871 166.849 129.202C164.8 127.533 162.24 126.618 159.598 126.609H65.039L56.7069 112.893C55.6734 111.213 54.2275 109.826 52.5066 108.863C50.7856 107.9 48.847 107.393 46.8749 107.391H41.0624L40.746 106.037C40.2253 103.834 40.2099 101.541 40.7009 99.3314C41.1919 97.1215 42.1766 95.0512 43.5811 93.2757C44.9857 91.5003 46.7738 90.0656 48.8115 89.0793C50.8492 88.0929 53.0837 87.5803 55.3476 87.58H77.748C80.2827 87.5719 82.7778 88.21 84.9974 89.4341C87.217 90.6582 89.0879 92.428 90.4335 94.5761L97.9394 106.465H197.103C199.261 106.466 201.393 106.932 203.354 107.831C205.314 108.73 207.058 110.042 208.467 111.676C209.875 113.311 210.914 115.23 211.513 117.302C212.112 119.374 212.258 121.552 211.939 123.685C211.939 123.744 212.232 121.752 198.943 210.68C198.2 215.504 195.76 219.905 192.062 223.092C188.364 226.279 183.651 228.042 178.769 228.064ZM67.0019 123.111H159.58C163.034 123.119 166.381 124.313 169.06 126.493C171.739 128.674 173.589 131.707 174.299 135.088L190.336 212.725C190.896 215.436 190.558 218.255 189.375 220.758C192.658 218.11 194.83 214.328 195.463 210.158L208.465 123.164C208.708 121.53 208.597 119.863 208.137 118.277C207.678 116.69 206.882 115.221 205.804 113.97C204.726 112.718 203.39 111.714 201.889 111.026C200.387 110.338 198.755 109.981 197.103 109.98H95.9941L87.4569 96.4511C86.4254 94.8072 84.9923 93.453 83.2927 92.516C81.593 91.5791 79.6829 91.0903 77.7421 91.0957H55.3417C53.7258 91.0986 52.1287 91.4424 50.6547 92.1046C49.1807 92.7667 47.8629 93.7323 46.7874 94.9383C45.7119 96.1443 44.9029 97.5636 44.4131 99.1035C43.9234 100.643 43.7639 102.269 43.9452 103.875H46.8749C49.4466 103.881 51.974 104.545 54.2169 105.804C56.4597 107.062 58.3436 108.873 59.6894 111.064L67.0019 123.111Z" fill="#0181A8"/>
<path d="M59.5088 166.517L78.7593 147.267L85.2798 153.787L66.0292 173.038L59.5088 166.517Z" fill="#0181A8"/>
<path d="M59.5088 153.783L66.0292 147.263L85.2798 166.513L78.7593 173.034L59.5088 153.783Z" fill="#0181A8"/>
<path d="M104.32 166.518L123.571 147.268L130.091 153.788L110.841 173.039L104.32 166.518Z" fill="#0181A8"/>
<path d="M104.32 153.784L110.841 147.264L130.091 166.514L123.571 173.035L104.32 153.784Z" fill="#0181A8"/>
<path d="M127.213 195.604C126.703 195.146 114.469 184.348 95.3789 184.348C76.2891 184.348 64.0488 195.146 63.5391 195.604L62.0332 196.957L68.5898 204.264L70.0957 202.945C77.3022 197.275 86.2059 194.192 95.376 194.192C104.546 194.192 113.45 197.275 120.656 202.945L122.162 204.281L128.719 196.957L127.213 195.604Z" fill="#0181A8"/>
<path d="M216.82 140.027C239.46 140.027 257.813 121.675 257.813 99.0352C257.813 76.3958 239.46 58.043 216.82 58.043C194.181 58.043 175.828 76.3958 175.828 99.0352C175.828 121.675 194.181 140.027 216.82 140.027Z" fill="#F8F8F8"/>
<path d="M216.797 141.533C208.337 141.533 200.067 139.025 193.033 134.325C185.999 129.625 180.517 122.944 177.279 115.128C174.042 107.313 173.195 98.7123 174.845 90.4151C176.496 82.1179 180.57 74.4964 186.551 68.5144C192.533 62.5324 200.155 58.4586 208.452 56.8082C216.749 55.1578 225.35 56.0049 233.166 59.2423C240.981 62.4797 247.662 67.9621 252.362 74.9961C257.062 82.0302 259.57 90.3 259.57 98.7598C259.57 110.104 255.064 120.984 247.042 129.005C239.021 137.027 228.141 141.533 216.797 141.533ZM216.797 59.5547C209.031 59.5547 201.44 61.8579 194.983 66.1729C188.527 70.4879 183.495 76.6208 180.525 83.796C177.554 90.9711 176.778 98.866 178.296 106.482C179.813 114.098 183.555 121.093 189.048 126.582C194.541 132.071 201.539 135.808 209.156 137.32C216.773 138.831 224.668 138.049 231.841 135.074C239.013 132.098 245.143 127.061 249.453 120.602C253.763 114.142 256.061 106.549 256.055 98.7832C256.047 88.3765 251.907 78.3986 244.546 71.0427C237.185 63.6868 227.204 59.5547 216.797 59.5547Z" fill="#0181A8"/>
<path d="M211.523 121.168C211.523 119.7 212.044 118.445 213.086 117.403C214.127 116.335 215.382 115.801 216.851 115.801C218.319 115.801 219.574 116.335 220.616 117.403C221.657 118.445 222.178 119.7 222.178 121.168C222.178 122.637 221.657 123.892 220.616 124.934C219.574 125.975 218.319 126.496 216.851 126.496C215.382 126.496 214.127 125.988 213.086 124.974C212.044 123.959 211.523 122.691 211.523 121.168ZM213.005 71.2207H220.896L219.855 108.992H214.047L213.005 71.2207Z" fill="#0181A8"/>
<path d="M164.449 61.875C163.334 61.875 162.245 61.5444 161.318 60.925C160.391 60.3057 159.668 59.4253 159.242 58.3954C158.815 57.3654 158.703 56.232 158.921 55.1386C159.138 54.0452 159.675 53.0408 160.463 52.2525C161.252 51.4642 162.256 50.9274 163.35 50.7099C164.443 50.4924 165.576 50.604 166.606 51.0306C167.636 51.4573 168.517 52.1797 169.136 53.1067C169.755 54.0336 170.086 55.1234 170.086 56.2383C170.086 57.7332 169.492 59.167 168.435 60.224C167.378 61.2811 165.944 61.875 164.449 61.875ZM164.449 54.1231C164.029 54.1231 163.619 54.2476 163.27 54.4809C162.921 54.7143 162.649 55.0459 162.489 55.4338C162.329 55.8217 162.287 56.2485 162.369 56.6601C162.452 57.0717 162.654 57.4497 162.951 57.7461C163.249 58.0425 163.627 58.244 164.039 58.3252C164.451 58.4064 164.878 58.3635 165.265 58.2021C165.652 58.0407 165.983 57.7679 166.216 57.4183C166.448 57.0687 166.571 56.658 166.57 56.2383C166.57 55.96 166.515 55.6845 166.409 55.4275C166.302 55.1705 166.146 54.937 165.949 54.7405C165.752 54.544 165.518 54.3883 165.26 54.2824C165.003 54.1764 164.727 54.1223 164.449 54.1231Z" fill="#0181A8"/>
<path d="M190.869 48.0761C189.339 48.0715 187.845 47.6136 186.575 46.7603C185.306 45.907 184.317 44.6965 183.735 43.2818C183.153 41.867 183.003 40.3115 183.304 38.8115C183.605 37.3116 184.344 35.9346 185.428 34.8545C186.511 33.7744 187.89 33.0395 189.391 32.7427C190.892 32.446 192.447 32.6006 193.86 33.1871C195.273 33.7737 196.48 34.7657 197.33 36.0381C198.179 37.3105 198.633 38.806 198.633 40.3359C198.632 41.3541 198.431 42.3622 198.04 43.3025C197.649 44.2427 197.077 45.0968 196.356 45.8157C195.635 46.5346 194.779 47.1042 193.837 47.4921C192.896 47.88 191.887 48.0785 190.869 48.0761ZM190.869 36.1172C190.033 36.1172 189.216 36.3651 188.521 36.8295C187.827 37.294 187.285 37.9541 186.966 38.7264C186.646 39.4987 186.563 40.3484 186.726 41.1681C186.89 41.9878 187.293 42.7405 187.884 43.3311C188.475 43.9217 189.229 44.3236 190.049 44.4859C190.868 44.6483 191.718 44.5638 192.49 44.2431C193.262 43.9225 193.921 43.3801 194.385 42.6846C194.848 41.9891 195.095 41.1717 195.094 40.3359C195.092 39.2165 194.646 38.1434 193.854 37.3524C193.062 36.5614 191.989 36.1172 190.869 36.1172Z" fill="#0181A8"/>
<path d="M8.33789 237.311L16.3911 229.258L18.8766 231.744L10.8234 239.797L8.33789 237.311Z" fill="#0181A8"/>
<path d="M25.3008 236.496H28.8164V247.887H25.3008V236.496Z" fill="#0181A8"/>
<path d="M0 220.066H11.3906V223.582H0V220.066Z" fill="#0181A8"/>
<path d="M178.213 200.842H174.697V197.326H178.213V200.842ZM168.838 200.842H165.322V197.326H168.838V200.842ZM159.463 200.842H155.947V197.326H159.463V200.842ZM150.088 200.842H146.572V197.326H150.088V200.842Z" fill="#7F88A0"/>
<path d="M190.395 197.326H193.91V200.842H190.395V197.326Z" fill="#7F88A0"/>
<path d="M217.084 200.842H213.568V197.326H217.084V200.842ZM207.709 200.842H204.193V197.326H207.709V200.842Z" fill="#7F88A0"/>
<path d="M226.295 200.836H222.779V197.32H226.295V200.836ZM226.295 191.461H222.779V187.945H226.295V191.461ZM226.295 182.086H222.779V178.57H226.295V182.086ZM226.295 172.711H222.779V169.195H226.295V172.711ZM226.295 163.336H222.779V159.82H226.295V163.336ZM226.295 153.961H222.779V150.445H226.295V153.961Z" fill="#7F88A0"/>
</svg>
