<svg width="133" height="199" viewBox="0 0 133 199" fill="none" xmlns="http://www.w3.org/2000/svg">
<g clip-path="url(#clip0_22038_31728)">
<path d="M132.85 35.594V160.346H132.609L123.105 151.083L113.602 160.346H112.639L103.256 151.083L93.752 160.346H92.7896L83.4061 151.203L73.9023 160.346H72.9399L63.5565 151.083L54.0527 160.346H53.0903L43.7068 151.083L34.2031 160.346H33.2407L23.8572 151.203L14.3535 160.346H13.752V0.827087H98.2031L132.85 35.594Z" fill="#0181A8" fill-opacity="0.08"/>
<path d="M132.85 35.594H98.2031V0.827087L132.85 35.594Z" fill="#0181A8"/>
<path d="M72.338 196.917C70.6538 198.602 68.0072 198.602 66.4433 196.917L40.9395 171.414L37.6914 168.166C40.0974 166.602 42.0222 164.557 43.5861 162.271L72.338 191.023C74.0222 192.707 74.0222 195.354 72.338 196.917Z" fill="#0181A8"/>
<path d="M44.9094 163.594L51.5259 170.21C49.962 172.616 47.9169 174.541 45.6312 176.105L42.2628 172.737L39.0146 169.488C41.3004 167.925 43.3455 165.879 44.9094 163.594Z" fill="#929292"/>
<path d="M51.5265 149.759C51.5323 148.706 51.4111 147.656 51.1656 146.632C50.2032 140.737 47.0754 135.564 42.8648 131.714C38.4137 127.865 32.6393 125.459 26.2633 125.459C12.3085 125.459 0.879883 136.767 0.879883 150.842C0.879883 151.805 0.879883 152.767 1.00018 153.729C1.34388 156.609 2.15663 159.413 3.4062 162.03C5.21071 165.639 7.85733 168.887 11.1054 171.293C11.5867 171.654 12.1882 172.015 12.7897 172.376C16.6393 174.782 21.2107 176.226 26.143 176.226C31.6769 176.226 36.7295 174.541 40.8197 171.534C43.1054 169.85 45.1506 167.925 46.7145 165.639C48.3987 163.353 49.6017 160.707 50.4438 157.94C51.0453 155.654 51.4062 153.369 51.4062 150.963C51.5265 150.481 51.5265 150.12 51.5265 149.759ZM26.2633 171.654C21.6919 171.654 17.4814 170.211 14.113 167.684C10.7445 165.278 8.21823 161.91 6.77462 157.94C5.93252 155.654 5.45131 153.248 5.45131 150.722C5.45131 149.76 5.57161 148.797 5.69191 147.955C6.77462 140.256 11.9476 133.88 19.0453 131.233C21.331 130.391 23.737 129.91 26.2633 129.91C27.2257 129.91 28.0679 129.91 29.0303 130.03C33.2408 130.632 37.0904 132.436 40.0979 135.083C44.4288 138.932 47.0754 144.466 47.0754 150.722V151.684C46.962 153.186 46.7205 154.675 46.3536 156.135C45.7521 158.301 44.7897 160.346 43.5867 162.15C42.0227 164.556 39.9776 166.481 37.6919 168.045L35.8874 169.128C34.5641 169.85 33.1205 170.331 31.6769 170.812C29.9927 171.414 28.1882 171.654 26.2633 171.654Z" fill="#929292"/>
<path d="M10.5041 153.128C10.2504 153.131 9.99866 153.084 9.76367 152.988C9.52868 152.892 9.3152 152.751 9.13582 152.571C8.95644 152.392 8.81478 152.178 8.71919 151.943C8.6236 151.708 8.57602 151.457 8.57926 151.203C8.57926 146.391 10.5041 141.82 13.8725 138.451C17.2409 135.083 21.8123 133.158 26.6244 133.158C27.1349 133.158 27.6244 133.361 27.9854 133.722C28.3464 134.083 28.5492 134.572 28.5492 135.083C28.5492 135.593 28.3464 136.083 27.9854 136.444C27.6244 136.805 27.1349 137.008 26.6244 137.008C22.895 137.008 19.286 138.451 16.6394 141.218C13.9928 143.865 12.4289 147.474 12.4289 151.203C12.4289 152.165 11.5868 153.128 10.5041 153.128Z" fill="#0181A8"/>
<path d="M98.2034 55.0827V101.759L98.0831 101.88C97.1207 104.406 95.7974 105.248 93.1508 105.248H45.0305H35.5267C33.3613 105.248 31.7974 104.045 31.0756 102.12C31.0756 102 30.9553 101.88 30.835 101.759V54.9624C30.835 54.9624 30.9553 54.9624 30.9553 54.8421C32.038 52.1955 33.241 51.3534 36.1282 51.3534H92.9101C95.4365 51.3534 97.4816 52.5564 98.2034 55.0827ZM76.9102 80.2256C77.1508 79.985 77.2711 79.7444 77.3914 79.6241L87.0154 70C87.6169 69.3985 88.2184 69.2782 88.8199 69.8797L93.2711 74.3308C93.385 74.4268 93.4765 74.5465 93.5393 74.6816C93.6022 74.8167 93.6347 74.9638 93.6347 75.1128C93.6347 75.2618 93.6022 75.4089 93.5393 75.544C93.4765 75.679 93.385 75.7988 93.2711 75.8948C92.7899 76.376 92.068 76.376 91.5868 75.7745L87.8575 72.0451L87.4966 72.7669L77.8726 82.391C77.0304 83.2331 76.5493 83.2331 75.7071 82.391L71.1357 77.8196C71.0154 78.0602 70.8951 78.3008 70.6545 78.4211L62.2335 86.8421C61.2711 87.8045 60.9102 87.8045 59.9477 86.8421L56.6996 83.594L50.6846 89.609H95.7974V62.782H48.7598V87.8045L48.8801 87.9248C49.0004 87.6842 49.1207 87.5639 49.3613 87.3233L55.4966 81.188C56.3387 80.3459 56.8199 80.3459 57.662 81.188L61.1508 84.6767C61.3914 84.4361 61.5117 84.1955 61.632 84.0752L70.053 75.6541C70.8951 74.812 71.3763 74.812 72.2184 75.6541C73.9026 77.0978 75.3462 78.5414 76.9102 80.2256ZM46.5944 62.6617H33.1207V63.2632V100.436C33.1207 102.12 33.9628 102.962 35.7673 102.962H45.9929H46.5944V62.6617ZM95.9177 60.376V56.5263C95.9177 54.4812 95.0756 53.7594 93.1508 53.7594H36.0079H35.5267C34.2034 53.7594 33.241 54.7218 33.241 56.0451V59.8947V60.376H95.9177ZM48.8801 102.962H49.4816H93.5117C95.0756 102.962 96.038 102 96.038 100.436V92.3759V91.7744H49.0004L48.8801 102.962Z" fill="#929292"/>
<path d="M39.8574 77.218H36.7296C35.8875 77.218 35.4062 76.7368 35.4062 76.1353C35.4062 75.4135 35.8875 74.9323 36.7296 74.9323H43.1055C43.9476 74.9323 44.4288 75.4135 44.4288 76.1353C44.4288 76.8571 43.9476 77.218 43.1055 77.218H39.8574Z" fill="#929292"/>
<path d="M39.8571 86.2407H36.7293C35.8872 86.2407 35.2857 85.7595 35.406 85.0377C35.406 84.3159 35.8872 83.955 36.7293 83.955H42.9849C43.827 83.955 44.3082 84.3159 44.3082 85.0377C44.3082 85.7595 43.827 86.2407 42.9849 86.2407H39.8571Z" fill="#929292"/>
<path d="M39.8574 68.1955H36.7296C35.8875 68.1955 35.4062 67.7143 35.4062 67.1128C35.4062 66.391 35.8875 65.9098 36.7296 65.9098H43.1055C43.9476 65.9098 44.4288 66.391 44.4288 67.1128C44.4288 67.8346 43.9476 68.1955 43.1055 68.1955H39.8574Z" fill="#929292"/>
<path d="M39.9777 95.1426H36.7296C35.8875 95.1426 35.4062 94.6614 35.4062 93.9396C35.4062 93.3381 35.8875 92.8569 36.7296 92.8569H43.1055C43.9476 92.8569 44.4288 93.2178 44.4288 93.9396C44.4288 94.6614 43.9476 95.1426 43.1055 95.1426H39.9777ZM38.2935 79.5035H39.9777C40.5792 79.5035 41.0604 79.9847 41.0604 80.5862C41.0604 81.1877 40.6995 81.6689 39.9777 81.6689H36.489C35.8875 81.6689 35.4062 81.0674 35.4062 80.5862C35.4062 79.9847 35.8875 79.5035 36.489 79.5035H38.2935ZM38.1732 72.7667H36.489C35.8875 72.7667 35.4062 72.2855 35.4062 71.684C35.4062 71.0825 35.8875 70.481 36.489 70.481H39.9777C40.5792 70.481 41.0604 71.0825 41.0604 71.5637C41.0604 72.1652 40.5792 72.6464 39.8574 72.6464C39.3762 72.7667 38.7747 72.7667 38.1732 72.7667ZM38.2935 88.4058H39.9777C40.5792 88.4058 41.0604 88.887 41.0604 89.4885C41.0604 90.09 40.5792 90.5712 39.9777 90.5712H36.489C35.8875 90.5712 35.4062 89.9697 35.4062 89.3682C35.4062 88.7667 35.8875 88.2855 36.489 88.2855C37.0905 88.4058 37.692 88.4058 38.2935 88.4058Z" fill="#929292"/>
<path d="M38.2935 99.5937H36.6093C35.8875 99.5937 35.4062 99.1125 35.4062 98.511C35.4062 97.9095 35.8875 97.4283 36.6093 97.308H39.8574C40.0181 97.2974 40.1793 97.3212 40.33 97.3779C40.4808 97.4346 40.6177 97.5229 40.7316 97.6368C40.8455 97.7507 40.9338 97.8876 40.9905 98.0384C41.0472 98.1891 41.071 98.3503 41.0604 98.511C41.0604 99.1125 40.5792 99.5937 39.8574 99.5937H38.2935ZM45.5115 58.2103C44.91 58.2103 44.4288 57.7291 44.4288 57.1276C44.4288 56.5261 44.91 56.0449 45.5115 56.0449C46.113 56.0449 46.5942 56.5261 46.5942 57.1276C46.5942 57.6088 46.113 58.09 45.5115 58.2103Z" fill="#929292"/>
<path d="M42.1431 57.1274C42.1431 57.7289 41.6619 58.2102 41.0604 58.2102C40.4589 58.2102 39.9777 57.7289 39.9777 57.1274C39.9777 56.5259 40.4589 56.0447 41.0604 56.0447C41.6619 55.9244 42.1431 56.4056 42.1431 57.1274ZM35.4062 57.0071C35.4062 56.4056 36.0078 55.9244 36.6093 55.9244C37.2108 55.9244 37.692 56.5259 37.692 57.1274C37.692 57.7289 37.2108 58.2102 36.6093 58.2102C35.8875 58.0899 35.4062 57.6087 35.4062 57.0071ZM57.9025 94.0598H61.9927C62.2333 94.0598 62.4739 94.0598 62.7145 94.1801C63.1957 94.3004 63.5566 94.6613 63.5566 95.2628C63.5566 95.744 63.316 96.2252 62.7145 96.3455C62.4739 96.4658 62.2333 96.4658 61.9927 96.4658H54.0529H53.4514C52.8499 96.3455 52.489 95.9846 52.489 95.3831C52.489 94.7816 52.8499 94.3004 53.4514 94.3004H54.4138C55.3762 94.0598 56.6995 94.0598 57.9025 94.0598ZM72.4589 94.0598H76.6694C77.1506 94.0598 77.6318 94.1801 77.8724 94.6613C78.2333 95.3831 77.7521 96.2252 76.91 96.2252H74.8649H68.489H67.8875C67.2859 96.1049 66.925 95.744 66.8047 95.1425C66.8047 94.541 67.1656 94.0598 67.8875 94.0598H70.4138H72.4589ZM87.0153 96.2252H83.0453H82.5641C81.8423 96.1049 81.4814 95.744 81.4814 95.1425C81.4814 94.541 81.9626 94.0598 82.5641 94.0598H82.8047H91.4664C91.707 94.0598 92.0679 94.1801 92.3085 94.3004C92.7897 94.541 92.7897 95.0222 92.6694 95.5034C92.5491 96.1049 92.0679 96.2252 91.4664 96.3455C89.9025 96.3455 88.4589 96.2252 87.0153 96.2252Z" fill="#929292"/>
<path d="M57.9027 98.5114H62.1132C62.9553 98.5114 63.4365 98.8723 63.4365 99.5941C63.4365 100.316 62.9553 100.797 62.1132 100.797H53.6922C52.85 100.797 52.2485 100.316 52.3688 99.5941C52.3688 98.8723 52.85 98.5114 53.6922 98.5114H57.9027Z" fill="#929292"/>
<path d="M72.3392 98.5114H76.5497C77.3918 98.5114 77.873 98.8723 77.873 99.5941C77.873 100.316 77.3918 100.797 76.5497 100.797H68.1287C67.2866 100.797 66.6851 100.316 66.8054 99.5941C66.8054 98.8723 67.2866 98.5114 68.1287 98.5114H72.3392Z" fill="#929292"/>
<path d="M87.0153 98.5114H91.2258C92.0679 98.5114 92.5491 98.8723 92.5491 99.5941C92.5491 100.316 92.0679 100.797 91.2258 100.797H82.8048C81.9627 100.797 81.4814 100.316 81.4814 99.7144C81.4814 98.9926 81.9627 98.6317 82.8048 98.6317C84.2484 98.5114 85.5717 98.5114 87.0153 98.5114Z" fill="#929292"/>
<path d="M94.9554 120.045H92.5494C92.5494 120.045 92.4291 120.045 92.4291 119.925C91.7073 119.804 91.1058 119.804 90.384 119.564C84.008 118.12 79.0757 112.947 78.2336 106.451C78.2336 106.09 78.1133 105.729 78.1133 105.368V102.962C78.1133 102.962 78.1133 102.842 78.2336 102.842C78.3539 102.24 78.3539 101.519 78.5945 100.917C80.0381 94.4209 85.211 89.7292 91.7073 88.6465C92.0682 88.6465 92.4291 88.5262 92.6697 88.5262H95.0757H95.196C96.399 88.6465 97.4817 88.7668 98.6847 89.248C104.7 91.4134 108.309 95.6239 109.512 102C109.632 102.361 109.632 102.722 109.632 103.083V105.489C109.632 105.609 109.632 105.609 109.512 105.729C109.391 106.932 109.271 108.015 108.79 109.098C106.625 115.113 102.414 118.722 96.0381 119.925C95.6772 119.925 95.3163 119.925 94.9554 120.045ZM93.7524 91.4134C86.7749 91.4134 81.0005 97.1878 81.0005 104.165C81.0005 111.143 86.6546 116.917 93.7524 117.037C100.85 117.037 106.625 111.263 106.625 104.286C106.504 97.1878 100.85 91.4134 93.7524 91.4134ZM91.7073 101.278V97.0675C91.7073 96.2254 92.0682 95.6239 92.9103 95.5036C93.5118 95.3833 94.1133 95.3833 94.5945 95.6239C95.3163 95.8645 95.6772 96.3457 95.6772 97.0675V102.12V105.368C95.6772 106.451 95.196 107.052 94.1133 107.173C93.6321 107.293 93.1509 107.173 92.6697 107.053C91.9479 106.812 91.7073 106.331 91.7073 105.609V101.278ZM93.7524 109.218C94.2629 109.218 94.7525 109.421 95.1134 109.782C95.4744 110.143 95.6772 110.632 95.6772 111.143C95.6772 111.653 95.4744 112.143 95.1134 112.504C94.7525 112.865 94.2629 113.068 93.7524 113.068C92.6697 113.068 91.7073 112.225 91.8276 111.143C91.8243 110.889 91.8719 110.637 91.9675 110.402C92.0631 110.167 92.2047 109.954 92.3841 109.774C92.5635 109.595 92.777 109.453 93.012 109.358C93.247 109.262 93.4987 109.215 93.7524 109.218Z" fill="#0181A8"/>
</g>
<defs>
<clipPath id="clip0_22038_31728">
<rect width="133" height="199" fill="white"/>
</clipPath>
</defs>
</svg>
