<svg width="65" height="65" viewBox="0 0 65 65" fill="none" xmlns="http://www.w3.org/2000/svg">
<g clip-path="url(#clip0_13282_37909)">
<mask id="mask0_13282_37909" style="mask-type:luminance" maskUnits="userSpaceOnUse" x="0" y="0" width="65" height="65">
<path d="M64.9919 0H0V64.9919H64.9919V0Z" fill="white"/>
</mask>
<g mask="url(#mask0_13282_37909)">
<path d="M30.5301 64.9919C29.3425 64.828 28.1482 64.7021 26.97 64.4935C19.4395 63.1583 13.1576 59.5887 8.11736 53.8511C3.59986 48.7053 0.963296 42.6833 0.297046 35.8678C-0.526287 27.449 1.56725 19.7735 6.68465 13.0203C11.6951 6.41063 18.3034 2.18698 26.4758 0.712298C37.2292 -1.23093 46.7314 1.55459 54.767 8.97271C60.1376 13.9317 63.343 20.1256 64.5685 27.3352C64.7472 28.3901 64.8529 29.4599 64.9923 30.5229V34.5773C64.9459 34.738 64.9109 34.9017 64.8881 35.0675C64.4615 40.6291 62.7444 45.7654 59.6298 50.3872C54.4623 58.0585 47.315 62.7846 38.2056 64.4881C37.0098 64.7116 35.7924 64.8253 34.5845 64.9905L30.5301 64.9919ZM2.2809 32.5244C2.27142 49.2131 15.8225 62.8008 32.495 62.8333C49.1675 62.8658 62.8148 49.2646 62.8284 32.5691C62.8419 15.8735 49.2921 2.30209 32.6101 2.26959C15.9282 2.23709 2.29173 15.818 2.2809 32.5244Z" fill="#0A1856"/>
<path d="M37.9667 32.4675C38.0453 35.3979 35.6646 37.8666 32.657 37.9614C29.7347 38.0534 27.2553 35.6687 27.1496 32.6666C27.0467 29.7199 29.4747 27.2066 32.4891 27.1402C35.4209 27.0752 37.8855 29.4721 37.9667 32.4675ZM32.5406 35.7974C33.1823 35.8019 33.8111 35.6163 34.3474 35.264C34.8838 34.9118 35.3039 34.4086 35.5547 33.8179C35.8056 33.2272 35.8759 32.5754 35.757 31.9448C35.638 31.3143 35.3349 30.7329 34.8861 30.2743C34.4372 29.8156 33.8627 29.5001 33.2347 29.3675C32.6068 29.235 31.9538 29.2913 31.3578 29.5294C30.7619 29.7673 30.2497 30.1765 29.8859 30.7052C29.5221 31.2339 29.3231 31.8584 29.3136 32.5C29.3049 33.365 29.64 34.1981 30.245 34.8163C30.85 35.4345 31.6757 35.7874 32.5406 35.7974Z" fill="#0A1856"/>
<path d="M24.9736 32.5419C24.9717 33.6089 24.6534 34.6513 24.0592 35.5375C23.4649 36.4237 22.6211 37.1136 21.6347 37.5203C20.6482 37.9269 19.5634 38.032 18.5173 37.8221C17.4712 37.6122 16.5108 37.0968 15.7575 36.3411C15.0043 35.5854 14.492 34.6233 14.2855 33.5765C14.0792 32.5297 14.1876 31.4452 14.5975 30.46C15.0073 29.475 15.7001 28.6335 16.5882 28.042C17.4762 27.4507 18.5197 27.1358 19.5867 27.1375C21.017 27.1425 22.3868 27.7141 23.3965 28.727C24.4062 29.74 24.9733 31.1118 24.9736 32.5419ZM22.8137 32.5826C22.8177 31.9415 22.6313 31.3136 22.2778 30.7785C21.9245 30.2435 21.4202 29.8256 20.829 29.5777C20.2378 29.3297 19.5861 29.263 18.9569 29.3858C18.3276 29.5087 17.7491 29.8157 17.2945 30.268C16.84 30.7202 16.5301 31.2972 16.404 31.9258C16.2779 32.5544 16.3414 33.2064 16.5864 33.7989C16.8314 34.3913 17.2468 34.8978 17.78 35.2538C18.3132 35.6098 18.9402 35.7995 19.5813 35.7987C20.4351 35.7963 21.2533 35.4572 21.8584 34.855C22.4636 34.2528 22.8069 33.4362 22.8137 32.5826Z" fill="#0A1856"/>
<path d="M40.1406 32.5568C40.1431 31.4897 40.4618 30.4472 41.0569 29.5613C41.6517 28.6754 42.4961 27.9858 43.483 27.5799C44.4698 27.1737 45.555 27.0696 46.6011 27.2803C47.6472 27.491 48.6073 28.0074 49.3601 28.7638C50.1127 29.5202 50.6242 30.4829 50.8296 31.5301C51.0352 32.5773 50.9255 33.662 50.5145 34.6467C50.1035 35.6316 49.4096 36.4724 48.5207 37.0628C47.6319 37.6534 46.5878 37.967 45.5207 37.964C44.0913 37.9572 42.7226 37.3844 41.7143 36.3711C40.7061 35.3578 40.1402 33.9863 40.1406 32.5568ZM48.7721 32.5446C48.7694 31.9064 48.578 31.2832 48.222 30.7534C47.8661 30.2236 47.3614 29.8109 46.7716 29.5671C46.1817 29.3234 45.5329 29.2596 44.9069 29.3835C44.2807 29.5075 43.7053 29.814 43.2529 30.2641C42.8003 30.7144 42.4912 31.2882 42.364 31.9137C42.2369 32.5391 42.2975 33.1883 42.5383 33.7794C42.7791 34.3705 43.1894 34.8772 43.7174 35.2358C44.2454 35.5944 44.8676 35.7888 45.5058 35.7946C45.934 35.7968 46.3583 35.7143 46.7545 35.552C47.1507 35.3896 47.5109 35.1505 47.8144 34.8485C48.1179 34.5465 48.3588 34.1875 48.5232 33.7921C48.6874 33.3968 48.7721 32.9728 48.7721 32.5446Z" fill="#0A1856"/>
</g>
</g>
<defs>
<clipPath id="clip0_13282_37909">
<rect width="65" height="65" fill="white"/>
</clipPath>
</defs>
</svg>
