<?xml version="1.0" encoding="utf-8"?>
<!-- Generator: Adobe Illustrator 19.0.0, SVG Export Plug-In . SVG Version: 6.00 Build 0)  -->
<svg version="1.1" id="Layer_1" xmlns="http://www.w3.org/2000/svg" xmlns:xlink="http://www.w3.org/1999/xlink" x="0px" y="0px"
	 viewBox="-68 160.1 473.9 473.9" style="enable-background:new -68 160.1 473.9 473.9;" xml:space="preserve">
<style type="text/css">
	.st0{fill:#D9FEFF;}
	.st1{fill:#002866;}
	.st2{fill:#81C3CC;}
	.st3{fill:#FFFFFF;}
</style>
<circle class="st0" cx="169" cy="397" r="237"/>
<path class="st1" d="M76.4,253.9c-8.8,0-16,7.2-16,16v255.8c0,8.8,7.2,16,16,16h183.8c8.8,0,16-7.2,16-16V327.9l-77-74
	C199.2,253.9,76.4,253.9,76.4,253.9z"/>
<g>
	<path class="st2" d="M276.2,327.9h-61.1c-8.8,0-16-7.2-16-16v-58L276.2,327.9z"/>
	<path class="st2" d="M196,431.8c0,10.2-8.3,18.4-18.4,18.4H42.9c-10.2,0-18.4-8.3-18.4-18.4v-56.4c0-10.2,8.3-18.4,18.4-18.4h134.7
		c10.2,0,18.4,8.3,18.4,18.4V431.8z"/>
</g>
<g>
	<path class="st3" d="M76.3,386.2c3.9,0,7.2,0.8,10,2.4c2.8,1.6,4.9,3.8,6.3,6.7c1.4,2.9,2.1,6.3,2.1,10.2c0,2.9-0.4,5.5-1.2,7.9
		s-2,4.4-3.5,6.2c-1.6,1.7-3.5,3.1-5.8,4c-2.3,0.9-4.9,1.4-7.9,1.4c-2.9,0-5.6-0.5-7.9-1.4s-4.3-2.3-5.8-4c-1.6-1.7-2.7-3.8-3.5-6.2
		c-0.8-2.4-1.2-5-1.2-7.9c0-2.9,0.4-5.5,1.2-7.9c0.8-2.4,2-4.4,3.6-6.1s3.5-3,5.7-3.9C70.8,386.6,73.4,386.2,76.3,386.2z
		 M87.1,405.5c0-2.7-0.4-5.1-1.3-7.1c-0.9-2-2.2-3.5-3.8-4.6c-1.6-1-3.5-1.5-5.7-1.5c-1.5,0-2.9,0.3-4.2,0.9
		c-1.3,0.6-2.4,1.4-3.3,2.5c-0.9,1.1-1.7,2.5-2.2,4.2c-0.5,1.7-0.8,3.6-0.8,5.7c0,2.1,0.3,4.1,0.8,5.8c0.5,1.7,1.3,3.2,2.3,4.3
		c1,1.1,2.1,2,3.4,2.5s2.7,0.8,4.2,0.8c1.9,0,3.7-0.5,5.4-1.5c1.6-1,2.9-2.5,3.9-4.5C86.6,411,87.1,408.5,87.1,405.5z"/>
	<path class="st3" d="M123.6,393.1h-8.3v27.2c0,1.6-0.4,2.7-1,3.5c-0.7,0.8-1.6,1.1-2.7,1.1c-1.1,0-2-0.4-2.7-1.2
		c-0.7-0.8-1.1-1.9-1.1-3.5v-27.2h-8.3c-1.3,0-2.3-0.3-2.9-0.9c-0.6-0.6-0.9-1.3-0.9-2.3c0-1,0.3-1.7,1-2.3c0.7-0.6,1.6-0.8,2.9-0.8
		h24.1c1.3,0,2.3,0.3,2.9,0.9c0.6,0.6,1,1.3,1,2.3s-0.3,1.7-1,2.3C125.9,392.8,124.9,393.1,123.6,393.1z"/>
	<path class="st3" d="M146.6,409.7h-7v10.6c0,1.5-0.4,2.7-1.1,3.5c-0.7,0.8-1.6,1.2-2.7,1.2c-1.1,0-2.1-0.4-2.8-1.2s-1-1.9-1-3.4
		v-28.9c0-1.7,0.4-2.9,1.2-3.6s2-1.1,3.7-1.1h9.7c2.9,0,5.1,0.2,6.6,0.7c1.5,0.4,2.9,1.1,4,2.1c1.1,1,2,2.2,2.5,3.6s0.9,3,0.9,4.8
		c0,3.8-1.2,6.7-3.5,8.7C154.7,408.8,151.2,409.7,146.6,409.7z M144.7,392.5h-5.1V404h5.1c1.8,0,3.3-0.2,4.5-0.6
		c1.2-0.4,2.1-1,2.8-1.8c0.6-0.9,0.9-2,0.9-3.4c0-1.7-0.5-3-1.5-4C150.3,393.1,148.1,392.5,144.7,392.5z"/>
</g>
</svg>
