<svg width="60" height="59" viewBox="0 0 60 59" fill="none" xmlns="http://www.w3.org/2000/svg">
<path d="M55.7487 14.7561C54.541 13.5322 53.1013 12.5614 51.514 11.9004C49.9267 11.2395 48.2235 10.9016 46.504 10.9066H46.4571C45.7225 10.9058 45.0033 10.6958 44.3836 10.3012C43.764 9.90662 43.2695 9.34375 42.9581 8.67844C41.8068 6.19992 39.9711 4.10205 37.6673 2.63197C35.3635 1.1619 32.6876 0.380859 29.9547 0.380859C27.2218 0.380859 24.5459 1.1619 22.2421 2.63197C19.9383 4.10205 18.1026 6.19992 16.9514 8.67844C16.6397 9.34406 16.1448 9.90711 15.5248 10.3017C14.9047 10.6963 14.1851 10.9061 13.4501 10.9066H13.4053C11.6865 10.9066 9.9847 11.2468 8.39798 11.9076C6.81125 12.5683 5.37099 13.5366 4.16021 14.7566C2.94943 15.9766 1.99208 17.4241 1.34333 19.0158C0.694582 20.6075 0.367268 22.3118 0.380255 24.0306C0.433163 31.1585 6.34487 36.9575 13.5585 36.9575C13.777 36.9575 13.9866 36.8707 14.1411 36.7162C14.2956 36.5617 14.3824 36.3521 14.3824 36.1336C14.3824 35.9151 14.2956 35.7055 14.1411 35.551C13.9866 35.3965 13.777 35.3097 13.5585 35.3097C7.24676 35.3097 2.07426 30.2445 2.02809 24.0184C2.01669 22.5171 2.30255 21.0283 2.8692 19.638C3.43586 18.2476 4.27208 16.9831 5.32969 15.9175C6.3873 14.8518 7.64536 14.006 9.03138 13.4288C10.4174 12.8516 11.9039 12.5544 13.4053 12.5544H13.4524C14.5008 12.553 15.5272 12.2531 16.4115 11.6897C17.2957 11.1263 18.0013 10.3228 18.4456 9.37313C19.4645 7.17933 21.0892 5.32244 23.1283 4.02123C25.1673 2.72002 27.5358 2.02869 29.9547 2.02869C32.3736 2.02869 34.7421 2.72002 36.7812 4.02123C38.8202 5.32244 40.4449 7.17933 41.4639 9.37313C41.9079 10.3226 42.613 11.126 43.4969 11.6893C44.3807 12.2527 45.4067 12.5528 46.4548 12.5544H46.504C48.0054 12.5544 49.492 12.8516 50.878 13.4288C52.264 14.006 53.5221 14.8518 54.5797 15.9174C55.6373 16.9831 56.4736 18.2476 57.0402 19.6379C57.6069 21.0283 57.8928 22.5171 57.8814 24.0184C57.8352 30.2445 52.6627 35.3097 46.3509 35.3097C46.1324 35.3097 45.9228 35.3965 45.7683 35.551C45.6138 35.7055 45.527 35.9151 45.527 36.1336C45.527 36.3521 45.6138 36.5617 45.7683 36.7162C45.9228 36.8707 46.1324 36.9575 46.3509 36.9575C53.5646 36.9575 59.4763 31.1585 59.5292 24.0306C59.5471 22.311 59.2219 20.6051 58.5728 19.0127C57.9237 17.4202 56.9636 15.9731 55.7487 14.7561Z" fill="#0A1856"/>
<path d="M13.2971 15.1172C12.1338 15.1173 10.982 15.3475 9.90803 15.7948C8.83409 16.242 7.85929 16.8974 7.03982 17.7231C6.22036 18.5489 5.57243 19.5287 5.13338 20.606C4.69433 21.6833 4.47285 22.8368 4.4817 24.0002C4.4833 24.2176 4.57079 24.4256 4.72511 24.5788C4.87943 24.732 5.08805 24.818 5.3055 24.818H5.31169C5.41989 24.8172 5.52687 24.7951 5.62653 24.753C5.72619 24.7108 5.81657 24.6495 5.89251 24.5724C5.96846 24.4953 6.02848 24.4041 6.06915 24.3038C6.10981 24.2035 6.13033 24.0962 6.12953 23.988C6.12226 23.0421 6.30229 22.1041 6.65924 21.2281C7.01619 20.3521 7.54299 19.5555 8.20929 18.884C8.87558 18.2126 9.66819 17.6796 10.5414 17.316C11.4146 16.9523 12.3512 16.765 13.2971 16.765H13.3446C13.5631 16.765 13.7727 16.6782 13.9272 16.5237C14.0817 16.3692 14.1685 16.1596 14.1685 15.9411C14.1685 15.7226 14.0817 15.513 13.9272 15.3585C13.7727 15.204 13.5631 15.1172 13.3446 15.1172L13.2971 15.1172Z" fill="#0A1856"/>
<path d="M29.9545 15.2422C27.8665 15.2446 25.8646 16.0751 24.3881 17.5515C22.9116 19.028 22.0811 21.0299 22.0787 23.1179V23.395C22.0786 23.4826 22.0438 23.5666 21.9819 23.6286C21.9199 23.6905 21.8359 23.7254 21.7483 23.7255H20.4436C19.514 23.7265 18.6229 24.0963 17.9656 24.7535C17.3083 25.4108 16.9386 26.3019 16.9375 27.2315V41.4008C16.9386 42.3303 17.3083 43.2215 17.9656 43.8788C18.6229 44.5361 19.514 44.9058 20.4436 44.9069H39.4655C40.395 44.9058 41.2862 44.5361 41.9435 43.8788C42.6008 43.2215 42.9705 42.3303 42.9715 41.4008V27.2314C42.9705 26.3019 42.6007 25.4107 41.9434 24.7535C41.2862 24.0962 40.395 23.7265 39.4655 23.7255H37.8304V23.118C37.828 21.03 36.9975 19.0281 35.521 17.5516C34.0445 16.0751 32.0426 15.2446 29.9545 15.2422ZM39.4655 25.3733C39.9582 25.3738 40.4305 25.5698 40.7789 25.9181C41.1272 26.2665 41.3232 26.7388 41.3238 27.2314V41.4008C41.3232 41.8935 41.1273 42.3658 40.7789 42.7142C40.4305 43.0626 39.9582 43.2585 39.4655 43.259H20.4436C19.9509 43.2585 19.4786 43.0625 19.1302 42.7142C18.7818 42.3658 18.5859 41.8935 18.5853 41.4008V27.2314C18.5859 26.7388 18.7819 26.2665 19.1302 25.9181C19.4786 25.5698 19.9509 25.3738 20.4436 25.3733H21.7482C22.2727 25.3727 22.7756 25.1641 23.1464 24.7932C23.5173 24.4223 23.7259 23.9195 23.7265 23.395V23.118C23.7265 21.4662 24.3827 19.8821 25.5507 18.7141C26.7187 17.5461 28.3028 16.89 29.9546 16.89C31.6063 16.89 33.1905 17.5462 34.3584 18.7142C35.5264 19.8822 36.1826 21.4663 36.1825 23.1181V23.7255H34.3475V23.3064C34.3484 22.7288 34.2355 22.1568 34.0152 21.623C33.7949 21.0891 33.4714 20.604 33.0634 20.1953C32.6554 19.7866 32.1708 19.4623 31.6373 19.2411C31.1038 19.0199 30.532 18.906 29.9544 18.906C29.3769 18.906 28.8051 19.0199 28.2716 19.2411C27.7381 19.4624 27.2535 19.7866 26.8455 20.1954C26.4375 20.6041 26.1141 21.0892 25.8938 21.6231C25.6735 22.1569 25.5606 22.729 25.5615 23.3065V23.547C25.5621 24.0312 25.7547 24.4954 26.0971 24.8378C26.4395 25.1802 26.9037 25.3728 27.3879 25.3733L39.4655 25.3733ZM27.3879 23.7255C27.3406 23.7254 27.2953 23.7066 27.2618 23.6731C27.2283 23.6397 27.2095 23.5943 27.2094 23.547V23.3065C27.2087 22.9455 27.2791 22.5879 27.4167 22.2541C27.5543 21.9204 27.7564 21.6171 28.0113 21.3615C28.2663 21.106 28.5692 20.9032 28.9026 20.7649C29.2361 20.6266 29.5935 20.5554 29.9545 20.5554C30.3155 20.5553 30.673 20.6265 31.0064 20.7649C31.3398 20.9032 31.6427 21.1059 31.8977 21.3614C32.1527 21.617 32.3548 21.9203 32.4924 22.254C32.63 22.5877 32.7005 22.9453 32.6997 23.3063V23.7255H27.3879Z" fill="#0A1856"/>
<path d="M32.5452 29.6976C32.0181 29.2256 31.372 28.9065 30.6768 28.7749C29.9816 28.6432 29.2636 28.7039 28.6003 28.9505C27.9371 29.1971 27.3539 29.6202 26.9135 30.1741C26.4732 30.728 26.1925 31.3916 26.1018 32.0933C26.0123 32.7688 26.1031 33.456 26.365 34.085C26.6269 34.7141 27.0505 35.2627 27.5929 35.6751C27.6519 35.7238 27.699 35.7853 27.7306 35.855C27.7623 35.9246 27.7776 36.0005 27.7755 36.077V37.7633C27.7755 38.3413 28.0051 38.8955 28.4138 39.3042C28.8224 39.7129 29.3767 39.9425 29.9547 39.9425C30.5326 39.9425 31.0869 39.7129 31.4955 39.3042C31.9042 38.8955 32.1338 38.3413 32.1338 37.7633V36.0758C32.1352 35.9924 32.1556 35.9104 32.1935 35.8361C32.2315 35.7617 32.2859 35.697 32.3526 35.6469C32.7989 35.2966 33.1632 34.8528 33.4196 34.3467C33.676 33.8405 33.8184 33.2843 33.8368 32.7172C33.8551 32.1501 33.749 31.5859 33.5259 31.0642C33.3027 30.5425 32.968 30.0761 32.5452 29.6976ZM31.3346 34.3511C31.0711 34.5549 30.8576 34.8162 30.7105 35.1151C30.5634 35.4141 30.4866 35.7427 30.4859 36.0758V37.7634C30.4859 37.9043 30.4299 38.0394 30.3303 38.1391C30.2307 38.2387 30.0955 38.2947 29.9546 38.2947C29.8137 38.2947 29.6786 38.2387 29.5789 38.1391C29.4793 38.0394 29.4233 37.9043 29.4233 37.7634V36.0771C29.4248 35.7478 29.351 35.4226 29.2075 35.1263C29.064 34.83 28.8546 34.5704 28.5955 34.3673C28.2415 34.0967 27.9764 33.7265 27.8343 33.3042C27.6921 32.8819 27.6794 32.4268 27.7977 31.9972C27.916 31.5677 28.16 31.1832 28.4983 30.8933C28.8366 30.6033 29.2539 30.421 29.6965 30.3698C29.7827 30.3602 29.8694 30.3554 29.9561 30.3553C30.5063 30.3534 31.0374 30.5566 31.4458 30.9252C31.6893 31.1431 31.8822 31.4117 32.0107 31.7121C32.1392 32.0126 32.2004 32.3375 32.1898 32.6641C32.1792 32.9907 32.0971 33.311 31.9494 33.6025C31.8016 33.894 31.5918 34.1495 31.3346 34.3511Z" fill="#0A1856"/>
<path d="M44.6076 47.8867H42.5284C42.3099 47.8867 42.1003 47.9735 41.9458 48.128C41.7913 48.2826 41.7045 48.4921 41.7045 48.7106C41.7045 48.9292 41.7913 49.1387 41.9458 49.2932C42.1003 49.4477 42.3099 49.5346 42.5284 49.5346H44.6076C45.5921 49.5364 46.5356 49.9287 47.231 50.6255C47.9265 51.3222 48.3171 52.2665 48.3171 53.2509C48.3171 54.2354 47.9265 55.1796 47.231 55.8763C46.5356 56.5731 45.5921 56.9654 44.6076 56.9673H15.9283C14.9439 56.9654 14.0004 56.5731 13.3049 55.8763C12.6094 55.1796 12.2188 54.2354 12.2188 53.2509C12.2188 52.2665 12.6094 51.3222 13.3049 50.6255C14.0004 49.9287 14.9439 49.5364 15.9283 49.5346H38.6037C38.8222 49.5346 39.0317 49.4477 39.1863 49.2932C39.3408 49.1387 39.4276 48.9292 39.4276 48.7106C39.4276 48.4921 39.3408 48.2826 39.1863 48.128C39.0317 47.9735 38.8222 47.8867 38.6037 47.8867H15.9282C14.507 47.8889 13.1447 48.455 12.1405 49.4608C11.1363 50.4665 10.5723 51.8297 10.5723 53.2509C10.5723 54.6721 11.1363 56.0353 12.1405 57.041C13.1447 58.0468 14.507 58.6129 15.9282 58.6151H44.6076C46.0289 58.6129 47.3911 58.0468 48.3953 57.041C49.3995 56.0353 49.9636 54.6721 49.9636 53.2509C49.9636 51.8297 49.3995 50.4665 48.3953 49.4608C47.3911 48.455 46.0289 47.8889 44.6076 47.8867Z" fill="#0A1856"/>
<path d="M17.8903 52.4258C17.6718 52.4258 17.4622 52.5126 17.3077 52.6671C17.1532 52.8216 17.0664 53.0312 17.0664 53.2497C17.0664 53.4682 17.1532 53.6778 17.3077 53.8323C17.4622 53.9868 17.6718 54.0736 17.8903 54.0736H21.4208C21.6393 54.0736 21.8489 53.9868 22.0034 53.8323C22.1579 53.6778 22.2447 53.4682 22.2447 53.2497C22.2447 53.0312 22.1579 52.8216 22.0034 52.6671C21.8489 52.5126 21.6393 52.4258 21.4208 52.4258H17.8903Z" fill="#0A1856"/>
<path d="M24.9655 52.4258C24.747 52.4258 24.5374 52.5126 24.3829 52.6671C24.2284 52.8216 24.1416 53.0312 24.1416 53.2497C24.1416 53.4682 24.2284 53.6778 24.3829 53.8323C24.5374 53.9868 24.747 54.0736 24.9655 54.0736H28.496C28.7145 54.0736 28.9241 53.9868 29.0786 53.8323C29.2331 53.6778 29.3199 53.4682 29.3199 53.2497C29.3199 53.0312 29.2331 52.8216 29.0786 52.6671C28.9241 52.5126 28.7145 52.4258 28.496 52.4258H24.9655Z" fill="#0A1856"/>
<path d="M32.0407 52.4258C31.8222 52.4258 31.6126 52.5126 31.4581 52.6671C31.3036 52.8216 31.2168 53.0312 31.2168 53.2497C31.2168 53.4682 31.3036 53.6778 31.4581 53.8323C31.6126 53.9868 31.8222 54.0736 32.0407 54.0736H35.5712C35.7897 54.0736 35.9993 53.9868 36.1538 53.8323C36.3083 53.6778 36.3951 53.4682 36.3951 53.2497C36.3951 53.0312 36.3083 52.8216 36.1538 52.6671C35.9993 52.5126 35.7897 52.4258 35.5712 52.4258H32.0407Z" fill="#0A1856"/>
<path d="M38.292 53.2497C38.292 53.4682 38.3788 53.6778 38.5333 53.8323C38.6878 53.9868 38.8974 54.0736 39.1159 54.0736H42.6463C42.8649 54.0736 43.0744 53.9868 43.2289 53.8323C43.3835 53.6778 43.4703 53.4682 43.4703 53.2497C43.4703 53.0312 43.3835 52.8216 43.2289 52.6671C43.0744 52.5126 42.8649 52.4258 42.6463 52.4258H39.1159C38.8974 52.4258 38.6878 52.5126 38.5333 52.6671C38.3788 52.8216 38.292 53.0312 38.292 53.2497Z" fill="#0A1856"/>
</svg>
