<svg width="371" height="253" viewBox="0 0 371 253" fill="none" xmlns="http://www.w3.org/2000/svg">
<g clip-path="url(#clip0_1_2)">
<path d="M39.47 228.77H13.15C12.8755 228.77 12.6122 228.661 12.4181 228.467C12.224 228.273 12.115 228.009 12.115 227.735C12.115 227.461 12.224 227.197 12.4181 227.003C12.6122 226.809 12.8755 226.7 13.15 226.7H39.47C39.7445 226.7 40.0078 226.809 40.2019 227.003C40.396 227.197 40.505 227.461 40.505 227.735C40.505 228.009 40.396 228.273 40.2019 228.467C40.0078 228.661 39.7445 228.77 39.47 228.77Z" fill="#0A1856"/>
<path d="M248.22 136.93H247.47C247.47 136.63 247.351 136.343 247.139 136.131C246.927 135.919 246.64 135.8 246.34 135.8C246.04 135.8 245.753 135.919 245.541 136.131C245.329 136.343 245.21 136.63 245.21 136.93H244.46C244.46 136.431 244.658 135.953 245.011 135.601C245.363 135.248 245.841 135.05 246.34 135.05C246.839 135.05 247.317 135.248 247.669 135.601C248.022 135.953 248.22 136.431 248.22 136.93Z" fill="white"/>
<path d="M250.87 93.14H250.12C250.12 92.8403 250.001 92.5529 249.789 92.341C249.577 92.129 249.29 92.01 248.99 92.01C248.69 92.01 248.403 92.129 248.191 92.341C247.979 92.5529 247.86 92.8403 247.86 93.14H247.11C247.11 92.6414 247.308 92.1632 247.661 91.8106C248.013 91.4581 248.491 91.26 248.99 91.26C249.489 91.26 249.967 91.4581 250.319 91.8106C250.672 92.1632 250.87 92.6414 250.87 93.14Z" fill="white"/>
<path d="M157.22 245.29H121.48L122.08 243.85C124.43 238.29 124.67 233.52 124.32 228.08L124.22 227.02L154.4 226.93V227.93C154.589 233.338 155.398 238.706 156.81 243.93L157.22 245.29ZM124.53 243.22H154.43C153.297 238.541 152.597 233.767 152.34 228.96L126.41 229.04C126.817 233.844 126.19 238.679 124.57 243.22H124.53Z" fill="#0A1856"/>
<path d="M111.22 228.94C84.05 228.94 62.04 228.8 61.08 228.45C58.75 227.62 55.71 224.4 55.67 222.11C55.58 217.16 55.37 210.42 55.12 202.61C54.38 179.08 53.36 146.84 54.68 129C54.7884 127.443 55.4814 125.984 56.62 124.915C57.7586 123.847 59.2588 123.249 60.82 123.24H60.92L217.55 123.47C219.15 123.506 220.674 124.16 221.802 125.296C222.93 126.431 223.575 127.96 223.6 129.56C223.72 134.77 223.89 140.1 224.06 145.49C224.78 168.09 225.52 191.49 223.01 213.56C222.92 214.43 222.87 215.39 222.83 216.39C222.62 221.02 222.35 226.79 216.38 227.97C213.43 228.55 155.46 228.94 111.22 228.94ZM60.83 124.94C59.6873 124.947 58.5896 125.386 57.757 126.169C56.9243 126.952 56.4182 128.02 56.34 129.16C55.03 146.91 56.05 179.09 56.79 202.59C57.04 210.4 57.25 217.15 57.34 222.11C57.34 223.56 59.78 226.25 61.64 226.91C64.97 227.59 212.23 227.09 216.06 226.37C220.75 225.44 220.96 220.82 221.16 216.37C221.16 215.37 221.26 214.37 221.36 213.43C223.85 191.43 223.11 168.14 222.36 145.61C222.19 140.2 222.02 134.88 221.9 129.66C221.885 128.492 221.418 127.375 220.598 126.544C219.778 125.713 218.668 125.231 217.5 125.2L60.88 124.97L60.83 124.94Z" fill="#0A1856"/>
<path fill-rule="evenodd" clip-rule="evenodd" d="M213.14 128.87L65.56 128.67C64.3448 128.596 63.1463 128.983 62.2044 129.754C61.2625 130.525 60.6466 131.624 60.48 132.83C58.83 152.58 61.08 193.83 61.42 210.38C61.42 212 64.09 214.38 65.99 215.02C68.23 215.73 208.47 215.19 211.9 214.6C218.05 213.52 217 207.22 217.52 203.18C220.44 180.37 218.65 155.57 218.07 133.26C217.97 132.035 217.403 130.895 216.484 130.077C215.566 129.26 214.369 128.827 213.14 128.87Z" fill="#0181A8" fill-opacity="0.6"/>
<path d="M170.07 251.02H108.66C107.65 251.02 106.68 250.619 105.966 249.904C105.251 249.19 104.85 248.22 104.85 247.21C104.85 246.2 105.251 245.23 105.966 244.516C106.68 243.801 107.65 243.4 108.66 243.4H170.07C171.08 243.4 172.05 243.801 172.764 244.516C173.479 245.23 173.88 246.2 173.88 247.21C173.88 248.22 173.479 249.19 172.764 249.904C172.05 250.619 171.08 251.02 170.07 251.02ZM108.66 245.02C108.116 245.057 107.607 245.299 107.235 245.697C106.863 246.096 106.657 246.62 106.657 247.165C106.657 247.71 106.863 248.234 107.235 248.633C107.607 249.031 108.116 249.273 108.66 249.31H170.07C170.614 249.273 171.123 249.031 171.495 248.633C171.867 248.234 172.073 247.71 172.073 247.165C172.073 246.62 171.867 246.096 171.495 245.697C171.123 245.299 170.614 245.057 170.07 245.02H108.66Z" fill="#0A1856"/>
<path d="M65.9 223.13C68.66 223.13 68.66 218.85 65.9 218.85C63.14 218.85 63.14 223.13 65.9 223.13Z" fill="#0A1856"/>
<path d="M74.54 223.13C77.3 223.13 77.3 218.85 74.54 218.85C71.78 218.85 71.78 223.13 74.54 223.13Z" fill="#0A1856"/>
<path d="M83.22 223.13C85.98 223.13 85.98 218.85 83.22 218.85C80.46 218.85 80.46 223.13 83.22 223.13Z" fill="#0A1856"/>
<path d="M139.36 127.59C139.625 127.59 139.88 127.485 140.067 127.297C140.255 127.11 140.36 126.855 140.36 126.59C140.36 126.325 140.255 126.07 140.067 125.883C139.88 125.695 139.625 125.59 139.36 125.59C139.095 125.59 138.84 125.695 138.653 125.883C138.465 126.07 138.36 126.325 138.36 126.59C138.36 126.855 138.465 127.11 138.653 127.297C138.84 127.485 139.095 127.59 139.36 127.59Z" fill="#0A1856"/>
<path d="M312.53 246.9H291.38L299.51 220.17H304.4L312.53 246.9Z" fill="#0181A8" fill-opacity="0.6"/>
<path d="M314.28 246.9H289.63V249.95H314.28V246.9Z" fill="#0181A8" fill-opacity="0.6"/>
<path d="M293.41 240.22L291.38 246.9H312.53L310.5 240.22H293.41Z" fill="#0A1856"/>
<path d="M295.44 233.54H308.46L306.43 226.85H297.48L295.44 233.54Z" fill="#0A1856"/>
<path d="M321.22 249.78H325.91V231.6H350.01V249.78H354.71V231.6H359.71V217.09H355.71V215.74H348.87V217.09H327.49V215.74H320.65V217.09H316.3V231.6H321.22V249.78ZM358.16 218.6V218.66L355.22 230.09H350.06L352.97 218.6H358.16ZM344.7 230.09H339.53L342.44 218.6H347.61L344.7 230.09ZM334.12 230.09H328.96L331.87 218.6H337.03L334.12 230.09ZM321.22 218.6H326.39L323.48 230.09H318.31L321.22 218.6Z" fill="#0181A8" fill-opacity="0.6"/>
<path d="M90.27 72.07L91.67 70.66C91.7995 70.5258 91.8719 70.3465 91.8719 70.16C91.8719 69.9735 91.7995 69.7942 91.67 69.66L90.45 68.44C90.3032 68.2892 90.2077 68.0958 90.1772 67.8875C90.1466 67.6792 90.1826 67.4666 90.28 67.28L91.28 64.86C91.3414 64.6574 91.4654 64.4795 91.6344 64.3519C91.8033 64.2243 92.0083 64.1536 92.22 64.15H93.95C94.1419 64.15 94.3261 64.0745 94.4627 63.9397C94.5993 63.805 94.6774 63.6219 94.68 63.43V61.43C94.6774 61.2381 94.5993 61.055 94.4627 60.9203C94.3261 60.7855 94.1419 60.71 93.95 60.71H92.22C92.0083 60.7064 91.8033 60.6357 91.6344 60.5081C91.4654 60.3805 91.3414 60.2026 91.28 60L90.28 57.58C90.1826 57.3934 90.1466 57.1808 90.1772 56.9725C90.2077 56.7642 90.3032 56.5708 90.45 56.42L91.67 55.2C91.7995 55.0658 91.8719 54.8865 91.8719 54.7C91.8719 54.5135 91.7995 54.3342 91.67 54.2L90.27 52.79C90.1346 52.6627 89.9558 52.5919 89.77 52.5919C89.5842 52.5919 89.4054 52.6627 89.27 52.79L88.05 54.01C87.8992 54.1568 87.7058 54.2523 87.4975 54.2828C87.2892 54.3133 87.0766 54.2774 86.89 54.18L84.47 53.18C84.2693 53.1169 84.0935 52.9921 83.9679 52.8233C83.8422 52.6545 83.7729 52.4504 83.77 52.24V50.51C83.77 50.3164 83.6931 50.1307 83.5562 49.9938C83.4193 49.8569 83.2336 49.78 83.04 49.78H81.04C80.8464 49.78 80.6607 49.8569 80.5238 49.9938C80.3869 50.1307 80.31 50.3164 80.31 50.51V52.24C80.3071 52.4504 80.2378 52.6545 80.1121 52.8233C79.9865 52.9921 79.8107 53.1169 79.61 53.18L77.18 54.18C76.9934 54.2774 76.7808 54.3133 76.5725 54.2828C76.3642 54.2523 76.1709 54.1568 76.02 54.01L74.8 52.79C74.6658 52.6605 74.4865 52.5881 74.3 52.5881C74.1135 52.5881 73.9342 52.6605 73.8 52.79L72.39 54.2C72.2605 54.3342 72.1881 54.5135 72.1881 54.7C72.1881 54.8865 72.2605 55.0658 72.39 55.2L73.61 56.42C73.7568 56.5708 73.8523 56.7642 73.8828 56.9725C73.9134 57.1808 73.8774 57.3934 73.78 57.58L72.78 60C72.7186 60.2026 72.5946 60.3805 72.4256 60.5081C72.2567 60.6357 72.0517 60.7064 71.84 60.71H70.11C69.9181 60.71 69.7339 60.7855 69.5973 60.9203C69.4607 61.055 69.3826 61.2381 69.38 61.43V63.43C69.3826 63.6219 69.4607 63.805 69.5973 63.9397C69.7339 64.0745 69.9181 64.15 70.11 64.15H71.84C72.0517 64.1536 72.2567 64.2243 72.4256 64.3519C72.5946 64.4795 72.7186 64.6574 72.78 64.86L73.78 67.28C73.8774 67.4666 73.9134 67.6792 73.8828 67.8875C73.8523 68.0958 73.7568 68.2892 73.61 68.44L72.39 69.66C72.2605 69.7942 72.1881 69.9735 72.1881 70.16C72.1881 70.3465 72.2605 70.5258 72.39 70.66L73.8 72.07C73.9342 72.1995 74.1135 72.2719 74.3 72.2719C74.4865 72.2719 74.6658 72.1995 74.8 72.07L76.02 70.85C76.1709 70.7032 76.3642 70.6077 76.5725 70.5772C76.7808 70.5467 76.9934 70.5826 77.18 70.68L79.61 71.68C79.8107 71.7431 79.9865 71.8679 80.1121 72.0367C80.2378 72.2055 80.3071 72.4096 80.31 72.62V74.35C80.31 74.5436 80.3869 74.7293 80.5238 74.8662C80.6607 75.0031 80.8464 75.08 81.04 75.08H83.04C83.2336 75.08 83.4193 75.0031 83.5562 74.8662C83.6931 74.7293 83.77 74.5436 83.77 74.35V72.62C83.7729 72.4096 83.8422 72.2055 83.9679 72.0367C84.0935 71.8679 84.2693 71.7431 84.47 71.68L86.89 70.68C87.0766 70.5826 87.2892 70.5467 87.4975 70.5772C87.7058 70.6077 87.8992 70.7032 88.05 70.85L89.27 72.07C89.4054 72.1973 89.5842 72.2681 89.77 72.2681C89.9558 72.2681 90.1346 72.1973 90.27 72.07ZM82 68.22C80.8489 68.22 79.7237 67.8787 78.7666 67.2392C77.8095 66.5996 77.0635 65.6907 76.623 64.6272C76.1825 63.5638 76.0673 62.3935 76.2918 61.2646C76.5164 60.1356 77.0707 59.0986 77.8846 58.2846C78.6986 57.4707 79.7356 56.9164 80.8646 56.6918C81.9935 56.4673 83.1638 56.5825 84.2272 57.023C85.2907 57.4635 86.1996 58.2095 86.8392 59.1666C87.4787 60.1237 87.82 61.2489 87.82 62.4C87.8174 63.9428 87.2033 65.4216 86.1124 66.5125C85.0216 67.6033 83.5427 68.2174 82 68.22Z" fill="#0181A8" fill-opacity="0.6"/>
<path d="M103.72 77.57L103.37 76.39C103.353 76.3325 103.324 76.2789 103.286 76.2325C103.248 76.1862 103.201 76.1479 103.148 76.1199C103.095 76.0919 103.037 76.0749 102.977 76.0698C102.917 76.0646 102.857 76.0715 102.8 76.09L101.8 76.4C101.673 76.4313 101.54 76.4242 101.417 76.3797C101.294 76.3352 101.187 76.2553 101.11 76.15L100.11 74.89C100.025 74.7949 99.9694 74.6773 99.9499 74.5513C99.9304 74.4253 99.9478 74.2963 100 74.18L100.51 73.23C100.567 73.1252 100.58 73.0021 100.546 72.8878C100.512 72.7734 100.435 72.6771 100.33 72.62L99.22 72.02C99.1675 71.9922 99.1101 71.975 99.0509 71.9695C98.9918 71.964 98.9321 71.9703 98.8754 71.988C98.8187 72.0056 98.7661 72.0343 98.7205 72.0724C98.675 72.1106 98.6374 72.1573 98.61 72.21L98.1 73.21C98.0313 73.319 97.9322 73.4054 97.8149 73.4587C97.6976 73.512 97.5673 73.5299 97.44 73.51L95.83 73.35C95.6999 73.3456 95.5741 73.3023 95.4689 73.2257C95.3637 73.149 95.284 73.0425 95.24 72.92L94.93 71.92C94.8954 71.8061 94.8169 71.7105 94.712 71.6543C94.607 71.5981 94.484 71.5857 94.37 71.62L93.19 71.98C93.1328 71.996 93.0795 72.0233 93.0332 72.0605C92.9869 72.0976 92.9486 72.1437 92.9205 72.196C92.8925 72.2483 92.8754 72.3058 92.8701 72.3649C92.8649 72.424 92.8716 72.4836 92.89 72.54L93.2 73.54C93.2319 73.6653 93.2251 73.7974 93.1805 73.9188C93.1359 74.0402 93.0555 74.1452 92.95 74.22L91.69 75.22C91.597 75.3085 91.4791 75.3665 91.3522 75.3861C91.2253 75.4058 91.0955 75.3862 90.98 75.33L90.03 74.82C89.9775 74.7922 89.9201 74.775 89.8609 74.7695C89.8018 74.764 89.7421 74.7703 89.6854 74.788C89.6287 74.8056 89.5761 74.8343 89.5305 74.8724C89.485 74.9106 89.4474 74.9573 89.42 75.01L88.83 76.09C88.776 76.198 88.7656 76.3226 88.801 76.438C88.8363 76.5534 88.9148 76.6508 89.02 76.71L89.97 77.22C90.0801 77.2851 90.1677 77.3821 90.2213 77.4982C90.2749 77.6143 90.2919 77.744 90.27 77.87L90.11 79.49C90.105 79.6187 90.0613 79.743 89.9846 79.8464C89.9079 79.9499 89.8017 80.0278 89.68 80.07L88.68 80.38C88.5653 80.4168 88.4697 80.4971 88.4136 80.6037C88.3575 80.7103 88.3454 80.8346 88.38 80.95L88.74 82.13C88.7747 82.2439 88.8531 82.3395 88.958 82.3957C89.063 82.4519 89.186 82.4643 89.3 82.43L90.3 82.12C90.4253 82.0881 90.5574 82.0949 90.6788 82.1395C90.8002 82.1842 90.9052 82.2645 90.98 82.37L91.98 83.62C92.0694 83.7146 92.1278 83.8342 92.1474 83.9628C92.1671 84.0915 92.147 84.223 92.09 84.34L91.58 85.29C91.5522 85.3425 91.535 85.3999 91.5295 85.4591C91.524 85.5182 91.5303 85.5779 91.548 85.6346C91.5656 85.6913 91.5943 85.7439 91.6325 85.7895C91.6706 85.835 91.7173 85.8726 91.77 85.9L92.85 86.48C92.9568 86.5349 93.0805 86.5468 93.1958 86.5133C93.3111 86.4798 93.4092 86.4035 93.47 86.3L93.97 85.3C94.0374 85.1892 94.1359 85.1007 94.2533 85.0456C94.3707 84.9904 94.5017 84.9711 94.63 84.99L96.24 85.15C96.3721 85.1522 96.5001 85.1959 96.6059 85.2749C96.7118 85.3538 96.7902 85.4641 96.83 85.59L97.14 86.59C97.156 86.6472 97.1833 86.7005 97.2205 86.7468C97.2576 86.7931 97.3037 86.8314 97.356 86.8595C97.4083 86.8875 97.4658 86.9046 97.5249 86.9099C97.584 86.9151 97.6436 86.9084 97.7 86.89L98.89 86.54C99.0032 86.5011 99.0973 86.4204 99.153 86.3145C99.2088 86.2086 99.222 86.0853 99.19 85.97L98.88 84.97C98.8456 84.8457 98.8502 84.7139 98.8931 84.5923C98.936 84.4707 99.0152 84.3652 99.12 84.29L100.38 83.29C100.477 83.2053 100.597 83.15 100.724 83.1305C100.852 83.111 100.982 83.1282 101.1 83.18L102.04 83.69C102.146 83.7474 102.271 83.7607 102.387 83.727C102.503 83.6934 102.601 83.6154 102.66 83.51L103.24 82.42C103.268 82.3675 103.285 82.3101 103.29 82.2509C103.296 82.1918 103.29 82.1321 103.272 82.0754C103.254 82.0187 103.226 81.9661 103.188 81.9205C103.149 81.875 103.103 81.8374 103.05 81.81L102.11 81.3C101.999 81.2353 101.91 81.1387 101.855 81.0227C101.8 80.9068 101.78 80.7769 101.8 80.65L101.96 79.03C101.966 78.9003 102.01 78.7751 102.086 78.6701C102.162 78.5652 102.268 78.4851 102.39 78.44L103.39 78.13C103.449 78.1161 103.505 78.0903 103.554 78.0543C103.603 78.0183 103.644 77.9728 103.675 77.9204C103.705 77.8681 103.725 77.8101 103.733 77.7499C103.741 77.6896 103.736 77.6285 103.72 77.57ZM99.22 80.95C98.883 81.5801 98.3667 82.096 97.7363 82.4324C97.1059 82.7688 96.3899 82.9106 95.6789 82.8397C94.9679 82.7689 94.2939 82.4887 93.7423 82.0346C93.1906 81.5805 92.7862 80.9729 92.5801 80.2887C92.374 79.6046 92.3756 78.8747 92.5846 78.1914C92.7936 77.5082 93.2007 76.9023 93.7543 76.4506C94.3079 75.9988 94.9831 75.7215 95.6944 75.6538C96.4057 75.586 97.1211 75.7309 97.75 76.07C98.1673 76.2935 98.5364 76.5972 98.8362 76.9635C99.1361 77.3299 99.3607 77.7518 99.4972 78.2051C99.6338 78.6584 99.6796 79.1342 99.632 79.6052C99.5844 80.0762 99.4444 80.5332 99.22 80.95Z" fill="#0181A8" fill-opacity="0.6"/>
<path d="M162.61 100.35H130.01C129.735 100.35 129.472 100.241 129.278 100.047C129.084 99.8528 128.975 99.5895 128.975 99.315C128.975 99.0405 129.084 98.7772 129.278 98.5831C129.472 98.389 129.735 98.28 130.01 98.28H162.61C162.884 98.28 163.148 98.389 163.342 98.5831C163.536 98.7772 163.645 99.0405 163.645 99.315C163.645 99.5895 163.536 99.8528 163.342 100.047C163.148 100.241 162.884 100.35 162.61 100.35Z" fill="#0A1856"/>
<path d="M96.22 115.16H43.58C43.3042 115.16 43.0397 115.05 42.8446 114.855C42.6496 114.66 42.54 114.396 42.54 114.12C42.54 113.844 42.6496 113.58 42.8446 113.385C43.0397 113.19 43.3042 113.08 43.58 113.08H96.22C96.4958 113.08 96.7604 113.19 96.9554 113.385C97.1504 113.58 97.26 113.844 97.26 114.12C97.26 114.396 97.1504 114.66 96.9554 114.855C96.7604 115.05 96.4958 115.16 96.22 115.16Z" fill="#0A1856"/>
<path d="M348.72 143.2H296.06C295.784 143.2 295.52 143.09 295.325 142.895C295.13 142.7 295.02 142.436 295.02 142.16C295.02 141.884 295.13 141.62 295.325 141.425C295.52 141.23 295.784 141.12 296.06 141.12H348.72C348.996 141.12 349.26 141.23 349.455 141.425C349.65 141.62 349.76 141.884 349.76 142.16C349.76 142.436 349.65 142.7 349.455 142.895C349.26 143.09 348.996 143.2 348.72 143.2Z" fill="#0A1856"/>
<path d="M369.42 252.02H1.04C0.764176 252.02 0.499649 251.91 0.304611 251.715C0.109573 251.52 0 251.256 0 250.98C0 250.704 0.109573 250.44 0.304611 250.245C0.499649 250.05 0.764176 249.94 1.04 249.94H369.42C369.696 249.94 369.96 250.05 370.155 250.245C370.35 250.44 370.46 250.704 370.46 250.98C370.46 251.256 370.35 251.52 370.155 251.715C369.96 251.91 369.696 252.02 369.42 252.02Z" fill="#0A1856"/>
<path d="M223.28 87.32C221.807 87.3222 220.361 87.7129 219.088 88.4526C217.815 89.1923 216.759 90.2548 216.028 91.533C215.296 92.8111 214.915 94.2596 214.923 95.7322C214.93 97.2047 215.326 98.6493 216.07 99.92L216.2 100.15L207.74 108.62C207.607 108.75 207.501 108.906 207.429 109.078C207.357 109.249 207.32 109.434 207.32 109.62C207.333 109.867 207.396 110.109 207.506 110.331C207.616 110.553 207.771 110.75 207.96 110.91C208.136 111.114 208.352 111.281 208.594 111.399C208.837 111.518 209.101 111.586 209.37 111.6C209.731 111.596 210.081 111.477 210.37 111.26L218.82 102.81L219.05 102.94C220.159 103.594 221.405 103.983 222.69 104.078C223.974 104.172 225.263 103.968 226.456 103.483C227.649 102.997 228.714 102.243 229.568 101.279C230.421 100.314 231.041 99.166 231.379 97.923C231.716 96.6801 231.762 95.376 231.513 94.1123C231.264 92.8486 230.727 91.6594 229.944 90.6372C229.16 89.6151 228.151 88.7876 226.995 88.2192C225.839 87.6508 224.568 87.3567 223.28 87.36V87.32ZM223.28 101.57C221.721 101.57 220.225 100.95 219.122 99.8478C218.02 98.7451 217.4 97.2495 217.4 95.69C217.4 94.1305 218.02 92.6349 219.122 91.5322C220.225 90.4295 221.721 89.81 223.28 89.81C224.839 89.81 226.335 90.4295 227.438 91.5322C228.54 92.6349 229.16 94.1305 229.16 95.69C229.16 97.2495 228.54 98.7451 227.438 99.8478C226.335 100.95 224.839 101.57 223.28 101.57Z" fill="#0181A8" fill-opacity="0.6"/>
<path d="M220.22 96.91H226.22V95.36H220.22V96.91Z" fill="#0181A8" fill-opacity="0.6"/>
<path d="M67.97 250.09C67.7048 250.09 67.4504 249.985 67.2629 249.797C67.0754 249.61 66.97 249.355 66.97 249.09V169.18C66.97 168.904 67.0796 168.64 67.2746 168.445C67.4697 168.25 67.7342 168.14 68.01 168.14C68.2858 168.14 68.5504 168.25 68.7454 168.445C68.9404 168.64 69.05 168.904 69.05 169.18V249.02C69.0606 249.164 69.0399 249.309 68.9892 249.444C68.9385 249.579 68.8592 249.702 68.7565 249.804C68.6539 249.906 68.5304 249.984 68.3946 250.033C68.2589 250.083 68.114 250.102 67.97 250.09Z" fill="#0A1856"/>
<path d="M86.53 250.09C86.2648 250.09 86.0104 249.985 85.8229 249.797C85.6354 249.61 85.53 249.355 85.53 249.09V169.18C85.53 168.904 85.6396 168.64 85.8346 168.445C86.0296 168.25 86.2942 168.14 86.57 168.14C86.8458 168.14 87.1104 168.25 87.3054 168.445C87.5004 168.64 87.61 168.904 87.61 169.18V249.02C87.6206 249.164 87.5999 249.309 87.5492 249.444C87.4985 249.579 87.4192 249.702 87.3165 249.804C87.2139 249.906 87.0904 249.984 86.9546 250.033C86.8189 250.083 86.674 250.102 86.53 250.09Z" fill="#0A1856"/>
<path d="M86.53 175.67H67.97C67.8341 175.67 67.6995 175.643 67.5739 175.591C67.4484 175.539 67.3343 175.463 67.2381 175.367C67.142 175.271 67.0658 175.157 67.0138 175.031C66.9618 174.906 66.935 174.771 66.935 174.635C66.935 174.499 66.9618 174.365 67.0138 174.239C67.0658 174.113 67.142 173.999 67.2381 173.903C67.3343 173.807 67.4484 173.731 67.5739 173.679C67.6995 173.627 67.8341 173.6 67.97 173.6H86.53C86.6659 173.6 86.8005 173.627 86.9261 173.679C87.0516 173.731 87.1657 173.807 87.2619 173.903C87.358 173.999 87.4342 174.113 87.4862 174.239C87.5382 174.365 87.565 174.499 87.565 174.635C87.565 174.771 87.5382 174.906 87.4862 175.031C87.4342 175.157 87.358 175.271 87.2619 175.367C87.1657 175.463 87.0516 175.539 86.9261 175.591C86.8005 175.643 86.6659 175.67 86.53 175.67Z" fill="#0A1856"/>
<path d="M86.53 184.8H67.97C67.6942 184.8 67.4296 184.69 67.2346 184.495C67.0396 184.3 66.93 184.036 66.93 183.76C66.93 183.484 67.0396 183.22 67.2346 183.025C67.4296 182.83 67.6942 182.72 67.97 182.72H86.53C86.8058 182.72 87.0704 182.83 87.2654 183.025C87.4604 183.22 87.57 183.484 87.57 183.76C87.57 184.036 87.4604 184.3 87.2654 184.495C87.0704 184.69 86.8058 184.8 86.53 184.8Z" fill="#0A1856"/>
<path d="M86.53 193.92H67.97C67.6955 193.92 67.4322 193.811 67.2381 193.617C67.044 193.423 66.935 193.159 66.935 192.885C66.935 192.61 67.044 192.347 67.2381 192.153C67.4322 191.959 67.6955 191.85 67.97 191.85H86.53C86.8045 191.85 87.0678 191.959 87.2619 192.153C87.456 192.347 87.565 192.61 87.565 192.885C87.565 193.159 87.456 193.423 87.2619 193.617C87.0678 193.811 86.8045 193.92 86.53 193.92Z" fill="#0A1856"/>
<path d="M86.53 203.02H67.97C67.6942 203.02 67.4296 202.91 67.2346 202.715C67.0396 202.52 66.93 202.256 66.93 201.98C66.93 201.704 67.0396 201.44 67.2346 201.245C67.4296 201.05 67.6942 200.94 67.97 200.94H86.53C86.8058 200.94 87.0704 201.05 87.2654 201.245C87.4604 201.44 87.57 201.704 87.57 201.98C87.57 202.256 87.4604 202.52 87.2654 202.715C87.0704 202.91 86.8058 203.02 86.53 203.02Z" fill="#0A1856"/>
<path d="M86.53 212.17H67.97C67.6955 212.17 67.4322 212.061 67.2381 211.867C67.044 211.673 66.935 211.409 66.935 211.135C66.935 210.86 67.044 210.597 67.2381 210.403C67.4322 210.209 67.6955 210.1 67.97 210.1H86.53C86.8045 210.1 87.0678 210.209 87.2619 210.403C87.456 210.597 87.565 210.86 87.565 211.135C87.565 211.409 87.456 211.673 87.2619 211.867C87.0678 212.061 86.8045 212.17 86.53 212.17Z" fill="#0A1856"/>
<path d="M86.53 221.3H67.97C67.6942 221.3 67.4296 221.19 67.2346 220.995C67.0396 220.8 66.93 220.536 66.93 220.26C66.93 219.984 67.0396 219.72 67.2346 219.525C67.4296 219.33 67.6942 219.22 67.97 219.22H86.53C86.8058 219.22 87.0704 219.33 87.2654 219.525C87.4604 219.72 87.57 219.984 87.57 220.26C87.57 220.536 87.4604 220.8 87.2654 220.995C87.0704 221.19 86.8058 221.3 86.53 221.3Z" fill="#0A1856"/>
<path d="M86.53 230.42H67.97C67.6955 230.42 67.4322 230.311 67.2381 230.117C67.044 229.923 66.935 229.659 66.935 229.385C66.935 229.11 67.044 228.847 67.2381 228.653C67.4322 228.459 67.6955 228.35 67.97 228.35H86.53C86.8045 228.35 87.0678 228.459 87.2619 228.653C87.456 228.847 87.565 229.11 87.565 229.385C87.565 229.659 87.456 229.923 87.2619 230.117C87.0678 230.311 86.8045 230.42 86.53 230.42Z" fill="#0A1856"/>
<path d="M86.53 239.55H67.97C67.6942 239.55 67.4296 239.44 67.2346 239.245C67.0396 239.05 66.93 238.786 66.93 238.51C66.93 238.234 67.0396 237.97 67.2346 237.775C67.4296 237.58 67.6942 237.47 67.97 237.47H86.53C86.8058 237.47 87.0704 237.58 87.2654 237.775C87.4604 237.97 87.57 238.234 87.57 238.51C87.57 238.786 87.4604 239.05 87.2654 239.245C87.0704 239.44 86.8058 239.55 86.53 239.55Z" fill="#0A1856"/>
<path d="M42.69 173.02C42.4248 173.02 42.1704 172.915 41.9829 172.727C41.7954 172.54 41.69 172.285 41.69 172.02V168.02C41.69 167.744 41.7996 167.48 41.9946 167.285C42.1897 167.09 42.4542 166.98 42.73 166.98C43.0058 166.98 43.2704 167.09 43.4654 167.285C43.6604 167.48 43.77 167.744 43.77 168.02V172.02C43.7704 172.158 43.7422 172.295 43.687 172.422C43.6318 172.549 43.5509 172.663 43.4494 172.757C43.3479 172.851 43.228 172.923 43.0973 172.968C42.9666 173.013 42.8279 173.031 42.69 173.02Z" fill="#0A1856"/>
<path d="M44.71 171.02H40.71C40.4355 171.02 40.1722 170.911 39.9781 170.717C39.784 170.523 39.675 170.259 39.675 169.985C39.675 169.711 39.784 169.447 39.9781 169.253C40.1722 169.059 40.4355 168.95 40.71 168.95H44.71C44.9845 168.95 45.2478 169.059 45.4419 169.253C45.636 169.447 45.745 169.711 45.745 169.985C45.745 170.259 45.636 170.523 45.4419 170.717C45.2478 170.911 44.9845 171.02 44.71 171.02Z" fill="#0A1856"/>
<path d="M135.96 28.62C135.695 28.62 135.44 28.5146 135.253 28.3271C135.065 28.1396 134.96 27.8852 134.96 27.62V23.62C134.96 23.3455 135.069 23.0822 135.263 22.8881C135.457 22.694 135.72 22.585 135.995 22.585C136.269 22.585 136.533 22.694 136.727 22.8881C136.921 23.0822 137.03 23.3455 137.03 23.62V27.62C137.03 27.7574 137.002 27.8935 136.948 28.0196C136.893 28.1457 136.813 28.2592 136.713 28.3531C136.612 28.4469 136.494 28.519 136.364 28.565C136.235 28.6109 136.097 28.6296 135.96 28.62Z" fill="#0A1856"/>
<path d="M137.98 26.6H133.98C133.704 26.6 133.44 26.4904 133.245 26.2954C133.05 26.1004 132.94 25.8358 132.94 25.56C132.94 25.2842 133.05 25.0197 133.245 24.8246C133.44 24.6296 133.704 24.52 133.98 24.52H137.98C138.256 24.52 138.52 24.6296 138.715 24.8246C138.91 25.0197 139.02 25.2842 139.02 25.56C139.02 25.8358 138.91 26.1004 138.715 26.2954C138.52 26.4904 138.256 26.6 137.98 26.6Z" fill="#0A1856"/>
<path d="M168.65 237.68C168.554 237.694 168.456 237.694 168.36 237.68L164.48 236.57C164.347 236.537 164.222 236.477 164.113 236.393C164.004 236.31 163.913 236.205 163.846 236.085C163.78 235.964 163.739 235.832 163.726 235.695C163.712 235.558 163.728 235.421 163.77 235.29C163.803 235.157 163.863 235.032 163.947 234.923C164.03 234.814 164.135 234.723 164.255 234.656C164.376 234.59 164.508 234.549 164.645 234.535C164.781 234.522 164.919 234.537 165.05 234.58L168.93 235.69C169.195 235.727 169.435 235.868 169.596 236.082C169.757 236.296 169.827 236.565 169.79 236.83C169.753 237.095 169.612 237.335 169.398 237.496C169.184 237.657 168.915 237.727 168.65 237.69V237.68Z" fill="#0A1856"/>
<path d="M166.15 239.07C166.057 239.085 165.963 239.085 165.87 239.07C165.737 239.037 165.612 238.977 165.503 238.893C165.394 238.81 165.303 238.705 165.236 238.585C165.17 238.464 165.129 238.332 165.116 238.195C165.102 238.059 165.118 237.921 165.16 237.79L166.27 233.9C166.346 233.635 166.523 233.41 166.764 233.276C167.005 233.142 167.29 233.109 167.555 233.185C167.82 233.261 168.045 233.438 168.179 233.679C168.313 233.92 168.346 234.205 168.27 234.47L167.16 238.36C167.095 238.574 166.961 238.761 166.778 238.889C166.595 239.018 166.374 239.082 166.15 239.07Z" fill="#0A1856"/>
<path d="M148.22 115.71C148.127 115.725 148.033 115.725 147.94 115.71L144.05 114.6C143.785 114.524 143.56 114.347 143.426 114.106C143.292 113.865 143.259 113.58 143.335 113.315C143.411 113.05 143.588 112.825 143.829 112.691C144.07 112.557 144.355 112.524 144.62 112.6L148.5 113.71C148.765 113.747 149.005 113.888 149.166 114.102C149.327 114.316 149.397 114.585 149.36 114.85C149.323 115.115 149.182 115.355 148.968 115.516C148.754 115.677 148.485 115.747 148.22 115.71Z" fill="#0A1856"/>
<path d="M145.75 117.1C145.657 117.113 145.563 117.113 145.47 117.1C145.337 117.067 145.212 117.007 145.103 116.923C144.994 116.84 144.903 116.735 144.836 116.615C144.77 116.494 144.729 116.362 144.716 116.225C144.702 116.089 144.718 115.951 144.76 115.82L145.87 111.94C145.907 111.809 145.97 111.686 146.055 111.579C146.14 111.472 146.245 111.383 146.364 111.316C146.484 111.25 146.615 111.208 146.751 111.192C146.886 111.176 147.024 111.188 147.155 111.225C147.286 111.262 147.409 111.325 147.516 111.41C147.623 111.495 147.712 111.6 147.779 111.719C147.845 111.839 147.887 111.97 147.903 112.106C147.919 112.241 147.907 112.379 147.87 112.51L146.76 116.39C146.695 116.604 146.561 116.791 146.378 116.919C146.195 117.048 145.974 117.112 145.75 117.1Z" fill="#0A1856"/>
<path d="M155.714 87.6875C161.341 82.06 161.341 72.9361 155.714 67.3086C150.086 61.6812 140.963 61.6812 135.335 67.3086C129.708 72.9361 129.708 82.06 135.335 87.6875C140.963 93.3149 150.086 93.3149 155.714 87.6875Z" fill="#0181A8" fill-opacity="0.6"/>
<path d="M145.53 88.29C151.489 88.29 156.32 83.4592 156.32 77.5C156.32 71.5408 151.489 66.71 145.53 66.71C139.571 66.71 134.74 71.5408 134.74 77.5C134.74 83.4592 139.571 88.29 145.53 88.29Z" fill="white"/>
<path d="M145.53 88.7C143.313 88.7 141.146 88.0425 139.302 86.8108C137.459 85.579 136.022 83.8282 135.173 81.7799C134.325 79.7315 134.103 77.4776 134.535 75.303C134.968 73.1285 136.036 71.1311 137.603 69.5633C139.171 67.9956 141.169 66.9279 143.343 66.4954C145.518 66.0629 147.772 66.2848 149.82 67.1333C151.868 67.9818 153.619 69.4186 154.851 71.262C156.083 73.1055 156.74 75.2729 156.74 77.49C156.737 80.4623 155.555 83.312 153.454 85.4137C151.352 87.5154 148.502 88.6973 145.53 88.7ZM145.53 67.12C143.477 67.12 141.469 67.729 139.762 68.87C138.055 70.011 136.725 71.6328 135.939 73.53C135.154 75.4273 134.949 77.5149 135.35 79.5287C135.752 81.5425 136.741 83.392 138.194 84.8433C139.646 86.2946 141.497 87.2824 143.511 87.6818C145.525 88.0811 147.613 87.8742 149.509 87.087C151.406 86.2998 153.026 84.9678 154.166 83.2595C155.305 81.5512 155.912 79.5434 155.91 77.49C155.907 74.7388 154.813 72.1011 152.866 70.1567C150.92 68.2122 148.281 67.12 145.53 67.12Z" fill="#0A1856"/>
<path d="M145.53 77.91C145.419 77.91 145.312 77.8657 145.233 77.787C145.154 77.7082 145.11 77.6014 145.11 77.49V72.02C145.11 71.9086 145.154 71.8018 145.233 71.723C145.312 71.6442 145.419 71.6 145.53 71.6C145.641 71.6 145.748 71.6442 145.827 71.723C145.906 71.8018 145.95 71.9086 145.95 72.02V77.51C145.945 77.6179 145.898 77.7196 145.82 77.7941C145.742 77.8686 145.638 77.9101 145.53 77.91Z" fill="#0A1856"/>
<path d="M151.97 77.91H145.53C145.419 77.91 145.312 77.8657 145.233 77.787C145.154 77.7082 145.11 77.6014 145.11 77.49C145.11 77.4353 145.121 77.3812 145.142 77.3308C145.163 77.2804 145.194 77.2347 145.234 77.1965C145.273 77.1583 145.319 77.1283 145.37 77.1083C145.421 77.0883 145.475 77.0787 145.53 77.08H151.97C152.025 77.0787 152.079 77.0883 152.13 77.1083C152.181 77.1283 152.227 77.1583 152.266 77.1965C152.306 77.2347 152.337 77.2804 152.358 77.3308C152.379 77.3812 152.39 77.4353 152.39 77.49C152.39 77.6014 152.346 77.7082 152.267 77.787C152.188 77.8657 152.081 77.91 151.97 77.91Z" fill="#0A1856"/>
<path d="M145.96 67.92C145.96 68.005 145.935 68.0882 145.888 68.1589C145.84 68.2296 145.773 68.2847 145.695 68.3173C145.616 68.3498 145.53 68.3583 145.446 68.3417C145.363 68.3251 145.286 68.2842 145.226 68.2241C145.166 68.1639 145.125 68.0873 145.108 68.0039C145.092 67.9205 145.1 67.834 145.133 67.7554C145.165 67.6769 145.22 67.6097 145.291 67.5625C145.362 67.5152 145.445 67.49 145.53 67.49C145.586 67.49 145.642 67.5011 145.695 67.5227C145.747 67.5443 145.794 67.576 145.834 67.6159C145.874 67.6559 145.906 67.7033 145.927 67.7554C145.949 67.8076 145.96 67.8635 145.96 67.92Z" fill="#0A1856"/>
<path d="M152.3 71.16C152.537 71.16 152.73 70.9675 152.73 70.73C152.73 70.4925 152.537 70.3 152.3 70.3C152.063 70.3 151.87 70.4925 151.87 70.73C151.87 70.9675 152.063 71.16 152.3 71.16Z" fill="#0A1856"/>
<path d="M155.1 77.92C155.015 77.92 154.932 77.8948 154.861 77.8475C154.79 77.8003 154.735 77.7331 154.703 77.6546C154.67 77.576 154.662 77.4895 154.678 77.4061C154.695 77.3227 154.736 77.2461 154.796 77.1859C154.856 77.1258 154.933 77.0849 155.016 77.0683C155.1 77.0517 155.186 77.0602 155.265 77.0927C155.343 77.1253 155.41 77.1804 155.458 77.2511C155.505 77.3218 155.53 77.405 155.53 77.49C155.531 77.5468 155.521 77.6034 155.5 77.6562C155.479 77.7089 155.447 77.7569 155.407 77.7971C155.367 77.8373 155.319 77.8689 155.266 77.8901C155.213 77.9112 155.157 77.9214 155.1 77.92Z" fill="#0A1856"/>
<path d="M152.3 84.7C152.537 84.7 152.73 84.5075 152.73 84.27C152.73 84.0325 152.537 83.84 152.3 83.84C152.063 83.84 151.87 84.0325 151.87 84.27C151.87 84.5075 152.063 84.7 152.3 84.7Z" fill="#0A1856"/>
<path d="M145.1 87.07C145.098 86.9846 145.122 86.9005 145.168 86.8284C145.214 86.7564 145.28 86.6998 145.358 86.6657C145.437 86.6316 145.524 86.6216 145.608 86.6371C145.692 86.6525 145.769 86.6927 145.83 86.7524C145.891 86.8121 145.933 86.8887 145.951 86.9724C145.968 87.056 145.96 87.143 145.928 87.2222C145.896 87.3013 145.841 87.3691 145.77 87.4168C145.699 87.4645 145.615 87.49 145.53 87.49C145.418 87.49 145.31 87.4461 145.229 87.3676C145.149 87.2891 145.103 87.1823 145.1 87.07Z" fill="#0A1856"/>
<path d="M138.46 83.96C138.54 83.8818 138.648 83.8381 138.76 83.8381C138.872 83.8381 138.98 83.8818 139.06 83.96C139.118 84.0191 139.157 84.0939 139.173 84.1751C139.188 84.2564 139.179 84.3404 139.147 84.4166C139.115 84.4929 139.061 84.558 138.992 84.6038C138.924 84.6495 138.843 84.6739 138.76 84.6739C138.677 84.6739 138.596 84.6495 138.528 84.6038C138.459 84.558 138.405 84.4929 138.373 84.4166C138.341 84.3404 138.332 84.2564 138.347 84.1751C138.363 84.0939 138.402 84.0191 138.46 83.96Z" fill="#0A1856"/>
<path d="M135.95 77.93C136.187 77.93 136.38 77.7375 136.38 77.5C136.38 77.2625 136.187 77.07 135.95 77.07C135.713 77.07 135.52 77.2625 135.52 77.5C135.52 77.7375 135.713 77.93 135.95 77.93Z" fill="#0A1856"/>
<path d="M139.06 70.42C139.1 70.46 139.132 70.5075 139.154 70.5598C139.176 70.6122 139.187 70.6683 139.187 70.725C139.187 70.7817 139.176 70.8378 139.154 70.8902C139.132 70.9425 139.1 70.99 139.06 71.03C138.98 71.1082 138.872 71.1519 138.76 71.1519C138.648 71.1519 138.54 71.1082 138.46 71.03C138.42 70.99 138.388 70.9425 138.366 70.8902C138.344 70.8378 138.333 70.7817 138.333 70.725C138.333 70.6683 138.344 70.6122 138.366 70.5598C138.388 70.5075 138.42 70.46 138.46 70.42C138.54 70.3418 138.648 70.2981 138.76 70.2981C138.872 70.2981 138.98 70.3418 139.06 70.42Z" fill="#0A1856"/>
<path d="M166.61 72.02H160.61C160.55 72.0293 160.489 72.0256 160.431 72.009C160.372 71.9924 160.318 71.9634 160.272 71.924C160.226 71.8846 160.189 71.8356 160.164 71.7806C160.139 71.7255 160.125 71.6656 160.125 71.605C160.125 71.5444 160.139 71.4845 160.164 71.4294C160.189 71.3743 160.226 71.3254 160.272 71.286C160.318 71.2466 160.372 71.2176 160.431 71.201C160.489 71.1844 160.55 71.1807 160.61 71.19H166.61C166.709 71.2054 166.799 71.2557 166.864 71.3318C166.93 71.4079 166.965 71.5048 166.965 71.605C166.965 71.7052 166.93 71.8021 166.864 71.8782C166.799 71.9543 166.709 72.0046 166.61 72.02Z" fill="#0A1856"/>
<path d="M166.61 83.83H160.61C160.499 83.83 160.392 83.7857 160.313 83.707C160.234 83.6282 160.19 83.5214 160.19 83.41C160.19 83.3553 160.201 83.3012 160.222 83.2508C160.243 83.2003 160.274 83.1547 160.314 83.1165C160.353 83.0783 160.399 83.0483 160.45 83.0283C160.501 83.0083 160.555 82.9987 160.61 83H166.61C166.719 83 166.823 83.0432 166.9 83.1201C166.977 83.197 167.02 83.3013 167.02 83.41C167.021 83.4647 167.012 83.5191 166.992 83.57C166.972 83.6209 166.942 83.6673 166.904 83.7064C166.865 83.7455 166.82 83.7766 166.769 83.7979C166.719 83.8191 166.665 83.83 166.61 83.83Z" fill="#0A1856"/>
<path d="M174.13 77.91H162.83C162.77 77.9193 162.709 77.9156 162.651 77.899C162.592 77.8824 162.538 77.8534 162.492 77.814C162.446 77.7746 162.409 77.7256 162.384 77.6706C162.359 77.6155 162.345 77.5556 162.345 77.495C162.345 77.4344 162.359 77.3745 162.384 77.3194C162.409 77.2643 162.446 77.2154 162.492 77.176C162.538 77.1366 162.592 77.1076 162.651 77.091C162.709 77.0744 162.77 77.0707 162.83 77.08H174.13C174.229 77.0954 174.319 77.1457 174.384 77.2218C174.45 77.2979 174.485 77.3948 174.485 77.495C174.485 77.5952 174.45 77.6921 174.384 77.7682C174.319 77.8443 174.229 77.8946 174.13 77.91Z" fill="#0A1856"/>
<path d="M193.84 233.54H187.16V240.22H193.84V233.54Z" fill="white"/>
<path d="M194.36 240.74H186.64V233.02H194.36V240.74ZM187.68 239.74H193.32V234.02H187.68V239.74Z" fill="#0A1856"/>
<path d="M202.3 235.02H196.22C196.165 235.021 196.111 235.012 196.06 234.992C196.009 234.972 195.963 234.942 195.924 234.904C195.884 234.865 195.853 234.82 195.832 234.769C195.811 234.719 195.8 234.665 195.8 234.61C195.8 234.499 195.844 234.392 195.923 234.313C196.002 234.234 196.109 234.19 196.22 234.19H202.27C202.381 234.19 202.488 234.234 202.567 234.313C202.646 234.392 202.69 234.499 202.69 234.61C202.69 234.715 202.65 234.817 202.577 234.893C202.504 234.969 202.405 235.015 202.3 235.02Z" fill="#0A1856"/>
<path d="M204.57 239.58H196.4C196.08 239.58 195.83 239.4 195.83 239.17C195.83 238.94 196.08 238.75 196.4 238.75H204.57C204.88 238.75 205.14 238.93 205.14 239.17C205.14 239.41 204.88 239.58 204.57 239.58Z" fill="#0A1856"/>
<path d="M207.55 237.16H196.22C196.165 237.161 196.111 237.152 196.06 237.132C196.009 237.112 195.963 237.082 195.924 237.044C195.884 237.005 195.853 236.96 195.832 236.909C195.811 236.859 195.8 236.805 195.8 236.75C195.8 236.695 195.811 236.64 195.832 236.589C195.853 236.538 195.884 236.492 195.923 236.453C195.962 236.414 196.008 236.383 196.059 236.362C196.11 236.341 196.165 236.33 196.22 236.33H207.52C207.575 236.33 207.63 236.341 207.681 236.362C207.732 236.383 207.778 236.414 207.817 236.453C207.856 236.492 207.887 236.538 207.908 236.589C207.929 236.64 207.94 236.695 207.94 236.75C207.94 236.855 207.9 236.957 207.827 237.033C207.754 237.109 207.655 237.155 207.55 237.16Z" fill="#0A1856"/>
<path d="M40.44 142.16H47.12V135.48H40.44V142.16Z" fill="white"/>
<path d="M47.64 142.68H39.92V134.96H47.64V142.68ZM40.95 141.68H46.6V136.02H40.95V141.68Z" fill="#0A1856"/>
<path d="M31.98 136.95H37.98C38.0914 136.95 38.1982 136.906 38.277 136.827C38.3558 136.748 38.4 136.641 38.4 136.53C38.4 136.419 38.3558 136.312 38.277 136.233C38.1982 136.154 38.0914 136.11 37.98 136.11H31.98C31.8686 136.11 31.7618 136.154 31.683 136.233C31.6042 136.312 31.56 136.419 31.56 136.53C31.56 136.641 31.6042 136.748 31.683 136.827C31.7618 136.906 31.8686 136.95 31.98 136.95Z" fill="#0A1856"/>
<path d="M29.7 141.53H37.88C38.19 141.53 38.44 141.34 38.44 141.11C38.44 140.88 38.19 140.69 37.88 140.69H29.7C29.39 140.69 29.14 140.88 29.14 141.11C29.14 141.34 29.39 141.53 29.7 141.53Z" fill="#0A1856"/>
<path d="M26.73 139.11H38.03C38.1414 139.11 38.2482 139.066 38.327 138.987C38.4058 138.908 38.45 138.801 38.45 138.69C38.45 138.579 38.4058 138.472 38.327 138.393C38.2482 138.314 38.1414 138.27 38.03 138.27H26.73C26.6186 138.27 26.5118 138.314 26.433 138.393C26.3542 138.472 26.31 138.579 26.31 138.69C26.31 138.801 26.3542 138.908 26.433 138.987C26.5118 139.066 26.6186 139.11 26.73 139.11Z" fill="#0A1856"/>
<path d="M246.29 160.59H244.22V249.78H246.29V160.59Z" fill="#0A1856"/>
<path d="M245.49 150.83H245.03C241.633 150.83 238.88 153.583 238.88 156.98V165.23C238.88 168.627 241.633 171.38 245.03 171.38H245.49C248.887 171.38 251.64 168.627 251.64 165.23V156.98C251.64 153.583 248.887 150.83 245.49 150.83Z" fill="#0181A8" fill-opacity="0.6"/>
<path d="M253.62 165.41L255.8 165.76C256.29 165.84 256.5 165.09 256.01 165.01L253.82 164.66C253.33 164.58 253.12 165.33 253.62 165.41Z" fill="#0A1856"/>
<path d="M253.54 160.66C254.108 160.56 254.687 160.54 255.26 160.6C255.76 160.6 255.75 159.87 255.26 159.82C254.616 159.765 253.967 159.795 253.33 159.91C252.84 160 253.05 160.75 253.54 160.66Z" fill="#0A1856"/>
<path d="M253.3 156.33L254.98 155.66C255.44 155.48 255.24 154.73 254.77 154.91L253.1 155.58C252.64 155.76 252.84 156.51 253.3 156.33Z" fill="#0A1856"/>
<path d="M234.22 166.14C234.791 166.058 235.353 165.924 235.9 165.74C236.37 165.57 236.17 164.82 235.69 164.99C235.146 165.173 234.587 165.307 234.02 165.39C233.52 165.45 233.73 166.2 234.22 166.14Z" fill="#0A1856"/>
<path d="M233.22 160.61C233.934 160.626 234.643 160.734 235.33 160.93C235.427 160.952 235.529 160.935 235.615 160.884C235.701 160.833 235.763 160.751 235.79 160.654C235.817 160.558 235.806 160.456 235.76 160.367C235.713 160.279 235.634 160.212 235.54 160.18C234.784 159.969 234.005 159.851 233.22 159.83C233.117 159.83 233.017 159.871 232.944 159.944C232.871 160.017 232.83 160.117 232.83 160.22C232.83 160.323 232.871 160.423 232.944 160.496C233.017 160.569 233.117 160.61 233.22 160.61Z" fill="#0A1856"/>
<path d="M233.9 154.21L235.58 154.74C236.06 154.9 236.26 154.15 235.79 153.99L234.11 153.46C233.63 153.31 233.43 154.06 233.9 154.21Z" fill="#0A1856"/>
<path d="M240.42 250.99L241.8 239.07H248.54L250.1 250.82L240.42 250.99Z" fill="#0A1856"/>
<path d="M109.73 179.28L134.84 156.58C136.08 155.46 134.25 153.63 133.01 154.74L107.9 177.45C106.66 178.57 108.49 180.4 109.73 179.28Z" fill="#0181A8" fill-opacity="0.5"/>
<path d="M138.11 190.86L163.22 168.16C164.46 167.04 162.62 165.21 161.38 166.32L136.28 189.02C135.04 190.14 136.88 191.97 138.11 190.85V190.86Z" fill="#0181A8" fill-opacity="0.5"/>
<path d="M107.27 199.44L159.91 148.11C161.11 146.95 159.27 145.11 158.08 146.28L105.44 197.61C104.24 198.77 106.08 200.61 107.27 199.44Z" fill="#0181A8" fill-opacity="0.5"/>
<path d="M187.72 39.84H186.59V112.28H187.72V39.84Z" fill="#0A1856"/>
<path d="M191.76 112.27C191.76 113.18 191.49 114.069 190.985 114.826C190.479 115.582 189.761 116.172 188.92 116.52C188.08 116.868 187.155 116.959 186.263 116.782C185.37 116.604 184.551 116.166 183.907 115.523C183.264 114.879 182.826 114.06 182.648 113.167C182.471 112.275 182.562 111.35 182.91 110.51C183.258 109.669 183.848 108.951 184.604 108.445C185.361 107.94 186.25 107.67 187.16 107.67C187.764 107.67 188.362 107.789 188.92 108.02C189.478 108.251 189.986 108.59 190.413 109.017C190.84 109.444 191.179 109.952 191.41 110.51C191.641 111.068 191.76 111.666 191.76 112.27Z" fill="#0A1856"/>
<path d="M187.22 127.7C186.225 127.664 185.277 127.27 184.55 126.59C184.174 126.19 183.883 125.718 183.694 125.202C183.505 124.687 183.422 124.138 183.45 123.59C183.45 123.51 183.466 123.431 183.496 123.357C183.527 123.283 183.572 123.215 183.629 123.159C183.685 123.102 183.753 123.057 183.827 123.026C183.901 122.996 183.98 122.98 184.06 122.98C184.14 122.98 184.219 122.996 184.293 123.026C184.367 123.057 184.435 123.102 184.491 123.159C184.548 123.215 184.593 123.283 184.624 123.357C184.654 123.431 184.67 123.51 184.67 123.59C184.644 123.98 184.697 124.37 184.824 124.739C184.951 125.109 185.15 125.449 185.41 125.74C185.908 126.192 186.548 126.458 187.22 126.49C188.045 126.49 188.836 126.162 189.419 125.579C190.002 124.996 190.33 124.205 190.33 123.38C190.33 122.555 190.002 121.764 189.419 121.181C188.836 120.598 188.045 120.27 187.22 120.27C187.14 120.27 187.062 120.254 186.988 120.223C186.915 120.193 186.848 120.148 186.792 120.091C186.736 120.034 186.692 119.967 186.663 119.893C186.633 119.819 186.619 119.74 186.62 119.66V116.28C186.609 116.194 186.616 116.107 186.642 116.024C186.667 115.941 186.71 115.864 186.767 115.799C186.824 115.734 186.895 115.682 186.974 115.646C187.053 115.611 187.138 115.592 187.225 115.592C187.312 115.592 187.397 115.611 187.476 115.646C187.555 115.682 187.626 115.734 187.683 115.799C187.74 115.864 187.783 115.941 187.808 116.024C187.834 116.107 187.841 116.194 187.83 116.28V119.09C188.919 119.239 189.911 119.797 190.604 120.65C191.298 121.504 191.64 122.589 191.562 123.686C191.485 124.782 190.993 125.809 190.186 126.556C189.38 127.303 188.319 127.716 187.22 127.71V127.7Z" fill="#0A1856"/>
<path d="M163.08 130.53C162.962 130.511 162.854 130.455 162.769 130.371C162.685 130.286 162.629 130.178 162.61 130.06C162.59 129.912 162.629 129.761 162.719 129.642C162.809 129.522 162.942 129.442 163.09 129.42L187.98 125.75C188.053 125.739 188.127 125.743 188.198 125.762C188.27 125.78 188.337 125.812 188.396 125.856C188.455 125.9 188.505 125.955 188.542 126.019C188.58 126.082 188.604 126.152 188.615 126.225C188.625 126.298 188.622 126.372 188.603 126.443C188.585 126.515 188.553 126.582 188.509 126.641C188.465 126.7 188.41 126.75 188.346 126.787C188.283 126.825 188.213 126.849 188.14 126.86L163.22 130.53C163.174 130.537 163.126 130.537 163.08 130.53Z" fill="#0A1856"/>
<path d="M210.85 138.81H210.69L187.8 126.81C187.669 126.74 187.57 126.621 187.525 126.479C187.48 126.337 187.493 126.183 187.56 126.05C187.594 125.984 187.64 125.925 187.697 125.878C187.754 125.83 187.819 125.793 187.89 125.771C187.961 125.749 188.035 125.741 188.109 125.747C188.183 125.754 188.254 125.775 188.32 125.81L211.21 137.81C211.276 137.844 211.335 137.89 211.382 137.947C211.43 138.004 211.467 138.069 211.489 138.14C211.511 138.211 211.519 138.285 211.513 138.359C211.506 138.433 211.485 138.504 211.45 138.57C211.386 138.666 211.294 138.74 211.187 138.783C211.08 138.826 210.963 138.835 210.85 138.81Z" fill="#0A1856"/>
<path d="M217.084 139.944L156.128 129.35C152.934 128.795 149.895 130.934 149.34 134.128L143.24 169.222C142.685 172.416 144.824 175.455 148.018 176.01L208.974 186.605C212.168 187.16 215.208 185.021 215.763 181.827L221.862 146.733C222.417 143.539 220.278 140.5 217.084 139.944Z" fill="white"/>
<path d="M209.82 187.42C209.425 187.421 209.03 187.388 208.64 187.32L148.11 176.8C147.221 176.646 146.371 176.319 145.609 175.837C144.847 175.355 144.188 174.727 143.668 173.989C143.149 173.252 142.781 172.419 142.583 171.539C142.386 170.659 142.365 169.748 142.52 168.86L148.52 134.2C148.833 132.406 149.844 130.81 151.333 129.762C152.822 128.714 154.666 128.299 156.46 128.61L216.98 139.13C217.868 139.284 218.717 139.611 219.478 140.092C220.239 140.574 220.898 141.201 221.418 141.937C221.937 142.674 222.306 143.505 222.503 144.384C222.701 145.263 222.724 146.172 222.57 147.06L216.57 181.73C216.293 183.32 215.464 184.762 214.23 185.803C212.996 186.843 211.434 187.416 209.82 187.42ZM155.31 130.02C154.06 130.022 152.851 130.465 151.895 131.269C150.939 132.074 150.296 133.189 150.08 134.42L144.08 169.09C143.957 169.777 143.971 170.482 144.122 171.164C144.272 171.846 144.557 172.491 144.959 173.062C145.36 173.633 145.871 174.118 146.462 174.49C147.053 174.863 147.711 175.114 148.4 175.23L208.92 185.75C210.307 185.988 211.731 185.667 212.882 184.858C214.033 184.048 214.816 182.816 215.06 181.43L221.06 146.76C221.181 146.073 221.165 145.369 221.013 144.688C220.861 144.008 220.576 143.364 220.175 142.793C219.773 142.223 219.263 141.737 218.674 141.364C218.085 140.991 217.427 140.738 216.74 140.62L156.22 130.14C155.92 130.076 155.616 130.035 155.31 130.02Z" fill="#0A1856"/>
<path d="M215.372 143.372L156.583 133.154C154.543 132.799 152.601 134.166 152.247 136.206L146.676 168.256C146.321 170.296 147.688 172.238 149.729 172.593L208.517 182.811C210.558 183.165 212.499 181.799 212.854 179.758L218.424 147.709C218.779 145.668 217.412 143.726 215.372 143.372Z" fill="#0181A8" fill-opacity="0.6"/>
<path d="M209.07 183.6C208.798 183.602 208.527 183.578 208.26 183.53L149.75 173.37C148.538 173.151 147.461 172.465 146.75 171.46C146.394 170.96 146.142 170.393 146.008 169.794C145.874 169.194 145.861 168.574 145.97 167.97L151.49 136.19C151.595 135.586 151.818 135.009 152.147 134.492C152.475 133.974 152.902 133.527 153.404 133.175C153.905 132.823 154.472 132.573 155.07 132.44C155.668 132.307 156.287 132.294 156.89 132.4L215.4 142.56C216.619 142.775 217.703 143.464 218.415 144.476C219.127 145.488 219.409 146.74 219.2 147.96L213.67 179.73C213.484 180.811 212.923 181.792 212.085 182.499C211.247 183.207 210.187 183.597 209.09 183.6H209.07ZM208.52 182C208.923 182.071 209.337 182.062 209.737 181.972C210.137 181.883 210.515 181.716 210.85 181.48C211.184 181.247 211.468 180.951 211.686 180.607C211.904 180.264 212.051 179.881 212.12 179.48L217.64 147.7C217.71 147.297 217.701 146.885 217.612 146.486C217.523 146.087 217.356 145.71 217.121 145.376C216.886 145.041 216.588 144.757 216.242 144.538C215.897 144.319 215.513 144.17 215.11 144.1L156.6 133.94C155.787 133.8 154.953 133.988 154.278 134.462C153.604 134.936 153.144 135.658 153 136.47L147.48 168.25C147.41 168.652 147.419 169.064 147.508 169.462C147.598 169.86 147.765 170.237 148 170.57C148.235 170.904 148.533 171.188 148.878 171.406C149.223 171.623 149.608 171.771 150.01 171.84L208.52 182Z" fill="#0A1856"/>
<path d="M180.64 177.95L195.85 164.01L204.27 182.05L180.64 177.95Z" fill="white"/>
<path d="M205.16 182.73L179.51 178.28L196.02 163.14L205.16 182.73ZM181.77 177.62L203.38 181.37L195.68 164.86L181.77 177.62Z" fill="#0A1856"/>
<path d="M150.56 172.72L177.53 148L192.45 180L150.56 172.72Z" fill="white"/>
<path d="M193.35 180.68L149.43 173.02L177.7 147.11L193.35 180.68ZM151.69 172.39L191.57 179.32L177.36 148.86L151.69 172.39Z" fill="#0A1856"/>
<path d="M209.6 152.69C209.472 153.425 209.13 154.105 208.616 154.645C208.101 155.185 207.439 155.56 206.711 155.723C205.984 155.886 205.224 155.83 204.528 155.562C203.833 155.293 203.232 154.825 202.803 154.215C202.374 153.605 202.135 152.882 202.117 152.137C202.099 151.391 202.302 150.657 202.701 150.028C203.1 149.398 203.676 148.9 204.358 148.598C205.039 148.296 205.795 148.203 206.53 148.33C207.018 148.415 207.484 148.595 207.903 148.859C208.321 149.124 208.683 149.469 208.968 149.874C209.253 150.279 209.456 150.736 209.564 151.219C209.673 151.702 209.685 152.202 209.6 152.69Z" fill="white"/>
<path d="M205.89 156.33C205.642 156.33 205.395 156.31 205.15 156.27C204.591 156.174 204.057 155.967 203.579 155.663C203.1 155.359 202.687 154.963 202.362 154.498C202.038 154.033 201.808 153.508 201.688 152.954C201.567 152.4 201.558 151.828 201.66 151.27C201.752 150.715 201.954 150.184 202.254 149.708C202.555 149.232 202.948 148.821 203.41 148.5C203.87 148.172 204.389 147.937 204.94 147.809C205.49 147.682 206.06 147.664 206.617 147.757C207.174 147.85 207.708 148.051 208.187 148.351C208.666 148.65 209.082 149.04 209.41 149.5C210.065 150.433 210.324 151.587 210.13 152.71C210.034 153.265 209.83 153.796 209.527 154.271C209.225 154.747 208.832 155.158 208.37 155.48C207.655 156.021 206.786 156.319 205.89 156.33ZM205.89 148.79C205.294 148.79 204.709 148.954 204.199 149.263C203.689 149.573 203.274 150.016 202.999 150.545C202.723 151.074 202.598 151.668 202.637 152.263C202.676 152.859 202.878 153.431 203.22 153.92C203.592 154.445 204.111 154.848 204.711 155.078C205.312 155.309 205.967 155.356 206.595 155.215C207.222 155.074 207.794 154.75 208.238 154.285C208.682 153.82 208.978 153.233 209.09 152.6C209.235 151.75 209.038 150.878 208.541 150.173C208.045 149.468 207.289 148.989 206.44 148.84C206.252 148.808 206.061 148.792 205.87 148.79H205.89Z" fill="#0A1856"/>
<path d="M233.79 37.4H177.26V43.62H233.79V37.4Z" fill="#0181A8" fill-opacity="0.6"/>
<path d="M282.91 166.02H264.15V0.0799942H282.91V166.02ZM266 164.16H281.06V1.93999H266V164.16Z" fill="#0A1856"/>
<path d="M282.68 18.29H264.38V0.0199966H282.68V18.29ZM266.22 16.41H280.76V1.88H266.22V16.41Z" fill="#0A1856"/>
<path d="M265.986 0.280514L264.656 1.60988L281.068 18.0218L282.398 16.6925L265.986 0.280514Z" fill="#0A1856"/>
<path d="M281.061 0.280517L264.649 16.6925L265.979 18.0218L282.391 1.60988L281.061 0.280517Z" fill="#0A1856"/>
<path d="M282.68 34.71H264.38V16.41H282.68V34.71ZM266.22 32.83H280.76V18.29H266.22V32.83Z" fill="#0A1856"/>
<path d="M265.979 16.6841L264.65 18.0135L281.062 34.4255L282.391 33.0961L265.979 16.6841Z" fill="#0A1856"/>
<path d="M281.062 16.6912L264.65 33.1031L265.979 34.4325L282.391 18.0206L281.062 16.6912Z" fill="#0A1856"/>
<path d="M282.68 51.12H264.38V32.83H282.68V51.12ZM266.22 49.24H280.76V34.71H266.22V49.24Z" fill="#0A1856"/>
<path d="M265.99 33.1048L264.661 34.4342L281.073 50.8461L282.402 49.5168L265.99 33.1048Z" fill="#0A1856"/>
<path d="M281.066 33.1148L264.654 49.5268L265.983 50.8561L282.395 34.4442L281.066 33.1148Z" fill="#0A1856"/>
<path d="M282.68 67.54H264.38V49.24H282.68V67.54ZM266.22 65.66H280.76V51.12H266.22V65.66Z" fill="#0A1856"/>
<path d="M265.984 49.5184L264.654 50.8478L281.066 67.2598L282.396 65.9304L265.984 49.5184Z" fill="#0A1856"/>
<path d="M281.066 49.5255L264.654 65.9375L265.984 67.2668L282.396 50.8549L281.066 49.5255Z" fill="#0A1856"/>
<path d="M282.68 83.95H264.38V65.66H282.68V83.95ZM266.22 82.07H280.76V67.54H266.22V82.07Z" fill="#0A1856"/>
<path d="M265.984 65.9391L264.655 67.2685L281.067 83.6805L282.396 82.3511L265.984 65.9391Z" fill="#0A1856"/>
<path d="M281.07 65.9491L264.658 82.3611L265.987 83.6904L282.399 67.2785L281.07 65.9491Z" fill="#0A1856"/>
<path d="M282.68 100.36H264.38V82.07H282.68V100.36ZM266.22 98.48H280.76V83.95H266.22V98.48Z" fill="#0A1856"/>
<path d="M265.988 82.3428L264.659 83.6721L281.071 100.084L282.4 98.7547L265.988 82.3428Z" fill="#0A1856"/>
<path d="M281.071 82.3698L264.659 98.7818L265.988 100.111L282.4 83.6992L281.071 82.3698Z" fill="#0A1856"/>
<path d="M282.68 116.78H264.38V98.48H282.68V116.78ZM266.22 114.9H280.76V100.36H266.22V114.9Z" fill="#0A1856"/>
<path d="M265.982 98.7564L264.652 100.086L281.064 116.498L282.394 115.168L265.982 98.7564Z" fill="#0A1856"/>
<path d="M281.064 98.7835L264.652 115.195L265.982 116.525L282.393 100.113L281.064 98.7835Z" fill="#0A1856"/>
<path d="M282.68 133.19H264.38V114.9H282.68V133.19ZM266.22 131.31H280.76V116.78H266.22V131.31Z" fill="#0A1856"/>
<path d="M265.982 115.177L264.653 116.506L281.065 132.918L282.394 131.589L265.982 115.177Z" fill="#0A1856"/>
<path d="M281.068 115.187L264.656 131.599L265.985 132.928L282.397 116.516L281.068 115.187Z" fill="#0A1856"/>
<path d="M282.68 149.61H264.38V131.31H282.68V149.61ZM266.22 147.73H280.76V133.19H266.22V147.73Z" fill="#0A1856"/>
<path d="M265.986 131.591L264.656 132.92L281.068 149.332L282.398 148.003L265.986 131.591Z" fill="#0A1856"/>
<path d="M281.068 131.608L264.656 148.02L265.986 149.349L282.398 132.937L281.068 131.608Z" fill="#0A1856"/>
<path d="M282.68 166.02H264.38V147.73H282.68V166.02ZM266.22 164.14H280.76V149.61H266.22V164.14Z" fill="#0A1856"/>
<path d="M265.987 148.001L264.657 149.331L281.069 165.743L282.399 164.413L265.987 148.001Z" fill="#0A1856"/>
<path d="M281.067 147.997L264.652 164.406L265.981 165.736L282.396 149.326L281.067 147.997Z" fill="#0A1856"/>
<path d="M315.34 34.46H297.04V16.16H315.34V34.46ZM298.92 32.58H313.46V18.02H298.92V32.58Z" fill="#0A1856"/>
<path d="M313.724 16.447L297.315 32.8618L298.645 34.191L315.054 17.7762L313.724 16.447Z" fill="#0A1856"/>
<path d="M298.644 16.4503L297.314 17.7797L313.726 34.1916L315.056 32.8623L298.644 16.4503Z" fill="#0A1856"/>
<path d="M298.92 34.46H280.63V16.16H298.92V34.46ZM282.51 32.58H297.04V18.02H282.51V32.58Z" fill="#0A1856"/>
<path d="M297.313 16.4427L280.904 32.8575L282.233 34.1866L298.642 17.7718L297.313 16.4427Z" fill="#0A1856"/>
<path d="M282.24 16.444L280.911 17.7733L297.323 34.1853L298.652 32.8559L282.24 16.444Z" fill="#0A1856"/>
<path d="M282.51 34.46H264.22V16.16H282.51V34.46ZM266.1 32.58H280.63V18.02H266.1V32.58Z" fill="#0A1856"/>
<path d="M266.1 34.46H247.8V16.16H266.1V34.46ZM249.68 32.58H264.22V18.02H249.68V32.58Z" fill="#0A1856"/>
<path d="M264.481 16.4483L248.069 32.8602L249.399 34.1896L265.811 17.7776L264.481 16.4483Z" fill="#0A1856"/>
<path d="M249.406 16.4383L248.076 17.7676L264.488 34.1796L265.818 32.8502L249.406 16.4383Z" fill="#0A1856"/>
<path d="M249.68 34.46H231.39V16.16H249.68V34.46ZM233.27 32.58H247.8V18.02H233.27V32.58Z" fill="#0A1856"/>
<path d="M248.068 16.4419L231.656 32.8538L232.985 34.1832L249.397 17.7712L248.068 16.4419Z" fill="#0A1856"/>
<path d="M232.985 16.449L231.656 17.7783L248.068 34.1903L249.397 32.8609L232.985 16.449Z" fill="#0A1856"/>
<path d="M233.27 34.46H214.97V16.16H233.27V34.46ZM216.85 32.58H231.39V18.02H216.85V32.58Z" fill="#0A1856"/>
<path d="M215.91 34.46H199.5C199.316 34.453 199.137 34.3951 198.983 34.2928C198.83 34.1904 198.707 34.0475 198.63 33.88C198.564 33.7117 198.547 33.5279 198.583 33.3505C198.618 33.1731 198.704 33.0098 198.83 32.88L215.22 16.44L216.55 17.77L201.74 32.58H215.52L231.66 16.44L232.99 17.77L216.58 34.18C216.4 34.354 216.161 34.4539 215.91 34.46Z" fill="#0A1856"/>
<path d="M216.581 16.4426L215.252 17.7719L231.664 34.1839L232.993 32.8545L216.581 16.4426Z" fill="#0A1856"/>
<path d="M282.95 184.3H264.15V166.02H282.95V184.3ZM266.08 182.41H281.02V167.88H266.08V182.41Z" fill="#0A1856"/>
<path d="M281.3 184.02L264.43 167.61L265.8 166.28L282.67 182.69L281.3 184.02Z" fill="#0A1856"/>
<path d="M265.8 184.02L264.43 182.69L281.3 166.28L282.67 167.61L265.8 184.02Z" fill="#0A1856"/>
<path d="M282.95 249.95H264.15V231.66H282.95V249.95ZM266.08 248.07H281.02V233.54H266.08V248.07Z" fill="#0A1856"/>
<path d="M281.3 249.68L264.43 233.26L265.8 231.94L282.67 248.35L281.3 249.68Z" fill="#0A1856"/>
<path d="M265.8 249.68L264.43 248.35L281.3 231.94L282.67 233.26L265.8 249.68Z" fill="#0A1856"/>
<path d="M282.95 199.15H264.15V180.86H282.95V199.15ZM266.08 197.27H281.02V182.74H266.08V197.27Z" fill="#0A1856"/>
<path d="M281.3 198.88L264.43 182.47L265.8 181.14L282.67 197.55L281.3 198.88Z" fill="#0A1856"/>
<path d="M265.8 198.88L264.43 197.55L281.3 181.14L282.67 182.47L265.8 198.88Z" fill="#0A1856"/>
<path d="M282.95 215.57H264.15V197.27H282.95V215.57ZM266.08 213.69H281.02V199.15H266.08V213.69Z" fill="#0A1856"/>
<path d="M281.3 215.29L264.43 198.88L265.8 197.55L282.67 213.97L281.3 215.29Z" fill="#0A1856"/>
<path d="M265.8 215.29L264.43 213.97L281.3 197.55L282.67 198.88L265.8 215.29Z" fill="#0A1856"/>
<path d="M282.95 232.02H264.15V213.69H282.95V232.02ZM266.08 230.14H281.02V215.57H266.08V230.14Z" fill="#0A1856"/>
<path d="M281.3 231.71L264.43 215.29L265.8 213.97L282.67 230.38L281.3 231.71Z" fill="#0A1856"/>
<path d="M265.8 231.71L264.43 230.38L281.3 213.97L282.67 215.29L265.8 231.71Z" fill="#0A1856"/>
<path d="M73.08 99.55C73.4709 99.5186 73.8356 99.3412 74.1016 99.053C74.3675 98.7649 74.5152 98.3871 74.5152 97.995C74.5152 97.6029 74.3675 97.2251 74.1016 96.937C73.8356 96.6488 73.4709 96.4714 73.08 96.44C72.6891 96.4714 72.3244 96.6488 72.0584 96.937C71.7925 97.2251 71.6448 97.6029 71.6448 97.995C71.6448 98.3871 71.7925 98.7649 72.0584 99.053C72.3244 99.3412 72.6891 99.5186 73.08 99.55Z" fill="#0A1856"/>
<path d="M241.78 67.02C242.171 66.9886 242.536 66.8112 242.802 66.523C243.068 66.2349 243.215 65.8571 243.215 65.465C243.215 65.0729 243.068 64.6951 242.802 64.407C242.536 64.1188 242.171 63.9414 241.78 63.91C241.389 63.9414 241.024 64.1188 240.758 64.407C240.492 64.6951 240.345 65.0729 240.345 65.465C240.345 65.8571 240.492 66.2349 240.758 66.523C241.024 66.8112 241.389 66.9886 241.78 67.02Z" fill="#0A1856"/>
<path d="M311.61 178.37H312.3C312.515 178.387 312.731 178.36 312.934 178.289C313.138 178.219 313.325 178.107 313.483 177.961C313.641 177.815 313.767 177.638 313.854 177.441C313.94 177.243 313.985 177.03 313.985 176.815C313.985 176.6 313.94 176.387 313.854 176.189C313.767 175.992 313.641 175.815 313.483 175.669C313.325 175.523 313.138 175.411 312.934 175.341C312.731 175.27 312.515 175.243 312.3 175.26H311.61C311.395 175.243 311.179 175.27 310.976 175.341C310.772 175.411 310.585 175.523 310.427 175.669C310.269 175.815 310.143 175.992 310.056 176.189C309.97 176.387 309.925 176.6 309.925 176.815C309.925 177.03 309.97 177.243 310.056 177.441C310.143 177.638 310.269 177.815 310.427 177.961C310.585 178.107 310.772 178.219 310.976 178.289C311.179 178.36 311.395 178.387 311.61 178.37Z" fill="#0A1856"/>
<path d="M34.68 201.72C35.0709 201.689 35.4356 201.511 35.7016 201.223C35.9675 200.935 36.1152 200.557 36.1152 200.165C36.1152 199.773 35.9675 199.395 35.7016 199.107C35.4356 198.819 35.0709 198.641 34.68 198.61C34.2891 198.641 33.9244 198.819 33.6584 199.107C33.3925 199.395 33.2448 199.773 33.2448 200.165C33.2448 200.557 33.3925 200.935 33.6584 201.223C33.9244 201.511 34.2891 201.689 34.68 201.72Z" fill="#0A1856"/>
<path d="M160.22 51.85C160.611 51.8186 160.976 51.6412 161.242 51.353C161.508 51.0649 161.655 50.6871 161.655 50.295C161.655 49.9029 161.508 49.5251 161.242 49.237C160.976 48.9488 160.611 48.7714 160.22 48.74C159.829 48.7714 159.464 48.9488 159.198 49.237C158.932 49.5251 158.785 49.9029 158.785 50.295C158.785 50.6871 158.932 51.0649 159.198 51.353C159.464 51.6412 159.829 51.8186 160.22 51.85Z" fill="#0A1856"/>
</g>
<defs>
<clipPath id="clip0_1_2">
<rect width="370.45" height="252.01" fill="white"/>
</clipPath>
</defs>
</svg>
