<svg width="19" height="23" viewBox="0 0 19 23" fill="none" xmlns="http://www.w3.org/2000/svg">
<path d="M11.3125 6.5C11.3125 6.5 17.5 11.3125 17.5 18.1875C17.5 19.0992 17.1378 19.9735 16.4932 20.6182C15.8485 21.2628 14.9742 21.625 14.0625 21.625H4.4375C3.52582 21.625 2.65148 21.2628 2.00682 20.6182C1.36216 19.9735 1 19.0992 1 18.1875C1 11.3125 7.1875 6.5 7.1875 6.5C7.1875 6.5 3.0625 2.925 3.0625 1.6875C3.0625 0.45 5.8125 2.375 7.1875 2.375C9.14687 2.375 9.35312 1 10.625 1C11.8969 1 12.0344 2.40937 14.0625 2.40937C14.8531 2.40937 13.375 4.47187 11.3125 6.5Z" stroke="white" stroke-width="1.2" stroke-miterlimit="10" stroke-linecap="round" stroke-linejoin="round"/>
<path d="M7.1875 6.5H11.6562C13.2637 6.60232 14.8531 6.11327 16.125 5.125M15.4375 7.875C15.8426 7.84312 16.2486 7.92229 16.6121 8.104C16.9755 8.28571 17.2825 8.56307 17.5 8.90625" stroke="white" stroke-width="1.2" stroke-miterlimit="10" stroke-linecap="round" stroke-linejoin="round"/>
<path d="M11.2781 12C11.1971 11.5203 10.949 11.0848 10.5779 10.7703C10.2068 10.4558 9.73646 10.2826 9.25 10.2812M9.25 10.2812C8.11563 10.2812 7.1875 11.0375 7.1875 12.1719C7.1875 13.3062 8.21875 13.8219 9.25 14.0625C10.2812 14.3031 11.3125 14.8188 11.3125 15.9531C11.3125 17.0875 10.3844 17.8438 9.25 17.8438M9.25 10.2812V9.25M7.1875 15.7812C7.1875 16.3283 7.4048 16.8529 7.79159 17.2397C8.17839 17.6265 8.70299 17.8438 9.25 17.8438M9.25 17.8438V18.875" stroke="white" stroke-width="1.2" stroke-miterlimit="10" stroke-linecap="round" stroke-linejoin="round"/>
</svg>
