<svg width="24" height="24" viewBox="0 0 24 24" fill="none" xmlns="http://www.w3.org/2000/svg">
<path d="M20.7895 12.4881C20.7834 12.4819 20.7773 12.4758 20.771 12.4697L12.521 4.21972C12.2283 3.92684 11.7536 3.92675 11.4607 4.21953C11.4606 4.21953 11.4606 4.21962 11.4605 4.21972L3.21054 12.4697C2.92279 12.7676 2.93103 13.2424 3.22894 13.5302C3.51962 13.8109 3.9804 13.8109 4.27099 13.5302L11.2408 6.56045V21.25C11.2408 21.6642 11.5766 22 11.9908 22C12.405 22 12.7408 21.6642 12.7408 21.25V6.56045L19.7105 13.5303C19.9983 13.8282 20.4731 13.8364 20.771 13.5487C21.069 13.2609 21.0772 12.786 20.7895 12.4881Z" fill="white"/>
</svg>
