<svg width="40" height="40" viewBox="0 0 40 40" fill="none" xmlns="http://www.w3.org/2000/svg">
<g clip-path="url(#clip0_18188_19587)">
<path d="M35.1376 8.40483L34.6059 7.8731L27.6438 0.911034L27.1121 0.37931C26.8714 0.138621 26.5376 0 26.1962 0H6.18104C5.36311 0 4.48242 0.631724 4.48242 2.01793V26.8966V38.3014V38.6207C4.48242 39.1979 5.06311 39.7607 5.75001 39.9379C5.78449 39.9469 5.81759 39.96 5.85346 39.9669C5.96104 39.9883 6.0707 40 6.18104 40H33.8183C33.9286 40 34.0383 39.9883 34.1459 39.9669C34.1817 39.96 34.2148 39.9469 34.2493 39.9379C34.9362 39.7607 35.5169 39.1979 35.5169 38.6207V38.3014V26.8966V9.64C35.5169 9.11103 35.4535 8.72069 35.1376 8.40483ZM33.0583 8.27586H27.241V2.45862L33.0583 8.27586ZM6.18104 38.6207C6.13208 38.6207 6.08794 38.6028 6.04449 38.5869C5.9369 38.5359 5.86173 38.4283 5.86173 38.3014V28.2759H34.1376V38.3014C34.1376 38.4283 34.0624 38.5352 33.9548 38.5869C33.9114 38.6028 33.8672 38.6207 33.8183 38.6207H6.18104ZM5.86173 26.8966V2.01793C5.86173 1.86828 5.88449 1.37931 6.18104 1.37931H25.9017C25.879 1.46621 25.8617 1.55586 25.8617 1.64897V9.65517H33.8679C33.961 9.65517 34.05 9.63793 34.1369 9.61517C34.1369 9.62552 34.1376 9.62966 34.1376 9.64V26.8966H5.86173Z" fill="#0A1856"/>
<path d="M15.2019 30.8585C14.9723 30.6702 14.713 30.5281 14.424 30.4343C14.135 30.3399 13.8426 30.293 13.5474 30.293H11.5488V37.2419H12.6806V34.7337H13.5199C13.884 34.7337 14.2178 34.6806 14.5192 34.5737C14.8206 34.4668 15.0785 34.3157 15.2923 34.1212C15.5061 33.9268 15.6723 33.6861 15.7923 33.3999C15.9116 33.1137 15.9716 32.795 15.9716 32.4426C15.9716 32.1095 15.9006 31.8095 15.7592 31.5419C15.6178 31.2743 15.4316 31.0475 15.2019 30.8585ZM14.773 33.1543C14.7033 33.3461 14.613 33.495 14.4999 33.6019C14.3868 33.7088 14.2626 33.7861 14.1274 33.833C13.9923 33.8799 13.855 33.904 13.7171 33.904H12.6799V31.1509H13.5281C13.8171 31.1509 14.0495 31.1964 14.2261 31.2875C14.4019 31.3785 14.5385 31.4916 14.6364 31.6268C14.7337 31.7619 14.7978 31.9033 14.8295 32.0509C14.8606 32.1985 14.8764 32.3288 14.8764 32.4419C14.8764 32.7254 14.8419 32.9626 14.773 33.1543Z" fill="#0A1856"/>
<path d="M22.0368 31.3109C21.7443 31.0033 21.3768 30.7557 20.9333 30.5709C20.4899 30.3861 19.9761 30.293 19.3919 30.293H17.2988V37.2419H19.9292C20.0168 37.2419 20.1519 37.2309 20.3347 37.2088C20.5168 37.1868 20.7181 37.1371 20.9381 37.0578C21.1581 36.9792 21.3857 36.8612 21.6216 36.704C21.8574 36.5468 22.0692 36.3316 22.2581 36.0578C22.4471 35.784 22.6023 35.4447 22.725 35.0392C22.8478 34.6337 22.9092 34.1447 22.9092 33.573C22.9092 33.1578 22.8368 32.7537 22.6926 32.3612C22.5471 31.9695 22.3292 31.6192 22.0368 31.3109ZM21.2119 35.6764C20.8726 36.1668 20.3195 36.4116 19.5526 36.4116H18.4306V31.1502H19.0906C19.6312 31.1502 20.0712 31.2212 20.4106 31.3626C20.7499 31.504 21.0188 31.6895 21.2168 31.9192C21.4147 32.1488 21.5478 32.4047 21.6174 32.6875C21.6864 32.9702 21.7209 33.2564 21.7209 33.5454C21.7209 34.4757 21.5512 35.1868 21.2119 35.6764Z" fill="#0A1856"/>
<path d="M24.5508 37.2419H25.7011V34.1116H28.6053V33.3385H25.7011V31.1509H28.897V30.293H24.5508V37.2419Z" fill="#0A1856"/>
<path d="M26.501 15.8359C25.8672 15.8359 25.0893 15.9186 24.1852 16.0828C22.9231 14.7435 21.6058 12.7876 20.6762 10.8676C21.5983 6.98554 21.1369 6.43588 20.9334 6.17657C20.7169 5.90071 20.4114 5.45312 20.0638 5.45312C19.9183 5.45312 19.521 5.51933 19.3631 5.57175C18.9658 5.70416 18.752 6.01037 18.581 6.40968C18.0934 7.54968 18.7624 9.49312 19.4507 10.9911C18.8624 13.3311 17.8755 16.1317 16.8383 18.4048C14.2245 19.6021 12.8362 20.778 12.7107 21.9C12.6652 22.3083 12.7617 22.9076 13.4796 23.4462C13.6762 23.5931 13.9065 23.6711 14.1465 23.6711C14.75 23.6711 15.3596 23.209 16.0652 22.218C16.5796 21.4952 17.132 20.5097 17.7086 19.2862C19.5555 18.4786 21.8403 17.749 23.7969 17.34C24.8865 18.3862 25.8624 18.9159 26.701 18.9159C27.3189 18.9159 27.8486 18.6317 28.232 18.0945C28.6314 17.5352 28.7224 17.0345 28.501 16.6048C28.2355 16.0883 27.581 15.8359 26.501 15.8359ZM14.1617 22.5069C13.8389 22.2593 13.8576 22.0924 13.8645 22.0297C13.9072 21.6462 14.5079 20.9655 15.9817 20.1373C14.8645 22.2007 14.2645 22.4745 14.1617 22.5069ZM19.8169 6.69864C19.8465 6.68899 20.5376 7.45795 19.8831 8.91657C18.8996 7.91037 19.7493 6.7214 19.8169 6.69864ZM18.3914 17.7511C19.0914 16.0828 19.7424 14.2407 20.2355 12.5345C21.01 13.9262 21.9403 15.2766 22.8714 16.358C21.3996 16.7035 19.8327 17.1911 18.3914 17.7511ZM27.2886 17.4207C27.0762 17.718 26.6155 17.7248 26.4541 17.7248C26.0865 17.7248 25.9493 17.5062 25.3872 17.0738C25.8507 17.0145 26.2879 16.9993 26.6362 16.9993C27.2493 16.9993 27.3617 17.0897 27.4465 17.1352C27.4314 17.1842 27.3914 17.2766 27.2886 17.4207Z" fill="#0A1856"/>
</g>
<defs>
<clipPath id="clip0_18188_19587">
<rect width="40" height="40" fill="white"/>
</clipPath>
</defs>
</svg>
