<svg width="26" height="34" viewBox="0 0 26 34" fill="none" xmlns="http://www.w3.org/2000/svg">
<path d="M5.08212 20.0701L1.05859 29.9701L5.71742 29.3877L8.62918 32.9877L12.0174 23.1407M20.3292 20.0701L24.3527 29.9701L19.6939 29.3877L16.8351 32.9877L13.3939 23.1407" stroke="#0A1856" stroke-width="1.41176" stroke-miterlimit="10" stroke-linecap="round" stroke-linejoin="round"/>
<path d="M12.9712 18.6393C16.626 18.6393 19.5888 15.6765 19.5888 12.0217C19.5888 8.36687 16.626 5.40405 12.9712 5.40405C9.31634 5.40405 6.35352 8.36687 6.35352 12.0217C6.35352 15.6765 9.31634 18.6393 12.9712 18.6393Z" stroke="#0181A8" stroke-width="1.41176" stroke-miterlimit="10" stroke-linecap="round" stroke-linejoin="round"/>
<path d="M12.7066 2.49341L15.0889 1.11694L16.7301 3.34047L19.4301 3.07577L20.0125 5.72283L22.6066 6.62283L22.0772 9.26988L24.0889 11.1228L22.5007 13.3464L23.6125 15.8875L21.2301 17.264V19.964L18.4772 20.2816L17.3654 22.7699L14.7713 21.9758L12.7066 23.7758L10.6419 21.9758L8.04775 22.7699L6.93598 20.2816L4.18304 19.964V17.264L1.80069 15.8875L2.91245 13.3464L1.32422 11.1228L3.33598 9.26988L2.80657 6.62283L5.40069 5.72283L5.98304 3.07577L8.68304 3.34047L10.3242 1.11694L12.7066 2.49341Z" stroke="#0A1856" stroke-width="1.41176" stroke-miterlimit="10" stroke-linecap="round" stroke-linejoin="round"/>
<path d="M10.9708 11.4647C11.4929 11.4647 11.9161 11.0415 11.9161 10.5194C11.9161 9.99723 11.4929 9.57397 10.9708 9.57397C10.4487 9.57397 10.0254 9.99723 10.0254 10.5194C10.0254 11.0415 10.4487 11.4647 10.9708 11.4647Z" stroke="#0181A8" stroke-width="1.05882" stroke-miterlimit="10" stroke-linecap="round" stroke-linejoin="round"/>
<path d="M14.752 14.87C15.2741 14.87 15.6974 14.4467 15.6974 13.9246C15.6974 13.4025 15.2741 12.9792 14.752 12.9792C14.2299 12.9792 13.8066 13.4025 13.8066 13.9246C13.8066 14.4467 14.2299 14.87 14.752 14.87Z" stroke="#0181A8" stroke-width="1.05882" stroke-miterlimit="10" stroke-linecap="round" stroke-linejoin="round"/>
<path d="M15.1296 9.76245L10.5918 14.6784" stroke="#0181A8" stroke-width="1.05882" stroke-miterlimit="10" stroke-linecap="round" stroke-linejoin="round"/>
</svg>
