<svg width="50" height="63" viewBox="0 0 50 63" fill="none" xmlns="http://www.w3.org/2000/svg">
<path d="M15.1962 28.6768L13.9707 29.7389L20.1799 37.0918L20.7517 37.7454V37.6637V37.7454L21.3236 37.1735L35.2942 25.899L34.3138 24.5918L20.9151 35.4578L15.1962 28.6768Z" fill="#0A1856"/>
<path d="M0 10.4575V37.4183C0 44.0487 2.63392 50.4076 7.32233 55.096C12.0107 59.7844 18.3696 62.4183 25 62.4183C31.6304 62.4183 37.9893 59.7844 42.6777 55.096C47.3661 50.4076 50 44.0487 50 37.4183V10.4575L25 0L0 10.4575ZM48.366 37.4183C48.366 43.6153 45.9042 49.5586 41.5223 53.9406C37.1403 58.3225 31.1971 60.7843 25 60.7843C18.8029 60.7843 12.8597 58.3225 8.47774 53.9406C4.09576 49.5586 1.63399 43.6153 1.63399 37.4183V11.5196L25 1.79739L48.366 11.5196V37.4183Z" fill="#0A1856"/>
</svg>
