<svg xmlns="http://www.w3.org/2000/svg" viewBox="0 0 56 35">
  <path d="M6.91 25.055h-2.2l1.1-5.8c.1-.4 0-.7-.3-.7l-.7.1-2.4 6.4H.21l6-16.4h4.5c1.3 0 1.8 1.2 1.3 2.7l-2.1 5.4c-.3.8-.8 1-1.5 1.5.2.6-1.5 6.8-1.5 6.8zm.7-8.4l2.3-6h-2l-2.3 6zm9.5 8.4h-2.4l2.3-6.4h-2.1l-2.3 6.4h-2.3l5-13.7c.2-1.8 1.7-3 3.3-2.7h2.3c1.3 0 1.8 1.2 1.3 2.7zm.7-8.4l2-6h-2.1l-2 6zm12.2.1c-.4 1.5-1.9 3.1-3.1 3.3h-2.2l-2 5h-2.3l6-16.4h4.5c1.3 0 1.7 1.2 1 2.7zm-2.8 1.1l2.7-7.3h-1.9l-2.7 7.3zm11.4-9.2l-6 16.5h-2.3l5.9-16.4h2.4zm5.5 13.7c-.3 1.6-1.7 2.8-3.2 2.7h-4.5l6-16.4h4.5c1.2 0 1.6 1.2 1 2.7zm-2.7.8l4.6-12.5h-2l-4.6 12.5z"/>
  <path fill="#6aba8d" d="M49.11 25.155v-10.3l-3.8 10.3z"/>
  <path d="M54.91 10.155v-.7h-4.2v-.5h4.2v-.6h.5v1.8zm.5 1.5c0 .2-.1.3-.2.4-.1.1-.2.1-.4.1h-.8c-.3 0-.5 0-.6-.1-.1-.1-.3-.2-.3-.4-.1.2-.2.3-.3.4-.2.1-.4.1-.7.1h-1.4v-.5h1.5c.2 0 .4 0 .4-.1.1-.1.1-.2.1-.4v-.2h-2.1v-.5h4.8zm-2.1-.7v.2c0 .2 0 .3.1.4.1.1.2.1.4.1h.8c.1 0 .1 0 .1-.1v-.6zm-2.6 1.6l4.7.6v.8l-4.7.6v-.5l1.2-.1v-.8l-1.2-.1zm1.7 1.2l.6-.1 1.8-.2-1.8-.2h-.6zm3 1.6l-2.3.6-1 .2h3.3v.5h-4.7v-.5l2.3-.6 1-.2h-3.3v-.5h4.7zm-.6 1.8c.2 0 .4 0 .5.1.1.1.2.2.2.4v.6c0 .2-.1.3-.2.4-.1.1-.3.1-.5.1h-.9v-.5h.9c.1 0 .1 0 .1-.1v-.5c0-.1 0-.1-.1-.1h-.8c-.2 0-.4.1-.5.2 0 .1-.1.1-.1.2 0 0 0 .1-.1.1l-.1.1c-.1.2-.2.3-.4.4-.2.1-.4.2-.7.2h-.8c-.2 0-.4 0-.5-.1-.1-.1-.2-.2-.2-.4v-.6c0-.2.1-.3.2-.4.1-.1.3-.1.5-.1h.9v.5h-.8c-.1 0-.1 0-.1.1v.5c0 .1 0 .1.1.1h.8c.2 0 .3-.1.4-.2 0 0 .1-.1.1-.2 0 0 0-.1.1-.1l.1-.1c.1-.2.2-.3.4-.4.2-.1.4-.2.7-.2zm-2 3.9v-1h-2.1v-.5h4.7v1.5h-.5v-1h-1.5v1zm-2.1 1.9v-1.5h4.7v1.5h-.5v-1h-1.5v1h-.5v-1h-1.5v1zm4.7 1.6c0 .2-.1.3-.2.4-.1.2-.2.2-.4.2h-.8c-.3 0-.5 0-.6-.1-.1-.1-.3-.2-.3-.4-.1.2-.2.3-.3.4-.2.1-.4.1-.7.1h-1.4v-.5h1.5c.2 0 .4 0 .4-.1.1-.1.1-.2.1-.4v-.3h-2.1v-.5h4.8zm-2.1-.7v.3c0 .2 0 .3.1.4.1.1.2.1.4.1h.8c.1 0 .1 0 .1-.1v-.6h-1.4z"/>
</svg>
