<svg width="17" height="17" viewBox="0 0 17 17" fill="none" xmlns="http://www.w3.org/2000/svg">
<path d="M16.1285 8.80523C15.8701 9.05483 15.4606 9.05483 15.2023 8.80523L9.00687 2.60998V15.6673C9.00687 16.0355 8.70837 16.334 8.34021 16.334C7.97204 16.334 7.67354 16.0355 7.67354 15.6673V2.60998L1.47823 8.80531C1.22245 9.07013 0.800415 9.07753 0.535604 8.82167C0.270711 8.56589 0.263387 8.14385 0.519165 7.87904C0.524536 7.87351 0.529988 7.86806 0.535604 7.86268L7.86893 0.529328C8.12911 0.268991 8.55106 0.268829 8.8114 0.529084L16.1449 7.8626C16.4007 8.12742 16.3933 8.54945 16.1285 8.80523Z" fill="#E51B1B"/>
<path d="M8.8114 0.529084C8.55106 0.26883 8.12911 0.268992 7.86893 0.529328L0.535604 7.86268C0.529988 7.86806 0.524536 7.87351 0.519165 7.87904C0.263387 8.14385 0.270711 8.56589 0.535604 8.82167C0.800415 9.07753 1.22245 9.07013 1.47823 8.80531L7.67354 2.60998V15.6673C7.67354 16.0355 7.97204 16.334 8.34021 16.334C8.70837 16.334 9.00687 16.0355 9.00687 15.6673V2.60998L15.2023 8.80523C15.4606 9.05483 15.8701 9.05483 16.1285 8.80523C16.3933 8.54945 16.4007 8.12742 16.1449 7.8626L8.8114 0.529084ZM8.8114 0.529084V0.529084Z" stroke="#E51B1B" stroke-width="0.470588"/>
</svg>
