<svg width="54" height="67" viewBox="0 0 54 67" fill="none" xmlns="http://www.w3.org/2000/svg">
<path d="M33.5 1H7.5C5.77609 1 4.12279 1.68482 2.90381 2.90381C1.68482 4.12279 1 5.77609 1 7.5V59.5C1 61.2239 1.68482 62.8772 2.90381 64.0962C4.12279 65.3152 5.77609 66 7.5 66H46.5C48.2239 66 49.8772 65.3152 51.0962 64.0962C52.3152 62.8772 53 61.2239 53 59.5V20.5L33.5 1Z" stroke="#0A1856" stroke-width="2" stroke-linecap="round" stroke-linejoin="round"/>
<path d="M33.5 1V20.5H53" stroke="#0A1856" stroke-width="2" stroke-linecap="round" stroke-linejoin="round"/>
<path d="M30.7483 56.3096V27H22.3742V41.6548M22.3742 41.6548V56.3096M22.3742 41.6548H14V56.3096H39.1225V35.3742H30.7483" stroke="#0A1856" stroke-width="2" stroke-miterlimit="10" stroke-linecap="round" stroke-linejoin="round"/>
</svg>
