<svg width="38" height="39" viewBox="0 0 38 39" fill="none" xmlns="http://www.w3.org/2000/svg">
<path d="M19 38.3945C29.4939 38.3945 38 29.8885 38 19.3945C38 8.90059 29.4939 0.394531 19 0.394531C8.50606 0.394531 0 8.90059 0 19.3945C0 29.8885 8.50606 38.3945 19 38.3945Z" fill="#FFD800"/>
<path fill-rule="evenodd" clip-rule="evenodd" d="M28.1236 15.6967C28.1912 15.629 28.3254 15.629 28.4573 15.629C30.4606 15.629 32.0625 17.3247 32.0625 19.3613C32.0625 21.2613 30.6612 22.754 28.8586 23.0924H28.4573C27.7899 23.0924 27.1225 22.8893 26.5216 22.5497C26.3266 22.4124 26.0927 22.3412 25.8542 22.3467C25.5871 22.3467 25.3199 22.4143 25.1204 22.5497C24.6525 22.8217 24.453 23.2967 24.453 23.8393V24.4497C24.3826 25.288 24.0254 26.0764 23.4416 26.682C22.8578 27.2877 22.0831 27.6736 21.2479 27.7747H20.8477C20.1804 27.7747 19.513 27.5717 18.9121 27.232C18.6449 27.0967 18.4454 27.029 18.1782 27.029C17.9111 27.029 17.6439 27.0967 17.4432 27.232C16.9765 27.504 16.7758 27.979 16.7758 28.5217V29.132C16.6428 30.8967 15.2404 32.254 13.5054 32.457H13.1718C11.1684 32.457 9.5665 30.7601 9.5665 28.7247C9.633 26.8247 10.9677 25.2643 12.7704 25.0601H13.1718C13.8391 25.0601 14.5065 25.2643 15.1074 25.604C15.3024 25.7413 15.5363 25.8125 15.7748 25.807C16.0419 25.807 16.3091 25.7393 16.5086 25.604C16.9765 25.332 17.176 24.857 17.176 24.3143C17.043 22.3467 18.4454 20.582 20.3811 20.379H20.7812C21.4486 20.379 22.116 20.582 22.7169 20.9217C22.9841 21.057 23.1848 21.1247 23.4519 21.1247C23.7179 21.1247 23.9863 21.057 24.1858 20.9217C24.6525 20.6497 24.8532 20.1747 24.8532 19.632C24.7202 17.6643 26.1879 15.8997 28.1236 15.6967ZM20.4487 11.0143C20.5817 10.9467 20.6494 10.9467 20.8489 10.9467C22.8522 10.9467 24.4542 12.6424 24.4542 14.679C24.3877 16.579 23.0529 18.1393 21.2491 18.3424H20.8489C20.1816 18.3424 19.5142 18.1393 18.9133 17.7997C18.7183 17.6624 18.4844 17.5912 18.2459 17.5967C17.9787 17.5967 17.7116 17.6643 17.5121 17.7997C17.0442 18.0717 16.8435 18.5467 16.8435 19.0893V19.6997C16.7105 21.4632 15.3093 22.8205 13.5731 23.0247H13.2394C11.2373 23.0247 9.63419 21.329 9.63419 19.2924C9.63419 17.4613 10.9701 15.9674 12.7716 15.6967H13.1729C13.8403 15.6967 14.5077 15.8997 15.1086 16.2393C15.3036 16.3767 15.5375 16.4478 15.7759 16.4424C16.0431 16.4424 16.3103 16.3747 16.5098 16.2393C16.9777 15.9674 17.1772 15.4924 17.1772 14.9497C17.0442 12.982 18.5131 11.2174 20.4487 11.0143ZM13.1053 6.33203C15.0955 6.33203 16.7093 7.97316 16.7093 9.99666C16.7093 12.0202 15.0943 13.6601 13.1053 13.6601C11.1138 13.6601 9.5 12.0202 9.5 9.99666C9.5 7.97316 11.115 6.33203 13.1053 6.33203Z" fill="white"/>
</svg>
