<svg width="463" height="451" viewBox="0 0 463 451" fill="none" xmlns="http://www.w3.org/2000/svg">
<g clip-path="url(#clip0_17701_34223)">
<path d="M68.4366 410.2C158.685 463.4 305.065 463.4 395.313 410.2C485.562 357 485.562 270.6 395.313 217.4C305.065 164.2 158.685 164.2 68.4366 217.4C-21.8122 270.7 -21.8122 357 68.4366 410.2Z" fill="#F5F5F5"/>
<path d="M402.619 355.5C419.929 365.5 419.929 381.6 402.619 391.6C385.31 401.6 357.395 401.6 340.086 391.6C322.776 381.6 322.776 365.5 340.086 355.5C357.295 345.5 385.31 345.5 402.619 355.5Z" fill="#E0E0E0"/>
<path d="M53.9304 256.599C53.3301 256.899 42.9245 259.899 39.0223 254.799C35.1202 249.699 41.6238 241.699 37.9218 238.799C34.3198 235.899 24.1143 238.799 21.6129 232.599C19.1116 226.399 26.4155 223.799 22.3133 217.499C19.7119 213.599 13.4085 211.399 12.9082 207.699C12.0077 201.599 22.0131 198.799 30.6178 204.599C39.2225 210.299 44.4253 207.699 47.1267 207.299C49.8282 206.899 55.7314 207.799 55.5313 217.299C55.4312 226.999 53.9304 256.599 53.9304 256.599Z" fill="#A2D5E9"/>
<path d="M54.6319 242.999C54.3317 242.999 54.1316 242.799 54.0316 242.499C51.0299 224.299 29.9185 209.499 18.9126 206.399C18.6124 206.299 18.4123 205.999 18.5124 205.699C18.6124 205.399 18.9126 205.199 19.2127 205.299C30.4188 208.499 52.0305 223.699 55.1322 242.299C55.2322 242.699 55.0321 242.999 54.6319 242.999Z" fill="white"/>
<path d="M29.7157 227.797C29.5156 227.797 29.3155 227.697 29.2154 227.497C29.0153 227.197 29.1154 226.897 29.4155 226.697C29.7157 226.497 37.9201 221.697 45.9245 223.997C46.2246 224.097 46.4247 224.397 46.3247 224.697C46.2246 224.997 45.9245 225.197 45.6243 225.097C38.0202 222.997 30.0159 227.697 30.0159 227.697C29.9158 227.797 29.8158 227.797 29.7157 227.797Z" fill="white"/>
<path d="M57.9277 263.601C57.9277 266.201 59.8288 269.401 62.2301 270.801L183.596 340.801C185.997 342.201 189.899 342.201 192.3 340.801L358.39 245.001C360.792 243.601 362.693 240.401 362.693 237.801C362.693 235.201 360.792 232.001 358.39 230.601L237.025 160.601C234.623 159.201 230.721 159.201 228.32 160.601L62.2301 256.401C59.9288 257.801 57.9277 261.001 57.9277 263.601Z" fill="#37474F"/>
<path d="M188 332.501V341.901C186.399 341.901 184.898 341.601 183.697 340.901L62.3316 270.901C59.9303 269.501 58.0293 266.301 58.0293 263.701C58.0293 261.301 59.7302 258.301 61.9314 256.801C60.0304 258.201 60.1304 260.201 62.3316 261.501L183.697 331.601C184.898 332.201 186.399 332.501 188 332.501Z" fill="#263238"/>
<path d="M53.9264 256.599C51.7252 255.299 49.8242 251.999 49.8242 249.299V104.499C49.8242 101.699 51.7252 98.3995 54.1265 96.9995L220.216 1.19949C222.618 -0.200509 226.32 -0.20051 228.621 0.99949C230.822 2.29949 232.723 5.59949 232.723 8.29949V153.1C232.723 155.9 230.822 159.2 228.421 160.6L62.331 256.399C59.9297 257.799 56.1276 257.899 53.9264 256.599Z" fill="#455A64"/>
<path d="M61.7311 256.698C59.3298 257.798 55.928 257.798 53.8268 256.598C51.6256 255.298 49.7246 251.998 49.7246 249.298V104.398C49.7246 102.998 50.2249 101.498 51.0253 100.098L59.1297 104.798C58.3293 106.198 57.829 107.698 57.829 109.098V253.898C57.9291 256.498 59.63 257.598 61.7311 256.698Z" fill="#263238"/>
<path d="M57.9277 109.1V253.9C57.9277 256.7 59.8288 257.8 62.2301 256.4L228.32 160.6C230.721 159.2 232.622 155.9 232.622 153.1V8.30022C232.622 5.50022 230.721 4.40022 228.32 5.80022L62.2301 101.6C59.9288 103 57.9277 106.4 57.9277 109.1Z" fill="#37474F"/>
<path d="M62.3322 261.401L183.698 331.401C186.099 332.801 190.001 332.801 192.403 331.401L358.492 235.601C360.894 234.201 360.894 232.001 358.492 230.601L237.127 160.601C234.725 159.201 230.823 159.201 228.422 160.601L62.3322 256.401C59.9309 257.801 59.9309 260.001 62.3322 261.401Z" fill="#455A64"/>
<path d="M64.6327 109.699L224.819 17.2994C226.22 16.4994 227.421 17.0994 227.421 18.7994V144.099C227.421 145.799 226.22 147.799 224.819 148.599L64.6327 240.999C63.2319 241.799 62.0312 241.199 62.0312 239.499V114.199C62.0312 112.499 63.2319 110.499 64.6327 109.699Z" fill="white"/>
<path opacity="0.6" d="M64.6327 109.699L224.819 17.2994C226.22 16.4994 227.421 17.0994 227.421 18.7994V144.099C227.421 145.799 226.22 147.799 224.819 148.599L64.6327 240.999C63.2319 241.799 62.0312 241.199 62.0312 239.499V114.199C62.0312 112.499 63.2319 110.499 64.6327 109.699Z" fill="#A2D5E9"/>
<path d="M144.376 101.701C148.678 99.2013 152.08 101.201 152.08 106.201C152.08 111.101 148.578 117.101 144.376 119.601C140.074 122.101 136.672 120.101 136.672 115.101C136.672 110.201 140.074 104.201 144.376 101.701Z" fill="#F0F0F0"/>
<path d="M159.584 128.1C159.584 120 153.881 116.4 146.877 120.5L142.474 123C135.471 127 129.768 136.9 129.768 145V147.2L159.484 130V128.1H159.584Z" fill="#F0F0F0"/>
<path d="M174.591 132.001C174.291 131.301 173.591 131.201 172.79 131.601L120.862 161.601C120.362 161.901 119.862 162.401 119.462 163.001C119.061 163.601 118.861 164.301 118.861 164.901V171.001C118.861 172.001 119.462 172.501 120.362 172.301C120.462 172.301 120.462 172.301 120.462 172.301C120.562 172.301 120.662 172.201 120.762 172.101L172.69 142.101C173.791 141.501 174.591 140.001 174.591 138.801V132.701C174.692 132.601 174.692 132.301 174.591 132.001Z" fill="#F0F0F0"/>
<path d="M125.565 162.399C126.565 161.799 127.366 162.299 127.366 163.499C127.366 164.699 126.565 166.099 125.565 166.699C124.564 167.299 123.764 166.799 123.764 165.599C123.764 164.399 124.564 162.999 125.565 162.399Z" fill="#002866"/>
<path d="M131.569 158.899C132.569 158.299 133.37 158.799 133.37 159.999C133.37 161.199 132.569 162.599 131.569 163.199C130.568 163.799 129.768 163.299 129.768 162.099C129.768 160.899 130.568 159.499 131.569 158.899Z" fill="#002866"/>
<path d="M137.571 155.399C138.571 154.799 139.371 155.299 139.371 156.499C139.371 157.699 138.571 159.099 137.571 159.699C136.57 160.299 135.77 159.799 135.77 158.599C135.77 157.399 136.57 155.999 137.571 155.399Z" fill="#002866"/>
<path d="M143.674 152C144.675 151.4 145.475 151.9 145.475 153.1C145.475 154.3 144.675 155.7 143.674 156.3C142.673 156.9 141.873 156.4 141.873 155.2C141.873 154 142.673 152.5 143.674 152Z" fill="#002866"/>
<path d="M149.678 148.5C150.678 147.9 151.479 148.4 151.479 149.6C151.479 150.8 150.678 152.2 149.678 152.8C148.677 153.4 147.877 152.9 147.877 151.7C147.877 150.5 148.677 149.1 149.678 148.5Z" fill="#002866"/>
<path d="M155.68 145C156.68 144.4 157.481 144.9 157.481 146.1C157.481 147.3 156.68 148.7 155.68 149.3C154.679 149.9 153.879 149.4 153.879 148.2C153.879 147 154.679 145.6 155.68 145Z" fill="#002866"/>
<path d="M161.783 141.5C162.784 140.9 163.584 141.4 163.584 142.6C163.584 143.8 162.784 145.2 161.783 145.8C160.783 146.4 159.982 145.9 159.982 144.7C159.982 143.5 160.783 142.1 161.783 141.5Z" fill="#002866"/>
<path d="M167.787 138C168.788 137.4 169.588 137.9 169.588 139.1C169.588 140.3 168.788 141.7 167.787 142.3C166.787 142.9 165.986 142.4 165.986 141.2C165.986 140 166.787 138.6 167.787 138Z" fill="#002866"/>
<path d="M76.338 257.701L230.521 168.701C231.722 168.001 233.623 168.001 234.824 168.701L242.728 173.301C243.929 174.001 243.929 175.101 242.728 175.801L88.5446 264.701C87.3439 265.401 85.4429 265.401 84.2423 264.701L76.338 260.201C75.1373 259.501 75.1373 258.401 76.338 257.701Z" fill="#37474F"/>
<path d="M96.7497 269.4L250.933 180.4C252.134 179.7 254.035 179.7 255.235 180.4L303.762 208.4C304.962 209.1 304.962 210.2 303.762 210.9L149.778 299.7C148.578 300.4 146.677 300.4 145.476 299.7L96.8497 271.8C95.549 271.2 95.549 270.1 96.7497 269.4Z" fill="#263238"/>
<path d="M234.924 220.398L239.727 217.598C239.927 217.498 239.927 217.298 239.727 217.198L234.124 213.998C233.924 213.898 233.524 213.898 233.324 213.998L228.521 216.798C228.321 216.898 228.321 217.098 228.521 217.198L234.124 220.398C234.324 220.598 234.724 220.598 234.924 220.398ZM225.419 209.398L220.617 212.198C220.417 212.298 220.417 212.498 220.617 212.598L226.22 215.798C226.42 215.898 226.82 215.898 227.02 215.798L231.823 212.998C232.023 212.898 232.023 212.698 231.823 212.598L226.22 209.398C225.92 209.298 225.619 209.298 225.419 209.398ZM209.811 218.398L201.606 223.098C201.406 223.198 201.406 223.398 201.606 223.498L207.209 226.698C207.41 226.798 207.81 226.798 208.01 226.698L216.214 221.998C216.414 221.898 216.414 221.698 216.214 221.598L210.611 218.398C210.311 218.298 210.011 218.298 209.811 218.398ZM218.315 213.498L213.513 216.298C213.313 216.398 213.313 216.598 213.513 216.698L219.116 219.898C219.316 219.998 219.716 219.998 219.916 219.898L224.719 217.098C224.919 216.998 224.919 216.798 224.719 216.698L219.116 213.498C218.916 213.298 218.516 213.298 218.315 213.498ZM199.405 224.398L194.603 227.198C194.403 227.298 194.403 227.498 194.603 227.598L200.206 230.798C200.406 230.898 200.806 230.898 201.006 230.798L205.809 227.998C206.009 227.898 206.009 227.698 205.809 227.598L200.206 224.398C199.906 224.298 199.605 224.298 199.405 224.398ZM192.301 228.398L187.499 231.198C187.299 231.298 187.299 231.498 187.499 231.598L193.102 234.798C193.302 234.898 193.702 234.898 193.902 234.798L198.705 231.998C198.905 231.898 198.905 231.698 198.705 231.598L193.102 228.398C192.902 228.298 192.502 228.298 192.301 228.398ZM214.313 241.498L219.116 238.698C219.316 238.598 219.316 238.398 219.116 238.298L213.513 235.098C213.313 234.998 212.913 234.998 212.712 235.098L207.91 237.898C207.71 237.998 207.71 238.198 207.91 238.298L213.513 241.498C213.713 241.698 214.113 241.698 214.313 241.498ZM207.209 245.598L212.012 242.798C212.212 242.698 212.212 242.498 212.012 242.398L206.409 239.198C206.209 239.098 205.809 239.098 205.609 239.198L200.806 241.998C200.606 242.098 200.606 242.298 200.806 242.398L206.409 245.598C206.709 245.698 207.009 245.698 207.209 245.598ZM200.206 249.698L205.008 246.898C205.208 246.798 205.208 246.598 205.008 246.498L199.405 243.298C199.205 243.198 198.805 243.198 198.605 243.298L193.802 246.098C193.602 246.198 193.602 246.398 193.802 246.498L199.405 249.698C199.605 249.798 200.006 249.798 200.206 249.698ZM193.102 253.798L197.904 250.998C198.105 250.898 198.105 250.698 197.904 250.598L192.301 247.398C192.101 247.298 191.701 247.298 191.501 247.398L186.698 250.198C186.498 250.298 186.498 250.498 186.698 250.598L192.301 253.798C192.602 253.898 192.902 253.898 193.102 253.798ZM227.821 224.498L232.623 221.698C232.823 221.598 232.823 221.398 232.623 221.298L227.02 218.098C226.82 217.998 226.42 217.998 226.22 218.098L221.417 220.898C221.217 220.998 221.217 221.198 221.417 221.298L227.02 224.498C227.32 224.598 227.621 224.598 227.821 224.498ZM221.317 237.498L232.123 231.298C232.323 231.198 232.323 230.998 232.123 230.898L218.616 223.098C218.416 222.998 218.015 222.998 217.815 223.098L212.212 226.298C212.012 226.398 212.012 226.598 212.212 226.698L219.416 230.798C219.616 230.898 219.616 231.098 219.416 231.198L214.914 233.798C214.714 233.898 214.714 234.098 214.914 234.198L220.517 237.398C220.817 237.598 221.117 237.598 221.317 237.498ZM185.298 232.498L180.495 235.298C180.295 235.398 180.295 235.598 180.495 235.698L186.098 238.898C186.298 238.998 186.698 238.998 186.899 238.898L191.701 236.098C191.901 235.998 191.901 235.798 191.701 235.698L186.098 232.498C185.798 232.398 185.498 232.398 185.298 232.498ZM178.194 236.598L173.391 239.398C173.191 239.498 173.191 239.698 173.391 239.798L178.994 242.998C179.194 243.098 179.595 243.098 179.795 242.998L184.597 240.198C184.797 240.098 184.797 239.898 184.597 239.798L178.994 236.598C178.794 236.498 178.394 236.498 178.194 236.598ZM142.975 282.198C143.175 282.298 143.575 282.298 143.775 282.198L148.578 279.398C148.778 279.298 148.778 279.098 148.578 278.998L142.975 275.798C142.775 275.698 142.374 275.698 142.174 275.798L137.372 278.598C137.172 278.698 137.172 278.898 137.372 278.998L142.975 282.198ZM121.763 269.198L116.961 271.998C116.761 272.098 116.761 272.298 116.961 272.398L122.564 275.598C122.764 275.698 123.164 275.698 123.364 275.598L128.167 272.798C128.367 272.698 128.367 272.498 128.167 272.398L122.564 269.198C122.364 268.998 121.963 268.998 121.763 269.198ZM133.169 278.698C133.37 278.798 133.77 278.798 133.97 278.698L138.772 275.898C138.973 275.798 138.973 275.598 138.772 275.498L133.169 272.298C132.969 272.198 132.569 272.198 132.369 272.298L127.566 275.098C127.366 275.198 127.366 275.398 127.566 275.498L133.169 278.698ZM155.381 284.698L160.184 281.898C160.384 281.798 160.384 281.598 160.184 281.498L154.581 278.298C154.381 278.198 153.981 278.198 153.781 278.298L149.078 280.998C148.878 281.098 148.878 281.298 149.078 281.398L154.681 284.598C154.881 284.798 155.181 284.798 155.381 284.698ZM147.577 288.798C147.777 288.898 148.178 288.898 148.378 288.798L153.18 285.998C153.38 285.898 153.38 285.698 153.18 285.598L147.577 282.398C147.377 282.298 146.977 282.298 146.777 282.398L141.974 285.198C141.774 285.298 141.774 285.498 141.974 285.598L147.577 288.798ZM128.867 265.098L124.065 267.898C123.864 267.998 123.864 268.198 124.065 268.298L129.668 271.498C129.868 271.598 130.268 271.598 130.468 271.498L135.271 268.698C135.471 268.598 135.471 268.398 135.271 268.298L129.668 265.098C129.367 264.998 129.067 264.998 128.867 265.098ZM164.086 244.698L159.284 247.498C159.083 247.598 159.083 247.798 159.284 247.898L164.887 251.098C165.087 251.198 165.487 251.198 165.687 251.098L170.49 248.298C170.69 248.198 170.69 247.998 170.49 247.898L164.887 244.698C164.686 244.598 164.286 244.598 164.086 244.698ZM135.871 260.998L131.068 263.798C130.868 263.898 130.868 264.098 131.068 264.198L136.671 267.398C136.871 267.498 137.272 267.498 137.472 267.398L142.274 264.598C142.474 264.498 142.474 264.298 142.274 264.198L136.671 260.998C136.471 260.898 136.071 260.898 135.871 260.998ZM171.19 240.698L166.387 243.498C166.187 243.598 166.187 243.798 166.387 243.898L171.99 247.098C172.191 247.198 172.591 247.198 172.791 247.098L177.593 244.298C177.794 244.198 177.794 243.998 177.593 243.898L171.99 240.698C171.69 240.598 171.39 240.498 171.19 240.698ZM157.082 248.798L152.28 251.598C152.08 251.698 152.08 251.898 152.28 251.998L157.883 255.198C158.083 255.298 158.483 255.298 158.683 255.198L163.486 252.398C163.686 252.298 163.686 252.098 163.486 251.998L157.883 248.798C157.583 248.698 157.282 248.698 157.082 248.798ZM149.979 252.898L145.176 255.698C144.976 255.798 144.976 255.998 145.176 256.098L150.779 259.298C150.979 259.398 151.379 259.398 151.579 259.298L156.382 256.498C156.582 256.398 156.582 256.198 156.382 256.098L150.779 252.898C150.579 252.798 150.179 252.798 149.979 252.898ZM142.975 256.898L138.172 259.698C137.972 259.798 137.972 259.998 138.172 260.098L143.775 263.298C143.975 263.398 144.376 263.398 144.576 263.298L149.378 260.498C149.578 260.398 149.578 260.198 149.378 260.098L143.775 256.898C143.475 256.798 143.175 256.798 142.975 256.898ZM178.994 261.898L183.797 259.098C183.997 258.998 183.997 258.798 183.797 258.698L178.194 255.498C177.994 255.398 177.593 255.398 177.393 255.498L172.591 258.298C172.391 258.398 172.391 258.598 172.591 258.698L178.194 261.898C178.494 261.998 178.794 261.998 178.994 261.898ZM240.928 200.398L236.125 203.198C235.925 203.298 235.925 203.498 236.125 203.598L241.728 206.798C241.928 206.898 242.328 206.898 242.529 206.798L247.331 203.998C247.531 203.898 247.531 203.698 247.331 203.598L241.728 200.398C241.528 200.298 241.228 200.298 240.928 200.398ZM232.423 205.298L227.621 208.098C227.42 208.198 227.42 208.398 227.621 208.498L233.224 211.698C233.424 211.798 233.824 211.798 234.024 211.698L238.827 208.898C239.027 208.798 239.027 208.598 238.827 208.498L233.224 205.298C233.023 205.198 232.623 205.198 232.423 205.298ZM248.032 196.298L243.229 199.098C243.029 199.198 243.029 199.398 243.229 199.498L248.832 202.698C249.032 202.798 249.432 202.798 249.632 202.698L254.435 199.898C254.635 199.798 254.635 199.598 254.435 199.498L248.832 196.298C248.532 196.198 248.232 196.198 248.032 196.298ZM211.512 233.898L216.314 231.098C216.515 230.998 216.515 230.798 216.314 230.698L210.711 227.498C210.511 227.398 210.111 227.398 209.911 227.498L205.108 230.298C204.908 230.398 204.908 230.598 205.108 230.698L210.711 233.898C211.012 234.098 211.312 234.098 211.512 233.898ZM255.836 192.298C255.636 192.198 255.235 192.198 255.035 192.298L250.233 195.098C250.033 195.198 250.033 195.398 250.233 195.498L255.836 198.698C256.036 198.798 256.436 198.798 256.636 198.698L261.439 195.898C261.639 195.798 261.639 195.598 261.439 195.498L255.836 192.298ZM186.098 257.798L190.901 254.998C191.101 254.898 191.101 254.698 190.901 254.598L185.298 251.398C185.098 251.298 184.697 251.298 184.497 251.398L179.695 254.198C179.495 254.298 179.495 254.498 179.695 254.598L185.298 257.798C185.498 257.898 185.898 257.898 186.098 257.798ZM272.545 207.898L277.347 205.098C277.548 204.998 277.548 204.798 277.347 204.698L271.744 201.498C271.544 201.398 271.144 201.398 270.944 201.498L266.141 204.298C265.941 204.398 265.941 204.598 266.141 204.698L271.744 207.898C272.045 207.998 272.345 207.998 272.545 207.898ZM257.537 207.398L262.339 204.598C262.539 204.498 262.539 204.298 262.339 204.198L256.736 200.998C256.536 200.898 256.136 200.898 255.936 200.998L251.133 203.798C250.933 203.898 250.933 204.098 251.133 204.198L256.736 207.398C257.036 207.498 257.337 207.498 257.537 207.398ZM263.84 196.898C263.64 196.798 263.24 196.798 263.04 196.898L258.237 199.698C258.037 199.798 258.037 199.998 258.237 200.098L263.84 203.298C264.04 203.398 264.44 203.398 264.641 203.298L269.443 200.498C269.643 200.398 269.643 200.198 269.443 200.098L263.84 196.898ZM265.341 195.998L278.848 203.798C279.048 203.898 279.449 203.898 279.649 203.798L284.451 200.998C284.651 200.898 284.651 200.698 284.451 200.598L270.944 192.798C270.744 192.698 270.344 192.698 270.144 192.798L265.341 195.598C265.041 195.698 265.141 195.898 265.341 195.998ZM248.932 204.998L244.129 207.798C243.929 207.898 243.929 208.098 244.129 208.198L249.732 211.398C249.933 211.498 250.333 211.498 250.533 211.398L255.336 208.598C255.536 208.498 255.536 208.298 255.336 208.198L249.732 204.998C249.532 204.898 249.132 204.898 248.932 204.998ZM195.803 235.598L191.001 238.398C190.801 238.498 190.801 238.698 191.001 238.798L196.604 241.998C196.804 242.098 197.204 242.098 197.404 241.998L202.207 239.198C202.407 239.098 202.407 238.898 202.207 238.798L196.604 235.598C196.404 235.498 196.103 235.498 195.803 235.598ZM264.741 211.998C264.941 212.098 265.341 212.098 265.541 211.998L270.344 209.198C270.544 209.098 270.544 208.898 270.344 208.798L264.741 205.598C264.54 205.498 264.14 205.498 263.94 205.598L259.138 208.398C258.937 208.498 258.937 208.698 259.138 208.798L264.741 211.998ZM202.907 231.598L198.105 234.398C197.904 234.498 197.904 234.698 198.105 234.798L203.708 237.998C203.908 238.098 204.308 238.098 204.508 237.998L209.311 235.198C209.511 235.098 209.511 234.898 209.311 234.798L203.708 231.598C203.407 231.398 203.107 231.398 202.907 231.598ZM149.979 278.198C150.179 278.298 150.579 278.298 150.779 278.198L155.582 275.398C155.782 275.298 155.782 275.098 155.582 274.998L149.979 271.798C149.778 271.698 149.378 271.698 149.178 271.798L144.376 274.598C144.175 274.698 144.175 274.898 144.376 274.998L149.979 278.198ZM139.373 268.198L134.57 270.998C134.37 271.098 134.37 271.298 134.57 271.398L140.173 274.598C140.373 274.698 140.774 274.698 140.974 274.598L145.776 271.798C145.976 271.698 145.976 271.498 145.776 271.398L140.173 268.198C139.973 268.098 139.573 268.098 139.373 268.198ZM157.883 274.098L162.685 271.298C162.886 271.198 162.886 270.998 162.685 270.898L157.082 267.698C156.882 267.598 156.482 267.598 156.282 267.698L151.479 270.498C151.279 270.598 151.279 270.798 151.479 270.898L157.082 274.098C157.282 274.198 157.683 274.198 157.883 274.098ZM164.887 269.998L169.689 267.198C169.889 267.098 169.889 266.898 169.689 266.798L164.086 263.598C163.886 263.498 163.486 263.498 163.286 263.598L158.483 266.398C158.283 266.498 158.283 266.698 158.483 266.798L164.086 269.998C164.386 270.198 164.686 270.198 164.887 269.998ZM171.99 265.998L176.793 263.198C176.993 263.098 176.993 262.898 176.793 262.798L171.19 259.598C170.99 259.498 170.59 259.498 170.39 259.598L165.587 262.398C165.387 262.498 165.387 262.698 165.587 262.798L171.19 265.998C171.39 266.098 171.79 266.098 171.99 265.998ZM146.477 264.098L141.674 266.898C141.474 266.998 141.474 267.198 141.674 267.298L147.277 270.498C147.477 270.598 147.877 270.598 148.078 270.498L152.88 267.698C153.08 267.598 153.08 267.398 152.88 267.298L147.277 264.098C146.977 263.998 146.677 263.998 146.477 264.098ZM153.48 259.998L148.678 262.798C148.478 262.898 148.478 263.098 148.678 263.198L154.281 266.398C154.481 266.498 154.881 266.498 155.081 266.398L159.884 263.598C160.084 263.498 160.084 263.298 159.884 263.198L154.281 259.998C154.081 259.898 153.681 259.898 153.48 259.998ZM181.696 243.798L176.893 246.598C176.693 246.698 176.693 246.898 176.893 246.998L182.496 250.198C182.696 250.298 183.096 250.298 183.297 250.198L188.099 247.398C188.299 247.298 188.299 247.098 188.099 246.998L182.496 243.798C182.296 243.698 181.896 243.598 181.696 243.798ZM174.692 247.798L169.889 250.598C169.689 250.698 169.689 250.898 169.889 250.998L175.492 254.198C175.692 254.298 176.093 254.298 176.293 254.198L181.095 251.398C181.295 251.298 181.295 251.098 181.095 250.998L175.492 247.798C175.192 247.698 174.892 247.698 174.692 247.798ZM188.8 239.698L183.997 242.498C183.797 242.598 183.797 242.798 183.997 242.898L189.6 246.098C189.8 246.198 190.2 246.198 190.4 246.098L195.203 243.298C195.403 243.198 195.403 242.998 195.203 242.898L189.6 239.698C189.3 239.598 189 239.598 188.8 239.698ZM160.584 255.998L155.782 258.798C155.582 258.898 155.582 259.098 155.782 259.198L161.385 262.398C161.585 262.498 161.985 262.498 162.185 262.398L166.988 259.598C167.188 259.498 167.188 259.298 166.988 259.198L161.385 255.998C161.085 255.898 160.784 255.898 160.584 255.998ZM167.588 251.898L162.785 254.698C162.585 254.798 162.585 254.998 162.785 255.098L168.388 258.298C168.589 258.398 168.989 258.398 169.189 258.298L173.992 255.498C174.192 255.398 174.192 255.198 173.992 255.098L168.388 251.898C168.188 251.798 167.788 251.798 167.588 251.898ZM162.485 280.598L167.288 277.798C167.488 277.698 167.488 277.498 167.288 277.398L161.685 274.198C161.485 274.098 161.085 274.098 160.884 274.198L156.082 276.998C155.882 277.098 155.882 277.298 156.082 277.398L161.685 280.598C161.885 280.798 162.285 280.798 162.485 280.598ZM121.063 276.498L115.46 273.298C115.26 273.198 114.86 273.198 114.659 273.298L109.857 276.098C109.657 276.198 109.657 276.398 109.857 276.498L115.46 279.698C115.66 279.798 116.06 279.798 116.26 279.698L121.063 276.898C121.263 276.798 121.263 276.598 121.063 276.498ZM131.669 279.598L126.066 276.398C125.865 276.298 125.465 276.298 125.265 276.398L117.861 280.698C117.661 280.798 117.661 280.998 117.861 281.098L123.464 284.298C123.664 284.398 124.065 284.398 124.265 284.298L131.669 279.998C131.869 279.898 131.869 279.698 131.669 279.598ZM112.558 270.198L106.955 266.998C106.755 266.898 106.355 266.898 106.155 266.998L100.252 270.398C100.052 270.498 100.052 270.698 100.252 270.798L105.855 273.998C106.055 274.098 106.455 274.098 106.655 273.998L112.558 270.598C112.758 270.598 112.758 270.398 112.558 270.198ZM117.061 267.598C117.261 267.698 117.661 267.698 117.861 267.598L122.664 264.798C122.864 264.698 122.864 264.498 122.664 264.398L117.061 261.198C116.861 261.098 116.46 261.098 116.26 261.198L111.458 263.998C111.258 264.098 111.258 264.298 111.458 264.398L117.061 267.598ZM141.474 283.098L135.871 279.898C135.671 279.798 135.271 279.798 135.07 279.898L125.765 285.298C125.565 285.398 125.565 285.598 125.765 285.698L131.368 288.898C131.569 288.998 131.969 288.998 132.169 288.898L141.474 283.498C141.674 283.398 141.674 283.198 141.474 283.098ZM146.076 289.598L140.473 286.398C140.273 286.298 139.873 286.298 139.673 286.398L133.77 289.798C133.57 289.898 133.57 290.098 133.77 290.198L139.373 293.398C139.573 293.498 139.973 293.498 140.173 293.398L146.076 289.998C146.377 289.998 146.377 289.798 146.076 289.598ZM169.489 237.298C169.689 237.398 170.089 237.398 170.29 237.298L175.092 234.498C175.292 234.398 175.292 234.198 175.092 234.098L169.489 230.898C169.289 230.798 168.889 230.798 168.689 230.898L163.886 233.698C163.686 233.798 163.686 233.998 163.886 234.098L169.489 237.298ZM155.381 245.498C155.582 245.598 155.982 245.598 156.182 245.498L160.984 242.698C161.185 242.598 161.185 242.398 160.984 242.298L155.381 239.098C155.181 238.998 154.781 238.998 154.581 239.098L149.778 241.898C149.578 241.998 149.578 242.198 149.778 242.298L155.381 245.498ZM124.165 263.498C124.365 263.598 124.765 263.598 124.965 263.498L129.768 260.698C129.968 260.598 129.968 260.398 129.768 260.298L124.165 257.098C123.964 256.998 123.564 256.998 123.364 257.098L118.562 259.898C118.361 259.998 118.361 260.198 118.562 260.298L124.165 263.498ZM162.485 241.398C162.685 241.498 163.086 241.498 163.286 241.398L168.088 238.598C168.288 238.498 168.288 238.298 168.088 238.198L162.485 234.998C162.285 234.898 161.885 234.898 161.685 234.998L156.882 237.798C156.682 237.898 156.682 238.098 156.882 238.198L162.485 241.398ZM148.378 249.598C148.578 249.698 148.978 249.698 149.178 249.598L153.981 246.798C154.181 246.698 154.181 246.498 153.981 246.398L148.378 243.198C148.178 243.098 147.777 243.098 147.577 243.198L142.775 245.998C142.575 246.098 142.575 246.298 142.775 246.398L148.378 249.598ZM149.979 290.198C149.778 290.098 149.378 290.098 149.178 290.198L141.774 294.498C141.574 294.598 141.574 294.798 141.774 294.898L147.377 298.098C147.577 298.198 147.977 298.198 148.178 298.098L155.582 293.798C155.782 293.698 155.782 293.498 155.582 293.398L149.979 290.198ZM138.272 255.398C138.472 255.498 138.873 255.498 139.073 255.398L143.875 252.598C144.075 252.498 144.075 252.298 143.875 252.198L138.272 248.998C138.072 248.898 137.672 248.898 137.472 248.998L132.669 251.798C132.469 251.898 132.469 252.098 132.669 252.198L138.272 255.398ZM131.168 259.498C131.368 259.598 131.769 259.598 131.969 259.498L136.771 256.698C136.972 256.598 136.972 256.398 136.771 256.298L131.168 253.098C130.968 252.998 130.568 252.998 130.368 253.098L125.565 255.898C125.365 255.998 125.365 256.198 125.565 256.298L131.168 259.498ZM280.649 214.698C280.449 214.598 280.049 214.598 279.849 214.698L267.942 221.598C267.742 221.698 267.742 221.898 267.942 221.998L273.545 225.198C273.745 225.298 274.146 225.298 274.346 225.198L286.252 218.298C286.452 218.198 286.452 217.998 286.252 217.898L280.649 214.698ZM265.141 223.698C264.941 223.598 264.54 223.598 264.34 223.698L259.538 226.498C259.338 226.598 259.338 226.798 259.538 226.898L265.141 230.098C265.341 230.198 265.741 230.198 265.941 230.098L270.744 227.298C270.944 227.198 270.944 226.998 270.744 226.898L265.141 223.698ZM169.489 276.598L174.292 273.798C174.492 273.698 174.492 273.498 174.292 273.398L168.689 270.198C168.489 270.098 168.088 270.098 167.888 270.198L163.086 272.998C162.886 273.098 162.886 273.298 163.086 273.398L168.689 276.598C168.989 276.698 169.289 276.698 169.489 276.598ZM251.033 231.898C250.833 231.798 250.433 231.798 250.233 231.898L245.43 234.698C245.23 234.798 245.23 234.998 245.43 235.098L251.033 238.298C251.233 238.398 251.634 238.398 251.834 238.298L256.636 235.498C256.836 235.398 256.836 235.198 256.636 235.098L251.033 231.898ZM287.753 210.698C287.553 210.598 287.153 210.598 286.953 210.698L282.15 213.498C281.95 213.598 281.95 213.798 282.15 213.898L287.753 217.098C287.953 217.198 288.353 217.198 288.553 217.098L293.356 214.298C293.556 214.198 293.556 213.998 293.356 213.898L287.753 210.698ZM300.36 209.798L286.853 201.998C286.652 201.898 286.252 201.898 286.052 201.998L281.25 204.798C281.049 204.898 281.049 205.098 281.25 205.198L294.757 212.998C294.957 213.098 295.357 213.098 295.557 212.998L300.36 210.198C300.66 210.098 300.56 209.898 300.36 209.798ZM224.619 247.098C224.419 246.998 224.019 246.998 223.818 247.098L217.915 250.498C217.715 250.598 217.715 250.798 217.915 250.898L223.518 254.098C223.718 254.198 224.119 254.198 224.319 254.098L230.222 250.698C230.422 250.598 230.422 250.398 230.222 250.298L224.619 247.098ZM242.429 236.798C242.228 236.698 241.828 236.698 241.628 236.798L234.224 241.098C234.024 241.198 234.024 241.398 234.224 241.498L239.827 244.698C240.027 244.798 240.427 244.798 240.628 244.698L248.032 240.398C248.232 240.298 248.232 240.098 248.032 239.998L242.429 236.798ZM208.31 256.498C208.11 256.398 207.71 256.398 207.51 256.498L167.788 279.398C167.588 279.498 167.588 279.698 167.788 279.798L173.391 282.998C173.591 283.098 173.992 283.098 174.192 282.998L213.913 260.098C214.113 259.998 214.113 259.798 213.913 259.698L208.31 256.498ZM166.287 280.698C166.087 280.598 165.687 280.598 165.487 280.698L159.584 284.098C159.384 284.198 159.384 284.398 159.584 284.498L165.187 287.698C165.387 287.798 165.787 287.798 165.987 287.698L171.89 284.298C172.091 284.198 172.091 283.998 171.89 283.898L166.287 280.698ZM216.414 251.798C216.214 251.698 215.814 251.698 215.614 251.798L209.711 255.198C209.511 255.298 209.511 255.498 209.711 255.598L215.314 258.798C215.514 258.898 215.914 258.898 216.114 258.798L222.017 255.398C222.218 255.298 222.218 255.098 222.017 254.998L216.414 251.798ZM158.183 285.398C157.983 285.298 157.583 285.298 157.383 285.398L151.479 288.798C151.279 288.898 151.279 289.098 151.479 289.198L157.082 292.398C157.282 292.498 157.683 292.498 157.883 292.398L163.786 288.998C163.986 288.898 163.986 288.698 163.786 288.598L158.183 285.398ZM232.823 242.398C232.623 242.298 232.223 242.298 232.023 242.398L226.12 245.798C225.92 245.898 225.92 246.098 226.12 246.198L231.723 249.398C231.923 249.498 232.323 249.498 232.523 249.398L238.426 245.998C238.626 245.898 238.626 245.698 238.426 245.598L232.823 242.398ZM258.037 227.798C257.837 227.698 257.437 227.698 257.237 227.798L252.434 230.598C252.234 230.698 252.234 230.898 252.434 230.998L258.037 234.198C258.237 234.298 258.637 234.298 258.837 234.198L263.64 231.398C263.84 231.298 263.84 231.098 263.64 230.998L258.037 227.798ZM273.545 216.598L278.348 213.798C278.548 213.698 278.548 213.498 278.348 213.398L272.745 210.198C272.545 210.098 272.145 210.098 271.944 210.198L267.142 212.998C266.942 213.098 266.942 213.298 267.142 213.398L272.745 216.598C272.945 216.698 273.345 216.698 273.545 216.598ZM241.928 216.398L246.731 213.598C246.931 213.498 246.931 213.298 246.731 213.198L241.128 209.998C240.928 209.898 240.528 209.898 240.327 209.998L235.525 212.798C235.325 212.898 235.325 213.098 235.525 213.198L241.128 216.398C241.428 216.498 241.728 216.498 241.928 216.398ZM226.02 243.998L240.127 235.898C240.327 235.798 240.327 235.598 240.127 235.498L234.524 232.298C234.324 232.198 233.924 232.198 233.724 232.298L219.616 240.398C219.416 240.498 219.416 240.698 219.616 240.798L225.219 243.998C225.419 244.098 225.719 244.098 226.02 243.998ZM265.641 220.598C265.841 220.698 266.241 220.698 266.442 220.598L271.244 217.798C271.444 217.698 271.444 217.498 271.244 217.398L265.641 214.198C265.441 214.098 265.041 214.098 264.841 214.198L260.038 216.998C259.838 217.098 259.838 217.298 260.038 217.398L265.641 220.598ZM258.437 215.998L263.24 213.198C263.44 213.098 263.44 212.898 263.24 212.798L257.637 209.598C257.437 209.498 257.036 209.498 256.836 209.598L252.034 212.398C251.834 212.498 251.834 212.698 252.034 212.798L257.637 215.998C257.937 216.198 258.237 216.198 258.437 215.998ZM218.916 248.098L223.718 245.298C223.919 245.198 223.919 244.998 223.718 244.898L218.115 241.698C217.915 241.598 217.515 241.598 217.315 241.698L212.512 244.498C212.312 244.598 212.312 244.798 212.512 244.898L218.115 248.098C218.416 248.198 218.716 248.198 218.916 248.098ZM250.133 229.598C250.333 229.698 250.733 229.698 250.933 229.598L255.736 226.798C255.936 226.698 255.936 226.498 255.736 226.398L250.133 223.198C249.933 223.098 249.532 223.098 249.332 223.198L244.53 225.998C244.33 226.098 244.33 226.298 244.53 226.398L250.133 229.598ZM183.597 268.398L188.399 265.598C188.599 265.498 188.599 265.298 188.399 265.198L182.796 261.998C182.596 261.898 182.196 261.898 181.996 261.998L177.193 264.798C176.993 264.898 176.993 265.098 177.193 265.198L182.796 268.398C183.096 268.498 183.397 268.598 183.597 268.398ZM190.701 264.398L195.503 261.598C195.703 261.498 195.703 261.298 195.503 261.198L189.9 257.998C189.7 257.898 189.3 257.898 189.1 257.998L184.297 260.798C184.097 260.898 184.097 261.098 184.297 261.198L189.9 264.398C190.1 264.498 190.5 264.498 190.701 264.398ZM176.593 272.498L181.396 269.698C181.596 269.598 181.596 269.398 181.396 269.298L175.792 266.098C175.592 265.998 175.192 265.998 174.992 266.098L170.189 268.898C169.989 268.998 169.989 269.198 170.189 269.298L175.792 272.498C175.993 272.598 176.393 272.598 176.593 272.498ZM204.808 256.198L209.611 253.398C209.811 253.298 209.811 253.098 209.611 252.998L204.008 249.798C203.808 249.698 203.407 249.698 203.207 249.798L198.405 252.598C198.205 252.698 198.205 252.898 198.405 252.998L204.008 256.198C204.308 256.298 204.608 256.298 204.808 256.198ZM197.704 260.298L202.507 257.498C202.707 257.398 202.707 257.198 202.507 257.098L196.904 253.898C196.704 253.798 196.304 253.798 196.103 253.898L191.301 256.698C191.101 256.798 191.101 256.998 191.301 257.098L196.904 260.298C197.204 260.398 197.504 260.398 197.704 260.298ZM211.912 252.098L216.715 249.298C216.915 249.198 216.915 248.998 216.715 248.898L211.112 245.698C210.911 245.598 210.511 245.598 210.311 245.698L205.509 248.498C205.308 248.598 205.308 248.798 205.509 248.898L211.112 252.098C211.312 252.298 211.612 252.298 211.912 252.098ZM244.129 191.898C244.33 191.998 244.73 191.998 244.93 191.898L249.732 189.098C249.933 188.998 249.933 188.798 249.732 188.698L248.232 187.798C248.032 187.698 247.631 187.698 247.431 187.798L242.629 190.598C242.429 190.698 242.429 190.898 242.629 190.998L244.129 191.898ZM209.411 214.298C209.611 214.398 210.011 214.398 210.211 214.298L215.014 211.498C215.214 211.398 215.214 211.198 215.014 211.098L209.411 207.898C209.211 207.798 208.81 207.798 208.61 207.898L203.808 210.698C203.608 210.798 203.608 210.998 203.808 211.098L209.411 214.298ZM223.518 206.198C223.718 206.298 224.119 206.298 224.319 206.198L229.121 203.398C229.321 203.298 229.321 203.098 229.121 202.998L223.518 199.798C223.318 199.698 222.918 199.698 222.718 199.798L217.915 202.598C217.715 202.698 217.715 202.898 217.915 202.998L223.518 206.198ZM200.806 219.298C201.006 219.398 201.406 219.398 201.606 219.298L206.409 216.498C206.609 216.398 206.609 216.198 206.409 216.098L200.806 212.898C200.606 212.798 200.206 212.798 200.006 212.898L195.203 215.698C195.003 215.798 195.003 215.998 195.203 216.098L200.806 219.298ZM216.515 210.198C216.715 210.298 217.115 210.298 217.315 210.198L222.118 207.398C222.318 207.298 222.318 207.098 222.118 206.998L216.515 203.798C216.314 203.698 215.914 203.698 215.714 203.798L210.911 206.598C210.711 206.698 210.711 206.898 210.911 206.998L216.515 210.198ZM186.698 227.398C186.899 227.498 187.299 227.498 187.499 227.398L192.301 224.598C192.502 224.498 192.502 224.298 192.301 224.198L186.698 220.998C186.498 220.898 186.098 220.898 185.898 220.998L181.095 223.798C180.895 223.898 180.895 224.098 181.095 224.198L186.698 227.398ZM193.802 223.398C194.002 223.498 194.403 223.498 194.603 223.398L199.405 220.598C199.605 220.498 199.605 220.298 199.405 220.198L193.802 216.998C193.602 216.898 193.202 216.898 193.002 216.998L188.199 219.798C187.999 219.898 187.999 220.098 188.199 220.198L193.802 223.398ZM230.022 200.098C230.222 200.198 230.622 200.198 230.822 200.098L235.625 197.298C235.825 197.198 235.825 196.998 235.625 196.898L234.124 195.998C233.924 195.898 233.524 195.898 233.324 195.998L228.521 198.798C228.321 198.898 228.321 199.098 228.521 199.198L230.022 200.098ZM251.233 187.898C251.433 187.998 251.834 187.998 252.034 187.898L256.836 185.098C257.036 184.998 257.036 184.798 256.836 184.698L255.336 183.798C255.135 183.698 254.735 183.698 254.535 183.798L249.732 186.598C249.532 186.698 249.532 186.898 249.732 186.998L251.233 187.898ZM262.94 194.598C263.14 194.698 263.54 194.698 263.74 194.598L268.543 191.798C268.743 191.698 268.743 191.498 268.543 191.398L262.94 188.198C262.74 188.098 262.339 188.098 262.139 188.198L257.337 190.998C257.136 191.098 257.136 191.298 257.337 191.398L262.94 194.598ZM280.549 212.498L285.352 209.698C285.552 209.598 285.552 209.398 285.352 209.298L279.749 206.098C279.549 205.998 279.148 205.998 278.948 206.098L274.146 208.898C273.946 208.998 273.946 209.198 274.146 209.298L279.749 212.498C280.049 212.598 280.349 212.598 280.549 212.498ZM237.126 195.998C237.326 196.098 237.726 196.098 237.926 195.998L242.729 193.198C242.929 193.098 242.929 192.898 242.729 192.798L241.228 191.898C241.028 191.798 240.628 191.798 240.427 191.898L235.625 194.698C235.425 194.798 235.425 194.998 235.625 195.098L237.126 195.998ZM179.695 231.498C179.895 231.598 180.295 231.598 180.495 231.498L185.298 228.698C185.498 228.598 185.498 228.398 185.298 228.298L179.695 225.098C179.495 224.998 179.094 224.998 178.894 225.098L174.092 227.898C173.891 227.998 173.891 228.198 174.092 228.298L179.695 231.498Z" fill="#455A64"/>
<path d="M210.912 273.799L258.538 246.299C259.938 245.499 262.34 245.499 263.74 246.299L291.055 262.099C292.456 262.899 292.456 264.299 291.055 265.099L243.429 292.599C242.029 293.399 239.627 293.399 238.227 292.599L210.912 276.799C209.511 275.999 209.511 274.699 210.912 273.799Z" fill="#263238"/>
<path opacity="0.4" d="M318.573 128.2C318.273 128 317.773 128.2 317.172 128.6C309.668 134.3 298.762 134.6 292.459 128.8C298.462 130.7 305.766 129.4 311.269 125.2C311.869 124.7 312.37 124.6 312.67 124.8L318.573 128.2Z" fill="white"/>
<path d="M211.516 182.202C211.516 182.102 211.616 182.102 211.616 182.102C211.616 182.102 211.616 182.102 211.516 182.202Z" fill="#27DEBF"/>
<path d="M394.713 256.6C395.413 230.6 393.312 224.3 386.409 219.5L383.707 234.6C383.707 234.6 386.909 252.4 386.509 258.3C386.208 263.5 385.708 270 384.508 274.2C384.307 274.9 383.807 275.6 383.107 276C381.306 277.1 380.605 278.2 379.305 279.6C378.304 280.7 377.404 281 377.504 281.3C377.704 281.7 378.404 282.5 379.705 282.1C380.305 281.9 381.206 281.4 382.206 280.7C382.206 280.7 381.506 282.9 379.605 285.1C377.104 288.1 377.003 290 382.006 290C385.108 290 387.609 288.1 390.01 281.2C390.711 279.2 391.711 276.1 392.212 273.4C393.512 266.7 394.613 260.8 394.713 256.6Z" fill="#B16668"/>
<path d="M380.605 217.498C383.907 216.998 388.41 217.698 391.311 222.898C394.213 228.098 394.913 236.998 395.213 245.898C395.213 245.898 389.41 250.698 382.506 248.398L380.605 217.498Z" fill="#27DEBF"/>
<path opacity="0.7" d="M380.605 217.498C383.907 216.998 388.41 217.698 391.311 222.898C394.213 228.098 394.913 236.998 395.213 245.898C395.213 245.898 389.41 250.698 382.506 248.398L380.605 217.498Z" fill="black"/>
<path d="M390.31 360.799C390.81 360.999 391.01 361.999 391.01 363.999C391.11 365.499 391.41 368.099 389.61 368.699C387.809 369.199 385.307 368.999 384.107 367.499C382.706 365.699 381.705 364.199 379.704 361.999C378.003 360.099 376.102 358.399 375.402 355.699C374.802 353.299 375.302 352.299 376.903 351.599C379.104 350.599 382.606 353.799 384.407 354.199C386.008 354.699 389.81 360.599 390.31 360.799Z" fill="#263238"/>
<path d="M390.308 358.9V361.3C390.308 361.3 387.806 363.3 384.104 361.5C384.004 361.3 383.504 358 383.504 358L390.308 358.9Z" fill="#B16668"/>
<path d="M370.498 374.898C370.498 374.898 371.198 376.998 371.599 378.898C371.899 380.398 372.299 382.798 371.799 383.998C371.298 385.098 369.297 385.798 366.096 385.798C364.095 385.798 360.893 387.198 358.792 388.398C356.59 389.598 351.888 390.098 349.587 389.898C346.785 389.598 343.884 387.998 343.483 386.798C342.983 385.598 343.583 384.398 350.187 381.698C350.287 381.698 359.292 378.698 362.494 375.198L370.498 374.898Z" fill="#263238"/>
<path d="M370.499 372.199C370.499 372.199 370.499 373.999 370.499 375.099C370.499 376.099 369.299 377.699 366.097 377.599C363.896 377.499 362.295 376.899 362.395 375.099V372.499L370.499 372.199Z" fill="#B16668"/>
<path d="M391.911 326.499C390.81 318.499 389.009 313.799 389.009 313.799C389.009 313.799 389.909 302.799 390.31 292.399C390.81 281.199 390.31 266.999 390.51 264.199C390.51 264.199 354.19 256.899 353.59 269.899C352.989 282.899 354.991 315.999 355.491 321.699C355.891 327.399 356.892 332.499 358.092 341.699C359.293 350.799 362.495 372.399 362.495 372.399C366.597 374.599 370.599 372.199 370.599 372.199C370.599 372.199 373.2 346.199 372.9 339.599C372.6 331.599 370.399 325.199 370.399 325.199C370.399 325.199 371.099 314.499 371.7 305.199C372.3 295.899 373 291.399 373.1 287.299L373.901 286.899C373.901 286.899 374.701 302.999 375.101 308.699C375.502 314.399 376.402 319.899 378.103 330.499C379.504 339.699 383.806 359.199 383.806 359.199C387.908 361.399 390.41 358.899 390.41 358.899C390.41 358.899 393.011 334.499 391.911 326.499Z" fill="#37474F"/>
<path d="M372.998 287.3C372.998 287.3 381.803 283 386.205 279C386.205 279 382.103 284.8 376.7 287.3C376.7 287.3 374.799 307.3 374.799 306.9L373.698 287.2L372.998 287.3Z" fill="#263238"/>
<path d="M365.195 213.4L367.296 225.2L378.002 224.4L375.701 211L365.195 213.4Z" fill="#B16668"/>
<path d="M389.306 223.598C388.205 220.398 384.203 216.898 380.101 217.598C372.597 218.998 366.693 220.498 362.191 222.098C358.489 223.398 355.087 226.698 354.787 238.898C354.787 238.898 353.486 267.498 353.486 273.098C362.891 276.798 372.597 276.698 378 275.498C389.206 272.998 390.606 268.398 390.606 268.398C390.606 268.398 390.706 247.798 390.406 238.898C390.106 231.398 390.006 225.798 389.306 223.598Z" fill="#A2D5E9"/>
<g opacity="0.15">
<path d="M390.208 223.7C389.107 220.5 385.105 217 381.003 217.7C373.499 219.1 367.596 220.6 363.093 222.2C359.391 223.5 355.99 226.8 355.689 239C355.689 239 354.389 267.6 354.389 273.2C363.794 276.9 373.499 276.8 378.902 275.6C390.108 273.1 391.509 268.5 391.509 268.5C391.509 268.5 391.609 247.9 391.309 239C391.109 231.5 391.008 225.9 390.208 223.7Z" fill="black"/>
</g>
<path d="M356.891 199C356.891 199 354.19 203.3 354.49 203.7C354.79 204.1 356.891 204.4 356.891 204.4V199Z" fill="#9A4A4D"/>
<path d="M364.394 187.098C358.791 188.398 357.19 190.998 356.79 199.998C356.49 209.398 357.49 212.398 358.691 213.598C359.592 214.398 364.194 214.498 366.495 213.798C369.397 212.898 376 210.398 379.002 205.598C382.504 199.898 383.304 192.398 379.302 189.398C373.899 185.098 366.695 186.498 364.394 187.098Z" fill="#B16668"/>
<path d="M356.895 189.399C358.595 192.199 362.197 193.599 362.197 193.599C363.298 194.799 362.698 199.599 364.599 200.399C364.599 200.399 365.399 196.899 368.401 197.299C371.402 197.699 371.803 201.399 370.002 203.799C368.201 206.099 366.4 205.299 366.4 205.299C366.4 205.299 366.6 210.299 368.901 212.999C368.901 212.999 371.402 213.799 376.005 212.699C378.806 211.999 382.809 208.399 384.409 204.599C387.811 196.599 387.911 189.399 382.809 187.399C382.208 183.799 379.307 182.199 376.005 181.499C368.901 179.999 364.299 184.499 358.796 184.099C355.594 183.799 354.994 186.099 356.895 189.399Z" fill="#263238"/>
<path d="M382.805 188.598L386.107 186.498C385.507 185.598 384.306 185.298 383.405 185.898C382.605 186.498 382.305 187.698 382.805 188.598Z" fill="#263238"/>
<path d="M316.97 243.398C318.771 244.198 339.382 259.498 342.684 257.698C345.886 255.898 362.495 236.598 362.495 236.598C367.298 228.598 362.495 222.098 362.495 222.098C362.495 222.098 357.192 223.098 354.391 227.298C351.589 231.498 339.583 246.498 339.583 246.498C336.581 244.998 333.679 243.498 330.678 241.998C328.276 240.698 325.775 239.498 323.474 238.098C322.874 237.798 322.073 237.398 321.573 236.998C320.372 235.798 320.572 232.998 320.672 231.498C320.672 230.798 320.672 230.098 320.772 229.398C320.872 228.498 321.073 226.398 319.472 227.098C319.172 227.198 318.971 227.498 318.771 227.698C318.571 227.998 318.371 228.398 318.171 228.798C317.871 229.698 317.971 230.698 317.671 231.698C317.671 231.798 317.571 231.998 317.471 232.098C317.371 232.198 317.17 232.298 316.97 232.298C314.669 232.198 312.568 228.998 311.467 227.298C310.967 226.498 310.567 225.698 309.766 225.298C308.566 224.698 307.065 225.598 306.265 226.698C305.264 228.098 304.964 229.998 305.164 231.698C305.464 234.098 306.365 236.398 308.166 237.998C310.767 240.298 313.669 241.898 316.97 243.398Z" fill="#B16668"/>
<path d="M364.196 221.398C361.895 221.698 358.093 221.798 354.391 225.998C350.088 230.898 344.285 238.898 344.285 238.898C344.285 238.898 345.886 246.698 354.291 248.298C354.291 248.298 362.095 240.298 364.296 235.898C366.497 231.598 366.797 224.398 364.196 221.398Z" fill="#27DEBF"/>
<path opacity="0.7" d="M364.196 221.398C361.895 221.698 358.093 221.798 354.391 225.998C350.088 230.898 344.285 238.898 344.285 238.898C344.285 238.898 345.886 246.698 354.291 248.298C354.291 248.298 362.095 240.298 364.296 235.898C366.497 231.598 366.797 224.398 364.196 221.398Z" fill="black"/>
<path d="M421.627 135.198L395.113 92.0984C393.612 89.4984 390.811 87.8984 387.809 87.8984C384.807 87.8984 382.006 89.4984 380.505 91.9984L353.991 134.998C353.09 136.298 352.59 137.898 352.59 139.598C352.59 144.298 356.492 148.198 361.195 148.198H414.323C419.026 148.198 422.928 144.398 422.928 139.598C422.928 137.898 422.528 136.398 421.627 135.198ZM387.809 140.598C385.007 140.598 382.806 138.398 382.806 135.598C382.806 132.798 385.007 130.598 387.809 130.598C390.61 130.598 392.812 132.798 392.812 135.598C392.812 138.398 390.61 140.598 387.809 140.598ZM392.812 120.598C392.812 123.398 390.61 125.598 387.809 125.598C385.007 125.598 382.806 123.398 382.806 120.598V105.498C382.806 102.698 385.007 100.498 387.809 100.498C390.61 100.498 392.812 102.698 392.812 105.498V120.598Z" fill="#EF7B7B"/>
<path opacity="0.6" d="M302.463 72.8984V102.998H361.995L372 86.7984C375.202 81.3984 381.306 77.8984 387.909 77.8984C389.61 77.8984 391.311 78.1984 392.912 78.5984V72.8984H302.463Z" fill="#A2D5E9"/>
<path opacity="0.6" d="M355.792 113H302.463V134.3C302.463 141.9 308.666 148.1 316.27 148.1H344.786C343.385 145.5 342.685 142.6 342.685 139.6C342.685 135.9 343.785 132.4 345.786 129.4L355.792 113Z" fill="#A2D5E9"/>
<path opacity="0.6" d="M379.004 27.6992H316.27C308.666 27.6992 302.463 33.8992 302.463 41.4992V62.7992H392.812V41.4992C392.812 33.8992 386.608 27.6992 379.004 27.6992ZM319.972 52.7992C315.77 52.7992 312.468 49.3992 312.468 45.2992C312.468 41.1992 315.87 37.7992 319.972 37.7992C324.175 37.7992 327.476 41.1992 327.476 45.2992C327.476 49.3992 324.175 52.7992 319.972 52.7992ZM345.086 52.7992C340.884 52.7992 337.582 49.3992 337.582 45.2992C337.582 41.1992 340.984 37.7992 345.086 37.7992C349.288 37.7992 352.59 41.1992 352.59 45.2992C352.59 49.3992 349.288 52.7992 345.086 52.7992ZM370.2 52.7992C365.997 52.7992 362.695 49.3992 362.695 45.2992C362.695 41.1992 366.097 37.7992 370.2 37.7992C374.402 37.7992 377.704 41.1992 377.704 45.2992C377.704 49.3992 374.402 52.7992 370.2 52.7992Z" fill="#002866"/>
</g>
<defs>
<clipPath id="clip0_17701_34223">
<rect width="463" height="451" fill="white"/>
</clipPath>
</defs>
</svg>
