<?xml version="1.0" encoding="utf-8"?>
<!-- Generator: Adobe Illustrator 19.0.0, SVG Export Plug-In . SVG Version: 6.00 Build 0)  -->
<svg version="1.1" id="Layer_1" xmlns="http://www.w3.org/2000/svg" xmlns:xlink="http://www.w3.org/1999/xlink" x="0px" y="0px"
	 viewBox="-461 269 35.4 23" style="enable-background:new -461 269 35.4 23;" xml:space="preserve">
<style type="text/css">
	.st0{fill:url(#SVGID_1_);}
	.st1{fill:#FFFFFF;}
</style>
<linearGradient id="SVGID_1_" gradientUnits="userSpaceOnUse" x1="-460.5783" y1="280.5" x2="-426.1283" y2="280.5">
	<stop  offset="0" style="stop-color:#6B195F"/>
	<stop  offset="1" style="stop-color:#4C255B"/>
</linearGradient>
<path class="st0" d="M-428.4,291.6h-30c-1.2,0-2.2-1-2.2-2.2v-17.8c0-1.2,1-2.2,2.2-2.2h30c1.2,0,2.2,1,2.2,2.2v17.8
	C-426.1,290.6-427.2,291.6-428.4,291.6z"/>
<g id="Page-1">
	<g id="skrill-logo-web-1-rgb">
		<path id="Fill-1" class="st1" d="M-436.7,277.8c0.7,0,1.3-0.6,1.3-1.3c0-0.7-0.6-1.3-1.3-1.3c-0.7,0-1.3,0.6-1.3,1.3
			C-437.9,277.2-437.4,277.8-436.7,277.8L-436.7,277.8z M-446.3,278.5c-0.1,0.1-0.5,1.3-1.5,2.5v-5.1l-2.6,0.5v9.3h2.6v-2.9
			c0.8,1.1,1.1,2.9,1.1,2.9h3.1c-0.3-1.3-1.7-3.7-1.7-3.7c1.2-1.6,1.8-3.2,1.8-3.5H-446.3L-446.3,278.5z M-439.4,278.4
			c-2.4,0.1-3.5,1.1-3.5,3.2v4h2.6v-3.3c0-1.3,0.2-1.8,1.7-1.8v-2.1C-439,278.3-439.4,278.4-439.4,278.4L-439.4,278.4z
			 M-454.8,279.5c-0.3,0-1.1-0.1-1.1-0.7c0-0.8,1.1-0.8,1.5-0.8c0.7,0,1.6,0.2,2.3,0.4c0,0,0.4,0.1,0.7,0.3l0,0v-2.2l0,0
			c-0.8-0.3-1.7-0.5-3.3-0.5c-2.9,0-3.9,1.7-3.9,3.1c0,0.8,0.4,2.8,3.6,3c0.3,0,1,0.1,1,0.8c0,0.6-0.6,0.9-1.6,0.9
			c-1.1,0-2.2-0.3-2.9-0.6v2.3c1,0.3,2.1,0.4,3.4,0.4c2.8,0,4.1-1.6,4.1-3.2C-451,280.8-452.4,279.6-454.8,279.5L-454.8,279.5z
			 M-437.9,285.6h2.5v-7.1h-2.5V285.6z M-430.6,276.3v9.3h2.5v-9.8L-430.6,276.3L-430.6,276.3z M-434.3,276.3l2.5-0.5v9.8h-2.5
			V276.3L-434.3,276.3z"/>
	</g>
</g>
</svg>
