<svg width="500" height="316" viewBox="0 0 500 316" fill="none" xmlns="http://www.w3.org/2000/svg">
<g clip-path="url(#clip0_11774_30333)">
<path d="M337.339 35.9648L337.244 38.3476H338.34V35.9648" fill="#232E5D"/>
<path d="M329.242 34.5352V36.632L333.91 37.5374L333.815 35.4883" fill="#232E5D"/>
<path d="M337.53 20.8578L304.758 27.6248C303.282 27.8631 303.472 28.8639 303.472 28.8639L303.377 33.0575L304.854 32.0091L304.901 30.0552C304.901 29.6263 305.139 29.2928 305.52 29.1021C306.807 28.5779 309.522 28.0537 310.188 27.9584C310.284 27.9584 310.331 28.0061 310.331 28.1014L310.284 29.5787C309.522 29.817 309.188 30.2935 309.045 30.7224C308.855 31.1513 308.807 31.6755 309.045 32.1997C309.283 32.8192 309.855 33.3435 310.522 33.4388C311.808 33.677 312.904 32.7239 312.951 31.4849C312.951 30.9607 312.761 30.5318 312.475 30.1505C312.237 29.7693 311.903 29.674 311.808 29.6263C311.808 29.6263 311.808 29.5787 311.76 29.5787L311.808 27.8154C311.808 27.7201 311.903 27.6248 311.999 27.6248L333.29 23.4788C333.338 23.4788 333.386 23.5265 333.386 23.5741L333.338 27.1483C333.338 27.2436 333.29 27.2912 333.195 27.2912L326.765 28.4826C326.384 28.0537 325.907 27.8154 325.288 27.8154C324.621 27.8154 324.05 28.1014 323.669 28.5779L322.097 27.6248C321.954 27.5295 321.811 27.5295 321.62 27.5772L316.333 29.1498C316.19 29.1974 316.095 29.2928 316.095 29.4357L316.047 32.438L317.476 32.6286L317.524 30.6748C317.524 30.5318 317.619 30.4365 317.762 30.3888L321.716 29.3881C321.906 29.3404 322.097 29.3881 322.24 29.4834L323.335 30.1505C323.43 31.1513 324.288 31.9138 325.288 31.9138C326.336 31.9138 327.241 31.1513 327.336 30.1029L333.29 28.9592C334.91 28.7209 334.862 27.8154 334.862 27.8154L334.958 24.003C334.958 23.5265 335.243 23.1452 335.672 22.9546H335.72C336.529 22.6687 337.339 22.764 337.339 23.6218L337.244 28.6256C337.244 28.8162 337.149 28.9592 336.958 29.0068L332.671 30.5794C332.528 30.6271 332.481 30.7701 332.481 30.8654L332.433 33.9153C332.433 34.0106 332.338 34.0583 332.29 34.0583L330.909 34.0106C330.814 34.0106 330.718 33.9153 330.718 33.82L330.766 32.438C330.766 32.3427 330.671 32.2474 330.575 32.2474H329.527C329.432 32.2474 329.289 32.3427 329.289 32.438L329.242 34.5348L333.624 35.3926L333.672 31.9138C333.672 31.7708 333.767 31.6755 333.862 31.6279L336.768 30.5794C336.911 30.5318 337.053 30.6271 337.053 30.7701L336.958 35.8692H338.292L338.53 21.9062C338.625 20.5718 337.53 20.8578 337.53 20.8578Z" fill="#067FAA"/>
<path d="M311.809 31.482C311.809 31.9109 311.428 32.2922 310.999 32.2922C310.571 32.2922 310.189 31.9109 310.189 31.482C310.189 31.0531 310.571 30.6719 310.999 30.6719C311.428 30.6719 311.809 31.0055 311.809 31.482Z" fill="white"/>
<path d="M326.194 29.8664C326.194 30.3429 325.765 30.7242 325.289 30.7242C324.813 30.7242 324.432 30.2953 324.432 29.8187C324.432 29.3422 324.86 28.9609 325.337 28.9609C325.813 28.9609 326.194 29.3898 326.194 29.8664Z" fill="white"/>
<path d="M301.758 34.1511C301.758 33.0073 302.329 31.8636 303.33 31.2918C303.997 30.8629 304.997 30.6722 306.283 31.0058L336.149 35.1518C336.149 35.1518 336.292 35.1518 336.578 35.1995C339.721 35.676 342.008 38.3924 342.008 41.5853V46.5891L335.149 45.9696C334.672 45.9219 334.244 45.9696 333.815 46.1602C333.196 46.3985 332.481 47.2563 332.481 48.4477C332.481 48.4477 332.243 51.1163 334.815 51.1163L342.008 51.7359V58.6935C342.008 59.456 341.817 60.1708 341.341 60.7904C340.674 61.6958 339.293 62.506 336.53 61.8864C331.481 60.7427 306.188 58.074 306.188 58.074C306.188 58.074 301.758 57.3592 301.758 52.3077V34.1511Z" fill="white"/>
<path d="M317.428 50.1633C317.428 50.6398 317 51.0211 316.523 51.0211C316.047 51.0211 315.666 50.5922 315.666 50.1156C315.666 49.6391 316.095 49.2578 316.571 49.2578C317.047 49.3055 317.428 49.6867 317.428 50.1633Z" fill="white"/>
<path d="M309.856 47.8312C309.856 48.3078 309.427 48.689 308.951 48.689C308.475 48.689 308.094 48.2601 308.094 47.7836C308.094 47.307 308.522 46.9258 308.999 46.9258C309.523 46.9258 309.904 47.3547 309.856 47.8312Z" fill="white"/>
<path d="M341.721 48.8293C341.959 49.7824 341.102 50.6402 340.149 50.4019C339.673 50.3066 339.339 49.9254 339.196 49.4488C338.958 48.4957 339.816 47.6379 340.768 47.8762C341.245 47.9715 341.626 48.3527 341.721 48.8293Z" fill="#067FAA"/>
<path d="M310.999 47.7836C310.999 46.6398 310.094 45.7344 308.951 45.7344C307.807 45.7344 306.902 46.6398 306.902 47.7836C306.902 48.689 307.474 49.4038 308.284 49.6898V58.2677C308.712 58.2677 309.093 58.363 309.522 58.363V49.6898C310.38 49.4515 310.999 48.689 310.999 47.7836ZM308.951 48.6413C308.474 48.6413 308.093 48.2601 308.093 47.7836C308.093 47.307 308.474 46.9258 308.951 46.9258C309.427 46.9258 309.808 47.307 309.808 47.7836C309.808 48.2601 309.427 48.6413 308.951 48.6413Z" fill="#067FAA"/>
<path d="M308.332 58.3141L309.57 58.4094L308.332 58.2188" fill="#067FAA"/>
<path d="M316.524 48.1641C315.428 48.1641 314.523 49.0695 314.523 50.1656C314.523 50.4992 314.618 50.7851 314.714 51.0234L312.094 53.3585V58.5053V58.6482L313.189 58.7912V54.0257L315.571 51.8812C315.857 52.0241 316.19 52.1194 316.524 52.1194C317.619 52.1194 318.524 51.214 318.524 50.1179C318.524 49.0695 317.619 48.1641 316.524 48.1641ZM316.524 51.0234C316.047 51.0234 315.666 50.6421 315.666 50.1656C315.666 49.689 316.047 49.3078 316.524 49.3078C317 49.3078 317.381 49.689 317.381 50.1656C317.381 50.6421 317 51.0234 316.524 51.0234Z" fill="#067FAA"/>
<path d="M362.633 46.2599C362.3 46.7841 361.918 47.2607 361.442 47.7372C360.966 48.1661 360.49 48.5474 359.918 48.881C359.346 49.2146 358.775 49.4528 358.155 49.5958C357.536 49.7864 356.869 49.8341 356.203 49.8341C355.155 49.8341 354.202 49.6435 353.249 49.2622C352.344 48.881 351.535 48.3091 350.82 47.6419C350.153 46.9748 349.582 46.1646 349.201 45.2115C348.819 44.3061 348.629 43.3053 348.629 42.2569C348.629 41.2085 348.819 40.2554 349.201 39.3023C349.582 38.3968 350.153 37.5867 350.82 36.8718C351.487 36.2047 352.297 35.6328 353.249 35.2516C354.154 34.8703 355.155 34.6797 356.203 34.6797C356.869 34.6797 357.536 34.775 358.155 34.918C358.775 35.1086 359.394 35.3469 359.918 35.6328C360.49 35.9664 360.966 36.3476 361.442 36.7765C361.918 37.2054 362.3 37.682 362.633 38.2538L360.156 39.8265C359.775 39.064 359.203 38.4445 358.537 38.0156C357.87 37.539 357.06 37.3484 356.203 37.3484C355.583 37.3484 355.012 37.4914 354.44 37.7296C353.869 37.9679 353.392 38.3491 353.011 38.778C352.582 39.2069 352.297 39.7312 352.058 40.3507C351.82 40.9702 351.677 41.5897 351.677 42.2569C351.677 42.9241 351.82 43.5912 352.058 44.1631C352.297 44.7826 352.63 45.2592 353.011 45.7357C353.44 46.1646 353.916 46.5459 354.44 46.7841C355.012 47.0224 355.583 47.1654 356.203 47.1654C357.06 47.1654 357.87 46.9271 358.537 46.4982C359.203 46.0217 359.775 45.4498 360.156 44.6873L362.633 46.2599Z" fill="white"/>
<path d="M373.97 39.1125V49.6443H371.207V44.3546C371.207 43.9257 371.112 43.5444 370.969 43.2108C370.826 42.8773 370.588 42.5437 370.302 42.2577C370.017 41.9718 369.731 41.7812 369.35 41.6382C368.969 41.4953 368.635 41.3999 368.207 41.3999C367.778 41.3999 367.397 41.4953 367.063 41.6382C366.73 41.7812 366.396 42.0195 366.111 42.2577C365.825 42.496 365.634 42.8296 365.444 43.2108C365.301 43.5921 365.206 43.9733 365.206 44.3546C365.206 44.7358 365.301 45.1171 365.444 45.4983C365.587 45.8319 365.825 46.1655 366.111 46.4514C366.396 46.7373 366.682 46.928 367.063 47.0709C367.397 47.2139 367.778 47.3092 368.207 47.3092C368.635 47.3092 369.016 47.2139 369.302 47.0709V47.1186L370.35 48.9771C369.683 49.5013 368.826 49.7873 367.778 49.7873C367.016 49.7873 366.349 49.6443 365.682 49.3584C365.015 49.0724 364.444 48.6912 363.967 48.2147C363.491 47.7381 363.062 47.1662 362.776 46.4991C362.491 45.8319 362.348 45.1171 362.348 44.4022C362.348 43.6397 362.491 42.9249 362.776 42.2577C363.062 41.5906 363.443 41.0187 363.967 40.5422C364.444 40.0656 365.015 39.6367 365.682 39.3508C366.349 39.0648 367.063 38.9219 367.778 38.9219C368.492 38.9219 369.159 39.0648 369.683 39.3508C370.255 39.6367 370.683 40.0179 371.112 40.5422V39.1125H373.97Z" fill="white"/>
<path d="M381.639 38.9219C382.401 38.9219 383.116 39.0648 383.783 39.3508C384.449 39.6367 385.069 40.0179 385.545 40.5422C386.021 41.0187 386.45 41.6382 386.736 42.3054C387.022 42.9726 387.165 43.6874 387.165 44.4499C387.165 45.2124 387.022 45.9272 386.736 46.642C386.45 47.3092 386.069 47.9287 385.545 48.4053C385.069 48.8818 384.449 49.3107 383.783 49.5967C383.116 49.8826 382.401 50.0256 381.639 50.0256C380.591 50.0256 379.734 49.7396 379.019 49.1678L380.067 47.2616C380.448 47.4522 380.829 47.4998 381.21 47.4998C381.639 47.4998 382.02 47.4045 382.354 47.2616C382.735 47.1186 383.02 46.8803 383.306 46.5944C383.592 46.3084 383.783 45.9749 383.973 45.6413C384.116 45.26 384.211 44.8788 384.211 44.4499C384.211 44.021 384.116 43.6398 383.973 43.3062C383.83 42.9249 383.592 42.639 383.306 42.3531C383.02 42.0671 382.735 41.8765 382.354 41.7335C381.973 41.5906 381.591 41.4953 381.21 41.4953C380.782 41.4953 380.401 41.5906 380.02 41.7335C379.639 41.8765 379.353 42.1148 379.067 42.3531C378.781 42.639 378.591 42.9249 378.448 43.3062C378.305 43.6874 378.21 44.0686 378.21 44.4499V53.9333H375.352V39.1602H378.21V40.5898C379.067 39.4461 380.162 38.9219 381.639 38.9219Z" fill="white"/>
<path d="M391.021 34.8711H388.211V37.3492H391.021V34.8711Z" fill="white"/>
<path d="M391.021 39.1094H388.211V49.6889H391.021V39.1094Z" fill="white"/>
<path d="M396.406 46.0725C396.406 46.406 396.501 46.692 396.739 46.8826C396.977 47.1209 397.263 47.2162 397.597 47.2162H399.645V49.6466H397.597C397.025 49.6466 396.549 49.5513 396.025 49.3607C395.548 49.1701 395.12 48.8841 394.739 48.5029C394.357 48.1216 394.072 47.7404 393.881 47.2638C393.691 46.7873 393.548 46.2631 393.548 45.7389V42.546H392.023V40.2109H393.548V36.3984H396.358V46.0725H396.406Z" fill="white"/>
<path d="M399.643 40.207V42.5421H398.071L396.785 40.207H399.643Z" fill="white"/>
<path d="M412.076 39.1125V49.6443H409.313V44.3546C409.313 43.9257 409.218 43.5444 409.075 43.2108C408.932 42.8773 408.694 42.5437 408.408 42.2577C408.122 41.9718 407.836 41.7812 407.455 41.6382C407.074 41.4953 406.741 41.3999 406.312 41.3999C405.883 41.3999 405.502 41.4953 405.169 41.6382C404.835 41.7812 404.502 42.0195 404.216 42.2577C403.93 42.496 403.74 42.8296 403.549 43.2108C403.406 43.5921 403.311 43.9733 403.311 44.3546C403.311 44.7358 403.406 45.1171 403.549 45.4983C403.692 45.8319 403.93 46.1655 404.216 46.4514C404.502 46.7373 404.788 46.928 405.169 47.0709C405.502 47.2139 405.883 47.3092 406.312 47.3092C406.741 47.3092 407.122 47.2139 407.408 47.0709V47.1186L408.455 48.9771C407.789 49.5013 406.931 49.7873 405.883 49.7873C405.121 49.7873 404.454 49.6443 403.787 49.3584C403.121 49.0724 402.549 48.6912 402.073 48.2147C401.596 47.7381 401.168 47.1662 400.882 46.4991C400.596 45.8319 400.453 45.1171 400.453 44.4022C400.453 43.6397 400.596 42.9249 400.882 42.2577C401.168 41.5906 401.549 41.0187 402.073 40.5422C402.549 40.0656 403.121 39.6367 403.787 39.3508C404.454 39.0648 405.169 38.9219 405.883 38.9219C406.598 38.9219 407.265 39.0648 407.789 39.3508C408.36 39.6367 408.789 40.0179 409.218 40.5422V39.1125H412.076Z" fill="white"/>
<path d="M416.363 34.8711V49.6442H413.553V34.8711H416.363Z" fill="white"/>
<path d="M424.413 34.8711L426.795 44.5928L424.461 47.4998L421.412 34.8711H424.413Z" fill="white"/>
<path d="M437.56 34.8711H440.56L436.94 49.6442H433.082L430.986 40.6374L428.89 49.6442H425.842L429.462 34.8711H432.51L435.035 47.0708L437.56 34.8711Z" fill="white"/>
<path d="M451.372 39.1125V49.6443H448.61V44.3546C448.61 43.9257 448.514 43.5444 448.372 43.2108C448.229 42.8773 447.991 42.5437 447.705 42.2577C447.419 41.9718 447.133 41.7812 446.752 41.6382C446.371 41.4953 446.038 41.3999 445.609 41.3999C445.18 41.3999 444.799 41.4953 444.466 41.6382C444.132 41.7812 443.799 42.0195 443.513 42.2577C443.227 42.496 443.037 42.8296 442.846 43.2108C442.703 43.5921 442.608 43.9733 442.608 44.3546C442.608 44.7358 442.703 45.1171 442.846 45.4983C442.989 45.8319 443.227 46.1655 443.513 46.4514C443.799 46.7373 444.085 46.928 444.466 47.0709C444.799 47.2139 445.18 47.3092 445.609 47.3092C446.038 47.3092 446.419 47.2139 446.704 47.0709V47.1186L447.752 48.9771C447.085 49.5013 446.228 49.7873 445.18 49.7873C444.418 49.7873 443.751 49.6443 443.084 49.3584C442.417 49.0724 441.846 48.6912 441.37 48.2147C440.893 47.7381 440.465 47.1662 440.179 46.4991C439.893 45.8319 439.75 45.1171 439.75 44.4022C439.75 43.6397 439.893 42.9249 440.179 42.2577C440.465 41.5906 440.846 41.0187 441.37 40.5422C441.846 40.0656 442.417 39.6367 443.084 39.3508C443.751 39.0648 444.466 38.9219 445.18 38.9219C445.895 38.9219 446.562 39.0648 447.085 39.3508C447.657 39.6367 448.086 40.0179 448.514 40.5422V39.1125H451.372Z" fill="white"/>
<path d="M455.66 34.8711V49.6442H452.85L452.897 34.8711H455.66Z" fill="white"/>
<path d="M459.756 34.8711V49.6442H456.945V34.8711H459.756Z" fill="white"/>
<path d="M466.282 38.9219C467.044 38.9219 467.711 39.0648 468.378 39.3508C469.045 39.6367 469.616 40.0179 470.093 40.5422C470.569 41.0187 470.998 41.5906 471.284 42.2577C471.569 42.9249 471.712 43.6397 471.712 44.4022C471.712 44.8311 471.665 45.2124 471.569 45.5936V45.6413H466.187L464.853 43.4968H468.854C468.664 42.9249 468.33 42.4007 467.854 42.0195C467.378 41.6382 466.854 41.4476 466.234 41.4476C465.853 41.4476 465.472 41.5429 465.139 41.6859C464.805 41.8288 464.52 42.0671 464.281 42.3054C464.043 42.5437 463.853 42.8773 463.71 43.2108C463.567 43.5921 463.519 43.9733 463.519 44.4022C463.519 44.7358 463.567 45.0694 463.71 45.403C463.853 45.7366 464.043 46.0702 464.281 46.3561C464.52 46.642 464.805 46.8803 465.139 47.0709C465.472 47.2615 465.853 47.3569 466.282 47.3569C466.663 47.3569 466.997 47.3092 467.33 47.2139C467.663 47.1186 467.949 46.8803 468.235 46.4991H468.283L470.712 47.5951L470.664 47.6428C470.14 48.3576 469.521 48.9295 468.711 49.3107C467.949 49.692 467.092 49.9302 466.234 49.9302C465.472 49.9302 464.758 49.7873 464.091 49.5013C463.424 49.2154 462.852 48.8342 462.329 48.3576C461.852 47.8811 461.423 47.3092 461.138 46.642C460.852 45.9749 460.709 45.26 460.709 44.5452C460.709 43.7827 460.852 43.0679 461.138 42.4007C461.423 41.7335 461.805 41.1617 462.329 40.6851C462.805 40.2086 463.424 39.7797 464.091 39.4937C464.805 39.0648 465.52 38.9219 466.282 38.9219Z" fill="white"/>
<path d="M476.904 46.0725C476.904 46.406 476.999 46.692 477.237 46.8826C477.475 47.1209 477.761 47.2162 478.095 47.2162H480.143V49.6466H478.095C477.523 49.6466 477.047 49.5513 476.523 49.3607C476.046 49.1701 475.618 48.8841 475.237 48.5029C474.855 48.1216 474.57 47.7404 474.379 47.2638C474.189 46.7873 474.046 46.2631 474.046 45.7389V42.546H472.521V40.2109H474.046V36.3984H476.856V46.0725H476.904Z" fill="white"/>
<path d="M480.143 40.207V42.5421H478.571L477.285 40.207H480.143Z" fill="white"/>
<path d="M430.844 255.694L420.121 282.097L413.121 282.097L407.846 261.02C407.522 259.727 407.241 259.249 406.268 258.704C404.678 257.811 402.052 256.971 399.738 256.448L399.894 255.697L411.164 255.697C412.603 255.697 413.891 256.678 414.219 258.395L417.001 273.679L423.892 255.704L430.844 255.694ZM458.269 273.48C458.295 266.505 448.917 266.126 448.994 263.01C449.011 262.05 449.888 261.056 451.799 260.797C454.043 260.577 456.304 260.986 458.329 261.978L459.489 256.381C457.515 255.613 455.416 255.215 453.298 255.207C446.744 255.207 442.148 258.807 442.107 263.944C442.066 267.739 445.394 269.858 447.905 271.125C450.483 272.419 451.348 273.254 451.339 274.404C451.322 276.18 449.281 276.958 447.385 276.989C444.054 277.047 442.109 276.067 440.589 275.326L439.39 281.108C440.932 281.845 443.788 282.481 446.754 282.512C453.708 282.512 458.247 278.972 458.264 273.48M475.529 282.099L481.653 282.099L476.313 255.697L470.683 255.697C470.076 255.692 469.483 255.874 468.983 256.218C468.477 256.569 468.088 257.064 467.865 257.638L457.928 282.121L464.882 282.121L466.266 278.184L474.759 278.184L475.529 282.099ZM468.143 272.738L471.654 262.821L473.659 272.743L468.143 272.738ZM440.294 255.68L434.822 282.082L428.223 282.082L433.695 255.68L440.294 255.68Z" fill="white"/>
<path d="M453.545 295.752L453.545 286.799L456.621 286.799C457.154 286.786 457.687 286.828 458.212 286.927C458.694 287.031 459.144 287.251 459.522 287.569C460 287.979 460.364 288.507 460.575 289.101C460.821 289.782 460.94 290.503 460.928 291.227C460.936 291.838 460.855 292.447 460.688 293.034C460.558 293.5 460.353 293.942 460.081 294.342C459.638 294.99 458.964 295.44 458.197 295.6C457.725 295.708 457.242 295.759 456.758 295.752L453.545 295.752ZM454.728 294.696L456.647 294.696C457.114 294.712 457.58 294.656 458.029 294.53C458.33 294.441 458.606 294.282 458.833 294.066C459.136 293.746 459.36 293.36 459.486 292.938C459.657 292.378 459.738 291.794 459.726 291.208C459.726 290.273 459.57 289.553 459.263 289.043C459.015 288.589 458.622 288.232 458.147 288.029C457.651 287.883 457.134 287.821 456.618 287.846L454.742 287.846L454.728 294.696ZM466.849 293.664L467.984 293.803C467.837 294.417 467.487 294.962 466.991 295.35C466.366 295.758 465.625 295.947 464.882 295.888C464.139 295.829 463.436 295.526 462.883 295.025C462.331 294.438 462.055 293.618 462.055 292.565C462.055 291.473 462.336 290.626 462.897 290.025C463.175 289.726 463.513 289.491 463.889 289.335C464.264 289.179 464.669 289.106 465.076 289.12C465.472 289.107 465.867 289.179 466.232 289.332C466.598 289.485 466.927 289.714 467.197 290.006C467.747 290.594 468.022 291.425 468.02 292.497C468.02 292.562 468.02 292.661 468.02 292.791L463.188 292.791C463.186 293.391 463.4 293.972 463.792 294.426C463.965 294.611 464.174 294.758 464.407 294.855C464.64 294.953 464.891 295.001 465.143 294.994C465.513 295.005 465.875 294.893 466.175 294.676C466.499 294.415 466.738 294.062 466.861 293.664L466.849 293.664ZM463.25 291.886L466.849 291.886C466.839 291.445 466.695 291.017 466.436 290.66C466.275 290.456 466.068 290.292 465.832 290.182C465.596 290.072 465.338 290.018 465.078 290.025C464.843 290.019 464.609 290.061 464.39 290.148C464.172 290.235 463.972 290.365 463.804 290.53C463.461 290.898 463.268 291.382 463.262 291.886L463.25 291.886ZM470.376 295.752L469.359 295.752L469.359 286.799L470.46 286.799L470.46 289.994C470.666 289.718 470.934 289.495 471.242 289.343C471.55 289.192 471.89 289.115 472.233 289.12C472.622 289.118 473.007 289.2 473.361 289.361C473.706 289.51 474.008 289.743 474.239 290.039C474.482 290.353 474.665 290.71 474.779 291.09C474.913 291.517 474.979 291.961 474.976 292.408C474.976 293.52 474.701 294.379 474.153 294.987C473.909 295.273 473.607 295.503 473.266 295.66C472.925 295.817 472.553 295.898 472.178 295.896C471.821 295.905 471.468 295.822 471.153 295.653C470.838 295.484 470.572 295.237 470.381 294.934L470.376 295.752ZM470.376 292.461C470.376 293.239 470.482 293.8 470.693 294.145C470.815 294.38 470.994 294.58 471.214 294.727C471.434 294.873 471.687 294.962 471.951 294.985C472.214 295.007 472.478 294.963 472.72 294.856C472.961 294.748 473.172 294.582 473.332 294.371C473.682 293.953 473.858 293.33 473.858 292.502C473.858 291.656 473.687 291.03 473.351 290.629C473.211 290.442 473.03 290.291 472.822 290.187C472.614 290.082 472.384 290.027 472.152 290.025C471.91 290.027 471.673 290.085 471.457 290.194C471.242 290.302 471.054 290.459 470.909 290.653C470.539 291.069 470.364 291.67 470.364 292.461L470.376 292.461ZM476.329 288.065L476.329 286.799L477.418 286.799L477.418 288.065L476.329 288.065ZM476.329 295.761L476.329 289.267L477.418 289.267L477.418 295.761L476.329 295.761ZM481.495 294.777L481.653 295.74C481.381 295.801 481.104 295.834 480.825 295.838C480.505 295.855 480.187 295.789 479.899 295.648C479.695 295.539 479.532 295.364 479.436 295.153C479.319 294.73 479.273 294.29 479.302 293.851L479.302 290.121L478.498 290.121L478.498 289.267L479.302 289.267L479.302 287.66L480.391 287.001L480.391 289.267L481.495 289.267L481.495 290.121L480.391 290.121L480.391 293.914C480.379 294.117 480.398 294.32 480.446 294.518C480.486 294.607 480.552 294.681 480.636 294.732C480.752 294.791 480.882 294.818 481.012 294.811C481.17 294.807 481.327 294.793 481.483 294.768L481.495 294.777Z" fill="white"/>
<path d="M25.0168 48.1949C23.0649 48.1949 21.5232 47.5496 20.3915 46.2589C19.2598 44.9619 18.6939 43.2008 18.6939 40.9756C18.6939 38.7376 19.2566 36.9733 20.3819 35.6827C21.5136 34.392 23.0554 33.7467 25.0072 33.7467C26.5713 33.7467 27.8969 34.2077 28.9841 35.1295C30.0713 36.0451 30.688 37.2213 30.8342 38.6581H28.4119C28.2402 37.8316 27.846 37.1736 27.2293 36.684C26.6126 36.1881 25.8719 35.9402 25.0072 35.9402C23.8374 35.9402 22.9123 36.3916 22.2321 37.2944C21.5518 38.1908 21.2116 39.4147 21.2116 40.966C21.2116 42.5173 21.5518 43.7444 22.2321 44.6472C22.9123 45.55 23.8406 46.0014 25.0168 46.0014C25.8878 46.0014 26.6317 45.7757 27.2484 45.3243C27.8651 44.8666 28.2561 44.253 28.4214 43.4837H30.8437C30.6784 44.8952 30.0617 46.0332 28.9936 46.8979C27.9255 47.7626 26.5999 48.1949 25.0168 48.1949ZM34.1141 47.8516V37.4184H36.3934V39.0396H36.5555C36.7017 38.5183 37.0291 38.0891 37.5378 37.7522C38.0527 37.4152 38.644 37.2467 39.3116 37.2467C39.7376 37.2467 40.065 37.2817 40.2939 37.3516V39.5451C40.0523 39.456 39.6486 39.4115 39.0827 39.4115C38.3134 39.4115 37.6872 39.6341 37.204 40.0791C36.7208 40.5178 36.4792 41.0995 36.4792 41.8243V47.8516H34.1141ZM44.2604 51.6376C43.7709 51.6376 43.4593 51.6249 43.3258 51.5995V49.6635C43.4466 49.689 43.6628 49.7017 43.9743 49.7017C44.4766 49.7017 44.8739 49.5968 45.1664 49.387C45.4652 49.1772 45.6909 48.8338 45.8435 48.357L45.9675 47.8992L42.2386 37.4184H44.8326L47.274 45.5627H47.4361L49.868 37.4184H52.3666L48.5996 48.1853C48.1609 49.476 47.6205 50.3724 46.9784 50.8747C46.3426 51.3833 45.4366 51.6376 44.2604 51.6376ZM60.8727 37.2467C62.1951 37.2467 63.2409 37.7267 64.0102 38.6868C64.7859 39.6468 65.1737 40.9629 65.1737 42.635C65.1737 44.3007 64.7891 45.6168 64.0198 46.5832C63.2568 47.5432 62.2173 48.0232 60.9013 48.0232C60.1574 48.0232 59.5057 47.8706 58.9462 47.5655C58.3931 47.2539 57.983 46.8216 57.716 46.2685H57.5539V51.3229H55.1888V37.4184H57.468V39.1445H57.6302C57.929 38.5532 58.3645 38.0891 58.9367 37.7522C59.5153 37.4152 60.1606 37.2467 60.8727 37.2467ZM60.1288 46.011C60.9489 46.011 61.5879 45.7122 62.0457 45.1145C62.5098 44.5169 62.7419 43.6904 62.7419 42.635C62.7419 41.5796 62.5098 40.753 62.0457 40.1554C61.5879 39.5578 60.9521 39.259 60.1383 39.259C59.3309 39.259 58.6919 39.561 58.2214 40.1649C57.751 40.7689 57.5125 41.5923 57.5062 42.635C57.5125 43.6776 57.7478 44.501 58.2119 45.105C58.6824 45.709 59.3213 46.011 60.1288 46.011ZM69.083 34.8625H71.4386V37.4851H73.6702V39.3734H71.4386V44.4946C71.4386 45.0096 71.553 45.3879 71.7819 45.6295C72.0108 45.8647 72.3732 45.9824 72.8691 45.9824C73.0853 45.9824 73.3523 45.9665 73.6702 45.9347V47.7848C73.276 47.8611 72.8628 47.8992 72.4304 47.8992C71.2351 47.8992 70.3768 47.6799 69.8555 47.2412C69.3405 46.8025 69.083 46.0777 69.083 45.0668V39.3734H67.4332V37.4851H69.083V34.8625ZM81.2225 48.0614C79.6585 48.0614 78.4314 47.5814 77.5414 46.6213C76.6513 45.6549 76.2062 44.3261 76.2062 42.635C76.2062 40.9565 76.6544 39.6341 77.5509 38.6677C78.4473 37.6949 79.6712 37.2086 81.2225 37.2086C82.7802 37.2086 84.0041 37.6918 84.8942 38.6581C85.7906 39.6245 86.2389 40.9501 86.2389 42.635C86.2389 44.3261 85.7906 45.6549 84.8942 46.6213C84.0041 47.5814 82.7802 48.0614 81.2225 48.0614ZM79.3056 45.1813C79.7571 45.7789 80.396 46.0777 81.2225 46.0777C82.0491 46.0777 82.6848 45.7789 83.1299 45.1813C83.5813 44.5773 83.807 43.7285 83.807 42.635C83.807 41.5478 83.5813 40.7022 83.1299 40.0982C82.6785 39.4942 82.0427 39.1922 81.2225 39.1922C80.396 39.1922 79.7571 39.4942 79.3056 40.0982C78.8542 40.7022 78.6285 41.5478 78.6285 42.635C78.6285 43.7285 78.8542 44.5773 79.3056 45.1813ZM95.6406 34.09H100.8C102.847 34.09 104.437 34.6877 105.568 35.8829C106.706 37.0719 107.275 38.7472 107.275 40.9088C107.275 43.115 106.71 44.8252 105.578 46.0396C104.453 47.2476 102.86 47.8516 100.8 47.8516H95.6406V34.09ZM98.101 36.2167V45.7249H100.476C101.849 45.7249 102.908 45.3116 103.651 44.4851C104.395 43.6586 104.767 42.4792 104.767 40.947C104.767 39.4465 104.389 38.283 103.632 37.4565C102.882 36.63 101.83 36.2167 100.476 36.2167H98.101ZM114.99 39.0873C114.284 39.0873 113.702 39.3194 113.245 39.7835C112.787 40.2476 112.533 40.8611 112.482 41.6241H117.393C117.368 40.8484 117.139 40.2317 116.706 39.7739C116.274 39.3162 115.702 39.0873 114.99 39.0873ZM117.412 44.981H119.653C119.431 45.9347 118.906 46.6881 118.08 47.2412C117.26 47.788 116.239 48.0614 115.018 48.0614C113.486 48.0614 112.281 47.5845 111.404 46.6309C110.533 45.6708 110.098 44.3516 110.098 42.6731C110.098 40.9946 110.536 39.6659 111.414 38.6868C112.291 37.7013 113.486 37.2086 114.999 37.2086C116.487 37.2086 117.651 37.6759 118.49 38.6105C119.335 39.5387 119.758 40.8262 119.758 42.4728V43.2358H112.472V43.3598C112.504 44.2308 112.752 44.9206 113.216 45.4292C113.686 45.9315 114.31 46.1826 115.085 46.1826C116.28 46.1826 117.056 45.7821 117.412 44.981ZM128.712 48.0232C127.981 48.0232 127.33 47.8643 126.757 47.5464C126.185 47.2221 125.75 46.7739 125.451 46.2017H125.289V47.8516H123.009V33.3843H125.375V39.0778H125.537C125.81 38.5119 126.23 38.0669 126.796 37.7426C127.361 37.412 128 37.2467 128.712 37.2467C130.035 37.2467 131.078 37.7299 131.841 38.6963C132.61 39.6563 132.994 40.9692 132.994 42.635C132.994 44.2944 132.61 45.6072 131.841 46.5736C131.071 47.54 130.029 48.0232 128.712 48.0232ZM129.866 40.1649C129.409 39.561 128.776 39.259 127.969 39.259C127.161 39.259 126.519 39.5641 126.042 40.1745C125.572 40.7785 125.336 41.5986 125.336 42.635C125.336 43.6776 125.572 44.501 126.042 45.105C126.519 45.709 127.161 46.011 127.969 46.011C128.776 46.011 129.409 45.7122 129.866 45.1145C130.331 44.5105 130.563 43.684 130.563 42.635C130.563 41.5859 130.331 40.7626 129.866 40.1649ZM136.179 47.8516V37.4184H138.535V47.8516H136.179ZM137.352 35.7208C136.926 35.7208 136.576 35.6 136.303 35.3584C136.03 35.1105 135.893 34.7958 135.893 34.4143C135.893 34.0328 136.03 33.7213 136.303 33.4797C136.576 33.2317 136.926 33.1078 137.352 33.1078C137.784 33.1078 138.134 33.2317 138.401 33.4797C138.674 33.7213 138.811 34.0328 138.811 34.4143C138.811 34.7958 138.674 35.1105 138.401 35.3584C138.134 35.6 137.784 35.7208 137.352 35.7208ZM143.007 34.8625H145.362V37.4851H147.594V39.3734H145.362V44.4946C145.362 45.0096 145.477 45.3879 145.705 45.6295C145.934 45.8647 146.297 45.9824 146.793 45.9824C147.009 45.9824 147.276 45.9665 147.594 45.9347V47.7848C147.2 47.8611 146.786 47.8992 146.354 47.8992C145.159 47.8992 144.3 47.6799 143.779 47.2412C143.264 46.8025 143.007 46.0777 143.007 45.0668V39.3734H141.357V37.4851H143.007V34.8625ZM162.717 48.1949C160.766 48.1949 159.224 47.5496 158.092 46.2589C156.96 44.9619 156.395 43.2008 156.395 40.9756C156.395 38.7376 156.957 36.9733 158.083 35.6827C159.214 34.392 160.756 33.7467 162.708 33.7467C164.272 33.7467 165.598 34.2077 166.685 35.1295C167.772 36.0451 168.389 37.2213 168.535 38.6581H166.113C165.941 37.8316 165.547 37.1736 164.93 36.684C164.313 36.1881 163.573 35.9402 162.708 35.9402C161.538 35.9402 160.613 36.3916 159.933 37.2944C159.252 38.1908 158.912 39.4147 158.912 40.966C158.912 42.5173 159.252 43.7444 159.933 44.6472C160.613 45.55 161.541 46.0014 162.717 46.0014C163.588 46.0014 164.332 45.7757 164.949 45.3243C165.566 44.8666 165.957 44.253 166.122 43.4837H168.544C168.379 44.8952 167.762 46.0332 166.694 46.8979C165.626 47.7626 164.301 48.1949 162.717 48.1949ZM175.381 46.1636C176.094 46.1636 176.688 45.9601 177.165 45.5532C177.642 45.1399 177.88 44.6313 177.88 44.0273V43.1976L175.525 43.3502C174.228 43.4329 173.579 43.9034 173.579 44.7617C173.579 45.194 173.744 45.5373 174.075 45.7916C174.412 46.0396 174.847 46.1636 175.381 46.1636ZM174.685 48.0232C173.668 48.0232 172.838 47.7371 172.196 47.1649C171.554 46.5927 171.233 45.8361 171.233 44.8952C171.233 43.9542 171.573 43.2167 172.253 42.6826C172.94 42.1486 173.919 41.8434 175.191 41.7671L177.88 41.605V40.7276C177.88 40.2126 177.712 39.8184 177.375 39.5451C177.038 39.2717 176.551 39.135 175.916 39.135C175.369 39.135 174.917 39.2303 174.561 39.4211C174.205 39.6055 173.973 39.8725 173.865 40.2222H171.634C171.729 39.3003 172.174 38.5691 172.969 38.0287C173.77 37.4819 174.79 37.2086 176.03 37.2086C177.365 37.2086 178.395 37.5169 179.12 38.1336C179.851 38.7503 180.217 39.615 180.217 40.7276V47.8516H177.937V46.4211H177.775C177.483 46.9233 177.063 47.3175 176.516 47.6036C175.976 47.8834 175.366 48.0232 174.685 48.0232ZM183.849 47.8516V37.4184H186.129V39.0396H186.291C186.437 38.5183 186.764 38.0891 187.273 37.7522C187.788 37.4152 188.379 37.2467 189.047 37.2467C189.473 37.2467 189.8 37.2817 190.029 37.3516V39.5451C189.788 39.456 189.384 39.4115 188.818 39.4115C188.049 39.4115 187.422 39.6341 186.939 40.0791C186.456 40.5178 186.214 41.0995 186.214 41.8243V47.8516H183.849ZM196.265 48.0232C194.943 48.0232 193.897 47.54 193.128 46.5736C192.359 45.6009 191.974 44.2848 191.974 42.6254C191.974 40.9787 192.359 39.6722 193.128 38.7058C193.903 37.7331 194.949 37.2467 196.265 37.2467C196.977 37.2467 197.613 37.4088 198.173 37.7331C198.732 38.0573 199.152 38.5056 199.432 39.0778H199.594V33.3843H201.959V47.8516H199.67V46.2017H199.508C199.209 46.7739 198.774 47.2221 198.201 47.5464C197.636 47.8643 196.99 48.0232 196.265 48.0232ZM198.917 40.1649C198.446 39.561 197.807 39.259 197 39.259C196.192 39.259 195.557 39.561 195.092 40.1649C194.628 40.7626 194.396 41.5859 194.396 42.635C194.396 43.6904 194.625 44.5169 195.083 45.1145C195.547 45.7122 196.186 46.011 197 46.011C197.814 46.011 198.453 45.7122 198.917 45.1145C199.387 44.5105 199.622 43.684 199.622 42.635C199.622 41.5923 199.387 40.7689 198.917 40.1649Z" fill="white"/>
<path d="M57.9434 111.977H74.8704C78.466 111.977 81.3809 114.891 81.3809 118.487V127.376V139.221V148.109C81.3809 151.705 78.466 154.62 74.8704 154.62H57.9434H42.3184H25.3913C21.7957 154.62 18.8809 151.705 18.8809 148.109V139.221V127.376V118.487C18.8809 114.891 21.7957 111.977 25.3913 111.977H42.3184H57.9434Z" fill="#F6C859"/>
<path d="M42.3184 111.977L50.1309 119.676M42.3184 111.977H57.9434M42.3184 111.977H25.3913C21.7957 111.977 18.8809 114.891 18.8809 118.487V127.376M50.1309 119.676L57.9434 111.977M50.1309 119.676V121.366C50.1309 124.685 47.4403 127.376 44.1212 127.376V127.376M57.9434 111.977H74.8704C78.466 111.977 81.3809 114.891 81.3809 118.487V127.376M42.3184 154.62H25.3913C21.7957 154.62 18.8809 151.705 18.8809 148.109V139.221M42.3184 154.62L50.1309 146.92M42.3184 154.62H57.9434M50.1309 146.92L57.9434 154.62M50.1309 146.92V139.221M57.9434 154.62H74.8704C78.466 154.62 81.3809 151.705 81.3809 148.109V139.221M50.1309 139.221H56.1405M50.1309 139.221H44.1212M18.8809 139.221V127.376M18.8809 139.221H44.1212M81.3809 139.221H56.1405M81.3809 139.221V127.376M18.8809 127.376H44.1212M44.1212 127.376V139.221M56.1405 139.221V133.886C56.1405 130.29 59.0553 127.376 62.6509 127.376H81.3809" stroke="#7D662D" stroke-width="0.325521"/>
<path fill-rule="evenodd" clip-rule="evenodd" d="M388.726 131.672C388.457 130.118 387.096 128.928 385.467 128.928C383.647 128.928 382.161 130.414 382.161 132.234C382.176 134.054 383.647 135.541 385.467 135.541C387.005 135.541 388.305 134.479 388.671 133.052H404.913L417.487 120.478H537.404V119.098H416.911L404.336 131.672H388.726ZM387.394 132.234C387.394 131.173 386.529 130.308 385.467 130.308C384.406 130.308 383.541 131.173 383.541 132.234C383.541 133.296 384.406 134.161 385.467 134.161C386.529 134.161 387.394 133.296 387.394 132.234Z" fill="white" fill-opacity="0.2"/>
<path fill-rule="evenodd" clip-rule="evenodd" d="M418.872 147.744L433.411 133.22H537.402V131.84H432.835L417.924 146.751C417.392 146.386 416.75 146.172 416.059 146.172C414.239 146.172 412.753 147.658 412.753 149.478C412.753 151.314 414.239 152.785 416.059 152.785C417.879 152.785 419.366 151.299 419.366 149.478C419.366 148.844 419.185 148.249 418.872 147.744ZM417.985 149.494C417.985 148.432 417.121 147.567 416.059 147.567C414.997 147.567 414.133 148.432 414.133 149.494C414.133 150.555 414.997 151.42 416.059 151.42C417.121 151.42 417.985 150.555 417.985 149.494Z" fill="white" fill-opacity="0.2"/>
<path fill-rule="evenodd" clip-rule="evenodd" d="M412.44 79.9279C411.907 80.2958 411.262 80.5116 410.569 80.5116C408.749 80.5116 407.277 79.0252 407.262 77.205C407.262 75.3849 408.749 73.8984 410.569 73.8984C412.389 73.8984 413.875 75.3849 413.875 77.205C413.875 77.8774 413.672 78.5043 413.325 79.0275L413.403 78.9492L435.414 100.987H528.605L537.402 101.002V102.383L434.852 102.368L412.44 79.9279ZM412.495 77.205C412.495 76.1433 411.63 75.2787 410.569 75.2787C409.507 75.2787 408.642 76.1433 408.642 77.205C408.642 78.2668 409.507 79.1314 410.569 79.1314C411.63 79.1314 412.495 78.2668 412.495 77.205Z" fill="white" fill-opacity="0.2"/>
<path fill-rule="evenodd" clip-rule="evenodd" d="M408.906 221.621C408.362 221.227 407.694 220.994 406.974 220.994C405.154 220.994 403.667 222.481 403.667 224.301C403.667 226.121 405.154 227.607 406.974 227.607C408.794 227.607 410.28 226.121 410.28 224.301C410.28 223.696 410.116 223.128 409.831 222.64L424.022 208.146H537.402V206.766H528.605H423.446L408.906 221.621ZM408.9 224.301C408.9 223.239 408.035 222.374 406.974 222.374C405.912 222.374 405.047 223.239 405.047 224.301C405.047 225.362 405.912 226.227 406.974 226.227C408.035 226.227 408.9 225.362 408.9 224.301Z" fill="white" fill-opacity="0.2"/>
<path fill-rule="evenodd" clip-rule="evenodd" d="M424.633 110.421C424.267 111.849 422.967 112.91 421.429 112.91C419.609 112.91 418.122 111.424 418.122 109.603C418.122 107.783 419.609 106.297 421.429 106.297C423.058 106.297 424.419 107.487 424.688 109.041H537.402V110.421H424.633ZM423.355 109.603C423.355 108.542 422.491 107.677 421.429 107.677C420.367 107.677 419.503 108.542 419.503 109.603C419.503 110.665 420.367 111.53 421.429 111.53C422.491 111.53 423.355 110.665 423.355 109.603Z" fill="white" fill-opacity="0.2"/>
<path fill-rule="evenodd" clip-rule="evenodd" d="M468.026 147.749C467.705 149.237 466.375 150.359 464.794 150.359C462.974 150.359 461.487 148.873 461.487 147.053C461.487 145.233 462.974 143.746 464.794 143.746C466.38 143.746 467.713 144.875 468.029 146.369H537.402V147.749H468.026ZM466.72 147.053C466.72 145.991 465.856 145.126 464.794 145.126C463.732 145.126 462.868 145.991 462.868 147.053C462.868 148.114 463.732 148.979 464.794 148.979C465.856 148.979 466.72 148.114 466.72 147.053Z" fill="white" fill-opacity="0.2"/>
<path fill-rule="evenodd" clip-rule="evenodd" d="M436.448 161.007C436.081 162.433 434.782 163.492 433.246 163.492C431.425 163.492 429.939 162.006 429.939 160.186C429.939 158.365 431.425 156.879 433.246 156.879C434.875 156.879 436.238 158.071 436.505 159.627H537.403V160.279L538.086 160.31V161.007H436.448ZM435.172 160.186C435.172 159.124 434.307 158.259 433.246 158.259C432.184 158.259 431.319 159.124 431.319 160.186C431.319 161.247 432.184 162.112 433.246 162.112C434.307 162.112 435.172 161.247 435.172 160.186Z" fill="white" fill-opacity="0.2"/>
<path fill-rule="evenodd" clip-rule="evenodd" d="M392.638 151.08C392.118 151.419 391.499 151.617 390.835 151.617C389 151.617 387.529 150.131 387.529 148.311C387.529 146.49 389.015 145.004 390.835 145.004C392.655 145.004 394.142 146.49 394.142 148.311C394.142 148.969 393.947 149.583 393.613 150.099L412.48 168.667H537.402V170.047H411.918L392.638 151.08ZM392.761 148.311C392.761 147.249 391.897 146.384 390.835 146.384C389.758 146.384 388.894 147.249 388.909 148.311C388.909 149.372 389.773 150.237 390.835 150.237C391.897 150.237 392.761 149.372 392.761 148.311Z" fill="white" fill-opacity="0.2"/>
<path fill-rule="evenodd" clip-rule="evenodd" d="M434.032 190.133C433.459 189.658 432.724 189.371 431.925 189.371C430.105 189.371 428.618 190.858 428.618 192.678C428.633 194.498 430.105 195.984 431.925 195.984C433.745 195.984 435.231 194.498 435.231 192.678C435.231 192.156 435.11 191.663 434.893 191.223L441.572 183.923H537.402V182.543H440.995L434.032 190.133ZM433.851 192.678C433.851 191.616 432.987 190.751 431.925 190.751C430.863 190.751 429.999 191.616 429.999 192.678C429.999 193.739 430.863 194.604 431.925 194.604C432.987 194.604 433.851 193.739 433.851 192.678Z" fill="white" fill-opacity="0.2"/>
<path fill-rule="evenodd" clip-rule="evenodd" d="M456.395 194.529C456.079 196.023 454.746 197.152 453.16 197.152C451.325 197.152 449.853 195.666 449.853 193.846C449.853 192.026 451.34 190.539 453.16 190.539C454.741 190.539 456.07 191.661 456.392 193.148H537.402V194.529H456.395ZM455.086 193.846C455.086 192.784 454.222 191.919 453.16 191.919C452.083 191.919 451.219 192.784 451.234 193.846C451.234 194.907 452.098 195.772 453.16 195.772C454.222 195.772 455.086 194.907 455.086 193.846Z" fill="white" fill-opacity="0.2"/>
</g>
<defs>
<clipPath id="clip0_11774_30333">
<rect width="500" height="315.43" rx="14.3229" fill="white"/>
</clipPath>
</defs>
</svg>
