<svg width="40" height="45" viewBox="0 0 40 45" fill="none" xmlns="http://www.w3.org/2000/svg">
<path d="M19.9998 28.3335C17.2425 28.3335 15 30.576 15 33.3333C15 36.0905 17.2425 38.333 19.9998 38.333C22.757 38.333 24.9996 36.0905 24.9996 33.3333C24.9996 30.576 22.757 28.3335 19.9998 28.3335ZM19.9998 35C19.081 35 18.333 34.2529 18.333 33.3333C18.333 32.4137 19.0809 31.6665 19.9998 31.6665C20.9186 31.6665 21.6665 32.4137 21.6665 33.3333C21.6665 34.2529 20.9186 35 19.9998 35Z" fill="#0A1856"/>
<path d="M38.3332 21.6665H1.66676C0.746395 21.6665 0 22.4125 0 23.3333V43.3332C0 44.2543 0.745978 44.9999 1.66676 44.9999H38.3332C39.2536 44.9999 40 44.2543 40 43.3332V23.3333C40 22.4125 39.2536 21.6665 38.3332 21.6665ZM3.33342 24.9996H6.38132C5.8787 26.4192 4.75176 27.5452 3.33342 28.0479V24.9996ZM3.33342 41.6662V38.6179C4.75176 39.1205 5.87824 40.2475 6.38132 41.6662H3.33342ZM36.6666 41.6662H33.6187C34.1213 40.2467 35.2482 39.1206 36.6666 38.6179V41.6662ZM36.6666 35.1682C33.4068 35.8324 30.8328 38.4064 30.1682 41.6662H9.83199C9.16739 38.4064 6.59342 35.8324 3.33361 35.1682V31.4984C6.59342 30.8338 9.16741 28.2598 9.83199 24.9996H30.1682C30.8328 28.2598 33.4068 30.8338 36.6666 31.498V35.1682ZM36.6666 28.0482C35.2482 27.5456 34.1218 26.4187 33.6187 24.9999L36.6666 24.9995V28.0482Z" fill="#0A1856"/>
<path d="M21.667 1.66666V12.6428L25.4887 8.82109C26.1398 8.17005 27.1942 8.17005 27.8453 8.82109C28.4964 9.47212 28.4963 10.5265 27.8453 11.1776L21.1791 17.8442C20.5184 18.5057 19.4601 18.4836 18.8214 17.8442L12.1553 11.178C11.5042 10.527 11.5042 9.47257 12.1553 8.82148C12.8063 8.1704 13.8607 8.17045 14.5118 8.82148L18.3335 12.6429V1.66676C18.3335 0.746395 19.0795 0 20.0003 0C20.9206 0 21.667 0.746365 21.667 1.66676V1.66666Z" fill="#0A1856"/>
</svg>
