<svg width="35" height="35" viewBox="0 0 35 35" fill="none" xmlns="http://www.w3.org/2000/svg">
<path d="M15.7457 16.5443H0.87744L0.0390625 15.7059V0.838377L0.87744 0H15.7457L16.5841 0.838377V15.7059L15.7457 16.5443ZM1.71664 14.8673H14.9073V1.67661H1.71664V14.8673Z" fill="#0A1856"/>
<path d="M34.1618 16.5443H19.2935L18.4551 15.7059V0.838377L19.2935 0H34.1618L35.0001 0.838377V15.7059L34.1618 16.5443ZM20.1319 14.8673H33.3226V1.67661H20.1319V14.8673Z" fill="#0A1856"/>
<path d="M15.7067 34.1969H0.838377L0 33.3585V18.4902L0.838377 17.6519H15.7067L16.5451 18.4902V33.3585L15.7067 34.1969ZM1.67758 32.5199H14.8682V19.3292H1.67758V32.5199Z" fill="#0A1856"/>
<path d="M34.1237 34.1969H19.2554L18.417 33.3585V18.4902L19.2554 17.6519H34.1237L34.9621 18.4902V33.3585L34.1237 34.1969ZM20.0938 32.5199H33.2845V19.3292H20.0938V32.5199Z" fill="#0A1856"/>
</svg>
