<svg width="40" height="40" viewBox="0 0 40 40" fill="none" xmlns="http://www.w3.org/2000/svg">
<path d="M19.9998 0C14.719 0.00063771 9.65215 2.08962 5.90605 5.81123C2.1593 9.53284 0.0365395 14.585 0.000458076 19.8658C-0.035256 25.1467 2.01865 30.2274 5.71438 33.9996C6.18568 34.4709 6.67168 34.9138 7.18564 35.3424C7.69584 35.7834 8.23502 36.189 8.80007 36.5567C12.1043 38.8002 16.006 39.9996 20 39.9996C23.994 39.9996 27.8957 38.8003 31.1999 36.5567C31.765 36.189 32.3042 35.7834 32.8144 35.3424C33.3287 34.9138 33.8144 34.4709 34.2856 33.9996C37.9813 30.2273 40.0353 25.1466 39.9995 19.8658C39.9635 14.585 37.8408 9.53284 34.0939 5.81123C30.3474 2.08962 25.2809 0.000653057 20.0002 0H19.9998ZM19.9998 37.1426C15.8184 37.1554 11.7795 35.6241 8.65705 32.8426C9.13122 29.1318 11.3904 25.8873 14.7067 24.1561C18.023 22.4243 21.9765 22.4243 25.2928 24.1561C28.6091 25.8876 30.8683 29.1321 31.3425 32.8426C28.2204 35.6241 24.1811 37.1553 19.9997 37.1426H19.9998ZM15.7142 15.7142C15.7142 14.5774 16.1657 13.4875 16.9692 12.6836C17.7731 11.88 18.863 11.4285 19.9998 11.4285C21.1366 11.4285 22.2265 11.88 23.0304 12.6836C23.834 13.4875 24.2855 14.5774 24.2855 15.7142C24.2855 16.851 23.834 17.9409 23.0304 18.7448C22.2265 19.5483 21.1366 19.9999 19.9998 19.9999C18.8643 19.9967 17.776 19.5439 16.9731 18.7409C16.1701 17.938 15.7173 16.8497 15.7142 15.7142ZM33.714 30.2855C33.0846 28.1417 31.9625 26.1752 30.4367 24.5429C28.9111 22.9105 27.0247 21.658 24.9284 20.8857C26.3139 19.5649 27.1111 17.7431 27.1417 15.8293C27.1723 13.9154 26.4334 12.0694 25.0907 10.7052C23.7479 9.34108 21.914 8.5726 19.9998 8.5726C18.0856 8.5726 16.2518 9.34109 14.909 10.7052C13.5662 12.0694 12.8274 13.9153 12.858 15.8293C12.8886 17.7431 13.6858 19.5649 15.0713 20.8857C12.975 21.658 11.0885 22.9105 9.56301 24.5429C8.03722 26.1752 6.91503 28.1417 6.28564 30.2855C3.72607 26.8726 2.53089 22.6277 2.93366 18.3803C3.33672 14.1332 5.309 10.1893 8.46489 7.31832C11.6208 4.44781 15.7337 2.85696 19.9995 2.85696C24.2654 2.85696 28.3782 4.44781 31.5341 7.31832C34.69 10.1892 36.6623 14.1333 37.0654 18.3803C37.4681 22.6274 36.273 26.8725 33.7134 30.2855H33.714Z" fill="#0A1856"/>
</svg>
