<svg width="40" height="45" viewBox="0 0 40 45" fill="none" xmlns="http://www.w3.org/2000/svg">
<path d="M14.2934 14.293C13.0271 15.5592 10.9739 15.5592 9.70763 14.293C8.44135 13.0267 8.44135 10.9735 9.70763 9.7072C10.9739 8.44092 13.0271 8.44092 14.2934 9.7072L15.7074 8.29323C15.2031 7.78865 14.6212 7.40831 14.0004 7.15244V6H12.0005V6.75771C11.3198 6.75771 10.6394 6.8893 10.0003 7.15247V6.00003H8.00034V8.61101C6.34364 10.5617 6.34364 13.4385 8.00034 15.3896V18.0002H10.0003V16.8478C10.6394 17.1113 11.3198 17.2428 12.0005 17.2428V18.0002H14.0004V16.8478C14.6212 16.592 15.2031 16.2119 15.7074 15.7073L14.2934 14.293Z" fill="#0A1856"/>
<path fill-rule="evenodd" clip-rule="evenodd" d="M24.0003 12.0002C24.0003 18.6277 18.6277 24.0003 12.0002 24.0003C5.37265 24.0003 0 18.6277 0 12.0002C0 5.37265 5.37265 0 12.0002 0C18.6277 0 24.0003 5.37265 24.0003 12.0002V12.0002ZM20.0002 12.0002C20.0002 16.4185 16.4182 20.0005 12.0002 20.0005C7.58179 20.0005 3.99983 16.4185 3.99983 12.0002C3.99983 7.58179 7.58179 4.00017 12.0002 4.00017C16.4182 4.00017 20.0002 7.58179 20.0002 12.0002V12.0002Z" fill="#0A1856"/>
<path d="M30.2931 34.2931C29.0268 35.5597 26.9736 35.5597 25.7076 34.2931C24.4414 33.0271 24.4414 30.974 25.7076 29.7077C26.9736 28.4414 29.0268 28.4414 30.2931 29.7077L31.7074 28.2934C31.2028 27.7888 30.6212 27.4085 30.0004 27.1529V26.0005H28.0002V26.7579C27.3198 26.7579 26.6391 26.8895 26.0003 27.153V26.0005H24.0003V28.6112C22.3436 30.5622 22.3436 33.439 24.0003 35.3897V38.0007H26.0003V36.8482C26.6391 37.1114 27.3198 37.2433 28.0002 37.2433V38.0007H30.0004V36.8483C30.6212 36.5925 31.2028 36.2121 31.7074 35.7075L30.2931 34.2931Z" fill="#0A1856"/>
<path fill-rule="evenodd" clip-rule="evenodd" d="M40.0003 32.0011C40.0003 38.6287 34.6277 44.0013 28.0002 44.0013C21.3726 44.0013 16 38.6287 16 32.0011C16 25.3736 21.3726 20.001 28.0002 20.001C34.6277 20.001 40.0003 25.3736 40.0003 32.0011V32.0011ZM36.0005 32.0011C36.0005 36.4192 32.4185 40.0011 28.0002 40.0011C23.5821 40.0011 20.0002 36.4192 20.0002 32.0011C20.0002 27.5828 23.5821 24.0008 28.0002 24.0008C32.4185 24.0008 36.0005 27.5828 36.0005 32.0011Z" fill="#0A1856"/>
<path d="M25.9999 12.0003H29.9997C31.1043 12.0003 32 12.896 32 14.0006H29.9997L33.9999 20.0007L38 14.0006H35.9998C35.9998 10.6868 33.3135 8.00049 29.9997 8.00049H25.4199C25.7969 9.26779 25.9998 10.6104 25.9998 12.0003H25.9999Z" fill="#0A1856"/>
<path d="M8.00012 30.0006C8.00012 31.1052 8.89542 32.0008 10 32.0008H14.0002C14.0002 33.3907 14.2028 34.7334 14.5801 36.0007H10C6.68624 36.0007 3.99991 33.3147 3.99991 30.0006H2L6.00017 24.0005L10 30.0006H8.00012Z" fill="#0A1856"/>
</svg>
