<svg width="40" height="35" viewBox="0 0 40 35" fill="none" xmlns="http://www.w3.org/2000/svg">
<path d="M40 0V13.5373H31.1617V34.8138H8.83905V13.5373H0V0H40ZM20.0011 16.4378C21.4831 16.4378 22.6797 15.2401 22.6797 13.7586C22.6797 12.2794 21.4801 11.0801 20.0011 11.0801C18.5202 11.0801 17.3219 12.2777 17.3219 13.7586C17.3219 15.2401 18.5196 16.4378 20.0011 16.4378ZM20.0011 18.1202C17.594 18.1202 15.6395 16.1657 15.6395 13.7586C15.6395 11.3521 17.594 9.39765 20.0011 9.39765C22.4095 9.39765 24.3621 11.3502 24.3621 13.7586C24.3621 16.1657 22.4076 18.1202 20.0011 18.1202ZM27.6306 7.61021V27.8843C25.0438 27.8843 24.1104 28.5974 24.1104 31.4042H15.8919C15.8919 28.8194 15.1762 27.8843 12.3719 27.8843V7.61093H10.5222V33.1321H29.4807V7.61093H27.6309L27.6306 7.61021ZM14.0539 7.61021V26.2821C15.7884 26.6214 17.1537 27.9864 17.4927 29.7209H22.5092C22.8482 27.9883 24.2157 26.6219 25.9485 26.2827V7.61007L14.0539 7.61021ZM36.5026 3.10929V10.4293H31.1626V11.8553H38.3183V1.68283H1.68312V11.8553H8.83941V10.4293H3.49936V3.10929H36.5025H36.5026ZM34.8202 4.79169H5.18191V8.74712H8.83955V5.92774H31.1622V8.74712H34.8198V4.79169H34.8202Z" fill="#0A1856"/>
</svg>
