<svg width="65" height="65" viewBox="0 0 65 65" fill="none" xmlns="http://www.w3.org/2000/svg">
<path d="M8.31738 39.8277C8.31738 44.9822 12.5113 49.1761 17.6658 49.1761C22.821 49.1761 27.015 44.9822 27.015 39.8277C27.015 34.6725 22.821 30.4785 17.6658 30.4785C12.5113 30.4778 8.31738 34.6717 8.31738 39.8277ZM24.8967 39.8277C24.8967 43.8136 21.6532 47.0571 17.6665 47.0571C13.6806 47.0571 10.4371 43.8136 10.4371 39.8277C10.4371 35.841 13.6806 32.5975 17.6665 32.5975C21.6532 32.5968 24.8967 35.8403 24.8967 39.8277Z" fill="#0A1856"/>
<path d="M2.119 64.1598C2.119 58.0708 7.07272 53.1171 13.1625 53.1171H22.1701C28.2598 53.1171 33.2136 58.0708 33.2136 64.1598H34.2731H35.3333C35.3333 56.9029 29.4284 50.998 22.1708 50.998H13.1625C5.90489 50.998 0 56.9029 0 64.1598H1.0595H2.119Z" fill="#0A1856"/>
<path d="M47.1101 0.333984C37.246 0.333984 29.2207 8.35932 29.2207 18.2234C29.2207 21.4395 30.0722 24.5544 31.6921 27.2989L30.5373 30.351L29.2936 33.6378L32.7813 33.2038L36.6444 32.7228C39.6806 34.9147 43.3618 36.1129 47.1101 36.1129C56.9743 36.1122 64.9996 28.0868 64.9996 18.2227C64.9996 8.3586 56.9743 0.333984 47.1101 0.333984ZM47.1101 33.9931C43.3719 33.9931 39.9428 32.6859 37.2403 30.5128L32.5191 31.1006L34.048 27.0605C32.3393 24.5393 31.3397 21.4987 31.3397 18.2234C31.3397 9.51415 38.4002 2.45298 47.1101 2.45298C55.8202 2.45298 62.8806 9.51343 62.8806 18.2234C62.8806 26.9327 55.8202 33.9931 47.1101 33.9931Z" fill="#0A1856"/>
<path d="M50.8652 10.938C50.3727 10.574 49.7956 10.3068 49.1333 10.137C48.471 9.96731 47.7553 9.88281 46.9854 9.88281C46.1823 9.88281 45.4045 9.97815 44.6512 10.1681C43.8979 10.3588 43.2024 10.644 42.5654 11.0246V14.7621C43.1865 14.2161 43.8445 13.8081 44.5393 13.5394C45.2348 13.2708 45.905 13.1357 46.5507 13.1357C46.8489 13.1357 47.1198 13.1812 47.3639 13.2722C47.608 13.3632 47.8153 13.4874 47.985 13.6449C48.1547 13.8023 48.2847 13.9908 48.3764 14.2096C48.4674 14.4292 48.5129 14.6668 48.5129 14.9239C48.5129 15.2222 48.4718 15.493 48.3887 15.7371C48.3057 15.9813 48.1822 16.2174 48.016 16.4449C47.8507 16.6724 47.6499 16.8999 47.4137 17.1281C47.1775 17.3556 46.9024 17.6019 46.5882 17.867C46.2899 18.1154 46.0292 18.366 45.806 18.6181C45.5829 18.8701 45.3965 19.1352 45.247 19.4125C45.0983 19.6899 44.9863 19.986 44.9119 20.3001C44.8375 20.6143 44.8 20.9624 44.8 21.343C44.8 21.5828 44.8231 21.8378 44.8686 22.1064C44.9141 22.3751 44.9784 22.6178 45.0607 22.833H48.3259C48.2349 22.6921 48.1627 22.5181 48.1085 22.3115C48.0543 22.1043 48.0276 21.902 48.0276 21.7034C48.0276 21.4138 48.0652 21.1553 48.1395 20.9278C48.2139 20.7003 48.3237 20.485 48.4689 20.2821C48.614 20.0791 48.796 19.8748 49.0149 19.6675C49.2344 19.4602 49.4887 19.237 49.7783 18.9973C50.2087 18.6412 50.5893 18.296 50.9208 17.9609C51.2523 17.6258 51.5289 17.2762 51.7528 16.9115C51.9767 16.5468 52.1457 16.1604 52.262 15.7509C52.3783 15.3414 52.436 14.8835 52.436 14.3786C52.436 13.5842 52.2974 12.9031 52.02 12.3362C51.7427 11.7678 51.3578 11.302 50.8652 10.938Z" fill="#0A1856"/>
<path d="M46.8734 24.1738C46.2111 24.1738 45.6608 24.3681 45.2224 24.7574C44.784 25.1467 44.5645 25.6306 44.5645 26.2098C44.5645 26.7724 44.784 27.2613 45.2224 27.6752C45.6608 28.0724 46.2118 28.271 46.8734 28.271C47.535 28.271 48.0817 28.0767 48.5121 27.6874C48.9339 27.2982 49.1455 26.8056 49.1455 26.2098C49.1455 25.6219 48.9303 25.138 48.4998 24.7574C48.0694 24.3688 47.5277 24.1738 46.8734 24.1738Z" fill="#0A1856"/>
</svg>
