<svg width="19" height="19" viewBox="0 0 19 19" fill="none" xmlns="http://www.w3.org/2000/svg">
<path d="M13.6786 9.93229H15.1193C15.342 9.91281 15.5507 9.81549 15.7088 9.6574C15.8669 9.49932 15.9642 9.29059 15.9837 9.06788V7.05093C15.9642 6.82822 15.8669 6.61949 15.7088 6.46141C15.5507 6.30332 15.342 6.206 15.1193 6.18652H13.6786M5.32266 6.18652H3.88198C3.65927 6.206 3.45054 6.30332 3.29246 6.46141C3.13438 6.61949 3.03705 6.82822 3.01758 7.05093V9.06788C3.03705 9.29059 3.13438 9.49932 3.29246 9.6574C3.45054 9.81549 3.65927 9.91281 3.88198 9.93229H5.66843" stroke="white" stroke-width="1.2" stroke-miterlimit="10" stroke-linecap="round" stroke-linejoin="round"/>
<path d="M7.74065 12.6119C6.38641 11.7763 5.32031 9.98983 5.32031 7.91525V5.0339C5.32031 2.03729 7.56777 1 9.46946 1C11.3712 1 13.6762 2.03729 13.6762 5.0339V9.64407C13.6762 10.7966 12.5237 11.661 11.6593 11.661" stroke="white" stroke-width="1.2" stroke-miterlimit="10" stroke-linecap="round" stroke-linejoin="round"/>
<path d="M7.33898 12.3241V13.1021C7.33898 13.6783 7.45424 14.5427 4.28475 15.119C3.4843 15.2612 2.74435 15.6386 2.15931 16.2031C1.57428 16.7676 1.17068 17.4936 1 18.2885H18C17.8114 17.4924 17.3948 16.7686 16.8012 16.2056C16.2075 15.6427 15.4626 15.2651 14.6576 15.119C11.5746 14.5427 11.661 13.6783 11.661 13.1021V11.6614" stroke="white" stroke-width="1.2" stroke-miterlimit="10" stroke-linecap="round" stroke-linejoin="round"/>
<path d="M11.6606 11.6613C11.6606 11.432 11.5695 11.2122 11.4074 11.0501C11.2453 10.8879 11.0254 10.7969 10.7961 10.7969H10.2199C9.99062 10.7969 9.77076 10.8879 9.60865 11.0501C9.44654 11.2122 9.35547 11.432 9.35547 11.6613C9.35547 11.8905 9.44654 12.1104 9.60865 12.2725C9.77076 12.4346 9.99062 12.5257 10.2199 12.5257H10.7961C11.0254 12.5257 11.2453 12.4346 11.4074 12.2725C11.5695 12.1104 11.6606 11.8905 11.6606 11.6613Z" stroke="white" stroke-width="1.2" stroke-miterlimit="10" stroke-linecap="round" stroke-linejoin="round"/>
<path d="M6.58811 14.3989L9.46946 18.0006L12.4084 14.3989M5.32031 5.61075C8.77794 5.61075 8.77794 3.30566 11.083 3.30566C13.3881 3.30566 13.6762 5.32261 13.6762 5.32261" stroke="white" stroke-width="1.2" stroke-miterlimit="10" stroke-linecap="round" stroke-linejoin="round"/>
</svg>
