<svg width="9" height="7" viewBox="0 0 9 7" fill="none" xmlns="http://www.w3.org/2000/svg">
<path d="M1.56739 3.2613C1.47712 3.1653 1.35259 3.10881 1.2209 3.10413C1.0892 3.09944 0.960974 3.14694 0.86411 3.23629C0.767246 3.32565 0.709573 3.44963 0.703634 3.58127C0.697694 3.71292 0.743967 3.84159 0.832391 3.9393L2.63839 5.8988C2.90689 6.1618 3.30689 6.1618 3.55539 5.9138L3.73739 5.7343C4.39466 5.08791 5.05116 4.44075 5.70689 3.7928L5.72689 3.7728C6.33974 3.16884 6.94941 2.56166 7.55589 1.9513C7.64653 1.8564 7.69623 1.72967 7.69426 1.59845C7.69229 1.46723 7.63881 1.34205 7.54536 1.24991C7.45191 1.15777 7.32599 1.10607 7.19475 1.10596C7.06352 1.10584 6.9375 1.15733 6.84389 1.2493C6.24022 1.85647 5.63355 2.46065 5.02389 3.0618L5.00389 3.0818C4.37553 3.70295 3.74636 4.32329 3.11639 4.9428L1.56739 3.2613V3.2613Z" fill="white" stroke="white"/>
</svg>
