<svg width="8" height="7" viewBox="0 0 8 7" fill="none" xmlns="http://www.w3.org/2000/svg">
<path d="M4.00001 3.02869L2.23568 1.26436C2.17281 1.20364 2.08861 1.17004 2.00121 1.1708C1.91381 1.17156 1.83021 1.20662 1.76841 1.26842C1.7066 1.33022 1.67155 1.41383 1.67079 1.50123C1.67003 1.58863 1.70363 1.67283 1.76435 1.73569L3.52868 3.50003L1.76435 5.26436C1.70363 5.32723 1.67003 5.41143 1.67079 5.49883C1.67155 5.58623 1.7066 5.66983 1.76841 5.73163C1.83021 5.79344 1.91381 5.82849 2.00121 5.82925C2.08861 5.83001 2.17281 5.79641 2.23568 5.73569L4.00001 3.97136L5.76435 5.73569C5.82721 5.79641 5.91142 5.83001 5.99881 5.82925C6.08621 5.82849 6.16982 5.79344 6.23162 5.73163C6.29342 5.66983 6.32848 5.58623 6.32924 5.49883C6.33 5.41143 6.2964 5.32723 6.23568 5.26436L4.47135 3.50003L6.23568 1.73569C6.26752 1.70494 6.29291 1.66816 6.31038 1.6275C6.32785 1.58683 6.33705 1.54309 6.33743 1.49883C6.33782 1.45457 6.32938 1.41067 6.31262 1.36971C6.29586 1.32874 6.27111 1.29153 6.23981 1.26023C6.20851 1.22893 6.1713 1.20418 6.13033 1.18742C6.08937 1.17066 6.04547 1.16223 6.00121 1.16261C5.95695 1.16299 5.91321 1.17219 5.87255 1.18966C5.83188 1.20713 5.7951 1.23252 5.76435 1.26436L4.00001 3.02869Z" fill="white" stroke="white" stroke-width="1.5"/>
</svg>
