<svg width="38" height="39" viewBox="0 0 38 39" fill="none" xmlns="http://www.w3.org/2000/svg">
<path d="M19 38.8252C29.4939 38.8252 38 30.3191 38 19.8252C38 9.33126 29.4939 0.825195 19 0.825195C8.50606 0.825195 0 9.33126 0 19.8252C0 30.3191 8.50606 38.8252 19 38.8252Z" fill="#FF007A"/>
<path d="M14.5602 7.67394C14.2218 7.62169 14.2076 7.61456 14.3667 7.59081C14.6719 7.54331 15.3939 7.60863 15.8914 7.72619C17.0516 8.00288 18.1073 8.70944 19.2354 9.96463L19.5347 10.2971L19.9622 10.2294C21.7672 9.9385 23.6042 10.1701 25.1397 10.879C25.5624 11.0738 26.2286 11.4621 26.3117 11.563C26.3391 11.5939 26.3877 11.7993 26.4198 12.0178C26.5338 12.7743 26.4768 13.3538 26.2464 13.7872C26.1206 14.0223 26.1134 14.0959 26.1977 14.2978C26.2378 14.3812 26.3004 14.4517 26.3785 14.5012C26.4566 14.5508 26.547 14.5774 26.6395 14.5781C27.0219 14.5781 27.4327 13.9606 27.6227 13.102L27.6987 12.7612L27.8484 12.931C28.6701 13.862 29.3149 15.1314 29.4254 16.0339L29.4551 16.2703L29.3161 16.0565C29.0786 15.6884 28.8411 15.4366 28.5347 15.2336C27.9837 14.869 27.4007 14.7455 25.8569 14.6636C24.4628 14.5899 23.6731 14.4712 22.8917 14.2159C21.5606 13.7824 20.8896 13.2041 19.3079 11.1296C18.6061 10.2081 18.1714 9.69863 17.7404 9.28894C16.7583 8.35556 15.7941 7.86631 14.5602 7.67394Z" fill="white"/>
<path d="M26.6265 9.7303C26.6621 9.1128 26.7452 8.70549 26.9138 8.3338C26.9803 8.18655 27.0433 8.06543 27.0528 8.06543C27.0422 8.14879 27.0202 8.2303 26.9875 8.30768C26.8651 8.66868 26.845 9.16268 26.9293 9.73624C27.0361 10.4654 27.0979 10.5699 27.8674 11.3572C28.2296 11.7265 28.65 12.192 28.802 12.3927L29.0786 12.7561L28.802 12.496C28.4635 12.1789 27.6845 11.5579 27.5123 11.47C27.3971 11.4106 27.3793 11.4118 27.3081 11.4819C27.2428 11.5484 27.2285 11.6457 27.2202 12.1101C27.206 12.8321 27.1074 13.2976 26.8687 13.7607C26.7405 14.0101 26.7203 13.9578 26.8366 13.674C26.9233 13.4626 26.9316 13.37 26.9316 12.6706C26.9316 11.2646 26.7642 10.9273 25.7845 10.3478C25.4897 10.1767 25.187 10.0198 24.8773 9.87755C24.7243 9.81616 24.5759 9.74394 24.4331 9.66143C24.4605 9.63412 25.4152 9.91199 25.7988 10.0604C26.3711 10.2801 26.465 10.3086 26.535 10.2813C26.5813 10.2635 26.6039 10.1281 26.6265 9.7303ZM15.2181 12.135C14.5306 11.1886 14.1055 9.73624 14.1969 8.65087L14.2254 8.3148L14.3821 8.3433C14.6766 8.39674 15.1837 8.58555 15.4212 8.73043C16.072 9.12587 16.3546 9.64718 16.6408 10.9843C16.7251 11.3762 16.8355 11.8191 16.8866 11.9699C16.9673 12.211 17.2761 12.7751 17.5278 13.142C17.7083 13.4056 17.5872 13.5303 17.1882 13.4947C16.5778 13.4389 15.7513 12.8689 15.2181 12.135ZM25.7928 19.1828C22.5783 17.8884 21.4466 16.7651 21.4466 14.8698C21.4466 14.5907 21.4561 14.3627 21.4668 14.3627C21.4786 14.3627 21.6033 14.4542 21.7435 14.567C22.3954 15.0895 23.1257 15.3127 25.1456 15.6072C26.3343 15.7818 27.0041 15.9219 27.6216 16.1262C29.5833 16.7769 30.797 18.0974 31.0867 19.8953C31.1698 20.4178 31.1211 21.3975 30.9846 21.9141C30.8777 22.3226 30.5488 23.0576 30.4621 23.0861C30.4383 23.0932 30.4146 23.0018 30.4075 22.8747C30.3742 22.2002 30.0334 21.5424 29.4598 21.0496C28.8079 20.4902 27.9327 20.0437 25.7916 19.1828H25.7928ZM23.5366 19.7196C23.4986 19.4902 23.4467 19.2633 23.381 19.0403L23.2979 18.7957L23.4511 18.9667C23.6613 19.2042 23.8287 19.5058 23.9688 19.9096C24.0769 20.2171 24.0888 20.3086 24.0876 20.8085C24.0876 21.3001 24.0745 21.4022 23.9748 21.6801C23.8361 22.0876 23.6038 22.4569 23.2967 22.7584C22.7089 23.3569 21.9548 23.687 20.8647 23.8247C20.6747 23.8485 20.1237 23.8889 19.638 23.9138C18.4149 23.9779 17.611 24.1086 16.8878 24.3627C16.8225 24.3919 16.7525 24.4088 16.6811 24.4126C16.6526 24.3829 17.1443 24.0896 17.5516 23.8936C18.1251 23.6169 18.6951 23.4661 19.9741 23.2536C20.6058 23.1479 21.259 23.0208 21.424 22.9697C22.9891 22.49 23.7931 21.2526 23.5354 19.7196H23.5366Z" fill="white"/>
<path d="M25.0085 22.3377C24.581 21.4198 24.4836 20.5327 24.7175 19.7062C24.7425 19.6183 24.7828 19.5459 24.8066 19.5459C24.887 19.5749 24.9626 19.6157 25.031 19.667C25.2281 19.8 25.6224 20.0233 26.6733 20.5956C27.9855 21.3117 28.7336 21.8663 29.2431 22.498C29.6884 23.0526 29.9639 23.6843 30.0969 24.4538C30.1717 24.8896 30.1278 25.9382 30.0161 26.3776C29.6635 27.7622 28.8429 28.85 27.6744 29.4841C27.564 29.5482 27.4488 29.604 27.3324 29.6539C27.3158 29.6539 27.3775 29.496 27.4713 29.3012C27.8632 28.4795 27.9095 27.6791 27.6115 26.7885C27.4298 26.2434 27.0581 25.5772 26.3088 24.4538C25.4371 23.1476 25.2234 22.7985 25.0085 22.3377ZM12.9351 27.2908C14.1286 26.2838 15.6118 25.5689 16.9643 25.3492C17.5462 25.2542 18.5176 25.2922 19.0567 25.43C19.9212 25.6508 20.6955 26.1472 21.098 26.7374C21.4899 27.3145 21.6597 27.818 21.8343 28.9366C21.9055 29.3784 21.9803 29.8213 22.0029 29.9223C22.1335 30.5018 22.3912 30.9661 22.7095 31.1988C23.2141 31.5681 24.0846 31.5907 24.9396 31.2582C25.0289 31.2172 25.1231 31.1876 25.2198 31.1703C25.2507 31.2012 24.8208 31.4898 24.5168 31.6418C24.1582 31.8341 23.7568 31.9315 23.3495 31.9244C22.5658 31.9244 21.915 31.5266 21.3723 30.7131C21.2655 30.5528 21.0256 30.0743 20.838 29.648C20.2656 28.3417 19.983 27.9427 19.318 27.5069C18.7373 27.1269 17.9903 27.0592 17.4286 27.3347C16.69 27.6969 16.4846 28.641 17.013 29.2383C17.2232 29.4758 17.6151 29.6812 17.9357 29.7204C18.0756 29.7389 18.2178 29.7272 18.3527 29.6861C18.4877 29.6449 18.6122 29.5752 18.7179 29.4818C18.8237 29.3884 18.9081 29.2733 18.9655 29.1444C19.0229 29.0156 19.052 28.8759 19.0508 28.7348C19.0508 28.3405 18.8988 28.1173 18.5188 27.9451C17.9998 27.7111 17.4417 27.9843 17.4441 28.4723C17.4453 28.6801 17.5355 28.8108 17.7445 28.9058C17.8787 28.9651 17.8811 28.9711 17.7718 28.9485C17.2956 28.8488 17.184 28.2752 17.5676 27.894C18.0271 27.4356 18.9783 27.6375 19.3049 28.2621C19.4426 28.5246 19.4581 29.0483 19.3381 29.3641C19.071 30.0707 18.2896 30.4412 17.4975 30.2393C16.9584 30.1016 16.7387 29.9531 16.0891 29.2834C14.9598 28.1196 14.5216 27.894 12.8924 27.6399L12.5801 27.5912L12.9363 27.2908H12.9351Z" fill="white"/>
<path fill-rule="evenodd" clip-rule="evenodd" d="M7.35742 4.80315L7.47142 4.94209C11.8747 10.3333 14.1499 13.1311 14.2948 13.3306C14.5323 13.6607 14.4432 13.9564 14.0347 14.1891C13.8079 14.3186 13.34 14.4492 13.1073 14.4492C12.8425 14.4492 12.5444 14.3221 12.3271 14.1167C12.1739 13.9706 11.5552 13.0468 10.1267 10.8297C9.45811 9.78234 8.78005 8.73971 8.09367 7.70302C8.03548 7.6484 8.03667 7.64959 10.015 11.1895C11.2572 13.4125 11.6775 14.1975 11.6775 14.3031C11.6775 14.5169 11.6182 14.6285 11.3545 14.923C10.9152 15.4135 10.7192 15.9645 10.5767 17.1045C10.4176 18.3834 9.97111 19.2859 8.73136 20.8308C8.00698 21.7357 7.88823 21.902 7.70417 22.2665C7.4738 22.7249 7.41086 22.9826 7.38473 23.5621C7.35742 24.1748 7.41086 24.5715 7.59848 25.1569C7.76236 25.6699 7.93336 26.0095 8.37036 26.6864C8.74798 27.2718 8.9653 27.7065 8.9653 27.8763C8.9653 28.0116 8.99142 28.0116 9.57686 27.8798C10.9769 27.564 12.1134 27.007 12.7534 26.3254C13.1489 25.9038 13.2415 25.6711 13.245 25.0928C13.2462 24.7151 13.2332 24.6356 13.131 24.4183C12.9648 24.0644 12.662 23.7699 11.9946 23.3139C11.1194 22.7154 10.7465 22.2333 10.6432 21.5718C10.5577 21.0292 10.6563 20.6456 11.1408 19.6315C11.6407 18.5817 11.7654 18.1352 11.8497 17.0771C11.9032 16.3931 11.978 16.1236 12.1751 15.9075C12.3794 15.6818 12.5646 15.6046 13.0717 15.5358C13.8982 15.423 14.4242 15.2092 14.8565 14.8114C15.2317 14.4646 15.3885 14.131 15.4122 13.6298L15.4312 13.2498L15.221 13.0052C14.9194 12.6537 12.4245 9.90109 7.73505 4.74496L7.60917 4.6084L7.35742 4.80434V4.80315ZM9.3928 24.2568C9.47564 24.1101 9.50038 23.9376 9.46212 23.7736C9.42385 23.6095 9.32537 23.4658 9.18617 23.3709C8.91542 23.1904 8.49386 23.2759 8.49386 23.511C8.49386 23.5823 8.53305 23.6345 8.62211 23.6808C8.77292 23.758 8.78361 23.8459 8.66605 24.0228C8.54611 24.2033 8.55561 24.3625 8.69336 24.4705C8.91423 24.6439 9.22773 24.5477 9.39398 24.2568H9.3928ZM15.9525 15.7353C15.5642 15.854 15.1878 16.2661 15.0702 16.6971C14.999 16.9596 15.0394 17.4215 15.1462 17.564C15.3184 17.7944 15.4859 17.855 15.9371 17.8514C16.8206 17.8455 17.5877 17.4666 17.678 16.9928C17.7516 16.6045 17.4132 16.0666 16.9489 15.8291C16.709 15.708 16.1995 15.6593 15.9525 15.7353ZM16.9857 16.5428C17.1222 16.3492 17.0617 16.139 16.8313 15.9989C16.3895 15.7293 15.7222 15.9514 15.7222 16.3694C15.7222 16.576 16.0701 16.8028 16.3884 16.8028C16.6021 16.8028 16.8919 16.6758 16.9857 16.5428Z" fill="white"/>
</svg>
