<svg width="31" height="25" viewBox="0 0 31 25" fill="none" xmlns="http://www.w3.org/2000/svg">
<path d="M16.3883 7.1322e-05C14.3471 7.1322e-05 12.3806 0.742526 10.8511 2.09083C9.48609 3.29411 8.55233 4.90191 8.18258 6.66749C8.15558 6.66728 8.1288 6.66749 8.10222 6.66749C4.18203 6.66749 0.992676 9.85711 0.992676 13.777C0.992676 17.6974 4.1823 20.8866 8.10222 20.8866H10.7116C11.0648 20.8866 11.3515 20.6003 11.3515 20.2469C11.3515 19.8934 11.065 19.607 10.7116 19.607H8.10222C4.88747 19.607 2.27198 16.9916 2.27198 13.7767C2.27198 10.5618 4.88736 7.94646 8.10222 7.94646C8.2734 7.94646 8.45441 7.95567 8.65573 7.97472C8.99683 8.00631 9.3032 7.76398 9.34964 7.42415C9.58005 5.7354 10.4137 4.1824 11.6972 3.0507C12.9928 1.90854 14.6587 1.27966 16.388 1.27966C20.3099 1.27966 23.5008 4.47051 23.5008 8.39242C23.5008 8.53367 23.4744 8.89884 23.4744 8.89884C23.461 9.08697 23.5316 9.27154 23.667 9.40296C23.8024 9.53438 23.9886 9.59925 24.1765 9.58042C24.3467 9.56326 24.5183 9.55468 24.6867 9.55468C27.458 9.55468 29.7126 11.8093 29.7126 14.5806C29.7126 17.3519 27.458 19.6065 24.6867 19.6065H21.8213C21.468 19.6065 21.1815 19.893 21.1815 20.2464C21.1815 20.5999 21.468 20.8861 21.8213 20.8861H24.6867C28.1636 20.8861 30.9927 18.0575 30.9927 14.5807C30.9927 11.1349 28.2141 8.32563 24.7794 8.27581C24.7168 3.70188 20.9766 0 16.3879 0L16.3883 7.1322e-05ZM16.3883 3.00702C13.713 3.00702 11.4228 5.00632 11.0614 7.65734C11.0137 8.00744 11.259 8.32886 11.6089 8.37783C11.982 8.42993 12.2854 8.15119 12.3294 7.83037C12.605 5.81012 14.3498 4.28669 16.3885 4.28669C16.742 4.28669 17.0284 4.0002 17.0284 3.64677C17.0284 3.29334 16.742 3.00686 16.3885 3.00686L16.3883 3.00702ZM16.2665 14.1446C16.0148 14.1446 15.7632 14.2342 15.5625 14.4135L13.2353 16.4928C12.9718 16.7282 12.949 17.1327 13.1845 17.3962C13.4197 17.6596 13.8244 17.6824 14.0878 17.447L15.6268 16.0724V23.9432C15.6268 24.2966 15.9133 24.5829 16.2667 24.5829C16.62 24.5829 16.9064 24.2966 16.9064 23.9432V16.0718L18.4454 17.4467C18.7089 17.6821 19.1134 17.6593 19.3488 17.3958C19.5842 17.1324 19.5614 16.7279 19.2977 16.4925L16.9705 14.4134C16.7698 14.2343 16.5183 14.1445 16.2665 14.1445L16.2665 14.1446Z" fill="#7F88A0"/>
</svg>
