<svg width="30" height="25" viewBox="0 0 30 25" fill="none" xmlns="http://www.w3.org/2000/svg">
<path d="M15.3956 7.1322e-05C13.3544 7.1322e-05 11.388 0.742526 9.85843 2.09083C8.49342 3.29411 7.55966 4.90191 7.1899 6.66749C7.16291 6.66728 7.13612 6.66749 7.10954 6.66749C3.18936 6.66749 0 9.85711 0 13.777C0 17.6974 3.18962 20.8866 7.10954 20.8866H9.71888C10.0721 20.8866 10.3588 20.6003 10.3588 20.2469C10.3588 19.8934 10.0723 19.607 9.71888 19.607H7.10954C3.89479 19.607 1.2793 16.9916 1.2793 13.7767C1.2793 10.5618 3.89469 7.94646 7.10954 7.94646C7.28072 7.94646 7.46174 7.95567 7.66305 7.97472C8.00415 8.00631 8.31052 7.76398 8.35697 7.42415C8.58737 5.7354 9.42107 4.1824 10.7045 3.0507C12.0001 1.90854 13.666 1.27966 15.3954 1.27966C19.3172 1.27966 22.5081 4.47051 22.5081 8.39242C22.5081 8.53367 22.4818 8.89884 22.4818 8.89884C22.4684 9.08697 22.5389 9.27154 22.6743 9.40296C22.8097 9.53438 22.9959 9.59925 23.1838 9.58042C23.354 9.56326 23.5256 9.55468 23.694 9.55468C26.4653 9.55468 28.7199 11.8093 28.7199 14.5806C28.7199 17.3519 26.4653 19.6065 23.694 19.6065H20.8286C20.4753 19.6065 20.1889 19.893 20.1889 20.2464C20.1889 20.5999 20.4754 20.8861 20.8286 20.8861H23.694C27.171 20.8861 30 18.0575 30 14.5807C30 11.1349 27.2214 8.32563 23.7867 8.27581C23.7241 3.70188 19.984 0 15.3952 0L15.3956 7.1322e-05ZM15.3956 3.00702C12.7204 3.00702 10.4302 5.00632 10.0688 7.65734C10.021 8.00744 10.2663 8.32886 10.6162 8.37783C10.9893 8.42993 11.2928 8.15119 11.3367 7.83037C11.6123 5.81012 13.3572 4.28669 15.3959 4.28669C15.7493 4.28669 16.0358 4.0002 16.0358 3.64677C16.0358 3.29334 15.7493 3.00686 15.3959 3.00686L15.3956 3.00702ZM15.2738 14.1446C15.0221 14.1446 14.7706 14.2342 14.5699 14.4135L12.2426 16.4928C11.9792 16.7282 11.9564 17.1327 12.1918 17.3962C12.427 17.6596 12.8317 17.6824 13.0952 17.447L14.6341 16.0724V23.9432C14.6341 24.2966 14.9206 24.5829 15.274 24.5829C15.6273 24.5829 15.9138 24.2966 15.9138 23.9432V16.0718L17.4527 17.4467C17.7162 17.6821 18.1207 17.6593 18.3561 17.3958C18.5915 17.1324 18.5687 16.7279 18.305 16.4925L15.9778 14.4134C15.7771 14.2343 15.5256 14.1445 15.2738 14.1445L15.2738 14.1446Z" fill="#7F88A0"/>
</svg>
