<svg width="38" height="39" viewBox="0 0 38 39" fill="none" xmlns="http://www.w3.org/2000/svg">
<path d="M19 38.3955C29.4939 38.3955 38 29.8894 38 19.3955C38 8.90157 29.4939 0.395508 19 0.395508C8.50606 0.395508 0 8.90157 0 19.3955C0 29.8894 8.50606 38.3955 19 38.3955Z" fill="#3E73C4"/>
<path d="M23.7764 21.9181C23.7764 19.3958 22.2564 18.5313 19.2164 18.1703C17.0456 17.8817 16.6122 17.3058 16.6122 16.2964C16.6122 15.2871 17.3366 14.6387 18.7829 14.6387C20.0856 14.6387 20.81 15.0709 21.171 16.1527C21.2085 16.2574 21.2772 16.3481 21.3679 16.4125C21.4586 16.4768 21.5669 16.5118 21.6781 16.5126H22.8359C22.9027 16.5143 22.9693 16.5025 23.0315 16.4778C23.0936 16.4531 23.1501 16.4161 23.1975 16.3689C23.245 16.3217 23.2823 16.2653 23.3073 16.2033C23.3323 16.1412 23.3444 16.0747 23.3429 16.0079V15.9366C23.2014 15.1539 22.8054 14.4399 22.2164 13.9054C21.6274 13.3709 20.8783 13.0459 20.0856 12.9809V11.2519C20.0856 10.9634 19.8683 10.7472 19.5073 10.6748H18.4207C18.1322 10.6748 17.9149 10.8909 17.8424 11.2519V12.9097C15.6705 13.1971 14.2966 14.6387 14.2966 16.4413C14.2966 18.8187 15.7429 19.7556 18.7829 20.1166C20.81 20.4764 21.4607 20.9099 21.4607 22.0629C21.4607 23.2148 20.4478 24.0081 19.0727 24.0081C17.1905 24.0081 16.5397 23.216 16.3224 22.1342C16.2512 21.8468 16.0327 21.7019 15.8154 21.7019H14.5851C14.5183 21.7001 14.4518 21.712 14.3897 21.7367C14.3276 21.7614 14.2712 21.7985 14.2239 21.8457C14.1765 21.8929 14.1393 21.9492 14.1145 22.0113C14.0896 22.0733 14.0776 22.1398 14.0792 22.2066V22.2779C14.3678 24.0805 15.5268 25.3772 17.9149 25.7382V27.4684C17.9149 27.7558 18.1322 27.9731 18.4932 28.0444H19.5798C19.8683 28.0444 20.0856 27.8282 20.1581 27.4684V25.7371C22.33 25.3772 23.7764 23.8632 23.7764 21.9169V21.9181Z" fill="white"/>
<path d="M15.3092 29.4857C9.66385 27.4669 6.76873 21.1969 8.86823 15.6478C9.9536 12.6196 12.3417 10.3147 15.3092 9.23288C15.599 9.0892 15.7427 8.87307 15.7427 8.51207V7.5027C15.7427 7.21532 15.599 6.9992 15.3092 6.92676C15.2368 6.92676 15.0919 6.92676 15.0195 6.99801C13.3906 7.50651 11.8785 8.33222 10.5701 9.42759C9.26178 10.523 8.18304 11.8663 7.39605 13.3804C6.60906 14.8944 6.12938 16.5492 5.98462 18.2494C5.83987 19.9496 6.0329 21.6617 6.5526 23.2869C7.8541 27.3244 10.9665 30.4238 15.0195 31.7206C15.3092 31.8643 15.599 31.7206 15.6702 31.432C15.7427 31.3608 15.7427 31.2871 15.7427 31.1434V30.1341C15.7427 29.9179 15.5265 29.6306 15.3092 29.4857ZM22.9805 6.9992C22.6907 6.85432 22.401 6.9992 22.3297 7.28657C22.2573 7.35901 22.2573 7.43145 22.2573 7.57513V8.58451C22.2573 8.87307 22.4734 9.16044 22.6907 9.30532C28.3361 11.3241 31.2312 17.5941 29.1317 23.1433C28.0464 26.1714 25.6583 28.4763 22.6907 29.5581C22.401 29.7018 22.2573 29.9179 22.2573 30.2789V31.2883C22.2573 31.5757 22.401 31.7918 22.6907 31.8643C22.7632 31.8643 22.908 31.8643 22.9805 31.793C24.6094 31.2846 26.1216 30.459 27.4301 29.3637C28.7385 28.2683 29.8173 26.9249 30.6043 25.4109C31.3913 23.8968 31.871 22.242 32.0157 20.5417C32.1604 18.8414 31.9672 17.1294 31.4474 15.5041C30.1459 11.3953 26.961 8.29595 22.9805 6.9992Z" fill="white"/>
</svg>
