<svg width="18" height="19" viewBox="0 0 18 19" fill="none" xmlns="http://www.w3.org/2000/svg">
<g clip-path="url(#clip0_12405_34599)">
<path d="M9.18708 9.82143C11.5195 9.82143 13.4103 7.93063 13.4103 5.59821C13.4103 3.2658 11.5195 1.375 9.18708 1.375C6.85466 1.375 4.96387 3.2658 4.96387 5.59821C4.96387 7.93063 6.85466 9.82143 9.18708 9.82143Z" stroke="#0A1856" stroke-width="1.5" stroke-linecap="round" stroke-linejoin="round"/>
<path d="M9.1875 11.3574C6.95837 11.4185 4.77394 11.9968 2.80661 13.0467C2.30036 13.3036 1.8752 13.6958 1.57836 14.1797C1.28151 14.6636 1.12458 15.2203 1.125 15.788V16.3485C1.125 16.654 1.24635 16.9469 1.46235 17.1629C1.67835 17.3789 1.97131 17.5003 2.27679 17.5003H16.0982C16.4037 17.5003 16.6966 17.3789 16.9126 17.1629C17.1287 16.9469 17.25 16.654 17.25 16.3485V15.788C17.2504 15.2203 17.0935 14.6636 16.7966 14.1797C16.4998 13.6958 16.0746 13.3036 15.5684 13.0467C13.6011 11.9968 11.4166 11.4185 9.1875 11.3574V11.3574Z" stroke="#0A1856" stroke-width="1.5" stroke-linecap="round" stroke-linejoin="round"/>
</g>
<defs>
<clipPath id="clip0_12405_34599">
<rect width="18" height="19" fill="white"/>
</clipPath>
</defs>
</svg>
