<svg width="18" height="19" viewBox="0 0 18 19" fill="none" xmlns="http://www.w3.org/2000/svg">
<g clip-path="url(#clip0_18179_19573)">
<mask id="mask0_18179_19573" style="mask-type:luminance" maskUnits="userSpaceOnUse" x="0" y="0" width="18" height="19">
<path d="M18 0H0V19H18V0Z" fill="white"/>
</mask>
<g mask="url(#mask0_18179_19573)">
<path d="M9.18805 9.82143C11.5205 9.82143 13.4113 7.93063 13.4113 5.59821C13.4113 3.2658 11.5205 1.375 9.18805 1.375C6.85563 1.375 4.96484 3.2658 4.96484 5.59821C4.96484 7.93063 6.85563 9.82143 9.18805 9.82143Z" stroke="white" stroke-width="1.5" stroke-linecap="round" stroke-linejoin="round"/>
<path d="M9.1875 11.3594C6.95837 11.4205 4.77394 11.9988 2.80661 13.0487C2.30036 13.3056 1.8752 13.6978 1.57836 14.1817C1.28151 14.6656 1.12458 15.2223 1.125 15.79V16.3505C1.125 16.656 1.24635 16.9489 1.46235 17.1649C1.67835 17.3809 1.97131 17.5023 2.27679 17.5023H16.0982C16.4037 17.5023 16.6966 17.3809 16.9126 17.1649C17.1287 16.9489 17.25 16.656 17.25 16.3505V15.79C17.2504 15.2223 17.0935 14.6656 16.7966 14.1817C16.4998 13.6978 16.0746 13.3056 15.5684 13.0487C13.6011 11.9988 11.4166 11.4205 9.1875 11.3594Z" stroke="white" stroke-width="1.5" stroke-linecap="round" stroke-linejoin="round"/>
</g>
</g>
<defs>
<clipPath id="clip0_18179_19573">
<rect width="18" height="19" fill="white"/>
</clipPath>
</defs>
</svg>
