<svg width="41" height="13" viewBox="0 0 41 13" fill="none" xmlns="http://www.w3.org/2000/svg">
<path d="M17.3871 12.5378H14.1367L16.1698 0.628906H19.42L17.3871 12.5378Z" fill="#00579F"/>
<path d="M29.1707 0.921072C28.5296 0.680112 27.5127 0.414062 26.2554 0.414062C23.0455 0.414062 20.7851 2.03562 20.7713 4.35395C20.7446 6.06442 22.3896 7.01445 23.62 7.58477C24.8775 8.16755 25.305 8.54794 25.305 9.06741C25.2922 9.86522 24.2888 10.233 23.353 10.233C22.0553 10.233 21.36 10.0434 20.3033 9.59951L19.8753 9.40923L19.4204 12.0825C20.1828 12.4116 21.5873 12.7035 23.0455 12.7163C26.4561 12.7163 28.6764 11.1199 28.7027 8.64931C28.7157 7.29363 27.8471 6.25486 25.9744 5.40603C24.8375 4.86113 24.1413 4.49371 24.1413 3.93619C24.1546 3.42935 24.7302 2.91021 26.0135 2.91021C27.0702 2.88479 27.8465 3.12541 28.4347 3.3662L28.7287 3.49266L29.1707 0.921072Z" fill="#00579F"/>
<path d="M33.4908 8.31892C33.7585 7.63477 34.7885 4.9869 34.7885 4.9869C34.775 5.01233 35.0557 4.29012 35.2162 3.84676L35.4433 4.8729C35.4433 4.8729 36.0589 7.72351 36.1925 8.31892C35.6845 8.31892 34.1328 8.31892 33.4908 8.31892ZM37.503 0.628906H34.9889C34.2135 0.628906 33.6245 0.844103 33.29 1.61699L28.4619 12.5377H31.8725C31.8725 12.5377 32.434 11.0678 32.5546 10.7513C32.9288 10.7513 36.2466 10.7513 36.7279 10.7513C36.8212 11.1694 37.1157 12.5377 37.1157 12.5377H40.1253L37.503 0.628906Z" fill="#00579F"/>
<path d="M11.4224 0.628906L8.23921 8.74965L7.89136 7.10267C7.30285 5.20226 5.45716 3.13752 3.39746 2.11087L6.31317 12.5252H9.75039L14.8595 0.628906H11.4224Z" fill="#00579F"/>
<path d="M5.28308 0.628906H0.0535007L0 0.869529C4.0794 1.85779 6.78111 4.23994 7.89112 7.10317L6.75427 1.62996C6.56711 0.869361 5.99193 0.653996 5.28308 0.628906Z" fill="#FAA61A"/>
</svg>
