<svg width="18" height="18" viewBox="0 0 18 18" fill="none" xmlns="http://www.w3.org/2000/svg">
<path d="M12.3485 4.50256C12.3485 2.47421 10.7042 0.829866 8.67583 0.829866C7.69908 0.825761 6.76093 1.21087 6.0688 1.90008C5.37667 2.58929 4.98761 3.52581 4.98761 4.50256M12.2318 17.1701H5.13545C2.52879 17.1701 0.529059 16.2286 1.09708 12.4392L1.75847 7.30374C2.10861 5.41294 3.31468 4.6893 4.3729 4.6893H13.0254C14.0992 4.6893 15.2353 5.46741 15.6399 7.30374L16.3013 12.4392C16.7837 15.8007 14.8384 17.1701 12.2318 17.1701Z" stroke="#F8F8F8" stroke-width="1.6" stroke-linecap="round" stroke-linejoin="round"/>
<path d="M11.1965 8.33093H11.1582" stroke="#F8F8F8" stroke-width="1.6" stroke-linecap="round" stroke-linejoin="round"/>
<path d="M6.24076 8.33093H6.20166" stroke="#F8F8F8" stroke-width="1.6" stroke-linecap="round" stroke-linejoin="round"/>
</svg>
