<svg width="240" height="55" viewBox="0 0 240 55" fill="none" xmlns="http://www.w3.org/2000/svg">
<path d="M42.8894 20.998L42.7129 22.998H45.7129L45.5364 20.998" fill="#1F3162"/>
<path d="M33.7843 17.998L33.7129 20.8425L38.7129 21.998L38.6415 19.3314" fill="#1F3162"/>
<path d="M44.2072 2.02193L3.38589 10.5024C1.54559 10.7543 1.79654 12.0977 1.79654 12.0977L1.71289 17.3036L3.5532 15.9601L3.63685 13.5252C3.63685 13.0214 3.97145 12.5176 4.3897 12.3496C5.97905 11.6779 9.40871 11.0902 10.2452 10.9222C10.3289 10.9222 10.4125 11.0062 10.4125 11.0902V12.9374C9.40871 13.1893 9.07411 13.861 8.90681 14.3648C8.65586 14.9526 8.65586 15.5403 8.90681 16.212C9.24141 16.9677 9.91061 17.6394 10.7471 17.8074C12.3365 18.1432 13.7585 16.9677 13.7585 15.3724C13.7585 14.7846 13.5076 14.1969 13.173 13.6931C12.8384 13.2733 12.4201 13.1053 12.3365 13.0214C12.3365 13.0214 12.3365 13.0214 12.3365 12.9374L12.4201 10.7543C12.4201 10.5864 12.5038 10.5024 12.6711 10.5024L39.2718 5.29657C39.3555 5.29657 39.4391 5.38053 39.4391 5.38053L39.3555 9.91465C39.3555 9.99862 39.2718 10.0826 39.1882 10.0826L31.1578 11.594C30.7395 11.0902 30.0703 10.7543 29.3175 10.7543C28.4809 10.7543 27.8118 11.0902 27.3098 11.6779L25.3022 10.5024C25.1349 10.4184 24.884 10.3345 24.7167 10.4184L18.0247 12.3496C17.8574 12.4336 17.7737 12.5176 17.7737 12.6855L17.6901 16.38L19.4467 16.6319L19.5304 14.1969C19.5304 14.0289 19.614 13.861 19.7813 13.861L24.7167 12.6015C24.9676 12.5176 25.2186 12.6015 25.3859 12.6855L26.7243 13.5252C26.8916 14.7846 27.8954 15.7082 29.1502 15.7922C30.4886 15.7922 31.576 14.7846 31.6597 13.5252L39.1045 12.0977C41.1121 11.8458 41.0285 10.6703 41.0285 10.6703L41.1121 5.88432C41.1121 5.29657 41.4467 4.79278 41.9486 4.54088C41.9486 4.54088 41.9486 4.54088 42.0323 4.54088C43.0361 4.12106 44.0399 4.28899 44.0399 5.38053L43.9562 11.6779C43.9562 11.9298 43.7889 12.0977 43.6216 12.1817L38.3517 14.1969C38.1844 14.2808 38.1007 14.4488 38.1007 14.6167L38.0171 18.4791C38.0171 18.5631 37.9334 18.647 37.8498 18.647H36.1768C36.0095 18.647 35.9258 18.5631 35.9258 18.3951V16.7158C35.9258 16.6319 35.8422 16.4639 35.6749 16.4639H34.3365C34.1692 16.4639 34.0855 16.5479 34.0855 16.7158L34.0019 19.3187L39.5228 20.4103L39.6064 16.0441C39.6064 15.8762 39.6901 15.7082 39.8574 15.7082L43.4543 14.3648C43.6216 14.2808 43.7889 14.4488 43.7889 14.6167L43.7053 20.998H45.3783L45.7129 3.5333C45.5456 1.68607 44.2072 2.02193 44.2072 2.02193Z" fill="#1682A9"/>
<path d="M11.2129 14.998C11.489 14.998 11.7129 14.7742 11.7129 14.498C11.7129 14.2219 11.489 13.998 11.2129 13.998C10.9367 13.998 10.7129 14.2219 10.7129 14.498C10.7129 14.7742 10.9367 14.998 11.2129 14.998Z" fill="white"/>
<path d="M28.7129 13.998C29.2652 13.998 29.7129 13.5503 29.7129 12.998C29.7129 12.4458 29.2652 11.998 28.7129 11.998C28.1606 11.998 27.7129 12.4458 27.7129 12.998C27.7129 13.5503 28.1606 13.998 28.7129 13.998Z" fill="white"/>
<path d="M0.162782 18.0135C0.162782 16.6299 0.813909 15.2462 2.03477 14.5137C2.84868 14.0253 4.06955 13.7812 5.61597 14.1881L41.9163 19.2344C41.9163 19.2344 42.0791 19.2344 42.4047 19.3158C46.23 19.8855 48.9973 23.2225 48.9973 27.0479V33.1522L40.6141 32.4197C40.0443 32.3383 39.4746 32.4197 38.9863 32.6639C38.2537 32.9894 37.3584 33.9661 37.3584 35.4312C37.3584 35.4312 37.0329 38.6868 40.2071 38.6868L48.9159 39.5007V47.884C48.9159 48.7793 48.6718 49.6746 48.102 50.4071C47.2881 51.4652 45.5789 52.5233 42.2419 51.7093C36.0562 50.3257 5.3718 47.0701 5.3718 47.0701C5.3718 47.0701 0 46.1748 0 40.0704V18.0135H0.162782Z" fill="white"/>
<path d="M18.7129 38.998C19.2652 38.998 19.7129 38.5503 19.7129 37.998C19.7129 37.4458 19.2652 36.998 18.7129 36.998C18.1606 36.998 17.7129 37.4458 17.7129 37.998C17.7129 38.5503 18.1606 38.998 18.7129 38.998Z" fill="white"/>
<path d="M8.71289 35.998C9.26517 35.998 9.71289 35.3265 9.71289 34.498C9.71289 33.6696 9.26517 32.998 8.71289 32.998C8.16061 32.998 7.71289 33.6696 7.71289 34.498C7.71289 35.3265 8.16061 35.998 8.71289 35.998Z" fill="white"/>
<path d="M48.7531 35.7567C48.9973 36.8962 48.0206 37.9542 46.7997 37.7101C46.23 37.5473 45.823 37.1403 45.6602 36.5706C45.4161 35.4311 46.3927 34.373 47.6136 34.6172C48.1833 34.78 48.5903 35.1869 48.7531 35.7567Z" fill="#1682A9"/>
<path d="M11.3947 34.5358C11.3947 33.1522 10.2552 32.0941 8.95296 32.0941C7.56931 32.0941 6.51123 33.2336 6.51123 34.5358C6.51123 35.5939 7.24375 36.4892 8.22044 36.8962V47.3142C8.70879 47.3142 9.19713 47.3956 9.68548 47.477V36.8962C10.6622 36.5706 11.3947 35.5939 11.3947 34.5358ZM8.95296 35.5939C8.38322 35.5939 7.89488 35.1056 7.89488 34.5358C7.89488 33.9661 8.38322 33.4778 8.95296 33.4778C9.52269 33.4778 10.011 33.9661 10.011 34.5358C10.011 35.1056 9.52269 35.5939 8.95296 35.5939Z" fill="#1682A9"/>
<path d="M8.22021 47.3142L9.68525 47.477V47.3956L8.22021 47.1514" fill="#1682A9"/>
<path d="M18.2678 34.998C16.837 34.998 15.7429 35.9792 15.7429 37.2622C15.7429 37.6396 15.827 37.9414 15.9954 38.2433L12.7129 40.8848V46.6962V46.8471L14.0595 46.998V41.6396L17.0053 39.2245C17.342 39.3754 17.7628 39.5263 18.1837 39.5263C19.6145 39.5263 20.7086 38.5452 20.7086 37.2622C20.7928 35.9792 19.6145 34.998 18.2678 34.998ZM18.2678 38.1679C17.6787 38.1679 17.1737 37.715 17.1737 37.1867C17.1737 36.6584 17.6787 36.2056 18.2678 36.2056C18.857 36.2056 19.362 36.6584 19.362 37.1867C19.362 37.7905 18.857 38.1679 18.2678 38.1679Z" fill="#1682A9"/>
<path d="M74.1474 32.6638C73.7405 33.3149 73.2521 33.8846 72.6824 34.4544C72.1127 35.0241 71.5429 35.4311 70.8104 35.838C70.1593 36.245 69.4268 36.4892 68.6942 36.7333C67.9617 36.9775 67.1478 37.0589 66.3339 37.0589C65.0316 37.0589 63.8922 36.8147 62.7527 36.3264C61.6132 35.838 60.6365 35.1869 59.8226 34.373C59.0087 33.5591 58.3576 32.5824 57.8692 31.4429C57.3809 30.3035 57.1367 29.164 57.1367 27.8617C57.1367 26.5595 57.3809 25.42 57.8692 24.2805C58.3576 23.141 59.0087 22.1644 59.8226 21.3504C60.6365 20.5365 61.6132 19.8854 62.7527 19.3971C63.8922 18.9087 65.0316 18.6646 66.3339 18.6646C67.1478 18.6646 67.9617 18.7459 68.6942 18.9901C69.4268 19.2343 70.1593 19.4785 70.8104 19.8854C71.4615 20.2924 72.1127 20.6993 72.6824 21.2691C73.2521 21.8388 73.7405 22.4085 74.1474 23.0597L71.136 25.013C70.6476 24.1177 69.9965 23.3852 69.1826 22.8155C68.3687 22.2458 67.392 22.0016 66.3339 22.0016C65.6014 22.0016 64.8689 22.1644 64.2177 22.4899C63.5666 22.8155 62.9969 23.2224 62.5085 23.7922C62.0202 24.3619 61.6132 24.9317 61.3691 25.6642C61.0435 26.3967 60.9621 27.1292 60.9621 28.0245C60.9621 28.9198 61.1249 29.6523 61.3691 30.3848C61.6946 31.1174 62.0202 31.7685 62.5085 32.2568C62.9969 32.8266 63.5666 33.2335 64.2177 33.5591C64.8689 33.8847 65.6014 34.0474 66.3339 34.0474C67.392 34.0474 68.3687 33.8033 69.1826 33.2335C69.9965 32.6638 70.6476 31.9313 71.136 31.036L74.1474 32.6638Z" fill="white"/>
<path d="M87.9027 23.955V36.8147H84.5657V30.3848C84.5657 29.8965 84.4843 29.4082 84.3215 29.0012C84.1587 28.5942 83.8332 28.1873 83.5076 27.8617C83.182 27.5362 82.7751 27.292 82.3681 27.1292C81.9612 26.9664 81.4728 26.885 80.9845 26.885C80.4961 26.885 80.0078 26.9664 79.6008 27.1292C79.1939 27.292 78.7869 27.5362 78.4614 27.8617C78.1358 28.1873 77.8916 28.5942 77.6475 29.0012C77.4847 29.4082 77.4033 29.8965 77.4033 30.3848C77.4033 30.8732 77.4847 31.2801 77.6475 31.7685C77.8102 32.1754 78.1358 32.5824 78.4614 32.908C78.7869 33.2335 79.1939 33.4777 79.6008 33.6405C80.0078 33.8033 80.4961 33.8847 80.9845 33.8847C81.5542 33.8847 81.9612 33.8033 82.3681 33.6405V33.7219L83.6704 36.0008C82.8565 36.6519 81.7984 36.9775 80.5775 36.9775C79.6822 36.9775 78.7869 36.8147 77.973 36.4892C77.1591 36.1636 76.508 35.6753 75.8569 35.1055C75.2871 34.5358 74.7988 33.8033 74.4732 32.9893C74.1476 32.1754 73.9849 31.3615 73.9849 30.3848C73.9849 29.4895 74.1476 28.5942 74.4732 27.7803C74.7988 26.9664 75.2871 26.3153 75.8569 25.6642C76.4266 25.0944 77.1591 24.6061 77.973 24.2805C78.7869 23.955 79.6008 23.7922 80.5775 23.7922C81.4728 23.7922 82.2053 23.955 82.9379 24.2805C83.589 24.6061 84.1587 25.0944 84.6471 25.7456V24.0364H87.9027V23.955Z" fill="white"/>
<path d="M97.1808 23.7922C98.0761 23.7922 98.9714 23.955 99.7854 24.2805C100.599 24.6061 101.332 25.0944 101.902 25.7456C102.471 26.3153 102.96 27.0478 103.367 27.8617C103.692 28.6756 103.855 29.4895 103.855 30.4662C103.855 31.4429 103.692 32.2568 103.367 33.0707C103.041 33.8847 102.553 34.6172 101.902 35.1869C101.332 35.7566 100.599 36.245 99.7854 36.6519C98.9714 36.9775 98.0761 37.1403 97.1808 37.1403C95.8786 37.1403 94.9019 36.8147 94.0066 36.0822L95.3089 33.7219C95.7972 33.966 96.2041 34.0474 96.6925 34.0474C97.1808 34.0474 97.6692 33.966 98.0761 33.8033C98.4831 33.6405 98.89 33.3149 99.2156 32.9893C99.5412 32.6638 99.7853 32.2568 100.03 31.8499C100.192 31.3615 100.274 30.9546 100.274 30.3848C100.274 29.8965 100.192 29.4082 100.03 29.0012C99.8667 28.5942 99.5412 28.1873 99.2156 27.8617C98.89 27.5362 98.4831 27.292 98.0761 27.0478C97.6692 26.885 97.1808 26.8036 96.6925 26.8036C96.2041 26.8036 95.7158 26.885 95.3089 27.0478C94.9019 27.2106 94.4949 27.4548 94.1694 27.7803C93.8438 28.1059 93.5996 28.5128 93.4369 28.9198C93.2741 29.3268 93.1927 29.8151 93.1927 30.3035V41.7796H89.6929V23.7922H93.1927V25.5014C94.088 24.4433 95.4716 23.7922 97.1808 23.7922Z" fill="white"/>
<path d="M108.657 18.8273H105.239V21.8387H108.657V18.8273Z" fill="white"/>
<path d="M108.657 23.955H105.239V36.8147H108.657V23.955Z" fill="white"/>
<path d="M115.169 32.4196C115.169 32.8266 115.331 33.1521 115.576 33.3963C115.82 33.6405 116.227 33.8033 116.552 33.8033H119.075V36.8147H116.552C115.901 36.8147 115.25 36.652 114.68 36.4078C114.111 36.1636 113.541 35.8381 113.134 35.3497C112.727 34.9428 112.32 34.373 112.076 33.8033C111.832 33.2335 111.669 32.5824 111.669 31.9313V28.1059H109.797V25.3386H111.669V20.6993H115.087V32.4196H115.169Z" fill="white"/>
<path d="M119.075 25.3386V28.1872H117.203L115.575 25.3386H119.075Z" fill="white"/>
<path d="M134.133 23.955V36.8147H130.796V30.3848C130.796 29.8965 130.714 29.4082 130.551 29.0012C130.389 28.5942 130.063 28.1873 129.738 27.8617C129.412 27.5362 129.005 27.292 128.598 27.1292C128.191 26.9664 127.703 26.885 127.214 26.885C126.726 26.885 126.238 26.9664 125.831 27.1292C125.424 27.292 125.017 27.5362 124.691 27.8617C124.366 28.1873 124.122 28.5942 123.877 29.0012C123.715 29.4082 123.633 29.8965 123.633 30.3848C123.633 30.8732 123.715 31.2801 123.877 31.7685C124.04 32.1754 124.366 32.5824 124.691 32.908C125.017 33.2335 125.424 33.4777 125.831 33.6405C126.238 33.8033 126.726 33.8847 127.214 33.8847C127.784 33.8847 128.191 33.8033 128.598 33.6405V33.7219L129.9 36.0008C129.086 36.6519 128.028 36.9775 126.808 36.9775C125.912 36.9775 125.017 36.8147 124.203 36.4892C123.389 36.1636 122.738 35.6753 122.087 35.1055C121.517 34.5358 121.029 33.8033 120.703 32.9893C120.378 32.1754 120.215 31.3615 120.215 30.3848C120.215 29.4895 120.378 28.5942 120.703 27.7803C121.029 26.9664 121.517 26.3153 122.087 25.6642C122.657 25.0944 123.389 24.6061 124.203 24.2805C125.017 23.955 125.831 23.7922 126.808 23.7922C127.703 23.7922 128.435 23.955 129.168 24.2805C129.819 24.6061 130.389 25.0944 130.877 25.7456V24.0364H134.133V23.955Z" fill="white"/>
<path d="M139.342 18.8273V36.8147H135.923L136.005 18.8273H139.342Z" fill="white"/>
<path d="M149.19 18.8273L152.039 30.629L149.19 34.2102L145.527 18.8273H149.19Z" fill="white"/>
<path d="M165.061 18.8273H168.805L164.41 36.8147H159.689L157.085 25.9083L154.643 36.8147H150.899L155.294 18.8273H158.957L162.049 33.6404L165.061 18.8273Z" fill="white"/>
<path d="M181.909 23.955V36.8147H178.572V30.3848C178.572 29.8965 178.491 29.4082 178.328 29.0012C178.165 28.5942 177.84 28.1873 177.514 27.8617C177.188 27.5362 176.781 27.292 176.374 27.1292C175.968 26.9664 175.479 26.885 174.991 26.885C174.502 26.885 174.014 26.9664 173.607 27.1292C173.2 27.292 172.793 27.5362 172.468 27.8617C172.142 28.1873 171.898 28.5942 171.654 29.0012C171.491 29.4082 171.41 29.8965 171.41 30.3848C171.41 30.8732 171.491 31.2801 171.654 31.7685C171.817 32.1754 172.142 32.5824 172.468 32.908C172.793 33.2335 173.2 33.4777 173.607 33.6405C174.014 33.8033 174.502 33.8847 174.991 33.8847C175.561 33.8847 175.968 33.8033 176.374 33.6405V33.7219L177.677 36.0008C176.863 36.6519 175.805 36.9775 174.584 36.9775C173.689 36.9775 172.793 36.8147 171.979 36.4892C171.165 36.1636 170.514 35.6753 169.863 35.1055C169.293 34.5358 168.805 33.8033 168.48 32.9893C168.154 32.1754 167.991 31.3615 167.991 30.3848C167.991 29.4895 168.154 28.5942 168.48 27.7803C168.805 26.9664 169.293 26.3153 169.863 25.6642C170.433 25.0944 171.165 24.6061 171.979 24.2805C172.793 23.955 173.607 23.7922 174.584 23.7922C175.479 23.7922 176.212 23.955 176.944 24.2805C177.595 24.6061 178.165 25.0944 178.653 25.7456V24.0364H181.909V23.955Z" fill="white"/>
<path d="M187.118 18.8273V36.8147H183.7V18.8273H187.118Z" fill="white"/>
<path d="M192.083 18.8273V36.8147H188.665V18.8273H192.083Z" fill="white"/>
<path d="M199.978 23.7922C200.873 23.7922 201.769 23.955 202.582 24.2805C203.396 24.6061 204.047 25.0944 204.699 25.6642C205.268 26.2339 205.757 26.9664 206.082 27.7803C206.408 28.5942 206.571 29.4081 206.571 30.3848C206.571 30.8732 206.489 31.3615 206.408 31.8499V31.9313H199.897L198.269 29.3268H203.152C202.908 28.5942 202.501 28.0245 201.931 27.5362C201.362 27.0478 200.71 26.8036 199.978 26.8036C199.49 26.8036 199.083 26.885 198.676 27.0478C198.269 27.2106 197.943 27.4548 197.618 27.7803C197.292 28.1059 197.048 28.4315 196.885 28.9198C196.722 29.3268 196.641 29.8151 196.641 30.3035C196.641 30.7104 196.722 31.1174 196.885 31.5243C197.048 31.9313 197.292 32.3382 197.536 32.6638C197.862 32.9894 198.187 33.3149 198.594 33.5591C199.001 33.8033 199.49 33.8847 199.978 33.8847C200.466 33.8847 200.873 33.8033 201.28 33.7219C201.687 33.5591 202.013 33.3149 202.338 32.8266H202.42L205.431 34.1288L205.35 34.2102C204.699 35.1055 203.966 35.7566 202.989 36.245C202.013 36.7333 201.036 36.9775 199.978 36.9775C199.083 36.9775 198.187 36.8147 197.373 36.4892C196.559 36.1636 195.827 35.6753 195.257 35.1055C194.687 34.5358 194.199 33.8033 193.874 32.9893C193.548 32.1754 193.385 31.3615 193.385 30.3848C193.385 29.4895 193.548 28.5942 193.874 27.7803C194.199 26.9664 194.687 26.3153 195.257 25.6642C195.827 25.0944 196.559 24.6061 197.373 24.2805C198.187 23.955 199.083 23.7922 199.978 23.7922Z" fill="white"/>
<path d="M212.919 32.4196C212.919 32.8266 213.082 33.1521 213.326 33.3963C213.57 33.6405 213.977 33.8033 214.303 33.8033H216.826V36.8147H214.303C213.652 36.8147 213.001 36.652 212.431 36.4078C211.861 36.1636 211.291 35.8381 210.884 35.3497C210.477 34.9428 210.07 34.373 209.826 33.8033C209.582 33.2335 209.419 32.5824 209.419 31.9313V28.1059H207.547V25.3386H209.419V20.6993H212.838V32.4196H212.919Z" fill="white"/>
<path d="M216.826 25.3386V28.1872H214.954L213.326 25.3386H216.826Z" fill="white"/>
</svg>
