<svg width="41" height="41" viewBox="0 0 41 41" fill="none" xmlns="http://www.w3.org/2000/svg">
<path d="M20.1033 40.3994C31.2067 40.3994 40.2067 31.4457 40.2067 20.3994C40.2067 9.35316 31.2067 0.399414 20.1033 0.399414C9.00001 0.399414 0 9.35316 0 20.3994C0 31.4457 9.00001 40.3994 20.1033 40.3994Z" fill="#23292F"/>
<path d="M28.9863 10.4004H32.6175L25.0599 17.8466C23.7385 19.1418 21.9581 19.8678 20.1032 19.8678C18.2482 19.8678 16.4678 19.1418 15.1464 17.8466L7.58255 10.4004H11.22L16.962 16.0541C17.7982 16.8752 18.9258 17.3356 20.1006 17.3356C21.2755 17.3356 22.4031 16.8752 23.2393 16.0541L28.9863 10.4004ZM11.176 31.1041H7.53857L15.1464 23.6129C16.4678 22.3177 18.2482 21.5917 20.1032 21.5917C21.9581 21.5917 23.7385 22.3177 25.0599 23.6129L32.6677 31.1029H29.0303L23.2443 25.4004C22.4081 24.5793 21.2805 24.1189 20.1057 24.1189C18.9308 24.1189 17.8032 24.5793 16.967 25.4004L11.1748 31.1041H11.176Z" fill="white"/>
</svg>
